<svg width="262" height="96" viewBox="0 0 262 96" fill="none" xmlns="http://www.w3.org/2000/svg">
<path fill-rule="evenodd" clip-rule="evenodd" d="M249.069 0C255.691 0 261.06 5.36844 261.06 11.9908V64.1199C261.06 70.7423 255.691 76.1107 249.069 76.1107H49.8702C46.1989 83.0529 38.1862 91.8361 26.2292 95.8074C30.9919 87.8894 32.9601 82.084 31.9024 76.1107H11.9908C5.36845 76.1107 0 70.7423 0 64.12V11.9908C0 5.36846 5.36848 0 11.9908 0H249.069Z" fill="#E5E5E5"/>
<path d="M46.0394 32.5C46.6901 32.5 47.2237 32.4414 47.6402 32.3243C48.0697 32.2072 48.408 32.0445 48.6553 31.8362C48.9026 31.615 49.0718 31.3547 49.1629 31.0554C49.267 30.743 49.3191 30.3916 49.3191 30.0012C49.3191 29.1943 49.0783 28.5696 48.5967 28.1271C48.1152 27.6846 47.3148 27.4633 46.1956 27.4633H42.8768V32.5H46.0394ZM46.0003 25.9406C47.0545 25.9406 47.8029 25.7454 48.2454 25.355C48.7009 24.9645 48.9286 24.4049 48.9286 23.6761C48.9286 22.9212 48.6813 22.3746 48.1868 22.0363C47.7052 21.6979 46.8723 21.5287 45.688 21.5287H42.8768V25.9406H46.0003ZM45.7466 20.045C46.7357 20.045 47.5491 20.1426 48.1868 20.3378C48.8245 20.5201 49.3256 20.7738 49.69 21.0992C50.0674 21.4116 50.3277 21.789 50.4708 22.2315C50.614 22.661 50.6856 23.1165 50.6856 23.598C50.6856 24.2357 50.5424 24.8149 50.2561 25.3354C49.9698 25.856 49.4557 26.279 48.7139 26.6044C49.1824 26.7866 49.5663 27.0013 49.8657 27.2486C50.178 27.4959 50.4253 27.7627 50.6075 28.049C50.8027 28.3353 50.9329 28.6412 50.9979 28.9665C51.076 29.2919 51.1151 29.6172 51.1151 29.9426C51.1151 30.5153 51.024 31.0489 50.8418 31.5434C50.6726 32.0249 50.3928 32.4479 50.0023 32.8123C49.6119 33.1767 49.0978 33.4631 48.4601 33.6713C47.8224 33.8795 47.035 33.9836 46.0979 33.9836H41.1199V20.045H45.7466ZM53.2007 33.9836V23.7737H54.8796V28.2052H55.5629C55.8101 28.2052 56.0249 28.1791 56.2071 28.1271C56.4023 28.075 56.578 27.9904 56.7342 27.8733C56.8903 27.7431 57.0335 27.5805 57.1636 27.3852C57.2938 27.19 57.4304 26.9428 57.5736 26.6434L58.1593 25.4331C58.3024 25.1337 58.4456 24.8799 58.5887 24.6717C58.7449 24.4635 58.9141 24.2943 59.0963 24.1641C59.2915 24.021 59.5128 23.9234 59.7601 23.8713C60.0073 23.8062 60.3002 23.7737 60.6385 23.7737C60.8207 23.7737 60.9899 23.7867 61.1461 23.8127C61.3153 23.8388 61.4389 23.8648 61.517 23.8908L61.3413 25.1988C61.3023 25.1728 61.2242 25.1532 61.1071 25.1402C60.9899 25.1272 60.8598 25.1207 60.7166 25.1207C60.3783 25.1207 60.1245 25.1988 59.9553 25.355C59.7991 25.4981 59.6494 25.7324 59.5063 26.0578L58.9401 27.2876C58.784 27.652 58.6018 27.9514 58.3935 28.1856C58.1983 28.4069 57.9445 28.5891 57.6322 28.7323C57.9055 28.8364 58.1463 28.986 58.3545 29.1813C58.5627 29.3765 58.784 29.6433 59.0182 29.9817L61.6927 33.9836H59.7405L57.3979 30.4697C57.1636 30.1183 56.9294 29.858 56.6951 29.6888C56.4609 29.5196 56.129 29.435 55.6995 29.435H54.8796V33.9836H53.2007ZM70.2528 25.1598H66.8755L66.446 28.6737C66.3289 29.6498 66.1662 30.4827 65.958 31.1725C65.7497 31.8493 65.4829 32.4089 65.1576 32.8514C64.8322 33.2809 64.4418 33.5932 63.9862 33.7884C63.5437 33.9836 63.0232 34.0813 62.4245 34.0813H62.0926V32.6562H62.2878C62.6262 32.6562 62.9256 32.5911 63.1858 32.4609C63.4592 32.3308 63.6999 32.0965 63.9082 31.7581C64.1294 31.4198 64.3181 30.9512 64.4743 30.3526C64.6305 29.7539 64.7606 28.9925 64.8647 28.0685L65.3528 23.7737H71.9512V33.9836H70.2528V25.1598ZM76.2321 23.7737V28.1271H78.4576C78.5877 26.6825 79.0563 25.5437 79.8632 24.7107C80.6831 23.8778 81.7763 23.4613 83.1428 23.4613C83.8847 23.4613 84.5419 23.5915 85.1146 23.8518C85.6872 24.0991 86.1752 24.457 86.5787 24.9255C86.9822 25.381 87.288 25.9406 87.4962 26.6044C87.7045 27.2681 87.8086 28.0099 87.8086 28.8299C87.8086 29.6628 87.698 30.4176 87.4767 31.0944C87.2685 31.7712 86.9626 32.3503 86.5592 32.8319C86.1687 33.3004 85.6807 33.6648 85.095 33.9251C84.5094 34.1724 83.8456 34.296 83.1038 34.296C81.6592 34.296 80.5399 33.8665 79.746 33.0075C78.9522 32.1486 78.5097 30.9643 78.4186 29.4546H76.2321V33.9836H74.5337V23.7737H76.2321ZM83.1233 32.8904C83.6439 32.8904 84.0864 32.7928 84.4508 32.5976C84.8152 32.3894 85.1146 32.1095 85.3488 31.7581C85.5831 31.3937 85.7523 30.9643 85.8564 30.4697C85.9605 29.9751 86.0126 29.435 86.0126 28.8494C86.0126 28.2637 85.9605 27.7301 85.8564 27.2486C85.7523 26.754 85.5831 26.3311 85.3488 25.9797C85.1146 25.6283 84.8152 25.355 84.4508 25.1598C84.0864 24.9645 83.6439 24.8669 83.1233 24.8669C82.6027 24.8669 82.1537 24.9645 81.7763 25.1598C81.4119 25.355 81.1061 25.6348 80.8588 25.9992C80.6245 26.3506 80.4488 26.7736 80.3317 27.2681C80.2276 27.7497 80.1755 28.2833 80.1755 28.8689C80.1755 29.4546 80.2276 29.9947 80.3317 30.4892C80.4488 30.9838 80.6245 31.4068 80.8588 31.7581C81.0931 32.1095 81.3924 32.3894 81.7568 32.5976C82.1342 32.7928 82.5897 32.8904 83.1233 32.8904ZM95.9858 29.8645C95.6344 29.9817 95.231 30.0793 94.7755 30.1574C94.333 30.2224 93.897 30.255 93.4675 30.255C92.7387 30.255 92.127 30.1639 91.6324 29.9817C91.1379 29.7995 90.7409 29.5522 90.4416 29.2398C90.1423 28.9275 89.921 28.5566 89.7779 28.1271C89.6477 27.6976 89.5826 27.2356 89.5826 26.741V23.7737H91.281V26.3115C91.281 27.2226 91.4763 27.8733 91.8667 28.2637C92.2571 28.6412 92.9014 28.8299 93.7994 28.8299C94.1768 28.8299 94.5542 28.8038 94.9316 28.7518C95.3091 28.6867 95.6604 28.5891 95.9858 28.4589V23.7737H97.6842V33.9836H95.9858V29.8645ZM106.595 32.5976C106.231 33.0401 105.769 33.424 105.209 33.7494C104.65 34.0617 103.953 34.2179 103.12 34.2179C102.613 34.2179 102.144 34.1528 101.715 34.0227C101.298 33.9056 100.934 33.7234 100.621 33.4761C100.322 33.2158 100.088 32.8969 99.9187 32.5195C99.7495 32.1421 99.6649 31.6996 99.6649 31.192C99.6649 30.4892 99.8081 29.9166 100.094 29.4741C100.394 29.0186 100.784 28.6672 101.266 28.4199C101.76 28.1596 102.313 27.9839 102.925 27.8928C103.537 27.7887 104.168 27.7236 104.819 27.6976L106.556 27.639V27.2291C106.556 26.3701 106.374 25.7519 106.01 25.3745C105.645 24.9971 105.053 24.8084 104.233 24.8084C103.426 24.8084 102.834 24.945 102.457 25.2183C102.079 25.4786 101.832 25.843 101.715 26.3115L100.172 26.1358C100.355 25.2118 100.791 24.5416 101.48 24.1251C102.17 23.6956 103.107 23.4809 104.292 23.4809C105.02 23.4809 105.632 23.572 106.127 23.7542C106.634 23.9234 107.044 24.1706 107.357 24.496C107.669 24.8214 107.89 25.2248 108.02 25.7064C108.163 26.1879 108.235 26.728 108.235 27.3267V33.9836H106.595V32.5976ZM106.556 28.8494L104.936 28.908C104.246 28.934 103.673 28.9991 103.218 29.1032C102.762 29.2073 102.398 29.3504 102.125 29.5327C101.864 29.7149 101.676 29.9426 101.559 30.2159C101.454 30.4762 101.402 30.7886 101.402 31.153C101.402 31.6605 101.552 32.0705 101.851 32.3828C102.164 32.6822 102.671 32.8319 103.374 32.8319C104.376 32.8319 105.157 32.5846 105.717 32.09C106.276 31.5955 106.556 30.9187 106.556 30.0597V28.8494ZM112.492 23.7737V28.1271H114.718C114.848 26.6825 115.317 25.5437 116.124 24.7107C116.943 23.8778 118.037 23.4613 119.403 23.4613C120.145 23.4613 120.802 23.5915 121.375 23.8518C121.948 24.0991 122.436 24.457 122.839 24.9255C123.243 25.381 123.548 25.9406 123.757 26.6044C123.965 27.2681 124.069 28.0099 124.069 28.8299C124.069 29.6628 123.958 30.4176 123.737 31.0944C123.529 31.7712 123.223 32.3503 122.82 32.8319C122.429 33.3004 121.941 33.6648 121.355 33.9251C120.77 34.1724 120.106 34.296 119.364 34.296C117.92 34.296 116.8 33.8665 116.006 33.0075C115.213 32.1486 114.77 30.9643 114.679 29.4546H112.492V33.9836H110.794V23.7737H112.492ZM119.384 32.8904C119.904 32.8904 120.347 32.7928 120.711 32.5976C121.076 32.3894 121.375 32.1095 121.609 31.7581C121.843 31.3937 122.013 30.9643 122.117 30.4697C122.221 29.9751 122.273 29.435 122.273 28.8494C122.273 28.2637 122.221 27.7301 122.117 27.2486C122.013 26.754 121.843 26.3311 121.609 25.9797C121.375 25.6283 121.076 25.355 120.711 25.1598C120.347 24.9645 119.904 24.8669 119.384 24.8669C118.863 24.8669 118.414 24.9645 118.037 25.1598C117.672 25.355 117.366 25.6348 117.119 25.9992C116.885 26.3506 116.709 26.7736 116.592 27.2681C116.488 27.7497 116.436 28.2833 116.436 28.8689C116.436 29.4546 116.488 29.9947 116.592 30.4892C116.709 30.9838 116.885 31.4068 117.119 31.7581C117.353 32.1095 117.653 32.3894 118.017 32.5976C118.395 32.7928 118.85 32.8904 119.384 32.8904ZM139.463 30.5673C139.293 31.7256 138.851 32.6366 138.135 33.3004C137.419 33.9641 136.411 34.296 135.109 34.296C134.341 34.296 133.658 34.1724 133.059 33.9251C132.474 33.6778 131.979 33.3199 131.576 32.8514C131.185 32.3828 130.886 31.8167 130.678 31.153C130.482 30.4892 130.385 29.7409 130.385 28.908C130.385 28.088 130.496 27.3462 130.717 26.6825C130.938 26.0057 131.257 25.4331 131.673 24.9645C132.09 24.483 132.597 24.1121 133.196 23.8518C133.795 23.5915 134.471 23.4613 135.226 23.4613C136.437 23.4613 137.374 23.7607 138.037 24.3594C138.701 24.945 139.124 25.7584 139.306 26.7996L137.608 27.1119C137.543 26.7866 137.452 26.4872 137.335 26.2139C137.231 25.9406 137.081 25.7064 136.886 25.5111C136.69 25.3029 136.45 25.1467 136.163 25.0426C135.89 24.9255 135.558 24.8669 135.168 24.8669C134.634 24.8669 134.179 24.971 133.801 25.1793C133.424 25.3745 133.111 25.6543 132.864 26.0187C132.63 26.3831 132.454 26.8126 132.337 27.3072C132.233 27.7887 132.181 28.3093 132.181 28.8689C132.181 29.4416 132.233 29.9751 132.337 30.4697C132.441 30.9512 132.61 31.3742 132.845 31.7386C133.079 32.09 133.385 32.3698 133.762 32.5781C134.14 32.7863 134.602 32.8904 135.148 32.8904C135.968 32.8904 136.573 32.6822 136.964 32.2657C137.367 31.8493 137.628 31.2831 137.745 30.5673H139.463ZM141.602 33.9836V23.7737H143.3V32.539H148.122V23.7737H149.821V32.539H151.012V36.7167H149.469V33.9836H141.602ZM161.348 31.153C161.179 32.1291 160.743 32.8969 160.04 33.4566C159.35 34.0162 158.355 34.296 157.053 34.296C155.517 34.296 154.34 33.8275 153.52 32.8904C152.7 31.9404 152.29 30.6259 152.29 28.947C152.29 28.075 152.407 27.3007 152.641 26.6239C152.875 25.9341 153.201 25.355 153.617 24.8864C154.047 24.4179 154.554 24.0665 155.14 23.8323C155.726 23.585 156.363 23.4613 157.053 23.4613C157.834 23.4613 158.504 23.585 159.064 23.8323C159.624 24.0795 160.079 24.4244 160.43 24.8669C160.795 25.3094 161.062 25.8365 161.231 26.4482C161.413 27.0599 161.504 27.7236 161.504 28.4394V29.2789H154.008C154.008 29.8125 154.073 30.3005 154.203 30.743C154.346 31.1855 154.541 31.5694 154.789 31.8948C155.049 32.2202 155.368 32.474 155.745 32.6562C156.123 32.8384 156.559 32.9295 157.053 32.9295C157.899 32.9295 158.517 32.7733 158.908 32.4609C159.298 32.1356 159.565 31.6996 159.708 31.153H161.348ZM159.806 28.0099C159.806 27.0469 159.591 26.2725 159.162 25.6868C158.732 25.0882 158.023 24.7888 157.034 24.7888C156.136 24.7888 155.433 25.0686 154.925 25.6283C154.418 26.1749 154.125 26.9688 154.047 28.0099H159.806ZM165.434 23.7737V27.9319H170.803V23.7737H172.501V33.9836H170.803V29.3765H165.434V33.9836H163.736V23.7737H165.434ZM181.385 32.5976C181.02 33.0401 180.558 33.424 179.999 33.7494C179.439 34.0617 178.743 34.2179 177.91 34.2179C177.402 34.2179 176.934 34.1528 176.504 34.0227C176.088 33.9056 175.723 33.7234 175.411 33.4761C175.112 33.2158 174.877 32.8969 174.708 32.5195C174.539 32.1421 174.454 31.6996 174.454 31.192C174.454 30.4892 174.597 29.9166 174.884 29.4741C175.183 29.0186 175.574 28.6672 176.055 28.4199C176.55 28.1596 177.103 27.9839 177.714 27.8928C178.326 27.7887 178.957 27.7236 179.608 27.6976L181.346 27.639V27.2291C181.346 26.3701 181.163 25.7519 180.799 25.3745C180.435 24.9971 179.842 24.8084 179.022 24.8084C178.216 24.8084 177.623 24.945 177.246 25.2183C176.869 25.4786 176.621 25.843 176.504 26.3115L174.962 26.1358C175.144 25.2118 175.58 24.5416 176.27 24.1251C176.96 23.6956 177.897 23.4809 179.081 23.4809C179.81 23.4809 180.422 23.572 180.916 23.7542C181.424 23.9234 181.834 24.1706 182.146 24.496C182.458 24.8214 182.68 25.2248 182.81 25.7064C182.953 26.1879 183.024 26.728 183.024 27.3267V33.9836H181.385V32.5976ZM181.346 28.8494L179.725 28.908C179.035 28.934 178.463 28.9991 178.007 29.1032C177.552 29.2073 177.187 29.3504 176.914 29.5327C176.654 29.7149 176.465 29.9426 176.348 30.2159C176.244 30.4762 176.192 30.7886 176.192 31.153C176.192 31.6605 176.341 32.0705 176.641 32.3828C176.953 32.6822 177.461 32.8319 178.163 32.8319C179.166 32.8319 179.946 32.5846 180.506 32.09C181.066 31.5955 181.346 30.9187 181.346 30.0597V28.8494ZM185.603 23.7737H187.282V25.2183C187.698 24.6457 188.18 24.2097 188.726 23.9104C189.286 23.611 189.937 23.4613 190.679 23.4613C191.394 23.4613 192.019 23.5915 192.553 23.8518C193.099 24.1121 193.548 24.4765 193.9 24.945C194.264 25.4135 194.531 25.9797 194.7 26.6434C194.882 27.2941 194.973 28.0165 194.973 28.8103C194.973 29.6563 194.869 30.4176 194.661 31.0944C194.453 31.7712 194.154 32.3503 193.763 32.8319C193.373 33.3004 192.898 33.6648 192.338 33.9251C191.791 34.1724 191.173 34.296 190.483 34.296C189.911 34.296 189.345 34.1854 188.785 33.9641C188.238 33.7299 187.744 33.3199 187.301 32.7342V37.7709H185.603V23.7737ZM187.282 29.1617C187.282 29.8255 187.353 30.3916 187.497 30.8601C187.653 31.3287 187.861 31.7191 188.121 32.0315C188.382 32.3308 188.694 32.552 189.058 32.6952C189.423 32.8253 189.82 32.8904 190.249 32.8904C190.666 32.8904 191.05 32.8188 191.401 32.6757C191.765 32.5325 192.078 32.2983 192.338 31.9729C192.598 31.6475 192.8 31.2311 192.943 30.7235C193.099 30.2029 193.177 29.5717 193.177 28.8299C193.177 28.075 193.093 27.4438 192.924 26.9362C192.768 26.4287 192.559 26.0252 192.299 25.7259C192.039 25.4135 191.739 25.1923 191.401 25.0621C191.076 24.932 190.737 24.8669 190.386 24.8669C189.943 24.8669 189.533 24.9385 189.156 25.0817C188.779 25.2248 188.447 25.4461 188.16 25.7454C187.887 26.0317 187.672 26.4026 187.516 26.8582C187.36 27.3007 187.282 27.8212 187.282 28.4199V29.1617ZM205.646 33.9836H204.045V26.292L198.833 33.9836H197.232V23.7737H198.813V31.4848L204.025 23.7737H205.646V33.9836ZM216.646 33.9836H215.045V26.292L209.833 33.9836H208.232V23.7737H209.813V31.4848L215.026 23.7737H216.646V33.9836ZM210.945 19.8108C210.971 20.3053 211.134 20.6957 211.433 20.9821C211.733 21.2554 212.149 21.392 212.683 21.392C213.216 21.392 213.633 21.2554 213.932 20.9821C214.232 20.6957 214.401 20.3053 214.44 19.8108H215.728C215.728 20.6177 215.461 21.2749 214.928 21.7825C214.407 22.277 213.659 22.5243 212.683 22.5243C211.681 22.5243 210.926 22.277 210.418 21.7825C209.911 21.2749 209.657 20.6177 209.657 19.8108H210.945ZM40.4171 50.9665L43.0916 46.6327H44.8095L42.3497 50.947L44.8095 55.3394H43.0525L40.4171 50.9665ZM44.3215 50.9665L46.996 46.6327H48.7139L46.2541 50.947L48.7139 55.3394H46.9569L44.3215 50.9665ZM60.6431 55.9836H58.8471V50.2052H56.6216C55.8798 50.2052 55.2876 50.3678 54.8451 50.6932C54.4026 51.0056 54.0252 51.4936 53.7129 52.1574L51.8973 55.9836H49.867L52.0144 51.6107C52.2487 51.1292 52.483 50.7518 52.7172 50.4785C52.9515 50.2052 53.2769 49.9774 53.6933 49.7952C52.7042 49.4829 51.9949 49.0404 51.5654 48.4677C51.136 47.8951 50.9212 47.1207 50.9212 46.1446C50.9212 45.598 50.9993 45.0774 51.1555 44.5829C51.3247 44.0883 51.6045 43.6523 51.9949 43.2749C52.3984 42.8975 52.932 42.5981 53.5957 42.3769C54.2725 42.1556 55.1184 42.045 56.1336 42.045H60.6431V55.9836ZM58.8471 48.6825V43.5677H56.114C55.4633 43.5677 54.9232 43.6133 54.4937 43.7044C54.0642 43.7955 53.7194 43.9451 53.4591 44.1534C53.2118 44.3616 53.0296 44.6284 52.9125 44.9538C52.8083 45.2661 52.7563 45.6436 52.7563 46.086C52.7563 46.971 53.0101 47.6283 53.5176 48.0578C54.0252 48.4742 54.8126 48.6825 55.8798 48.6825H58.8471ZM76.2565 45.7737V54.539H77.4473V58.7167H75.9051V55.9836H68.2721V58.7167H66.7298V54.539H67.7254C67.9597 54.3178 68.1744 54.0249 68.3697 53.6605C68.5649 53.2961 68.7406 52.8471 68.8968 52.3135C69.0529 51.7669 69.1896 51.1227 69.3067 50.3809C69.4369 49.639 69.5475 48.7801 69.6386 47.804L69.8143 45.7737H76.2565ZM71.1418 48.7215C70.9856 50.2833 70.7709 51.5261 70.4976 52.4502C70.2373 53.3742 69.9314 54.0705 69.58 54.539H74.5581V47.1598H71.2979L71.1418 48.7215ZM83.5815 56.296C82.8136 56.296 82.1304 56.1724 81.5317 55.9251C80.933 55.6648 80.4254 55.3004 80.009 54.8319C79.5925 54.3633 79.2737 53.7972 79.0524 53.1334C78.8312 52.4697 78.7205 51.7214 78.7205 50.8884C78.7205 50.0685 78.8377 49.3267 79.0719 48.6629C79.3062 47.9862 79.6381 47.4135 80.0675 46.945C80.497 46.4635 81.0111 46.0991 81.6098 45.8518C82.2215 45.5915 82.8982 45.4613 83.64 45.4613C84.3949 45.4613 85.0717 45.5915 85.6703 45.8518C86.269 46.0991 86.7766 46.457 87.193 46.9255C87.6225 47.381 87.9479 47.9406 88.1691 48.6044C88.3904 49.2551 88.501 49.9904 88.501 50.8103C88.501 51.6433 88.3839 52.3981 88.1496 53.0749C87.9284 53.7516 87.603 54.3308 87.1735 54.8123C86.757 55.2809 86.243 55.6453 85.6313 55.9056C85.0196 56.1658 84.3363 56.296 83.5815 56.296ZM83.601 54.8904C84.1476 54.8904 84.6161 54.7928 85.0066 54.5976C85.397 54.3894 85.7159 54.1095 85.9632 53.7581C86.2234 53.3937 86.4122 52.9643 86.5293 52.4697C86.6464 51.9751 86.705 51.435 86.705 50.8494C86.705 50.2637 86.6464 49.7301 86.5293 49.2486C86.4122 48.754 86.2234 48.3311 85.9632 47.9797C85.7159 47.6283 85.397 47.355 85.0066 47.1598C84.6161 46.9645 84.1476 46.8669 83.601 46.8669C83.0544 46.8669 82.5859 46.9645 82.1954 47.1598C81.818 47.355 81.4991 47.6283 81.2389 47.9797C80.9916 48.3311 80.8094 48.754 80.6922 49.2486C80.5751 49.7301 80.5165 50.2637 80.5165 50.8494C80.5165 51.435 80.5751 51.9751 80.6922 52.4697C80.8094 52.9643 80.9916 53.3937 81.2389 53.7581C81.4861 54.1095 81.805 54.3894 82.1954 54.5976C82.5859 54.7928 83.0544 54.8904 83.601 54.8904ZM90.777 45.7737H92.8463L96.3017 54.1876L99.8742 45.7737H101.846V55.9836H100.284V48.253L96.9459 55.9836H95.5403L92.3582 48.3311V55.9836H90.777V45.7737ZM110.77 54.5976C110.406 55.0401 109.944 55.424 109.384 55.7494C108.825 56.0617 108.128 56.2179 107.295 56.2179C106.788 56.2179 106.319 56.1528 105.89 56.0227C105.473 55.9056 105.109 55.7234 104.797 55.4761C104.497 55.2158 104.263 54.8969 104.094 54.5195C103.925 54.1421 103.84 53.6996 103.84 53.192C103.84 52.4892 103.983 51.9166 104.269 51.4741C104.569 51.0186 104.959 50.6672 105.441 50.4199C105.935 50.1596 106.488 49.9839 107.1 49.8928C107.712 49.7887 108.343 49.7236 108.994 49.6976L110.731 49.639V49.2291C110.731 48.3701 110.549 47.7519 110.185 47.3745C109.82 46.9971 109.228 46.8084 108.408 46.8084C107.601 46.8084 107.009 46.945 106.632 47.2183C106.254 47.4786 106.007 47.843 105.89 48.3115L104.348 48.1358C104.53 47.2118 104.966 46.5416 105.656 46.1251C106.345 45.6956 107.282 45.4809 108.467 45.4809C109.196 45.4809 109.807 45.572 110.302 45.7542C110.809 45.9234 111.219 46.1706 111.532 46.496C111.844 46.8214 112.065 47.2248 112.195 47.7064C112.339 48.1879 112.41 48.728 112.41 49.3267V55.9836H110.77V54.5976ZM110.731 50.8494L109.111 50.908C108.421 50.934 107.849 50.9991 107.393 51.1032C106.937 51.2073 106.573 51.3504 106.3 51.5327C106.039 51.7149 105.851 51.9426 105.734 52.2159C105.63 52.4762 105.577 52.7886 105.577 53.153C105.577 53.6605 105.727 54.0705 106.026 54.3828C106.339 54.6822 106.846 54.8319 107.549 54.8319C108.551 54.8319 109.332 54.5846 109.892 54.09C110.451 53.5955 110.731 52.9187 110.731 52.0597V50.8494ZM116.707 51.0251L114.247 46.6327H116.004L118.639 51.0056L115.965 55.3394H114.247L116.707 51.0251ZM120.611 51.0251L118.151 46.6327H119.908L122.544 51.0056L119.869 55.3394H118.151L120.611 51.0251Z" fill="black"/>
</svg>
