<svg width="143" height="38" viewBox="0 0 143 38" fill="none" xmlns="http://www.w3.org/2000/svg">
<path opacity="0.4" d="M0.876172 1.3H6.92617V15.75H22.9762V1.3H29.0262V37H22.9762V21.35H6.92617V37H0.876172V1.3ZM52.1684 37.9C49.6017 37.9 47.285 37.4833 45.2184 36.65C43.185 35.7833 41.435 34.55 39.9684 32.95C38.5017 31.35 37.3684 29.4 36.5684 27.1C35.8017 24.7667 35.4184 22.1333 35.4184 19.2C35.4184 16.2667 35.8184 13.6333 36.6184 11.3C37.4184 8.96666 38.5517 7 40.0184 5.4C41.485 3.76666 43.2517 2.53333 45.3184 1.7C47.385 0.833331 49.6684 0.399997 52.1684 0.399997C54.7017 0.399997 57.0017 0.833331 59.0684 1.7C61.135 2.53333 62.885 3.75 64.3184 5.35C65.7517 6.95 66.8517 8.91666 67.6184 11.25C68.4184 13.55 68.8184 16.1667 68.8184 19.1C68.8184 22.0667 68.435 24.7167 67.6684 27.05C66.9017 29.35 65.8017 31.3167 64.3684 32.95C62.935 34.55 61.185 35.7833 59.1184 36.65C57.085 37.4833 54.7684 37.9 52.1684 37.9ZM52.1184 32.7C55.5517 32.7 58.1517 31.5 59.9184 29.1C61.685 26.6667 62.5684 23.35 62.5684 19.15C62.5684 17.05 62.335 15.1667 61.8684 13.5C61.435 11.8333 60.785 10.4167 59.9184 9.25C59.0517 8.08333 57.9684 7.18333 56.6684 6.55C55.3684 5.91667 53.8517 5.6 52.1184 5.6C50.385 5.6 48.8684 5.91667 47.5684 6.55C46.2684 7.18333 45.1684 8.08333 44.2684 9.25C43.4017 10.4167 42.7517 11.8333 42.3184 13.5C41.885 15.1667 41.6684 17.05 41.6684 19.15C41.6684 23.35 42.535 26.6667 44.2684 29.1C46.035 31.5 48.6517 32.7 52.1184 32.7ZM75.2414 1.3H82.5914L92.7414 29.7L103.191 1.3H110.291V37H104.741V11.05L94.9414 37H90.1414L80.6914 11.1V37H75.2414V1.3ZM117.868 1.3H141.618V6.5H123.918V16H140.618V21.25H123.918V31.8H142.568L141.868 37H117.868V1.3Z" fill="#EEEEEE"/>
</svg>
