<svg width="45" height="46" viewBox="0 0 45 46" fill="none" xmlns="http://www.w3.org/2000/svg">
<path d="M1.38281 11.1181V35.7745C1.38281 40.6156 5.30725 44.54 10.1484 44.54H34.8048C39.6459 44.54 43.5703 40.6156 43.5703 35.7745V11.1181C43.5703 6.27698 39.6459 2.35254 34.8048 2.35254H10.1484C5.30725 2.35254 1.38281 6.27698 1.38281 11.1181ZM26.9453 35.3996C16.5398 38.9898 6.93305 29.383 10.5233 18.9775C11.733 15.4705 14.5005 12.7027 18.0075 11.493C28.4133 7.90278 38.0201 17.5096 34.4299 27.9153C33.2202 31.4224 30.4526 34.1899 26.9453 35.3996ZM37.1152 10.6896C36.9497 11.5566 36.2323 12.061 35.4902 12.061C35.0386 12.061 34.5782 11.8746 34.2257 11.4701C34.1945 11.4343 34.1654 11.3959 34.1397 11.356C33.7758 10.7998 33.7645 10.1391 34.0737 9.60326C34.2926 9.22397 34.6459 8.95309 35.069 8.83979C35.4915 8.72598 35.9334 8.78443 36.3121 9.00356C36.8482 9.31255 37.1685 9.89062 37.132 10.5534C37.1294 10.5987 37.124 10.6448 37.1152 10.6896Z" fill="#B0B0B0"/>
<path d="M22.4787 13.207C16.8272 13.207 12.23 17.8043 12.23 23.4557C12.23 29.1072 16.8272 33.7044 22.4787 33.7044C28.1301 33.7044 32.7274 29.1072 32.7274 23.4557C32.7274 17.8043 28.1301 13.207 22.4787 13.207Z" fill="#B0B0B0"/>
</svg>
