<svg width="142" height="37" viewBox="0 0 142 37" fill="none" xmlns="http://www.w3.org/2000/svg">
<path d="M20.6208 10.2254C20.3775 10.2254 20.195 10.1623 20.1342 10.0992L13.0781 5.86969L20.4992 1.3877C20.4992 1.3877 20.56 1.3877 20.6817 1.3877C20.8033 1.3877 20.8641 1.3877 20.8641 1.3877L28.2852 5.86969L21.2291 10.0992C21.1683 10.1623 20.9858 10.2254 20.7425 10.2254H20.6208Z" fill="white"/>
<path d="M20.6218 2.96696L25.488 5.87079L20.6218 8.77462L15.7555 5.87079L20.6218 2.96696ZM20.6218 0C20.3176 0 20.0135 0.0631268 19.7702 0.18938L10.3418 5.87079V5.93392L19.4052 11.3628C19.7093 11.5522 20.1351 11.6785 20.5609 11.6785H20.6218H20.6826C21.1084 11.6785 21.5342 11.5522 21.8383 11.3628L30.9017 5.93392V5.87079L21.4734 0.18938C21.2909 0.0631268 20.9259 0 20.6218 0Z" fill="white"/>
<path d="M20.6202 35.1193C20.316 35.1193 20.1335 35.0561 20.0727 34.993L1.82424 24.009C1.64176 23.8827 1.39844 23.4408 1.39844 23.0621V9.2373L18.8561 19.7163C19.3428 20.032 19.9511 20.1582 20.6202 20.2214H20.681C21.3501 20.2214 21.9584 20.032 22.445 19.7163L39.9027 9.2373V23.0621C39.9027 23.4408 39.6594 23.8827 39.4769 24.009L21.2284 35.0561C21.1676 35.1193 20.9851 35.1824 20.7418 35.1824C20.681 35.1193 20.6202 35.1193 20.6202 35.1193Z" fill="white"/>
<path d="M2.73727 11.7004L18.1876 20.98C18.8568 21.4219 19.7083 21.6113 20.5599 21.6744H20.6208H20.6816C21.5332 21.6744 22.3848 21.4219 23.0539 20.98L38.5043 11.7004V22.9369L20.6816 33.7316H20.6208L2.7981 22.9369V11.7004H2.73727ZM0.060832 6.27148C3.71175e-06 6.27148 0 6.27148 0 6.33461V23.0632C0 23.8839 0.42579 24.8308 1.0949 25.2095L19.3434 36.1936C19.6475 36.3829 20.1341 36.5092 20.5599 36.5092H20.6208H20.6816C21.1074 36.5092 21.5332 36.3829 21.8982 36.1936L40.1466 25.2095C40.8157 24.8308 41.2415 23.8207 41.2415 23.0632V6.39774C41.2415 6.33461 41.2415 6.33461 41.1807 6.33461C41.1807 6.33461 41.1199 6.33461 41.1199 6.39774C40.9374 7.02901 40.5116 7.28151 40.025 7.53402L21.7157 18.5181C21.4115 18.7075 20.9857 18.7706 20.6208 18.8337C20.195 18.8337 19.83 18.7075 19.5259 18.5181L1.21656 7.53402C0.790767 7.21839 0.364973 6.96588 0.060832 6.27148C0.12166 6.33461 0.12166 6.33461 0.060832 6.27148C0.12166 6.33461 0.12166 6.33461 0.060832 6.27148C0.12166 6.33461 0.12166 6.33461 0.060832 6.27148C0.12166 6.33461 0.12166 6.27148 0.060832 6.27148Z" fill="white"/>
<path d="M66.852 9.34599H58.9443L57.9711 17.8681C57.6669 20.2038 57.302 22.2239 56.8154 23.8651C56.3287 25.5064 55.7204 26.8952 54.9297 27.9053C54.1389 28.9784 53.2873 29.7359 52.1924 30.1778C51.1583 30.6197 49.9418 30.8722 48.5427 30.8722H47.752V27.4634H48.2386C49.0293 27.4634 49.7593 27.3371 50.3676 26.9584C50.9758 26.6427 51.5841 26.0746 52.0708 25.2539C52.5574 24.4333 52.9832 23.297 53.3481 21.8451C53.7131 20.3932 54.0173 18.5625 54.2606 16.2899L55.4163 5.87402H70.8059V30.6197H66.852V9.34599Z" fill="white"/>
<path d="M93.9818 30.6822H90.2104V11.9967L78.0448 30.6191H74.2734V5.93652H77.9839V24.622L90.1496 5.93652H93.9209V30.6822H93.9818Z" fill="white"/>
<path d="M117.157 30.6822H113.446V11.9967L101.281 30.6191H97.5703V5.93652H101.281V24.622L113.446 5.93652H117.218V30.6822H117.157Z" fill="white"/>
<path d="M141.002 22.4107C140.576 25.2514 139.542 27.4609 137.9 29.039C136.197 30.6172 133.885 31.4378 130.844 31.4378C129.019 31.4378 127.438 31.1222 126.099 30.5541C124.7 29.9859 123.545 29.1021 122.632 27.9659C121.72 26.8296 120.99 25.4408 120.564 23.8626C120.077 22.2845 119.834 20.4538 119.834 18.4337C119.834 16.4768 120.077 14.6461 120.625 13.0048C121.111 11.3635 121.902 9.97474 122.875 8.83846C123.849 7.70218 125.004 6.8184 126.403 6.18714C127.803 5.55587 129.384 5.24023 131.148 5.24023C133.946 5.24023 136.136 5.93463 137.718 7.38654C139.238 8.83846 140.272 10.7954 140.698 13.3205L136.744 14.078C136.562 13.3205 136.379 12.5629 136.136 11.8685C135.893 11.2373 135.528 10.606 135.041 10.1641C134.554 9.65911 134.007 9.28035 133.399 9.02784C132.73 8.77533 131.939 8.64908 131.026 8.64908C129.749 8.64908 128.715 8.90159 127.863 9.4066C126.951 9.91161 126.282 10.606 125.674 11.4898C125.126 12.3736 124.7 13.3836 124.457 14.583C124.214 15.7824 124.092 17.0449 124.092 18.3706C124.092 19.7594 124.214 21.0219 124.457 22.2213C124.7 23.4207 125.065 24.4308 125.674 25.3145C126.221 26.1983 126.951 26.8927 127.803 27.3977C128.654 27.9027 129.749 28.1552 131.026 28.1552C132.973 28.1552 134.372 27.6502 135.284 26.6402C136.197 25.6302 136.805 24.2414 137.109 22.537H141.002V22.4107Z" fill="white"/>
</svg>
