<svg width="310" height="180" viewBox="0 0 310 180" fill="none" xmlns="http://www.w3.org/2000/svg">
<rect width="310" height="180" fill="#F2F2F2"/>
<path d="M276.44 120.781C274.653 118.754 273.067 116.887 271.68 115.181C270.267 113.447 268.947 111.967 267.72 110.741C266.467 109.487 265.253 108.514 264.08 107.821C262.88 107.101 261.573 106.741 260.16 106.741C258.747 106.741 257.64 107.141 256.84 107.941C256.013 108.714 255.6 109.781 255.6 111.141C255.6 112.794 255.96 114.034 256.68 114.861C257.373 115.687 258.56 116.301 260.24 116.701L259.64 121.061C258.573 120.821 257.56 120.487 256.6 120.061C255.613 119.607 254.76 118.994 254.04 118.221C253.293 117.421 252.707 116.447 252.28 115.301C251.827 114.127 251.6 112.714 251.6 111.061C251.6 108.101 252.36 105.847 253.88 104.301C255.373 102.754 257.373 101.981 259.88 101.981C261.453 101.981 262.867 102.274 264.12 102.861C265.347 103.421 266.56 104.234 267.76 105.301C268.96 106.341 270.213 107.607 271.52 109.101C272.8 110.567 274.28 112.221 275.96 114.061V101.621L280 102.181V120.781H277.16H276.44ZM276.72 87.5486C276.72 86.5086 276.48 85.642 276 84.9486C275.493 84.2286 274.787 83.6553 273.88 83.2286C272.973 82.7753 271.867 82.4553 270.56 82.2686C269.253 82.0553 267.787 81.9486 266.16 81.9486C264.56 81.9486 263.107 82.0553 261.8 82.2686C260.493 82.4553 259.387 82.7753 258.48 83.2286C257.547 83.6553 256.84 84.2286 256.36 84.9486C255.853 85.642 255.6 86.5086 255.6 87.5486C255.6 88.5886 255.853 89.4686 256.36 90.1886C256.867 90.882 257.587 91.442 258.52 91.8686C259.427 92.2953 260.533 92.602 261.84 92.7886C263.12 92.9753 264.56 93.0686 266.16 93.0686C269.573 93.0686 272.187 92.6553 274 91.8286C275.813 90.9753 276.72 89.5486 276.72 87.5486ZM280.72 87.5886C280.72 89.1886 280.44 90.6286 279.88 91.9086C279.32 93.162 278.453 94.2286 277.28 95.1086C276.08 95.9886 274.56 96.6686 272.72 97.1486C270.88 97.602 268.693 97.8286 266.16 97.8286C261.28 97.8286 257.64 96.9353 255.24 95.1486C252.813 93.3353 251.6 90.762 251.6 87.4286C251.6 84.202 252.787 81.6953 255.16 79.9086C257.507 78.0953 261.173 77.1886 266.16 77.1886C268.693 77.1886 270.88 77.4286 272.72 77.9086C274.533 78.362 276.04 79.042 277.24 79.9486C278.413 80.8286 279.293 81.922 279.88 83.2286C280.44 84.5086 280.72 85.962 280.72 87.5886ZM276.72 63.8768C276.72 62.8368 276.48 61.9701 276 61.2768C275.493 60.5568 274.787 59.9834 273.88 59.5568C272.973 59.1034 271.867 58.7834 270.56 58.5968C269.253 58.3834 267.787 58.2768 266.16 58.2768C264.56 58.2768 263.107 58.3834 261.8 58.5968C260.493 58.7834 259.387 59.1034 258.48 59.5568C257.547 59.9834 256.84 60.5568 256.36 61.2768C255.853 61.9701 255.6 62.8368 255.6 63.8768C255.6 64.9168 255.853 65.7968 256.36 66.5168C256.867 67.2101 257.587 67.7701 258.52 68.1968C259.427 68.6234 260.533 68.9301 261.84 69.1168C263.12 69.3034 264.56 69.3968 266.16 69.3968C269.573 69.3968 272.187 68.9834 274 68.1568C275.813 67.3034 276.72 65.8768 276.72 63.8768ZM280.72 63.9168C280.72 65.5168 280.44 66.9568 279.88 68.2368C279.32 69.4901 278.453 70.5568 277.28 71.4368C276.08 72.3168 274.56 72.9968 272.72 73.4768C270.88 73.9301 268.693 74.1568 266.16 74.1568C261.28 74.1568 257.64 73.2634 255.24 71.4768C252.813 69.6634 251.6 67.0901 251.6 63.7568C251.6 60.5301 252.787 58.0234 255.16 56.2368C257.507 54.4234 261.173 53.5168 266.16 53.5168C268.693 53.5168 270.88 53.7568 272.72 54.2368C274.533 54.6901 276.04 55.3701 277.24 56.2768C278.413 57.1568 279.293 58.2501 279.88 59.5568C280.44 60.8368 280.72 62.2901 280.72 63.9168ZM277 39.9649C277 38.4182 276.533 37.1515 275.6 36.1649C274.64 35.1782 273.213 34.6849 271.32 34.6849C269.693 34.6849 268.373 35.0715 267.36 35.8449C266.32 36.5915 265.8 37.8582 265.8 39.6449C265.8 40.4182 265.92 41.1382 266.16 41.8049C266.373 42.4715 266.72 43.0582 267.2 43.5649C267.68 44.0449 268.28 44.4182 269 44.6849C269.693 44.9515 270.52 45.0449 271.48 44.9649C272.2 44.9649 272.893 44.8582 273.56 44.6449C274.227 44.4315 274.813 44.1249 275.32 43.7249C275.827 43.2982 276.24 42.7782 276.56 42.1649C276.853 41.5515 277 40.8182 277 39.9649ZM258.48 34.9649C258.027 35.1515 257.64 35.3382 257.32 35.5249C257 35.6849 256.733 35.8849 256.52 36.1249C256.28 36.3649 256.093 36.6449 255.96 36.9649C255.8 37.2849 255.68 37.6715 255.6 38.1249C255.493 38.6582 255.48 39.2849 255.56 40.0049C255.693 41.7115 256.573 43.0049 258.2 43.8849C259.827 44.7649 262.133 45.2582 265.12 45.3649C264.107 44.5382 263.36 43.5782 262.88 42.4849C262.4 41.3649 262.147 40.0849 262.12 38.6449C262.12 37.2315 262.333 36.0049 262.76 34.9649C263.187 33.8982 263.8 33.0182 264.6 32.3249C265.4 31.6315 266.36 31.1115 267.48 30.7649C268.6 30.4182 269.853 30.2449 271.24 30.2449C272.787 30.2449 274.16 30.4982 275.36 31.0049C276.533 31.5115 277.52 32.2049 278.32 33.0849C279.12 33.9649 279.72 34.9915 280.12 36.1649C280.52 37.3382 280.72 38.6049 280.72 39.9649C280.72 41.9649 280.333 43.6049 279.56 44.8849C278.787 46.1382 277.787 47.1382 276.56 47.8849C275.333 48.6049 273.973 49.1115 272.48 49.4049C270.96 49.6715 269.467 49.8049 268 49.8049C264.933 49.8049 262.36 49.5249 260.28 48.9649C258.173 48.4049 256.48 47.6449 255.2 46.6849C253.92 45.7249 253 44.6049 252.44 43.3249C251.88 42.0182 251.6 40.6315 251.6 39.1649C251.6 36.5249 252.147 34.5515 253.24 33.2449C254.333 31.9115 256.013 31.0315 258.28 30.6049L258.88 34.8049L258.48 34.9649Z" fill="#212121"/>
<path d="M25.796 142.678V143.728H22.142V150H20.924V142.678H25.796ZM29.7778 150.224C29.2271 150.224 28.7371 150.135 28.3078 149.958C27.8785 149.771 27.5145 149.51 27.2158 149.174C26.9171 148.838 26.6885 148.432 26.5298 147.956C26.3711 147.48 26.2918 146.943 26.2918 146.346C26.2918 145.758 26.3758 145.226 26.5438 144.75C26.7118 144.265 26.9498 143.854 27.2578 143.518C27.5658 143.173 27.9345 142.911 28.3638 142.734C28.8025 142.547 29.2878 142.454 29.8198 142.454C30.3611 142.454 30.8465 142.547 31.2758 142.734C31.7051 142.911 32.0691 143.168 32.3678 143.504C32.6758 143.831 32.9091 144.232 33.0678 144.708C33.2265 145.175 33.3058 145.702 33.3058 146.29C33.3058 146.887 33.2218 147.429 33.0538 147.914C32.8951 148.399 32.6618 148.815 32.3538 149.16C32.0551 149.496 31.6865 149.757 31.2478 149.944C30.8091 150.131 30.3191 150.224 29.7778 150.224ZM29.7918 149.216C30.1838 149.216 30.5198 149.146 30.7998 149.006C31.0798 148.857 31.3085 148.656 31.4858 148.404C31.6725 148.143 31.8078 147.835 31.8918 147.48C31.9758 147.125 32.0178 146.738 32.0178 146.318C32.0178 145.898 31.9758 145.515 31.8918 145.17C31.8078 144.815 31.6725 144.512 31.4858 144.26C31.3085 144.008 31.0798 143.812 30.7998 143.672C30.5198 143.532 30.1838 143.462 29.7918 143.462C29.3998 143.462 29.0638 143.532 28.7838 143.672C28.5131 143.812 28.2845 144.008 28.0978 144.26C27.9205 144.512 27.7898 144.815 27.7058 145.17C27.6218 145.515 27.5798 145.898 27.5798 146.318C27.5798 146.738 27.6218 147.125 27.7058 147.48C27.7898 147.835 27.9205 148.143 28.0978 148.404C28.2751 148.656 28.5038 148.857 28.7838 149.006C29.0638 149.146 29.3998 149.216 29.7918 149.216ZM40.5755 142.678V148.964H41.4295V151.96H40.3235V150H34.8495V151.96H33.7435V148.964H34.4575C34.6255 148.805 34.7795 148.595 34.9195 148.334C35.0595 148.073 35.1855 147.751 35.2975 147.368C35.4095 146.976 35.5075 146.514 35.5915 145.982C35.6848 145.45 35.7642 144.834 35.8295 144.134L35.9555 142.678H40.5755ZM36.9075 144.792C36.7955 145.912 36.6415 146.803 36.4455 147.466C36.2588 148.129 36.0395 148.628 35.7875 148.964H39.3575V143.672H37.0195L36.9075 144.792ZM48.9458 150.224C48.3951 150.224 47.9051 150.135 47.4758 149.958C47.0464 149.771 46.6824 149.51 46.3838 149.174C46.0851 148.838 45.8564 148.432 45.6978 147.956C45.5391 147.48 45.4598 146.943 45.4598 146.346C45.4598 145.758 45.5438 145.226 45.7118 144.75C45.8798 144.265 46.1178 143.854 46.4258 143.518C46.7338 143.173 47.1024 142.911 47.5318 142.734C47.9704 142.547 48.4558 142.454 48.9878 142.454C49.5291 142.454 50.0144 142.547 50.4438 142.734C50.8731 142.911 51.2371 143.168 51.5358 143.504C51.8438 143.831 52.0771 144.232 52.2358 144.708C52.3944 145.175 52.4738 145.702 52.4738 146.29C52.4738 146.887 52.3898 147.429 52.2218 147.914C52.0631 148.399 51.8298 148.815 51.5218 149.16C51.2231 149.496 50.8544 149.757 50.4158 149.944C49.9771 150.131 49.4871 150.224 48.9458 150.224ZM48.9598 149.216C49.3518 149.216 49.6878 149.146 49.9678 149.006C50.2478 148.857 50.4764 148.656 50.6538 148.404C50.8404 148.143 50.9758 147.835 51.0598 147.48C51.1438 147.125 51.1858 146.738 51.1858 146.318C51.1858 145.898 51.1438 145.515 51.0598 145.17C50.9758 144.815 50.8404 144.512 50.6538 144.26C50.4764 144.008 50.2478 143.812 49.9678 143.672C49.6878 143.532 49.3518 143.462 48.9598 143.462C48.5678 143.462 48.2318 143.532 47.9518 143.672C47.6811 143.812 47.4524 144.008 47.2658 144.26C47.0884 144.512 46.9578 144.815 46.8738 145.17C46.7898 145.515 46.7478 145.898 46.7478 146.318C46.7478 146.738 46.7898 147.125 46.8738 147.48C46.9578 147.835 47.0884 148.143 47.2658 148.404C47.4431 148.656 47.6718 148.857 47.9518 149.006C48.2318 149.146 48.5678 149.216 48.9598 149.216ZM60.378 147.55C60.2566 148.381 59.9393 149.034 59.426 149.51C58.9126 149.986 58.1893 150.224 57.256 150.224C56.7053 150.224 56.2153 150.135 55.786 149.958C55.366 149.781 55.0113 149.524 54.722 149.188C54.442 148.852 54.2273 148.446 54.078 147.97C53.938 147.494 53.868 146.957 53.868 146.36C53.868 145.772 53.9473 145.24 54.106 144.764C54.2646 144.279 54.4933 143.868 54.792 143.532C55.0906 143.187 55.4546 142.921 55.884 142.734C56.3133 142.547 56.7986 142.454 57.34 142.454C58.208 142.454 58.88 142.669 59.356 143.098C59.832 143.518 60.1353 144.101 60.266 144.848L59.048 145.072C59.0013 144.839 58.936 144.624 58.852 144.428C58.7773 144.232 58.67 144.064 58.53 143.924C58.39 143.775 58.2173 143.663 58.012 143.588C57.816 143.504 57.578 143.462 57.298 143.462C56.9153 143.462 56.5886 143.537 56.318 143.686C56.0473 143.826 55.8233 144.027 55.646 144.288C55.478 144.549 55.352 144.857 55.268 145.212C55.1933 145.557 55.156 145.931 55.156 146.332C55.156 146.743 55.1933 147.125 55.268 147.48C55.3426 147.825 55.464 148.129 55.632 148.39C55.8 148.642 56.0193 148.843 56.29 148.992C56.5606 149.141 56.892 149.216 57.284 149.216C57.872 149.216 58.306 149.067 58.586 148.768C58.8753 148.469 59.062 148.063 59.146 147.55H60.378ZM63.1303 142.678V145.66H66.9803V142.678H68.1983V150H66.9803V146.696H63.1303V150H61.9123V142.678H63.1303ZM73.309 150.224C72.7584 150.224 72.2684 150.135 71.839 149.958C71.4097 149.771 71.0457 149.51 70.747 149.174C70.4484 148.838 70.2197 148.432 70.061 147.956C69.9024 147.48 69.823 146.943 69.823 146.346C69.823 145.758 69.907 145.226 70.075 144.75C70.243 144.265 70.481 143.854 70.789 143.518C71.097 143.173 71.4657 142.911 71.895 142.734C72.3337 142.547 72.819 142.454 73.351 142.454C73.8924 142.454 74.3777 142.547 74.807 142.734C75.2364 142.911 75.6004 143.168 75.899 143.504C76.207 143.831 76.4404 144.232 76.599 144.708C76.7577 145.175 76.837 145.702 76.837 146.29C76.837 146.887 76.753 147.429 76.585 147.914C76.4264 148.399 76.193 148.815 75.885 149.16C75.5864 149.496 75.2177 149.757 74.779 149.944C74.3404 150.131 73.8504 150.224 73.309 150.224ZM73.323 149.216C73.715 149.216 74.051 149.146 74.331 149.006C74.611 148.857 74.8397 148.656 75.017 148.404C75.2037 148.143 75.339 147.835 75.423 147.48C75.507 147.125 75.549 146.738 75.549 146.318C75.549 145.898 75.507 145.515 75.423 145.17C75.339 144.815 75.2037 144.512 75.017 144.26C74.8397 144.008 74.611 143.812 74.331 143.672C74.051 143.532 73.715 143.462 73.323 143.462C72.931 143.462 72.595 143.532 72.315 143.672C72.0444 143.812 71.8157 144.008 71.629 144.26C71.4517 144.512 71.321 144.815 71.237 145.17C71.153 145.515 71.111 145.898 71.111 146.318C71.111 146.738 71.153 147.125 71.237 147.48C71.321 147.835 71.4517 148.143 71.629 148.404C71.8064 148.656 72.035 148.857 72.315 149.006C72.595 149.146 72.931 149.216 73.323 149.216ZM78.4552 142.678H81.6193C82.1699 142.678 82.6226 142.729 82.9773 142.832C83.3413 142.935 83.6259 143.075 83.8313 143.252C84.0459 143.429 84.1953 143.63 84.2793 143.854C84.3633 144.078 84.4053 144.311 84.4053 144.554C84.4053 144.937 84.3213 145.268 84.1533 145.548C83.9946 145.819 83.7239 146.033 83.3413 146.192C83.7706 146.332 84.0926 146.551 84.3073 146.85C84.5313 147.149 84.6433 147.499 84.6433 147.9C84.6433 148.199 84.5966 148.474 84.5033 148.726C84.4193 148.978 84.2653 149.202 84.0413 149.398C83.8266 149.585 83.5326 149.734 83.1593 149.846C82.7953 149.949 82.3286 150 81.7593 150H78.4552V142.678ZM81.6753 145.8C82.2073 145.8 82.5899 145.707 82.8233 145.52C83.0659 145.333 83.1873 145.067 83.1873 144.722C83.1873 144.367 83.0613 144.101 82.8093 143.924C82.5666 143.737 82.1653 143.644 81.6053 143.644H79.6733V145.8H81.6753ZM81.7593 149.02C82.3659 149.02 82.7906 148.927 83.0333 148.74C83.2759 148.544 83.3973 148.259 83.3973 147.886C83.3973 147.513 83.2666 147.223 83.0053 147.018C82.7439 146.803 82.3333 146.696 81.7733 146.696H79.6733V149.02H81.7593ZM90.6062 149.006C90.3448 149.323 90.0135 149.599 89.6122 149.832C89.2108 150.056 88.7115 150.168 88.1142 150.168C87.7502 150.168 87.4142 150.121 87.1062 150.028C86.8075 149.944 86.5462 149.813 86.3222 149.636C86.1075 149.449 85.9395 149.221 85.8182 148.95C85.6968 148.679 85.6362 148.362 85.6362 147.998C85.6362 147.494 85.7388 147.083 85.9442 146.766C86.1588 146.439 86.4388 146.187 86.7842 146.01C87.1388 145.823 87.5355 145.697 87.9742 145.632C88.4128 145.557 88.8655 145.511 89.3322 145.492L90.5782 145.45V145.156C90.5782 144.54 90.4475 144.097 90.1862 143.826C89.9248 143.555 89.5002 143.42 88.9122 143.42C88.3335 143.42 87.9088 143.518 87.6382 143.714C87.3675 143.901 87.1902 144.162 87.1062 144.498L86.0002 144.372C86.1308 143.709 86.4435 143.229 86.9382 142.93C87.4328 142.622 88.1048 142.468 88.9542 142.468C89.4768 142.468 89.9155 142.533 90.2702 142.664C90.6342 142.785 90.9282 142.963 91.1522 143.196C91.3762 143.429 91.5348 143.719 91.6282 144.064C91.7308 144.409 91.7822 144.797 91.7822 145.226V150H90.6062V149.006ZM90.5782 146.318L89.4162 146.36C88.9215 146.379 88.5108 146.425 88.1842 146.5C87.8575 146.575 87.5962 146.677 87.4002 146.808C87.2135 146.939 87.0782 147.102 86.9942 147.298C86.9195 147.485 86.8822 147.709 86.8822 147.97C86.8822 148.334 86.9895 148.628 87.2042 148.852C87.4282 149.067 87.7922 149.174 88.2962 149.174C89.0148 149.174 89.5748 148.997 89.9762 148.642C90.3775 148.287 90.5782 147.802 90.5782 147.186V146.318ZM94.8354 142.678V145.66H98.6854V142.678H99.9034V150H98.6854V146.696H94.8354V150H93.6174V142.678H94.8354ZM107.786 150H106.638V144.484L102.9 150H101.752V142.678H102.886V148.208L106.624 142.678H107.786V150ZM109.039 150L110.397 147.648C110.63 147.247 110.887 146.976 111.167 146.836C110.7 146.733 110.331 146.509 110.061 146.164C109.79 145.819 109.655 145.375 109.655 144.834C109.655 144.526 109.701 144.241 109.795 143.98C109.888 143.719 110.042 143.49 110.257 143.294C110.481 143.098 110.775 142.949 111.139 142.846C111.503 142.734 111.955 142.678 112.497 142.678H115.409V150H114.191V147.074H113.141C112.917 147.074 112.725 147.088 112.567 147.116C112.417 147.144 112.287 147.191 112.175 147.256C112.063 147.321 111.96 147.41 111.867 147.522C111.773 147.634 111.68 147.774 111.587 147.942L110.411 150H109.039ZM114.191 146.066V143.672H112.511C111.437 143.672 110.901 144.045 110.901 144.792C110.901 145.641 111.4 146.066 112.399 146.066H114.191ZM120.387 150V142.678H121.591V145.856H122.081C122.258 145.856 122.412 145.837 122.543 145.8C122.683 145.763 122.809 145.702 122.921 145.618C123.033 145.525 123.136 145.408 123.229 145.268C123.322 145.128 123.42 144.951 123.523 144.736L123.943 143.868C124.046 143.653 124.148 143.471 124.251 143.322C124.363 143.173 124.484 143.051 124.615 142.958C124.755 142.855 124.914 142.785 125.091 142.748C125.268 142.701 125.478 142.678 125.721 142.678C125.852 142.678 125.973 142.687 126.085 142.706C126.206 142.725 126.295 142.743 126.351 142.762L126.225 143.7C126.197 143.681 126.141 143.667 126.057 143.658C125.973 143.649 125.88 143.644 125.777 143.644C125.534 143.644 125.352 143.7 125.231 143.812C125.119 143.915 125.012 144.083 124.909 144.316L124.503 145.198C124.391 145.459 124.26 145.674 124.111 145.842C123.971 146.001 123.789 146.131 123.565 146.234C123.761 146.309 123.934 146.416 124.083 146.556C124.232 146.696 124.391 146.887 124.559 147.13L126.477 150H125.077L123.397 147.48C123.229 147.228 123.061 147.041 122.893 146.92C122.725 146.799 122.487 146.738 122.179 146.738H121.591V150H120.387ZM130.457 150.224C129.907 150.224 129.417 150.135 128.987 149.958C128.558 149.771 128.194 149.51 127.895 149.174C127.597 148.838 127.368 148.432 127.209 147.956C127.051 147.48 126.971 146.943 126.971 146.346C126.971 145.758 127.055 145.226 127.223 144.75C127.391 144.265 127.629 143.854 127.937 143.518C128.245 143.173 128.614 142.911 129.043 142.734C129.482 142.547 129.967 142.454 130.499 142.454C131.041 142.454 131.526 142.547 131.955 142.734C132.385 142.911 132.749 143.168 133.047 143.504C133.355 143.831 133.589 144.232 133.747 144.708C133.906 145.175 133.985 145.702 133.985 146.29C133.985 146.887 133.901 147.429 133.733 147.914C133.575 148.399 133.341 148.815 133.033 149.16C132.735 149.496 132.366 149.757 131.927 149.944C131.489 150.131 130.999 150.224 130.457 150.224ZM130.471 149.216C130.863 149.216 131.199 149.146 131.479 149.006C131.759 148.857 131.988 148.656 132.165 148.404C132.352 148.143 132.487 147.835 132.571 147.48C132.655 147.125 132.697 146.738 132.697 146.318C132.697 145.898 132.655 145.515 132.571 145.17C132.487 144.815 132.352 144.512 132.165 144.26C131.988 144.008 131.759 143.812 131.479 143.672C131.199 143.532 130.863 143.462 130.471 143.462C130.079 143.462 129.743 143.532 129.463 143.672C129.193 143.812 128.964 144.008 128.777 144.26C128.6 144.512 128.469 144.815 128.385 145.17C128.301 145.515 128.259 145.898 128.259 146.318C128.259 146.738 128.301 147.125 128.385 147.48C128.469 147.835 128.6 148.143 128.777 148.404C128.955 148.656 129.183 148.857 129.463 149.006C129.743 149.146 130.079 149.216 130.471 149.216ZM135.618 142.678H137.102L139.58 148.712L142.142 142.678H143.556V150H142.436V144.456L140.042 150H139.034L136.752 144.512V150H135.618V142.678ZM151.524 142.678V150H150.306V143.728H146.652V150H145.434V142.678H151.524ZM157.913 149.006C157.651 149.323 157.32 149.599 156.919 149.832C156.517 150.056 156.018 150.168 155.421 150.168C155.057 150.168 154.721 150.121 154.413 150.028C154.114 149.944 153.853 149.813 153.629 149.636C153.414 149.449 153.246 149.221 153.125 148.95C153.003 148.679 152.943 148.362 152.943 147.998C152.943 147.494 153.045 147.083 153.251 146.766C153.465 146.439 153.745 146.187 154.091 146.01C154.445 145.823 154.842 145.697 155.281 145.632C155.719 145.557 156.172 145.511 156.639 145.492L157.885 145.45V145.156C157.885 144.54 157.754 144.097 157.493 143.826C157.231 143.555 156.807 143.42 156.219 143.42C155.64 143.42 155.215 143.518 154.945 143.714C154.674 143.901 154.497 144.162 154.413 144.498L153.307 144.372C153.437 143.709 153.75 143.229 154.245 142.93C154.739 142.622 155.411 142.468 156.261 142.468C156.783 142.468 157.222 142.533 157.577 142.664C157.941 142.785 158.235 142.963 158.459 143.196C158.683 143.429 158.841 143.719 158.935 144.064C159.037 144.409 159.089 144.797 159.089 145.226V150H157.913V149.006ZM157.885 146.318L156.723 146.36C156.228 146.379 155.817 146.425 155.491 146.5C155.164 146.575 154.903 146.677 154.707 146.808C154.52 146.939 154.385 147.102 154.301 147.298C154.226 147.485 154.189 147.709 154.189 147.97C154.189 148.334 154.296 148.628 154.511 148.852C154.735 149.067 155.099 149.174 155.603 149.174C156.321 149.174 156.881 148.997 157.283 148.642C157.684 148.287 157.885 147.802 157.885 147.186V146.318ZM162.142 142.678V145.66H165.992V142.678H167.21V150H165.992V146.696H162.142V150H160.924V142.678H162.142ZM175.093 150H173.945V144.484L170.207 150H169.059V142.678H170.193V148.208L173.931 142.678H175.093V150ZM182.981 150H181.833V144.484L178.095 150H176.947V142.678H178.081V148.208L181.819 142.678H182.981V150Z" fill="#212121"/>
</svg>
