<svg width="310" height="230" viewBox="0 0 310 230" fill="none" xmlns="http://www.w3.org/2000/svg">
<rect width="310" height="230" fill="#F2F2F2"/>
<path d="M78.574 116.004V117.138H73.394V120.274H78.294V121.422H73.394V124.866H78.84L78.63 126H72.106V116.004H78.574ZM86.3448 123.55C86.2234 124.381 85.9061 125.034 85.3928 125.51C84.8794 125.986 84.1561 126.224 83.2228 126.224C82.6721 126.224 82.1821 126.135 81.7528 125.958C81.3328 125.781 80.9781 125.524 80.6888 125.188C80.4088 124.852 80.1941 124.446 80.0448 123.97C79.9048 123.494 79.8348 122.957 79.8348 122.36C79.8348 121.772 79.9141 121.24 80.0728 120.764C80.2314 120.279 80.4601 119.868 80.7588 119.532C81.0574 119.187 81.4214 118.921 81.8508 118.734C82.2801 118.547 82.7654 118.454 83.3068 118.454C84.1748 118.454 84.8468 118.669 85.3228 119.098C85.7988 119.518 86.1021 120.101 86.2328 120.848L85.0148 121.072C84.9681 120.839 84.9028 120.624 84.8188 120.428C84.7441 120.232 84.6368 120.064 84.4968 119.924C84.3568 119.775 84.1841 119.663 83.9788 119.588C83.7828 119.504 83.5448 119.462 83.2648 119.462C82.8821 119.462 82.5554 119.537 82.2848 119.686C82.0141 119.826 81.7901 120.027 81.6128 120.288C81.4448 120.549 81.3188 120.857 81.2348 121.212C81.1601 121.557 81.1228 121.931 81.1228 122.332C81.1228 122.743 81.1601 123.125 81.2348 123.48C81.3094 123.825 81.4308 124.129 81.5988 124.39C81.7668 124.642 81.9861 124.843 82.2568 124.992C82.5274 125.141 82.8588 125.216 83.2508 125.216C83.8388 125.216 84.2728 125.067 84.5528 124.768C84.8421 124.469 85.0288 124.063 85.1128 123.55H86.3448ZM92.8071 119.672H90.3851L90.0771 122.192C89.9931 122.892 89.8764 123.489 89.7271 123.984C89.5777 124.469 89.3864 124.871 89.1531 125.188C88.9197 125.496 88.6397 125.72 88.3131 125.86C87.9957 126 87.6224 126.07 87.1931 126.07H86.9551V125.048H87.0951C87.3377 125.048 87.5524 125.001 87.7391 124.908C87.9351 124.815 88.1077 124.647 88.2571 124.404C88.4157 124.161 88.5511 123.825 88.6631 123.396C88.7751 122.967 88.8684 122.421 88.9431 121.758L89.2931 118.678H94.0251V126H92.8071V119.672ZM101.911 126H100.763V120.484L97.0251 126H95.8771V118.678H97.0111V124.208L100.749 118.678H101.911V126ZM106.883 118.678H110.047C110.598 118.678 111.05 118.729 111.405 118.832C111.769 118.935 112.054 119.075 112.259 119.252C112.474 119.429 112.623 119.63 112.707 119.854C112.791 120.078 112.833 120.311 112.833 120.554C112.833 120.937 112.749 121.268 112.581 121.548C112.422 121.819 112.152 122.033 111.769 122.192C112.198 122.332 112.52 122.551 112.735 122.85C112.959 123.149 113.071 123.499 113.071 123.9C113.071 124.199 113.024 124.474 112.931 124.726C112.847 124.978 112.693 125.202 112.469 125.398C112.254 125.585 111.96 125.734 111.587 125.846C111.223 125.949 110.756 126 110.187 126H106.883V118.678ZM110.103 121.8C110.635 121.8 111.018 121.707 111.251 121.52C111.494 121.333 111.615 121.067 111.615 120.722C111.615 120.367 111.489 120.101 111.237 119.924C110.994 119.737 110.593 119.644 110.033 119.644H108.101V121.8H110.103ZM110.187 125.02C110.794 125.02 111.218 124.927 111.461 124.74C111.704 124.544 111.825 124.259 111.825 123.886C111.825 123.513 111.694 123.223 111.433 123.018C111.172 122.803 110.761 122.696 110.201 122.696H108.101V125.02H110.187ZM115.73 118.678V121.366H117.914C118.829 121.366 119.491 121.576 119.902 121.996C120.313 122.407 120.518 122.957 120.518 123.648C120.518 124.348 120.289 124.917 119.832 125.356C119.384 125.785 118.679 126 117.718 126H114.512V118.678H115.73ZM121.498 118.678H122.716V126H121.498V118.678ZM115.73 124.992H117.774C118.287 124.992 118.661 124.88 118.894 124.656C119.127 124.423 119.244 124.096 119.244 123.676C119.244 123.247 119.132 122.92 118.908 122.696C118.693 122.472 118.297 122.36 117.718 122.36H115.73V124.992ZM133.964 123.55C133.843 124.381 133.525 125.034 133.012 125.51C132.499 125.986 131.775 126.224 130.842 126.224C130.291 126.224 129.801 126.135 129.372 125.958C128.952 125.781 128.597 125.524 128.308 125.188C128.028 124.852 127.813 124.446 127.664 123.97C127.524 123.494 127.454 122.957 127.454 122.36C127.454 121.772 127.533 121.24 127.692 120.764C127.851 120.279 128.079 119.868 128.378 119.532C128.677 119.187 129.041 118.921 129.47 118.734C129.899 118.547 130.385 118.454 130.926 118.454C131.794 118.454 132.466 118.669 132.942 119.098C133.418 119.518 133.721 120.101 133.852 120.848L132.634 121.072C132.587 120.839 132.522 120.624 132.438 120.428C132.363 120.232 132.256 120.064 132.116 119.924C131.976 119.775 131.803 119.663 131.598 119.588C131.402 119.504 131.164 119.462 130.884 119.462C130.501 119.462 130.175 119.537 129.904 119.686C129.633 119.826 129.409 120.027 129.232 120.288C129.064 120.549 128.938 120.857 128.854 121.212C128.779 121.557 128.742 121.931 128.742 122.332C128.742 122.743 128.779 123.125 128.854 123.48C128.929 123.825 129.05 124.129 129.218 124.39C129.386 124.642 129.605 124.843 129.876 124.992C130.147 125.141 130.478 125.216 130.87 125.216C131.458 125.216 131.892 125.067 132.172 124.768C132.461 124.469 132.648 124.063 132.732 123.55H133.964ZM137.304 119.714H134.77V118.678H141.028V119.714H138.522V126H137.304V119.714ZM142.157 118.678H143.361V119.714C143.659 119.303 144.005 118.991 144.397 118.776C144.798 118.561 145.265 118.454 145.797 118.454C146.31 118.454 146.758 118.547 147.141 118.734C147.533 118.921 147.855 119.182 148.107 119.518C148.368 119.854 148.559 120.26 148.681 120.736C148.811 121.203 148.877 121.721 148.877 122.29C148.877 122.897 148.802 123.443 148.653 123.928C148.503 124.413 148.289 124.829 148.009 125.174C147.729 125.51 147.388 125.771 146.987 125.958C146.595 126.135 146.151 126.224 145.657 126.224C145.246 126.224 144.84 126.145 144.439 125.986C144.047 125.818 143.692 125.524 143.375 125.104V128.716H142.157V118.678ZM143.361 122.542C143.361 123.018 143.412 123.424 143.515 123.76C143.627 124.096 143.776 124.376 143.963 124.6C144.149 124.815 144.373 124.973 144.635 125.076C144.896 125.169 145.181 125.216 145.489 125.216C145.787 125.216 146.063 125.165 146.315 125.062C146.576 124.959 146.8 124.791 146.987 124.558C147.173 124.325 147.318 124.026 147.421 123.662C147.533 123.289 147.589 122.836 147.589 122.304C147.589 121.763 147.528 121.31 147.407 120.946C147.295 120.582 147.145 120.293 146.959 120.078C146.772 119.854 146.557 119.695 146.315 119.602C146.081 119.509 145.839 119.462 145.587 119.462C145.269 119.462 144.975 119.513 144.705 119.616C144.434 119.719 144.196 119.877 143.991 120.092C143.795 120.297 143.641 120.563 143.529 120.89C143.417 121.207 143.361 121.581 143.361 122.01V122.542ZM153.758 126.224C153.208 126.224 152.718 126.135 152.288 125.958C151.859 125.771 151.495 125.51 151.196 125.174C150.898 124.838 150.669 124.432 150.51 123.956C150.352 123.48 150.272 122.943 150.272 122.346C150.272 121.758 150.356 121.226 150.524 120.75C150.692 120.265 150.93 119.854 151.238 119.518C151.546 119.173 151.915 118.911 152.344 118.734C152.783 118.547 153.268 118.454 153.8 118.454C154.342 118.454 154.827 118.547 155.256 118.734C155.686 118.911 156.05 119.168 156.348 119.504C156.656 119.831 156.89 120.232 157.048 120.708C157.207 121.175 157.286 121.702 157.286 122.29C157.286 122.887 157.202 123.429 157.034 123.914C156.876 124.399 156.642 124.815 156.334 125.16C156.036 125.496 155.667 125.757 155.228 125.944C154.79 126.131 154.3 126.224 153.758 126.224ZM153.772 125.216C154.164 125.216 154.5 125.146 154.78 125.006C155.06 124.857 155.289 124.656 155.466 124.404C155.653 124.143 155.788 123.835 155.872 123.48C155.956 123.125 155.998 122.738 155.998 122.318C155.998 121.898 155.956 121.515 155.872 121.17C155.788 120.815 155.653 120.512 155.466 120.26C155.289 120.008 155.06 119.812 154.78 119.672C154.5 119.532 154.164 119.462 153.772 119.462C153.38 119.462 153.044 119.532 152.764 119.672C152.494 119.812 152.265 120.008 152.078 120.26C151.901 120.512 151.77 120.815 151.686 121.17C151.602 121.515 151.56 121.898 151.56 122.318C151.56 122.738 151.602 123.125 151.686 123.48C151.77 123.835 151.901 124.143 152.078 124.404C152.256 124.656 152.484 124.857 152.764 125.006C153.044 125.146 153.38 125.216 153.772 125.216ZM164.938 126H163.79V120.484L160.052 126H158.904V118.678H160.038V124.208L163.776 118.678H164.938V126ZM168.599 119.714H166.065V118.678H172.323V119.714H169.817V126H168.599V119.714ZM179.491 123.97C179.37 124.67 179.057 125.221 178.553 125.622C178.058 126.023 177.344 126.224 176.411 126.224C175.31 126.224 174.465 125.888 173.877 125.216C173.289 124.535 172.995 123.592 172.995 122.388C172.995 121.763 173.079 121.207 173.247 120.722C173.415 120.227 173.648 119.812 173.947 119.476C174.255 119.14 174.619 118.888 175.039 118.72C175.459 118.543 175.916 118.454 176.411 118.454C176.971 118.454 177.452 118.543 177.853 118.72C178.254 118.897 178.581 119.145 178.833 119.462C179.094 119.779 179.286 120.157 179.407 120.596C179.538 121.035 179.603 121.511 179.603 122.024V122.626H174.227C174.227 123.009 174.274 123.359 174.367 123.676C174.47 123.993 174.61 124.269 174.787 124.502C174.974 124.735 175.202 124.917 175.473 125.048C175.744 125.179 176.056 125.244 176.411 125.244C177.018 125.244 177.461 125.132 177.741 124.908C178.021 124.675 178.212 124.362 178.315 123.97H179.491ZM178.385 121.716C178.385 121.025 178.231 120.47 177.923 120.05C177.615 119.621 177.106 119.406 176.397 119.406C175.753 119.406 175.249 119.607 174.885 120.008C174.521 120.4 174.311 120.969 174.255 121.716H178.385ZM187.582 126.224C187.032 126.224 186.542 126.135 186.112 125.958C185.683 125.771 185.319 125.51 185.02 125.174C184.722 124.838 184.493 124.432 184.334 123.956C184.176 123.48 184.096 122.943 184.096 122.346C184.096 121.758 184.18 121.226 184.348 120.75C184.516 120.265 184.754 119.854 185.062 119.518C185.37 119.173 185.739 118.911 186.168 118.734C186.607 118.547 187.092 118.454 187.624 118.454C188.166 118.454 188.651 118.547 189.08 118.734C189.51 118.911 189.874 119.168 190.172 119.504C190.48 119.831 190.714 120.232 190.872 120.708C191.031 121.175 191.11 121.702 191.11 122.29C191.11 122.887 191.026 123.429 190.858 123.914C190.7 124.399 190.466 124.815 190.158 125.16C189.86 125.496 189.491 125.757 189.052 125.944C188.614 126.131 188.124 126.224 187.582 126.224ZM187.596 125.216C187.988 125.216 188.324 125.146 188.604 125.006C188.884 124.857 189.113 124.656 189.29 124.404C189.477 124.143 189.612 123.835 189.696 123.48C189.78 123.125 189.822 122.738 189.822 122.318C189.822 121.898 189.78 121.515 189.696 121.17C189.612 120.815 189.477 120.512 189.29 120.26C189.113 120.008 188.884 119.812 188.604 119.672C188.324 119.532 187.988 119.462 187.596 119.462C187.204 119.462 186.868 119.532 186.588 119.672C186.318 119.812 186.089 120.008 185.902 120.26C185.725 120.512 185.594 120.815 185.51 121.17C185.426 121.515 185.384 121.898 185.384 122.318C185.384 122.738 185.426 123.125 185.51 123.48C185.594 123.835 185.725 124.143 185.902 124.404C186.08 124.656 186.308 124.857 186.588 125.006C186.868 125.146 187.204 125.216 187.596 125.216ZM196.229 120.12C195.958 120.12 195.687 120.162 195.417 120.246C195.155 120.321 194.917 120.451 194.703 120.638C194.451 120.853 194.259 121.114 194.129 121.422C193.998 121.73 193.933 122.066 193.933 122.43C193.933 123.279 194.105 123.961 194.451 124.474C194.796 124.978 195.351 125.23 196.117 125.23C196.817 125.23 197.339 125.006 197.685 124.558C198.03 124.101 198.203 123.461 198.203 122.64C198.203 120.96 197.545 120.12 196.229 120.12ZM198.679 116.816L197.377 117.054C196.639 117.185 196.07 117.343 195.669 117.53C195.267 117.717 194.955 117.922 194.731 118.146C194.199 118.669 193.881 119.471 193.779 120.554C194.077 120.078 194.446 119.719 194.885 119.476C195.323 119.233 195.837 119.112 196.425 119.112C196.873 119.112 197.283 119.187 197.657 119.336C198.03 119.485 198.352 119.709 198.623 120.008C198.903 120.297 199.117 120.657 199.267 121.086C199.416 121.515 199.491 122.015 199.491 122.584C199.491 123.116 199.416 123.606 199.267 124.054C199.127 124.493 198.912 124.875 198.623 125.202C198.343 125.529 197.993 125.785 197.573 125.972C197.153 126.149 196.663 126.238 196.103 126.238C195.459 126.238 194.913 126.126 194.465 125.902C194.017 125.678 193.653 125.37 193.373 124.978C193.093 124.577 192.887 124.105 192.757 123.564C192.635 123.023 192.575 122.435 192.575 121.8C192.575 121.212 192.603 120.694 192.659 120.246C192.724 119.798 192.817 119.401 192.939 119.056C193.06 118.711 193.205 118.407 193.373 118.146C193.541 117.885 193.732 117.647 193.947 117.432C194.292 117.077 194.763 116.779 195.361 116.536C195.967 116.293 196.677 116.107 197.489 115.976L198.539 115.794L198.679 116.816ZM200.186 118.678H203.056V121.366H205.226C206.15 121.366 206.817 121.571 207.228 121.982C207.638 122.383 207.844 122.943 207.844 123.662C207.844 124.39 207.61 124.964 207.144 125.384C206.677 125.795 205.991 126 205.086 126H201.838V119.686H200.186V118.678ZM203.056 124.992H205.114C205.618 124.992 205.986 124.88 206.22 124.656C206.453 124.423 206.57 124.096 206.57 123.676C206.57 123.247 206.458 122.92 206.234 122.696C206.019 122.472 205.622 122.36 205.044 122.36H203.056V124.992ZM215.462 123.97C215.34 124.67 215.028 125.221 214.524 125.622C214.029 126.023 213.315 126.224 212.382 126.224C211.28 126.224 210.436 125.888 209.848 125.216C209.26 124.535 208.966 123.592 208.966 122.388C208.966 121.763 209.05 121.207 209.218 120.722C209.386 120.227 209.619 119.812 209.918 119.476C210.226 119.14 210.59 118.888 211.01 118.72C211.43 118.543 211.887 118.454 212.382 118.454C212.942 118.454 213.422 118.543 213.824 118.72C214.225 118.897 214.552 119.145 214.804 119.462C215.065 119.779 215.256 120.157 215.378 120.596C215.508 121.035 215.574 121.511 215.574 122.024V122.626H210.198C210.198 123.009 210.244 123.359 210.338 123.676C210.44 123.993 210.58 124.269 210.758 124.502C210.944 124.735 211.173 124.917 211.444 125.048C211.714 125.179 212.027 125.244 212.382 125.244C212.988 125.244 213.432 125.132 213.712 124.908C213.992 124.675 214.183 124.362 214.286 123.97H215.462ZM214.356 121.716C214.356 121.025 214.202 120.47 213.894 120.05C213.586 119.621 213.077 119.406 212.368 119.406C211.724 119.406 211.22 119.607 210.856 120.008C210.492 120.4 210.282 120.969 210.226 121.716H214.356ZM217.174 126V118.678H218.378V121.856H218.868C219.045 121.856 219.199 121.837 219.33 121.8C219.47 121.763 219.596 121.702 219.708 121.618C219.82 121.525 219.923 121.408 220.016 121.268C220.109 121.128 220.207 120.951 220.31 120.736L220.73 119.868C220.833 119.653 220.935 119.471 221.038 119.322C221.15 119.173 221.271 119.051 221.402 118.958C221.542 118.855 221.701 118.785 221.878 118.748C222.055 118.701 222.265 118.678 222.508 118.678C222.639 118.678 222.76 118.687 222.872 118.706C222.993 118.725 223.082 118.743 223.138 118.762L223.012 119.7C222.984 119.681 222.928 119.667 222.844 119.658C222.76 119.649 222.667 119.644 222.564 119.644C222.321 119.644 222.139 119.7 222.018 119.812C221.906 119.915 221.799 120.083 221.696 120.316L221.29 121.198C221.178 121.459 221.047 121.674 220.898 121.842C220.758 122.001 220.576 122.131 220.352 122.234C220.548 122.309 220.721 122.416 220.87 122.556C221.019 122.696 221.178 122.887 221.346 123.13L223.264 126H221.864L220.184 123.48C220.016 123.228 219.848 123.041 219.68 122.92C219.512 122.799 219.274 122.738 218.966 122.738H218.378V126H217.174ZM226.582 119.714H224.048V118.678H230.306V119.714H227.8V126H226.582V119.714ZM71.924 134.678H75.088C75.6387 134.678 76.0913 134.729 76.446 134.832C76.81 134.935 77.0947 135.075 77.3 135.252C77.5147 135.429 77.664 135.63 77.748 135.854C77.832 136.078 77.874 136.311 77.874 136.554C77.874 136.937 77.79 137.268 77.622 137.548C77.4633 137.819 77.1927 138.033 76.81 138.192C77.2393 138.332 77.5613 138.551 77.776 138.85C78 139.149 78.112 139.499 78.112 139.9C78.112 140.199 78.0653 140.474 77.972 140.726C77.888 140.978 77.734 141.202 77.51 141.398C77.2953 141.585 77.0013 141.734 76.628 141.846C76.264 141.949 75.7973 142 75.228 142H71.924V134.678ZM75.144 137.8C75.676 137.8 76.0587 137.707 76.292 137.52C76.5347 137.333 76.656 137.067 76.656 136.722C76.656 136.367 76.53 136.101 76.278 135.924C76.0353 135.737 75.634 135.644 75.074 135.644H73.142V137.8H75.144ZM75.228 141.02C75.8347 141.02 76.2593 140.927 76.502 140.74C76.7447 140.544 76.866 140.259 76.866 139.886C76.866 139.513 76.7353 139.223 76.474 139.018C76.2127 138.803 75.802 138.696 75.242 138.696H73.142V141.02H75.228ZM87.5981 135.672H85.1761L84.8681 138.192C84.7841 138.892 84.6674 139.489 84.5181 139.984C84.3688 140.469 84.1774 140.871 83.9441 141.188C83.7108 141.496 83.4308 141.72 83.1041 141.86C82.7868 142 82.4134 142.07 81.9841 142.07H81.7461V141.048H81.8861C82.1288 141.048 82.3434 141.001 82.5301 140.908C82.7261 140.815 82.8988 140.647 83.0481 140.404C83.2068 140.161 83.3421 139.825 83.4541 139.396C83.5661 138.967 83.6594 138.421 83.7341 137.758L84.0841 134.678H88.8161V142H87.5981V135.672ZM91.8861 134.678V137.8H93.4821C93.5755 136.764 93.9115 135.947 94.4901 135.35C95.0781 134.753 95.8621 134.454 96.8421 134.454C97.3741 134.454 97.8455 134.547 98.2561 134.734C98.6668 134.911 99.0168 135.168 99.3061 135.504C99.5955 135.831 99.8148 136.232 99.9641 136.708C100.113 137.184 100.188 137.716 100.188 138.304C100.188 138.901 100.109 139.443 99.9501 139.928C99.8008 140.413 99.5815 140.829 99.2921 141.174C99.0121 141.51 98.6621 141.771 98.2421 141.958C97.8221 142.135 97.3461 142.224 96.8141 142.224C95.7781 142.224 94.9755 141.916 94.4061 141.3C93.8368 140.684 93.5195 139.835 93.4541 138.752H91.8861V142H90.6681V134.678H91.8861ZM96.8281 141.216C97.2015 141.216 97.5188 141.146 97.7801 141.006C98.0415 140.857 98.2561 140.656 98.4241 140.404C98.5921 140.143 98.7135 139.835 98.7881 139.48C98.8628 139.125 98.9001 138.738 98.9001 138.318C98.9001 137.898 98.8628 137.515 98.7881 137.17C98.7135 136.815 98.5921 136.512 98.4241 136.26C98.2561 136.008 98.0415 135.812 97.7801 135.672C97.5188 135.532 97.2015 135.462 96.8281 135.462C96.4548 135.462 96.1328 135.532 95.8621 135.672C95.6008 135.812 95.3815 136.013 95.2041 136.274C95.0361 136.526 94.9101 136.829 94.8261 137.184C94.7515 137.529 94.7141 137.912 94.7141 138.332C94.7141 138.752 94.7515 139.139 94.8261 139.494C94.9101 139.849 95.0361 140.152 95.2041 140.404C95.3721 140.656 95.5868 140.857 95.8481 141.006C96.1188 141.146 96.4455 141.216 96.8281 141.216ZM105.324 136.12C105.054 136.12 104.783 136.162 104.512 136.246C104.251 136.321 104.013 136.451 103.798 136.638C103.546 136.853 103.355 137.114 103.224 137.422C103.094 137.73 103.028 138.066 103.028 138.43C103.028 139.279 103.201 139.961 103.546 140.474C103.892 140.978 104.447 141.23 105.212 141.23C105.912 141.23 106.435 141.006 106.78 140.558C107.126 140.101 107.298 139.461 107.298 138.64C107.298 136.96 106.64 136.12 105.324 136.12ZM107.774 132.816L106.472 133.054C105.735 133.185 105.166 133.343 104.764 133.53C104.363 133.717 104.05 133.922 103.826 134.146C103.294 134.669 102.977 135.471 102.874 136.554C103.173 136.078 103.542 135.719 103.98 135.476C104.419 135.233 104.932 135.112 105.52 135.112C105.968 135.112 106.379 135.187 106.752 135.336C107.126 135.485 107.448 135.709 107.718 136.008C107.998 136.297 108.213 136.657 108.362 137.086C108.512 137.515 108.586 138.015 108.586 138.584C108.586 139.116 108.512 139.606 108.362 140.054C108.222 140.493 108.008 140.875 107.718 141.202C107.438 141.529 107.088 141.785 106.668 141.972C106.248 142.149 105.758 142.238 105.198 142.238C104.554 142.238 104.008 142.126 103.56 141.902C103.112 141.678 102.748 141.37 102.468 140.978C102.188 140.577 101.983 140.105 101.852 139.564C101.731 139.023 101.67 138.435 101.67 137.8C101.67 137.212 101.698 136.694 101.754 136.246C101.82 135.798 101.913 135.401 102.034 135.056C102.156 134.711 102.3 134.407 102.468 134.146C102.636 133.885 102.828 133.647 103.042 133.432C103.388 133.077 103.859 132.779 104.456 132.536C105.063 132.293 105.772 132.107 106.584 131.976L107.634 131.794L107.774 132.816ZM113.467 142.224C112.917 142.224 112.427 142.135 111.997 141.958C111.568 141.771 111.204 141.51 110.905 141.174C110.607 140.838 110.378 140.432 110.219 139.956C110.061 139.48 109.981 138.943 109.981 138.346C109.981 137.758 110.065 137.226 110.233 136.75C110.401 136.265 110.639 135.854 110.947 135.518C111.255 135.173 111.624 134.911 112.053 134.734C112.492 134.547 112.977 134.454 113.509 134.454C114.051 134.454 114.536 134.547 114.965 134.734C115.395 134.911 115.759 135.168 116.057 135.504C116.365 135.831 116.599 136.232 116.757 136.708C116.916 137.175 116.995 137.702 116.995 138.29C116.995 138.887 116.911 139.429 116.743 139.914C116.585 140.399 116.351 140.815 116.043 141.16C115.745 141.496 115.376 141.757 114.937 141.944C114.499 142.131 114.009 142.224 113.467 142.224ZM113.481 141.216C113.873 141.216 114.209 141.146 114.489 141.006C114.769 140.857 114.998 140.656 115.175 140.404C115.362 140.143 115.497 139.835 115.581 139.48C115.665 139.125 115.707 138.738 115.707 138.318C115.707 137.898 115.665 137.515 115.581 137.17C115.497 136.815 115.362 136.512 115.175 136.26C114.998 136.008 114.769 135.812 114.489 135.672C114.209 135.532 113.873 135.462 113.481 135.462C113.089 135.462 112.753 135.532 112.473 135.672C112.203 135.812 111.974 136.008 111.787 136.26C111.61 136.512 111.479 136.815 111.395 137.17C111.311 137.515 111.269 137.898 111.269 138.318C111.269 138.738 111.311 139.125 111.395 139.48C111.479 139.835 111.61 140.143 111.787 140.404C111.965 140.656 112.193 140.857 112.473 141.006C112.753 141.146 113.089 141.216 113.481 141.216ZM118.627 134.678H120.111L122.589 140.712L125.151 134.678H126.565V142H125.445V136.456L123.051 142H122.043L119.761 136.512V142H118.627V134.678ZM131.575 134.678H132.779V135.714C133.077 135.303 133.423 134.991 133.815 134.776C134.216 134.561 134.683 134.454 135.215 134.454C135.728 134.454 136.176 134.547 136.559 134.734C136.951 134.921 137.273 135.182 137.525 135.518C137.786 135.854 137.977 136.26 138.099 136.736C138.229 137.203 138.295 137.721 138.295 138.29C138.295 138.897 138.22 139.443 138.071 139.928C137.921 140.413 137.707 140.829 137.427 141.174C137.147 141.51 136.806 141.771 136.405 141.958C136.013 142.135 135.569 142.224 135.075 142.224C134.664 142.224 134.258 142.145 133.857 141.986C133.465 141.818 133.11 141.524 132.793 141.104V144.716H131.575V134.678ZM132.779 138.542C132.779 139.018 132.83 139.424 132.933 139.76C133.045 140.096 133.194 140.376 133.381 140.6C133.567 140.815 133.791 140.973 134.053 141.076C134.314 141.169 134.599 141.216 134.907 141.216C135.205 141.216 135.481 141.165 135.733 141.062C135.994 140.959 136.218 140.791 136.405 140.558C136.591 140.325 136.736 140.026 136.839 139.662C136.951 139.289 137.007 138.836 137.007 138.304C137.007 137.763 136.946 137.31 136.825 136.946C136.713 136.582 136.563 136.293 136.377 136.078C136.19 135.854 135.975 135.695 135.733 135.602C135.499 135.509 135.257 135.462 135.005 135.462C134.687 135.462 134.393 135.513 134.123 135.616C133.852 135.719 133.614 135.877 133.409 136.092C133.213 136.297 133.059 136.563 132.947 136.89C132.835 137.207 132.779 137.581 132.779 138.01V138.542ZM146.186 139.97C146.065 140.67 145.752 141.221 145.248 141.622C144.754 142.023 144.04 142.224 143.106 142.224C142.005 142.224 141.16 141.888 140.572 141.216C139.984 140.535 139.69 139.592 139.69 138.388C139.69 137.763 139.774 137.207 139.942 136.722C140.11 136.227 140.344 135.812 140.642 135.476C140.95 135.14 141.314 134.888 141.734 134.72C142.154 134.543 142.612 134.454 143.106 134.454C143.666 134.454 144.147 134.543 144.548 134.72C144.95 134.897 145.276 135.145 145.528 135.462C145.79 135.779 145.981 136.157 146.102 136.596C146.233 137.035 146.298 137.511 146.298 138.024V138.626H140.922C140.922 139.009 140.969 139.359 141.062 139.676C141.165 139.993 141.305 140.269 141.482 140.502C141.669 140.735 141.898 140.917 142.168 141.048C142.439 141.179 142.752 141.244 143.106 141.244C143.713 141.244 144.156 141.132 144.436 140.908C144.716 140.675 144.908 140.362 145.01 139.97H146.186ZM145.08 137.716C145.08 137.025 144.926 136.47 144.618 136.05C144.31 135.621 143.802 135.406 143.092 135.406C142.448 135.406 141.944 135.607 141.58 136.008C141.216 136.4 141.006 136.969 140.95 137.716H145.08ZM152.771 134.678V135.728H149.117V142H147.899V134.678H152.771ZM159.88 142H158.732V136.484L154.994 142H153.846V134.678H154.98V140.208L158.718 134.678H159.88V142ZM164.997 142.224C164.446 142.224 163.956 142.135 163.527 141.958C163.097 141.771 162.733 141.51 162.435 141.174C162.136 140.838 161.907 140.432 161.749 139.956C161.59 139.48 161.511 138.943 161.511 138.346C161.511 137.758 161.595 137.226 161.763 136.75C161.931 136.265 162.169 135.854 162.477 135.518C162.785 135.173 163.153 134.911 163.583 134.734C164.021 134.547 164.507 134.454 165.039 134.454C165.58 134.454 166.065 134.547 166.495 134.734C166.924 134.911 167.288 135.168 167.587 135.504C167.895 135.831 168.128 136.232 168.287 136.708C168.445 137.175 168.525 137.702 168.525 138.29C168.525 138.887 168.441 139.429 168.273 139.914C168.114 140.399 167.881 140.815 167.573 141.16C167.274 141.496 166.905 141.757 166.467 141.944C166.028 142.131 165.538 142.224 164.997 142.224ZM165.011 141.216C165.403 141.216 165.739 141.146 166.019 141.006C166.299 140.857 166.527 140.656 166.705 140.404C166.891 140.143 167.027 139.835 167.111 139.48C167.195 139.125 167.237 138.738 167.237 138.318C167.237 137.898 167.195 137.515 167.111 137.17C167.027 136.815 166.891 136.512 166.705 136.26C166.527 136.008 166.299 135.812 166.019 135.672C165.739 135.532 165.403 135.462 165.011 135.462C164.619 135.462 164.283 135.532 164.003 135.672C163.732 135.812 163.503 136.008 163.317 136.26C163.139 136.512 163.009 136.815 162.925 137.17C162.841 137.515 162.799 137.898 162.799 138.318C162.799 138.738 162.841 139.125 162.925 139.48C163.009 139.835 163.139 140.143 163.317 140.404C163.494 140.656 163.723 140.857 164.003 141.006C164.283 141.146 164.619 141.216 165.011 141.216ZM171.361 134.678V137.66H175.211V134.678H176.429V142H175.211V138.696H171.361V142H170.143V134.678H171.361ZM184.55 139.97C184.428 140.67 184.116 141.221 183.612 141.622C183.117 142.023 182.403 142.224 181.47 142.224C180.368 142.224 179.524 141.888 178.936 141.216C178.348 140.535 178.054 139.592 178.054 138.388C178.054 137.763 178.138 137.207 178.306 136.722C178.474 136.227 178.707 135.812 179.006 135.476C179.314 135.14 179.678 134.888 180.098 134.72C180.518 134.543 180.975 134.454 181.47 134.454C182.03 134.454 182.51 134.543 182.912 134.72C183.313 134.897 183.64 135.145 183.892 135.462C184.153 135.779 184.344 136.157 184.466 136.596C184.596 137.035 184.662 137.511 184.662 138.024V138.626H179.286C179.286 139.009 179.332 139.359 179.426 139.676C179.528 139.993 179.668 140.269 179.846 140.502C180.032 140.735 180.261 140.917 180.532 141.048C180.802 141.179 181.115 141.244 181.47 141.244C182.076 141.244 182.52 141.132 182.8 140.908C183.08 140.675 183.271 140.362 183.374 139.97H184.55ZM183.444 137.716C183.444 137.025 183.29 136.47 182.982 136.05C182.674 135.621 182.165 135.406 181.456 135.406C180.812 135.406 180.308 135.607 179.944 136.008C179.58 136.4 179.37 136.969 179.314 137.716H183.444ZM192.893 137.03C193.378 137.03 193.78 136.983 194.097 136.89C194.414 136.797 194.662 136.661 194.839 136.484C195.016 136.307 195.138 136.097 195.203 135.854C195.278 135.602 195.315 135.322 195.315 135.014C195.315 134.697 195.278 134.417 195.203 134.174C195.128 133.931 194.998 133.731 194.811 133.572C194.634 133.413 194.386 133.297 194.069 133.222C193.752 133.138 193.355 133.096 192.879 133.096H190.835V137.03H192.893ZM192.907 132.004C193.644 132.004 194.251 132.083 194.727 132.242C195.212 132.401 195.59 132.615 195.861 132.886C196.141 133.157 196.332 133.474 196.435 133.838C196.547 134.193 196.603 134.571 196.603 134.972C196.603 135.392 196.547 135.793 196.435 136.176C196.323 136.559 196.127 136.895 195.847 137.184C195.567 137.473 195.189 137.702 194.713 137.87C194.237 138.038 193.635 138.122 192.907 138.122H190.835V142H189.561V132.004H192.907ZM200.967 142.224C200.417 142.224 199.927 142.135 199.497 141.958C199.068 141.771 198.704 141.51 198.405 141.174C198.107 140.838 197.878 140.432 197.719 139.956C197.561 139.48 197.481 138.943 197.481 138.346C197.481 137.758 197.565 137.226 197.733 136.75C197.901 136.265 198.139 135.854 198.447 135.518C198.755 135.173 199.124 134.911 199.553 134.734C199.992 134.547 200.477 134.454 201.009 134.454C201.551 134.454 202.036 134.547 202.465 134.734C202.895 134.911 203.259 135.168 203.557 135.504C203.865 135.831 204.099 136.232 204.257 136.708C204.416 137.175 204.495 137.702 204.495 138.29C204.495 138.887 204.411 139.429 204.243 139.914C204.085 140.399 203.851 140.815 203.543 141.16C203.245 141.496 202.876 141.757 202.437 141.944C201.999 142.131 201.509 142.224 200.967 142.224ZM200.981 141.216C201.373 141.216 201.709 141.146 201.989 141.006C202.269 140.857 202.498 140.656 202.675 140.404C202.862 140.143 202.997 139.835 203.081 139.48C203.165 139.125 203.207 138.738 203.207 138.318C203.207 137.898 203.165 137.515 203.081 137.17C202.997 136.815 202.862 136.512 202.675 136.26C202.498 136.008 202.269 135.812 201.989 135.672C201.709 135.532 201.373 135.462 200.981 135.462C200.589 135.462 200.253 135.532 199.973 135.672C199.703 135.812 199.474 136.008 199.287 136.26C199.11 136.512 198.979 136.815 198.895 137.17C198.811 137.515 198.769 137.898 198.769 138.318C198.769 138.738 198.811 139.125 198.895 139.48C198.979 139.835 199.11 140.143 199.287 140.404C199.465 140.656 199.693 140.857 199.973 141.006C200.253 141.146 200.589 141.216 200.981 141.216ZM212.399 139.55C212.278 140.381 211.961 141.034 211.447 141.51C210.934 141.986 210.211 142.224 209.277 142.224C208.727 142.224 208.237 142.135 207.807 141.958C207.387 141.781 207.033 141.524 206.743 141.188C206.463 140.852 206.249 140.446 206.099 139.97C205.959 139.494 205.889 138.957 205.889 138.36C205.889 137.772 205.969 137.24 206.127 136.764C206.286 136.279 206.515 135.868 206.813 135.532C207.112 135.187 207.476 134.921 207.905 134.734C208.335 134.547 208.82 134.454 209.361 134.454C210.229 134.454 210.901 134.669 211.377 135.098C211.853 135.518 212.157 136.101 212.287 136.848L211.069 137.072C211.023 136.839 210.957 136.624 210.873 136.428C210.799 136.232 210.691 136.064 210.551 135.924C210.411 135.775 210.239 135.663 210.033 135.588C209.837 135.504 209.599 135.462 209.319 135.462C208.937 135.462 208.61 135.537 208.339 135.686C208.069 135.826 207.845 136.027 207.667 136.288C207.499 136.549 207.373 136.857 207.289 137.212C207.215 137.557 207.177 137.931 207.177 138.332C207.177 138.743 207.215 139.125 207.289 139.48C207.364 139.825 207.485 140.129 207.653 140.39C207.821 140.642 208.041 140.843 208.311 140.992C208.582 141.141 208.913 141.216 209.305 141.216C209.893 141.216 210.327 141.067 210.607 140.768C210.897 140.469 211.083 140.063 211.167 139.55H212.399ZM220.22 139.55C220.098 140.381 219.781 141.034 219.268 141.51C218.754 141.986 218.031 142.224 217.098 142.224C216.547 142.224 216.057 142.135 215.628 141.958C215.208 141.781 214.853 141.524 214.564 141.188C214.284 140.852 214.069 140.446 213.92 139.97C213.78 139.494 213.71 138.957 213.71 138.36C213.71 137.772 213.789 137.24 213.948 136.764C214.106 136.279 214.335 135.868 214.634 135.532C214.932 135.187 215.296 134.921 215.726 134.734C216.155 134.547 216.64 134.454 217.182 134.454C218.05 134.454 218.722 134.669 219.198 135.098C219.674 135.518 219.977 136.101 220.108 136.848L218.89 137.072C218.843 136.839 218.778 136.624 218.694 136.428C218.619 136.232 218.512 136.064 218.372 135.924C218.232 135.775 218.059 135.663 217.854 135.588C217.658 135.504 217.42 135.462 217.14 135.462C216.757 135.462 216.43 135.537 216.16 135.686C215.889 135.826 215.665 136.027 215.488 136.288C215.32 136.549 215.194 136.857 215.11 137.212C215.035 137.557 214.998 137.931 214.998 138.332C214.998 138.743 215.035 139.125 215.11 139.48C215.184 139.825 215.306 140.129 215.474 140.39C215.642 140.642 215.861 140.843 216.132 140.992C216.402 141.141 216.734 141.216 217.126 141.216C217.714 141.216 218.148 141.067 218.428 140.768C218.717 140.469 218.904 140.063 218.988 139.55H220.22ZM227.788 142H226.64V136.484L222.902 142H221.754V134.678H222.888V140.208L226.626 134.678H227.788V142ZM235.677 142H234.529V136.484L230.791 142H229.643V134.678H230.777V140.208L234.515 134.678H235.677V142ZM77.958 158H76.81V152.484L73.072 158H71.924V150.678H73.058V156.208L76.796 150.678H77.958V158ZM84.7407 151.672H82.3187L82.0107 154.192C81.9267 154.892 81.81 155.489 81.6607 155.984C81.5113 156.469 81.32 156.871 81.0867 157.188C80.8533 157.496 80.5733 157.72 80.2467 157.86C79.9293 158 79.556 158.07 79.1267 158.07H78.8887V157.048H79.0287C79.2713 157.048 79.486 157.001 79.6727 156.908C79.8687 156.815 80.0413 156.647 80.1907 156.404C80.3493 156.161 80.4847 155.825 80.5967 155.396C80.7087 154.967 80.802 154.421 80.8767 153.758L81.2267 150.678H85.9587V158H84.7407V151.672ZM93.8447 158H92.6967V152.484L88.9587 158H87.8107V150.678H88.9447V156.208L92.6827 150.678H93.8447V158ZM101.561 150.454C102.055 150.454 102.48 150.505 102.835 150.608C103.199 150.711 103.497 150.855 103.731 151.042C103.973 151.219 104.151 151.429 104.263 151.672C104.375 151.905 104.431 152.162 104.431 152.442C104.431 152.853 104.319 153.207 104.095 153.506C103.871 153.795 103.586 154.005 103.241 154.136C103.651 154.267 103.983 154.481 104.235 154.78C104.487 155.069 104.613 155.461 104.613 155.956C104.613 156.283 104.552 156.581 104.431 156.852C104.309 157.123 104.118 157.361 103.857 157.566C103.605 157.771 103.278 157.93 102.877 158.042C102.485 158.154 102.018 158.21 101.477 158.21C100.543 158.21 99.8012 158.028 99.2506 157.664C98.6999 157.291 98.3966 156.689 98.3406 155.858H99.5166C99.5912 156.353 99.7919 156.707 100.119 156.922C100.445 157.127 100.917 157.23 101.533 157.23C102.214 157.23 102.685 157.113 102.947 156.88C103.217 156.637 103.353 156.325 103.353 155.942C103.353 155.522 103.213 155.205 102.933 154.99C102.653 154.775 102.256 154.668 101.743 154.668H100.273V153.772H101.799C102.256 153.772 102.601 153.669 102.835 153.464C103.077 153.249 103.199 152.96 103.199 152.596C103.199 152.232 103.063 151.952 102.793 151.756C102.522 151.551 102.102 151.448 101.533 151.448C101.206 151.448 100.931 151.476 100.707 151.532C100.483 151.579 100.296 151.653 100.147 151.756C100.007 151.859 99.8899 151.989 99.7966 152.148C99.7032 152.297 99.6239 152.47 99.5586 152.666L98.4526 152.47C98.5272 152.181 98.6346 151.915 98.7746 151.672C98.9239 151.42 99.1199 151.205 99.3626 151.028C99.6052 150.851 99.9039 150.711 100.259 150.608C100.623 150.505 101.057 150.454 101.561 150.454ZM110.694 157.006C110.433 157.323 110.101 157.599 109.7 157.832C109.299 158.056 108.799 158.168 108.202 158.168C107.838 158.168 107.502 158.121 107.194 158.028C106.895 157.944 106.634 157.813 106.41 157.636C106.195 157.449 106.027 157.221 105.906 156.95C105.785 156.679 105.724 156.362 105.724 155.998C105.724 155.494 105.827 155.083 106.032 154.766C106.247 154.439 106.527 154.187 106.872 154.01C107.227 153.823 107.623 153.697 108.062 153.632C108.501 153.557 108.953 153.511 109.42 153.492L110.666 153.45V153.156C110.666 152.54 110.535 152.097 110.274 151.826C110.013 151.555 109.588 151.42 109 151.42C108.421 151.42 107.997 151.518 107.726 151.714C107.455 151.901 107.278 152.162 107.194 152.498L106.088 152.372C106.219 151.709 106.531 151.229 107.026 150.93C107.521 150.622 108.193 150.468 109.042 150.468C109.565 150.468 110.003 150.533 110.358 150.664C110.722 150.785 111.016 150.963 111.24 151.196C111.464 151.429 111.623 151.719 111.716 152.064C111.819 152.409 111.87 152.797 111.87 153.226V158H110.694V157.006ZM110.666 154.318L109.504 154.36C109.009 154.379 108.599 154.425 108.272 154.5C107.945 154.575 107.684 154.677 107.488 154.808C107.301 154.939 107.166 155.102 107.082 155.298C107.007 155.485 106.97 155.709 106.97 155.97C106.97 156.334 107.077 156.628 107.292 156.852C107.516 157.067 107.88 157.174 108.384 157.174C109.103 157.174 109.663 156.997 110.064 156.642C110.465 156.287 110.666 155.802 110.666 155.186V154.318ZM121.694 150.678V151.728H118.04V158H116.822V150.678H121.694ZM122.784 150.678H123.988V151.714C124.286 151.303 124.632 150.991 125.024 150.776C125.425 150.561 125.892 150.454 126.424 150.454C126.937 150.454 127.385 150.547 127.768 150.734C128.16 150.921 128.482 151.182 128.734 151.518C128.995 151.854 129.186 152.26 129.308 152.736C129.438 153.203 129.504 153.721 129.504 154.29C129.504 154.897 129.429 155.443 129.28 155.928C129.13 156.413 128.916 156.829 128.636 157.174C128.356 157.51 128.015 157.771 127.614 157.958C127.222 158.135 126.778 158.224 126.284 158.224C125.873 158.224 125.467 158.145 125.066 157.986C124.674 157.818 124.319 157.524 124.002 157.104V160.716H122.784V150.678ZM123.988 154.542C123.988 155.018 124.039 155.424 124.142 155.76C124.254 156.096 124.403 156.376 124.59 156.6C124.776 156.815 125 156.973 125.262 157.076C125.523 157.169 125.808 157.216 126.116 157.216C126.414 157.216 126.69 157.165 126.942 157.062C127.203 156.959 127.427 156.791 127.614 156.558C127.8 156.325 127.945 156.026 128.048 155.662C128.16 155.289 128.216 154.836 128.216 154.304C128.216 153.763 128.155 153.31 128.034 152.946C127.922 152.582 127.772 152.293 127.586 152.078C127.399 151.854 127.184 151.695 126.942 151.602C126.708 151.509 126.466 151.462 126.214 151.462C125.896 151.462 125.602 151.513 125.332 151.616C125.061 151.719 124.823 151.877 124.618 152.092C124.422 152.297 124.268 152.563 124.156 152.89C124.044 153.207 123.988 153.581 123.988 154.01V154.542ZM135.645 157.006C135.384 157.323 135.053 157.599 134.651 157.832C134.25 158.056 133.751 158.168 133.153 158.168C132.789 158.168 132.453 158.121 132.145 158.028C131.847 157.944 131.585 157.813 131.361 157.636C131.147 157.449 130.979 157.221 130.857 156.95C130.736 156.679 130.675 156.362 130.675 155.998C130.675 155.494 130.778 155.083 130.983 154.766C131.198 154.439 131.478 154.187 131.823 154.01C132.178 153.823 132.575 153.697 133.013 153.632C133.452 153.557 133.905 153.511 134.371 153.492L135.617 153.45V153.156C135.617 152.54 135.487 152.097 135.225 151.826C134.964 151.555 134.539 151.42 133.951 151.42C133.373 151.42 132.948 151.518 132.677 151.714C132.407 151.901 132.229 152.162 132.145 152.498L131.039 152.372C131.17 151.709 131.483 151.229 131.977 150.93C132.472 150.622 133.144 150.468 133.993 150.468C134.516 150.468 134.955 150.533 135.309 150.664C135.673 150.785 135.967 150.963 136.191 151.196C136.415 151.429 136.574 151.719 136.667 152.064C136.77 152.409 136.821 152.797 136.821 153.226V158H135.645V157.006ZM135.617 154.318L134.455 154.36C133.961 154.379 133.55 154.425 133.223 154.5C132.897 154.575 132.635 154.677 132.439 154.808C132.253 154.939 132.117 155.102 132.033 155.298C131.959 155.485 131.921 155.709 131.921 155.97C131.921 156.334 132.029 156.628 132.243 156.852C132.467 157.067 132.831 157.174 133.335 157.174C134.054 157.174 134.614 156.997 135.015 156.642C135.417 156.287 135.617 155.802 135.617 155.186V154.318ZM139.874 150.678V153.66H143.724V150.678H144.942V158H143.724V154.696H139.874V158H138.656V150.678H139.874ZM152.825 158H151.677V152.484L147.939 158H146.791V150.678H147.925V156.208L151.663 150.678H152.825V158ZM154.68 158V150.678H155.898V156.964H159.356V150.678H160.574V156.964H161.428V159.96H160.322V158H154.68ZM168.841 155.97C168.719 156.67 168.407 157.221 167.903 157.622C167.408 158.023 166.694 158.224 165.761 158.224C164.659 158.224 163.815 157.888 163.227 157.216C162.639 156.535 162.345 155.592 162.345 154.388C162.345 153.763 162.429 153.207 162.597 152.722C162.765 152.227 162.998 151.812 163.297 151.476C163.605 151.14 163.969 150.888 164.389 150.72C164.809 150.543 165.266 150.454 165.761 150.454C166.321 150.454 166.801 150.543 167.203 150.72C167.604 150.897 167.931 151.145 168.183 151.462C168.444 151.779 168.635 152.157 168.757 152.596C168.887 153.035 168.953 153.511 168.953 154.024V154.626H163.577C163.577 155.009 163.623 155.359 163.717 155.676C163.819 155.993 163.959 156.269 164.137 156.502C164.323 156.735 164.552 156.917 164.823 157.048C165.093 157.179 165.406 157.244 165.761 157.244C166.367 157.244 166.811 157.132 167.091 156.908C167.371 156.675 167.562 156.362 167.665 155.97H168.841ZM167.735 153.716C167.735 153.025 167.581 152.47 167.273 152.05C166.965 151.621 166.456 151.406 165.747 151.406C165.103 151.406 164.599 151.607 164.235 152.008C163.871 152.4 163.661 152.969 163.605 153.716H167.735ZM176.587 158H175.439V152.484L171.701 158H170.553V150.678H171.687V156.208L175.425 150.678H176.587V158ZM172.499 147.836C172.518 148.191 172.634 148.471 172.849 148.676C173.064 148.872 173.362 148.97 173.745 148.97C174.128 148.97 174.426 148.872 174.641 148.676C174.856 148.471 174.977 148.191 175.005 147.836H175.929C175.929 148.415 175.738 148.886 175.355 149.25C174.982 149.605 174.445 149.782 173.745 149.782C173.026 149.782 172.485 149.605 172.121 149.25C171.757 148.886 171.575 148.415 171.575 147.836H172.499ZM178.568 156.334H179.856L179.128 159.358H178.148L178.568 156.334ZM184.69 150.678H186.174L188.652 156.712L191.214 150.678H192.628V158H191.508V152.456L189.114 158H188.106L185.824 152.512V158H184.69V150.678ZM195.724 150.678V153.366H197.908C198.823 153.366 199.485 153.576 199.896 153.996C200.307 154.407 200.512 154.957 200.512 155.648C200.512 156.348 200.283 156.917 199.826 157.356C199.378 157.785 198.673 158 197.712 158H194.506V150.678H195.724ZM201.492 150.678H202.71V158H201.492V150.678ZM195.724 156.992H197.768C198.281 156.992 198.655 156.88 198.888 156.656C199.121 156.423 199.238 156.096 199.238 155.676C199.238 155.247 199.126 154.92 198.902 154.696C198.687 154.472 198.291 154.36 197.712 154.36H195.724V156.992ZM73.142 166.678V169.66H76.992V166.678H78.21V174H76.992V170.696H73.142V174H71.924V166.678H73.142ZM84.5808 173.006C84.3194 173.323 83.9881 173.599 83.5868 173.832C83.1854 174.056 82.6861 174.168 82.0888 174.168C81.7248 174.168 81.3888 174.121 81.0808 174.028C80.7821 173.944 80.5208 173.813 80.2968 173.636C80.0821 173.449 79.9141 173.221 79.7928 172.95C79.6714 172.679 79.6108 172.362 79.6108 171.998C79.6108 171.494 79.7134 171.083 79.9188 170.766C80.1334 170.439 80.4134 170.187 80.7588 170.01C81.1134 169.823 81.5101 169.697 81.9488 169.632C82.3874 169.557 82.8401 169.511 83.3068 169.492L84.5528 169.45V169.156C84.5528 168.54 84.4221 168.097 84.1608 167.826C83.8994 167.555 83.4748 167.42 82.8868 167.42C82.3081 167.42 81.8834 167.518 81.6128 167.714C81.3421 167.901 81.1648 168.162 81.0808 168.498L79.9748 168.372C80.1054 167.709 80.4181 167.229 80.9128 166.93C81.4074 166.622 82.0794 166.468 82.9288 166.468C83.4514 166.468 83.8901 166.533 84.2448 166.664C84.6088 166.785 84.9028 166.963 85.1268 167.196C85.3508 167.429 85.5094 167.719 85.6028 168.064C85.7054 168.409 85.7568 168.797 85.7568 169.226V174H84.5808V173.006ZM84.5528 170.318L83.3908 170.36C82.8961 170.379 82.4854 170.425 82.1588 170.5C81.8321 170.575 81.5708 170.677 81.3748 170.808C81.1881 170.939 81.0528 171.102 80.9688 171.298C80.8941 171.485 80.8568 171.709 80.8568 171.97C80.8568 172.334 80.9641 172.628 81.1788 172.852C81.4028 173.067 81.7668 173.174 82.2708 173.174C82.9894 173.174 83.5494 172.997 83.9508 172.642C84.3521 172.287 84.5528 171.802 84.5528 171.186V170.318ZM93.682 166.678V174H92.464V167.728H88.81V174H87.592V166.678H93.682ZM95.563 166.678H96.767V167.714C97.0657 167.303 97.411 166.991 97.803 166.776C98.2043 166.561 98.671 166.454 99.203 166.454C99.7163 166.454 100.164 166.547 100.547 166.734C100.939 166.921 101.261 167.182 101.513 167.518C101.774 167.854 101.966 168.26 102.087 168.736C102.218 169.203 102.283 169.721 102.283 170.29C102.283 170.897 102.208 171.443 102.059 171.928C101.91 172.413 101.695 172.829 101.415 173.174C101.135 173.51 100.794 173.771 100.393 173.958C100.001 174.135 99.5577 174.224 99.063 174.224C98.6523 174.224 98.2463 174.145 97.845 173.986C97.453 173.818 97.0983 173.524 96.781 173.104V176.716H95.563V166.678ZM96.767 170.542C96.767 171.018 96.8183 171.424 96.921 171.76C97.033 172.096 97.1823 172.376 97.369 172.6C97.5557 172.815 97.7797 172.973 98.041 173.076C98.3023 173.169 98.587 173.216 98.895 173.216C99.1937 173.216 99.469 173.165 99.721 173.062C99.9823 172.959 100.206 172.791 100.393 172.558C100.58 172.325 100.724 172.026 100.827 171.662C100.939 171.289 100.995 170.836 100.995 170.304C100.995 169.763 100.934 169.31 100.813 168.946C100.701 168.582 100.552 168.293 100.365 168.078C100.178 167.854 99.9637 167.695 99.721 167.602C99.4877 167.509 99.245 167.462 98.993 167.462C98.6757 167.462 98.3817 167.513 98.111 167.616C97.8403 167.719 97.6023 167.877 97.397 168.092C97.201 168.297 97.047 168.563 96.935 168.89C96.823 169.207 96.767 169.581 96.767 170.01V170.542ZM108.425 173.006C108.163 173.323 107.832 173.599 107.431 173.832C107.029 174.056 106.53 174.168 105.933 174.168C105.569 174.168 105.233 174.121 104.925 174.028C104.626 173.944 104.365 173.813 104.141 173.636C103.926 173.449 103.758 173.221 103.637 172.95C103.515 172.679 103.455 172.362 103.455 171.998C103.455 171.494 103.557 171.083 103.763 170.766C103.977 170.439 104.257 170.187 104.603 170.01C104.957 169.823 105.354 169.697 105.793 169.632C106.231 169.557 106.684 169.511 107.151 169.492L108.397 169.45V169.156C108.397 168.54 108.266 168.097 108.005 167.826C107.743 167.555 107.319 167.42 106.731 167.42C106.152 167.42 105.727 167.518 105.457 167.714C105.186 167.901 105.009 168.162 104.925 168.498L103.819 168.372C103.949 167.709 104.262 167.229 104.757 166.93C105.251 166.622 105.923 166.468 106.773 166.468C107.295 166.468 107.734 166.533 108.089 166.664C108.453 166.785 108.747 166.963 108.971 167.196C109.195 167.429 109.353 167.719 109.447 168.064C109.549 168.409 109.601 168.797 109.601 169.226V174H108.425V173.006ZM108.397 170.318L107.235 170.36C106.74 170.379 106.329 170.425 106.003 170.5C105.676 170.575 105.415 170.677 105.219 170.808C105.032 170.939 104.897 171.102 104.813 171.298C104.738 171.485 104.701 171.709 104.701 171.97C104.701 172.334 104.808 172.628 105.023 172.852C105.247 173.067 105.611 173.174 106.115 173.174C106.833 173.174 107.393 172.997 107.795 172.642C108.196 172.287 108.397 171.802 108.397 171.186V170.318ZM111.436 166.678H114.6C115.15 166.678 115.603 166.729 115.958 166.832C116.322 166.935 116.606 167.075 116.812 167.252C117.026 167.429 117.176 167.63 117.26 167.854C117.344 168.078 117.386 168.311 117.386 168.554C117.386 168.937 117.302 169.268 117.134 169.548C116.975 169.819 116.704 170.033 116.322 170.192C116.751 170.332 117.073 170.551 117.288 170.85C117.512 171.149 117.624 171.499 117.624 171.9C117.624 172.199 117.577 172.474 117.484 172.726C117.4 172.978 117.246 173.202 117.022 173.398C116.807 173.585 116.513 173.734 116.14 173.846C115.776 173.949 115.309 174 114.74 174H111.436V166.678ZM114.656 169.8C115.188 169.8 115.57 169.707 115.804 169.52C116.046 169.333 116.168 169.067 116.168 168.722C116.168 168.367 116.042 168.101 115.79 167.924C115.547 167.737 115.146 167.644 114.586 167.644H112.654V169.8H114.656ZM114.74 173.02C115.346 173.02 115.771 172.927 116.014 172.74C116.256 172.544 116.378 172.259 116.378 171.886C116.378 171.513 116.247 171.223 115.986 171.018C115.724 170.803 115.314 170.696 114.754 170.696H112.654V173.02H114.74ZM125.099 174H123.951V168.484L120.213 174H119.065V166.678H120.199V172.208L123.937 166.678H125.099V174ZM126.967 166.678H128.451L130.929 172.712L133.491 166.678H134.905V174H133.785V168.456L131.391 174H130.383L128.101 168.512V174H126.967V166.678ZM139.901 174V166.678H141.105V169.856H141.595C141.772 169.856 141.926 169.837 142.057 169.8C142.197 169.763 142.323 169.702 142.435 169.618C142.547 169.525 142.649 169.408 142.743 169.268C142.836 169.128 142.934 168.951 143.037 168.736L143.457 167.868C143.559 167.653 143.662 167.471 143.765 167.322C143.877 167.173 143.998 167.051 144.129 166.958C144.269 166.855 144.427 166.785 144.605 166.748C144.782 166.701 144.992 166.678 145.235 166.678C145.365 166.678 145.487 166.687 145.599 166.706C145.72 166.725 145.809 166.743 145.865 166.762L145.739 167.7C145.711 167.681 145.655 167.667 145.571 167.658C145.487 167.649 145.393 167.644 145.291 167.644C145.048 167.644 144.866 167.7 144.745 167.812C144.633 167.915 144.525 168.083 144.423 168.316L144.017 169.198C143.905 169.459 143.774 169.674 143.625 169.842C143.485 170.001 143.303 170.131 143.079 170.234C143.275 170.309 143.447 170.416 143.597 170.556C143.746 170.696 143.905 170.887 144.073 171.13L145.991 174H144.591L142.911 171.48C142.743 171.228 142.575 171.041 142.407 170.92C142.239 170.799 142.001 170.738 141.693 170.738H141.105V174H139.901ZM150.127 166.678H153.291C153.842 166.678 154.294 166.729 154.649 166.832C155.013 166.935 155.298 167.075 155.503 167.252C155.718 167.429 155.867 167.63 155.951 167.854C156.035 168.078 156.077 168.311 156.077 168.554C156.077 168.937 155.993 169.268 155.825 169.548C155.666 169.819 155.396 170.033 155.013 170.192C155.442 170.332 155.764 170.551 155.979 170.85C156.203 171.149 156.315 171.499 156.315 171.9C156.315 172.199 156.268 172.474 156.175 172.726C156.091 172.978 155.937 173.202 155.713 173.398C155.498 173.585 155.204 173.734 154.831 173.846C154.467 173.949 154 174 153.431 174H150.127V166.678ZM153.347 169.8C153.879 169.8 154.262 169.707 154.495 169.52C154.738 169.333 154.859 169.067 154.859 168.722C154.859 168.367 154.733 168.101 154.481 167.924C154.238 167.737 153.837 167.644 153.277 167.644H151.345V169.8H153.347ZM153.431 173.02C154.038 173.02 154.462 172.927 154.705 172.74C154.948 172.544 155.069 172.259 155.069 171.886C155.069 171.513 154.938 171.223 154.677 171.018C154.416 170.803 154.005 170.696 153.445 170.696H151.345V173.02H153.431ZM162.278 173.006C162.017 173.323 161.685 173.599 161.284 173.832C160.883 174.056 160.383 174.168 159.786 174.168C159.422 174.168 159.086 174.121 158.778 174.028C158.479 173.944 158.218 173.813 157.994 173.636C157.779 173.449 157.611 173.221 157.49 172.95C157.369 172.679 157.308 172.362 157.308 171.998C157.308 171.494 157.411 171.083 157.616 170.766C157.831 170.439 158.111 170.187 158.456 170.01C158.811 169.823 159.207 169.697 159.646 169.632C160.085 169.557 160.537 169.511 161.004 169.492L162.25 169.45V169.156C162.25 168.54 162.119 168.097 161.858 167.826C161.597 167.555 161.172 167.42 160.584 167.42C160.005 167.42 159.581 167.518 159.31 167.714C159.039 167.901 158.862 168.162 158.778 168.498L157.672 168.372C157.803 167.709 158.115 167.229 158.61 166.93C159.105 166.622 159.777 166.468 160.626 166.468C161.149 166.468 161.587 166.533 161.942 166.664C162.306 166.785 162.6 166.963 162.824 167.196C163.048 167.429 163.207 167.719 163.3 168.064C163.403 168.409 163.454 168.797 163.454 169.226V174H162.278V173.006ZM162.25 170.318L161.088 170.36C160.593 170.379 160.183 170.425 159.856 170.5C159.529 170.575 159.268 170.677 159.072 170.808C158.885 170.939 158.75 171.102 158.666 171.298C158.591 171.485 158.554 171.709 158.554 171.97C158.554 172.334 158.661 172.628 158.876 172.852C159.1 173.067 159.464 173.174 159.968 173.174C160.687 173.174 161.247 172.997 161.648 172.642C162.049 172.287 162.25 171.802 162.25 171.186V170.318ZM165.303 166.678H166.787L169.265 172.712L171.827 166.678H173.241V174H172.121V168.456L169.727 174H168.719L166.437 168.512V174H165.303V166.678ZM178.236 174V166.678H179.441V169.856H179.931C180.108 169.856 180.262 169.837 180.393 169.8C180.533 169.763 180.659 169.702 180.771 169.618C180.883 169.525 180.985 169.408 181.079 169.268C181.172 169.128 181.27 168.951 181.373 168.736L181.793 167.868C181.895 167.653 181.998 167.471 182.101 167.322C182.213 167.173 182.334 167.051 182.465 166.958C182.605 166.855 182.763 166.785 182.941 166.748C183.118 166.701 183.328 166.678 183.571 166.678C183.701 166.678 183.823 166.687 183.935 166.706C184.056 166.725 184.145 166.743 184.201 166.762L184.075 167.7C184.047 167.681 183.991 167.667 183.907 167.658C183.823 167.649 183.729 167.644 183.627 167.644C183.384 167.644 183.202 167.7 183.081 167.812C182.969 167.915 182.861 168.083 182.759 168.316L182.353 169.198C182.241 169.459 182.11 169.674 181.961 169.842C181.821 170.001 181.639 170.131 181.415 170.234C181.611 170.309 181.783 170.416 181.933 170.556C182.082 170.696 182.241 170.887 182.409 171.13L184.327 174H182.927L181.247 171.48C181.079 171.228 180.911 171.041 180.743 170.92C180.575 170.799 180.337 170.738 180.029 170.738H179.441V174H178.236ZM188.307 174.224C187.756 174.224 187.266 174.135 186.837 173.958C186.408 173.771 186.044 173.51 185.745 173.174C185.446 172.838 185.218 172.432 185.059 171.956C184.9 171.48 184.821 170.943 184.821 170.346C184.821 169.758 184.905 169.226 185.073 168.75C185.241 168.265 185.479 167.854 185.787 167.518C186.095 167.173 186.464 166.911 186.893 166.734C187.332 166.547 187.817 166.454 188.349 166.454C188.89 166.454 189.376 166.547 189.805 166.734C190.234 166.911 190.598 167.168 190.897 167.504C191.205 167.831 191.438 168.232 191.597 168.708C191.756 169.175 191.835 169.702 191.835 170.29C191.835 170.887 191.751 171.429 191.583 171.914C191.424 172.399 191.191 172.815 190.883 173.16C190.584 173.496 190.216 173.757 189.777 173.944C189.338 174.131 188.848 174.224 188.307 174.224ZM188.321 173.216C188.713 173.216 189.049 173.146 189.329 173.006C189.609 172.857 189.838 172.656 190.015 172.404C190.202 172.143 190.337 171.835 190.421 171.48C190.505 171.125 190.547 170.738 190.547 170.318C190.547 169.898 190.505 169.515 190.421 169.17C190.337 168.815 190.202 168.512 190.015 168.26C189.838 168.008 189.609 167.812 189.329 167.672C189.049 167.532 188.713 167.462 188.321 167.462C187.929 167.462 187.593 167.532 187.313 167.672C187.042 167.812 186.814 168.008 186.627 168.26C186.45 168.512 186.319 168.815 186.235 169.17C186.151 169.515 186.109 169.898 186.109 170.318C186.109 170.738 186.151 171.125 186.235 171.48C186.319 171.835 186.45 172.143 186.627 172.404C186.804 172.656 187.033 172.857 187.313 173.006C187.593 173.146 187.929 173.216 188.321 173.216ZM193.467 166.678H194.951L197.429 172.712L199.991 166.678H201.405V174H200.285V168.456L197.891 174H196.883L194.601 168.512V174H193.467V166.678ZM207.805 173.006C207.544 173.323 207.213 173.599 206.811 173.832C206.41 174.056 205.911 174.168 205.313 174.168C204.949 174.168 204.613 174.121 204.305 174.028C204.007 173.944 203.745 173.813 203.521 173.636C203.307 173.449 203.139 173.221 203.017 172.95C202.896 172.679 202.835 172.362 202.835 171.998C202.835 171.494 202.938 171.083 203.143 170.766C203.358 170.439 203.638 170.187 203.983 170.01C204.338 169.823 204.735 169.697 205.173 169.632C205.612 169.557 206.065 169.511 206.531 169.492L207.777 169.45V169.156C207.777 168.54 207.647 168.097 207.385 167.826C207.124 167.555 206.699 167.42 206.111 167.42C205.533 167.42 205.108 167.518 204.837 167.714C204.567 167.901 204.389 168.162 204.305 168.498L203.199 168.372C203.33 167.709 203.643 167.229 204.137 166.93C204.632 166.622 205.304 166.468 206.153 166.468C206.676 166.468 207.115 166.533 207.469 166.664C207.833 166.785 208.127 166.963 208.351 167.196C208.575 167.429 208.734 167.719 208.827 168.064C208.93 168.409 208.981 168.797 208.981 169.226V174H207.805V173.006ZM207.777 170.318L206.615 170.36C206.121 170.379 205.71 170.425 205.383 170.5C205.057 170.575 204.795 170.677 204.599 170.808C204.413 170.939 204.277 171.102 204.193 171.298C204.119 171.485 204.081 171.709 204.081 171.97C204.081 172.334 204.189 172.628 204.403 172.852C204.627 173.067 204.991 173.174 205.495 173.174C206.214 173.174 206.774 172.997 207.175 172.642C207.577 172.287 207.777 171.802 207.777 171.186V170.318ZM212.035 166.678V169.66H215.885V166.678H217.103V174H215.885V170.696H212.035V174H210.817V166.678H212.035ZM224.999 166.678V172.964H225.853V175.96H224.747V174H219.273V175.96H218.167V172.964H218.881C219.049 172.805 219.203 172.595 219.343 172.334C219.483 172.073 219.609 171.751 219.721 171.368C219.833 170.976 219.931 170.514 220.015 169.982C220.109 169.45 220.188 168.834 220.253 168.134L220.379 166.678H224.999ZM221.331 168.792C221.219 169.912 221.065 170.803 220.869 171.466C220.683 172.129 220.463 172.628 220.211 172.964H223.781V167.672H221.443L221.331 168.792ZM227.153 175.526C227.274 175.573 227.409 175.61 227.559 175.638C227.708 175.675 227.853 175.694 227.993 175.694C228.282 175.694 228.506 175.615 228.665 175.456C228.833 175.297 229.005 175.008 229.183 174.588L229.491 173.846L226.397 166.678H227.811L230.107 172.446L232.193 166.678H233.537L230.373 174.686C230.242 175.013 230.107 175.302 229.967 175.554C229.836 175.806 229.687 176.016 229.519 176.184C229.351 176.361 229.155 176.492 228.931 176.576C228.716 176.669 228.464 176.716 228.175 176.716C227.895 176.716 227.661 176.697 227.475 176.66C227.288 176.623 227.101 176.571 226.915 176.506L227.153 175.526ZM77.972 182.678V188.964H78.826V191.96H77.72V190H72.246V191.96H71.14V188.964H71.854C72.022 188.805 72.176 188.595 72.316 188.334C72.456 188.073 72.582 187.751 72.694 187.368C72.806 186.976 72.904 186.514 72.988 185.982C73.0813 185.45 73.1607 184.834 73.226 184.134L73.352 182.678H77.972ZM74.304 184.792C74.192 185.912 74.038 186.803 73.842 187.466C73.6553 188.129 73.436 188.628 73.184 188.964H76.754V183.672H74.416L74.304 184.792ZM85.2739 183.672H82.8519L82.5439 186.192C82.4599 186.892 82.3432 187.489 82.1939 187.984C82.0445 188.469 81.8532 188.871 81.6199 189.188C81.3865 189.496 81.1065 189.72 80.7799 189.86C80.4625 190 80.0892 190.07 79.6599 190.07H79.4219V189.048H79.5619C79.8045 189.048 80.0192 189.001 80.2059 188.908C80.4019 188.815 80.5745 188.647 80.7239 188.404C80.8825 188.161 81.0179 187.825 81.1299 187.396C81.2419 186.967 81.3352 186.421 81.4099 185.758L81.7599 182.678H86.4919V190H85.2739V183.672ZM87.7419 190L89.0999 187.648C89.3333 187.247 89.5899 186.976 89.8699 186.836C89.4033 186.733 89.0346 186.509 88.7639 186.164C88.4933 185.819 88.3579 185.375 88.3579 184.834C88.3579 184.526 88.4046 184.241 88.4979 183.98C88.5913 183.719 88.7453 183.49 88.9599 183.294C89.1839 183.098 89.4779 182.949 89.8419 182.846C90.2059 182.734 90.6586 182.678 91.1999 182.678H94.1119V190H92.8939V187.074H91.8439C91.6199 187.074 91.4286 187.088 91.2699 187.116C91.1206 187.144 90.9899 187.191 90.8779 187.256C90.7659 187.321 90.6633 187.41 90.5699 187.522C90.4766 187.634 90.3833 187.774 90.2899 187.942L89.1139 190H87.7419ZM92.8939 186.066V183.672H91.2139C90.1406 183.672 89.6039 184.045 89.6039 184.792C89.6039 185.641 90.1033 186.066 91.1019 186.066H92.8939ZM99.104 182.678H100.308V183.714C100.607 183.303 100.952 182.991 101.344 182.776C101.745 182.561 102.212 182.454 102.744 182.454C103.257 182.454 103.705 182.547 104.088 182.734C104.48 182.921 104.802 183.182 105.054 183.518C105.315 183.854 105.507 184.26 105.628 184.736C105.759 185.203 105.824 185.721 105.824 186.29C105.824 186.897 105.749 187.443 105.6 187.928C105.451 188.413 105.236 188.829 104.956 189.174C104.676 189.51 104.335 189.771 103.934 189.958C103.542 190.135 103.099 190.224 102.604 190.224C102.193 190.224 101.787 190.145 101.386 189.986C100.994 189.818 100.639 189.524 100.322 189.104V192.716H99.104V182.678ZM100.308 186.542C100.308 187.018 100.359 187.424 100.462 187.76C100.574 188.096 100.723 188.376 100.91 188.6C101.097 188.815 101.321 188.973 101.582 189.076C101.843 189.169 102.128 189.216 102.436 189.216C102.735 189.216 103.01 189.165 103.262 189.062C103.523 188.959 103.747 188.791 103.934 188.558C104.121 188.325 104.265 188.026 104.368 187.662C104.48 187.289 104.536 186.836 104.536 186.304C104.536 185.763 104.475 185.31 104.354 184.946C104.242 184.582 104.093 184.293 103.906 184.078C103.719 183.854 103.505 183.695 103.262 183.602C103.029 183.509 102.786 183.462 102.534 183.462C102.217 183.462 101.923 183.513 101.652 183.616C101.381 183.719 101.143 183.877 100.938 184.092C100.742 184.297 100.588 184.563 100.476 184.89C100.364 185.207 100.308 185.581 100.308 186.01V186.542ZM113.716 187.97C113.594 188.67 113.282 189.221 112.778 189.622C112.283 190.023 111.569 190.224 110.636 190.224C109.534 190.224 108.69 189.888 108.102 189.216C107.514 188.535 107.22 187.592 107.22 186.388C107.22 185.763 107.304 185.207 107.472 184.722C107.64 184.227 107.873 183.812 108.172 183.476C108.48 183.14 108.844 182.888 109.264 182.72C109.684 182.543 110.141 182.454 110.636 182.454C111.196 182.454 111.676 182.543 112.078 182.72C112.479 182.897 112.806 183.145 113.058 183.462C113.319 183.779 113.51 184.157 113.632 184.596C113.762 185.035 113.828 185.511 113.828 186.024V186.626H108.452C108.452 187.009 108.498 187.359 108.592 187.676C108.694 187.993 108.834 188.269 109.012 188.502C109.198 188.735 109.427 188.917 109.698 189.048C109.968 189.179 110.281 189.244 110.636 189.244C111.242 189.244 111.686 189.132 111.966 188.908C112.246 188.675 112.437 188.362 112.54 187.97H113.716ZM112.61 185.716C112.61 185.025 112.456 184.47 112.148 184.05C111.84 183.621 111.331 183.406 110.622 183.406C109.978 183.406 109.474 183.607 109.11 184.008C108.746 184.4 108.536 184.969 108.48 185.716H112.61ZM119.95 189.006C119.689 189.323 119.357 189.599 118.956 189.832C118.555 190.056 118.055 190.168 117.458 190.168C117.094 190.168 116.758 190.121 116.45 190.028C116.151 189.944 115.89 189.813 115.666 189.636C115.451 189.449 115.283 189.221 115.162 188.95C115.041 188.679 114.98 188.362 114.98 187.998C114.98 187.494 115.083 187.083 115.288 186.766C115.503 186.439 115.783 186.187 116.128 186.01C116.483 185.823 116.879 185.697 117.318 185.632C117.757 185.557 118.209 185.511 118.676 185.492L119.922 185.45V185.156C119.922 184.54 119.791 184.097 119.53 183.826C119.269 183.555 118.844 183.42 118.256 183.42C117.677 183.42 117.253 183.518 116.982 183.714C116.711 183.901 116.534 184.162 116.45 184.498L115.344 184.372C115.475 183.709 115.787 183.229 116.282 182.93C116.777 182.622 117.449 182.468 118.298 182.468C118.821 182.468 119.259 182.533 119.614 182.664C119.978 182.785 120.272 182.963 120.496 183.196C120.72 183.429 120.879 183.719 120.972 184.064C121.075 184.409 121.126 184.797 121.126 185.226V190H119.95V189.006ZM119.922 186.318L118.76 186.36C118.265 186.379 117.855 186.425 117.528 186.5C117.201 186.575 116.94 186.677 116.744 186.808C116.557 186.939 116.422 187.102 116.338 187.298C116.263 187.485 116.226 187.709 116.226 187.97C116.226 188.334 116.333 188.628 116.548 188.852C116.772 189.067 117.136 189.174 117.64 189.174C118.359 189.174 118.919 188.997 119.32 188.642C119.721 188.287 119.922 187.802 119.922 187.186V186.318ZM127.889 183.672H125.467L125.159 186.192C125.075 186.892 124.958 187.489 124.809 187.984C124.66 188.469 124.468 188.871 124.235 189.188C124.002 189.496 123.722 189.72 123.395 189.86C123.078 190 122.704 190.07 122.275 190.07H122.037V189.048H122.177C122.42 189.048 122.634 189.001 122.821 188.908C123.017 188.815 123.19 188.647 123.339 188.404C123.498 188.161 123.633 187.825 123.745 187.396C123.857 186.967 123.95 186.421 124.025 185.758L124.375 182.678H129.107V190H127.889V183.672ZM136.993 190H135.845V184.484L132.107 190H130.959V182.678H132.093V188.208L135.831 182.678H136.993V190ZM141.592 182.454C142.086 182.454 142.511 182.505 142.866 182.608C143.23 182.711 143.528 182.855 143.762 183.042C144.004 183.219 144.182 183.429 144.294 183.672C144.406 183.905 144.462 184.162 144.462 184.442C144.462 184.853 144.35 185.207 144.126 185.506C143.902 185.795 143.617 186.005 143.272 186.136C143.682 186.267 144.014 186.481 144.266 186.78C144.518 187.069 144.644 187.461 144.644 187.956C144.644 188.283 144.583 188.581 144.462 188.852C144.34 189.123 144.149 189.361 143.888 189.566C143.636 189.771 143.309 189.93 142.908 190.042C142.516 190.154 142.049 190.21 141.508 190.21C140.574 190.21 139.832 190.028 139.282 189.664C138.731 189.291 138.428 188.689 138.372 187.858H139.548C139.622 188.353 139.823 188.707 140.15 188.922C140.476 189.127 140.948 189.23 141.564 189.23C142.245 189.23 142.716 189.113 142.978 188.88C143.248 188.637 143.384 188.325 143.384 187.942C143.384 187.522 143.244 187.205 142.964 186.99C142.684 186.775 142.287 186.668 141.774 186.668H140.304V185.772H141.83C142.287 185.772 142.632 185.669 142.866 185.464C143.108 185.249 143.23 184.96 143.23 184.596C143.23 184.232 143.094 183.952 142.824 183.756C142.553 183.551 142.133 183.448 141.564 183.448C141.237 183.448 140.962 183.476 140.738 183.532C140.514 183.579 140.327 183.653 140.178 183.756C140.038 183.859 139.921 183.989 139.828 184.148C139.734 184.297 139.655 184.47 139.59 184.666L138.484 184.47C138.558 184.181 138.666 183.915 138.806 183.672C138.955 183.42 139.151 183.205 139.394 183.028C139.636 182.851 139.935 182.711 140.29 182.608C140.654 182.505 141.088 182.454 141.592 182.454ZM150.725 189.006C150.464 189.323 150.133 189.599 149.731 189.832C149.33 190.056 148.831 190.168 148.233 190.168C147.869 190.168 147.533 190.121 147.225 190.028C146.927 189.944 146.665 189.813 146.441 189.636C146.227 189.449 146.059 189.221 145.937 188.95C145.816 188.679 145.755 188.362 145.755 187.998C145.755 187.494 145.858 187.083 146.063 186.766C146.278 186.439 146.558 186.187 146.903 186.01C147.258 185.823 147.655 185.697 148.093 185.632C148.532 185.557 148.985 185.511 149.451 185.492L150.697 185.45V185.156C150.697 184.54 150.567 184.097 150.305 183.826C150.044 183.555 149.619 183.42 149.031 183.42C148.453 183.42 148.028 183.518 147.757 183.714C147.487 183.901 147.309 184.162 147.225 184.498L146.119 184.372C146.25 183.709 146.563 183.229 147.057 182.93C147.552 182.622 148.224 182.468 149.073 182.468C149.596 182.468 150.035 182.533 150.389 182.664C150.753 182.785 151.047 182.963 151.271 183.196C151.495 183.429 151.654 183.719 151.747 184.064C151.85 184.409 151.901 184.797 151.901 185.226V190H150.725V189.006ZM150.697 186.318L149.535 186.36C149.041 186.379 148.63 186.425 148.303 186.5C147.977 186.575 147.715 186.677 147.519 186.808C147.333 186.939 147.197 187.102 147.113 187.298C147.039 187.485 147.001 187.709 147.001 187.97C147.001 188.334 147.109 188.628 147.323 188.852C147.547 189.067 147.911 189.174 148.415 189.174C149.134 189.174 149.694 188.997 150.095 188.642C150.497 188.287 150.697 187.802 150.697 187.186V186.318ZM153.736 190V182.678H154.955V188.964H158.413V182.678H159.631V188.964H160.485V191.96H159.379V190H153.736ZM167.659 190H166.511V184.484L162.773 190H161.625V182.678H162.759V188.208L166.497 182.678H167.659V190ZM175.548 190H174.4V184.484L170.662 190H169.514V182.678H170.648V188.208L174.386 182.678H175.548V190ZM186.61 182.678V190H185.392V183.728H181.738V190H180.52V182.678H186.61ZM188.491 182.678H189.695V183.714C189.993 183.303 190.339 182.991 190.731 182.776C191.132 182.561 191.599 182.454 192.131 182.454C192.644 182.454 193.092 182.547 193.475 182.734C193.867 182.921 194.189 183.182 194.441 183.518C194.702 183.854 194.893 184.26 195.015 184.736C195.145 185.203 195.211 185.721 195.211 186.29C195.211 186.897 195.136 187.443 194.987 187.928C194.837 188.413 194.623 188.829 194.343 189.174C194.063 189.51 193.722 189.771 193.321 189.958C192.929 190.135 192.485 190.224 191.991 190.224C191.58 190.224 191.174 190.145 190.773 189.986C190.381 189.818 190.026 189.524 189.709 189.104V192.716H188.491V182.678ZM189.695 186.542C189.695 187.018 189.746 187.424 189.849 187.76C189.961 188.096 190.11 188.376 190.297 188.6C190.483 188.815 190.707 188.973 190.969 189.076C191.23 189.169 191.515 189.216 191.823 189.216C192.121 189.216 192.397 189.165 192.649 189.062C192.91 188.959 193.134 188.791 193.321 188.558C193.507 188.325 193.652 188.026 193.755 187.662C193.867 187.289 193.923 186.836 193.923 186.304C193.923 185.763 193.862 185.31 193.741 184.946C193.629 184.582 193.479 184.293 193.293 184.078C193.106 183.854 192.891 183.695 192.649 183.602C192.415 183.509 192.173 183.462 191.921 183.462C191.603 183.462 191.309 183.513 191.039 183.616C190.768 183.719 190.53 183.877 190.325 184.092C190.129 184.297 189.975 184.563 189.863 184.89C189.751 185.207 189.695 185.581 189.695 186.01V186.542ZM200.092 190.224C199.542 190.224 199.052 190.135 198.622 189.958C198.193 189.771 197.829 189.51 197.53 189.174C197.232 188.838 197.003 188.432 196.844 187.956C196.686 187.48 196.606 186.943 196.606 186.346C196.606 185.758 196.69 185.226 196.858 184.75C197.026 184.265 197.264 183.854 197.572 183.518C197.88 183.173 198.249 182.911 198.678 182.734C199.117 182.547 199.602 182.454 200.134 182.454C200.676 182.454 201.161 182.547 201.59 182.734C202.02 182.911 202.384 183.168 202.682 183.504C202.99 183.831 203.224 184.232 203.382 184.708C203.541 185.175 203.62 185.702 203.62 186.29C203.62 186.887 203.536 187.429 203.368 187.914C203.21 188.399 202.976 188.815 202.668 189.16C202.37 189.496 202.001 189.757 201.562 189.944C201.124 190.131 200.634 190.224 200.092 190.224ZM200.106 189.216C200.498 189.216 200.834 189.146 201.114 189.006C201.394 188.857 201.623 188.656 201.8 188.404C201.987 188.143 202.122 187.835 202.206 187.48C202.29 187.125 202.332 186.738 202.332 186.318C202.332 185.898 202.29 185.515 202.206 185.17C202.122 184.815 201.987 184.512 201.8 184.26C201.623 184.008 201.394 183.812 201.114 183.672C200.834 183.532 200.498 183.462 200.106 183.462C199.714 183.462 199.378 183.532 199.098 183.672C198.828 183.812 198.599 184.008 198.412 184.26C198.235 184.512 198.104 184.815 198.02 185.17C197.936 185.515 197.894 185.898 197.894 186.318C197.894 186.738 197.936 187.125 198.02 187.48C198.104 187.835 198.235 188.143 198.412 188.404C198.59 188.656 198.818 188.857 199.098 189.006C199.378 189.146 199.714 189.216 200.106 189.216ZM211.51 187.97C211.389 188.67 211.076 189.221 210.572 189.622C210.078 190.023 209.364 190.224 208.43 190.224C207.329 190.224 206.484 189.888 205.896 189.216C205.308 188.535 205.014 187.592 205.014 186.388C205.014 185.763 205.098 185.207 205.266 184.722C205.434 184.227 205.668 183.812 205.966 183.476C206.274 183.14 206.638 182.888 207.058 182.72C207.478 182.543 207.936 182.454 208.43 182.454C208.99 182.454 209.471 182.543 209.872 182.72C210.274 182.897 210.6 183.145 210.852 183.462C211.114 183.779 211.305 184.157 211.426 184.596C211.557 185.035 211.622 185.511 211.622 186.024V186.626H206.246C206.246 187.009 206.293 187.359 206.386 187.676C206.489 187.993 206.629 188.269 206.806 188.502C206.993 188.735 207.222 188.917 207.492 189.048C207.763 189.179 208.076 189.244 208.43 189.244C209.037 189.244 209.48 189.132 209.76 188.908C210.04 188.675 210.232 188.362 210.334 187.97H211.51ZM210.404 185.716C210.404 185.025 210.25 184.47 209.942 184.05C209.634 183.621 209.126 183.406 208.416 183.406C207.772 183.406 207.268 183.607 206.904 184.008C206.54 184.4 206.33 184.969 206.274 185.716H210.404ZM213.223 190V182.678H214.427V185.856H214.917C215.094 185.856 215.248 185.837 215.379 185.8C215.519 185.763 215.645 185.702 215.757 185.618C215.869 185.525 215.971 185.408 216.065 185.268C216.158 185.128 216.256 184.951 216.359 184.736L216.779 183.868C216.881 183.653 216.984 183.471 217.087 183.322C217.199 183.173 217.32 183.051 217.451 182.958C217.591 182.855 217.749 182.785 217.927 182.748C218.104 182.701 218.314 182.678 218.557 182.678C218.687 182.678 218.809 182.687 218.921 182.706C219.042 182.725 219.131 182.743 219.187 182.762L219.061 183.7C219.033 183.681 218.977 183.667 218.893 183.658C218.809 183.649 218.715 183.644 218.613 183.644C218.37 183.644 218.188 183.7 218.067 183.812C217.955 183.915 217.847 184.083 217.745 184.316L217.339 185.198C217.227 185.459 217.096 185.674 216.947 185.842C216.807 186.001 216.625 186.131 216.401 186.234C216.597 186.309 216.769 186.416 216.919 186.556C217.068 186.696 217.227 186.887 217.395 187.13L219.313 190H217.913L216.233 187.48C216.065 187.228 215.897 187.041 215.729 186.92C215.561 186.799 215.323 186.738 215.015 186.738H214.427V190H213.223ZM222.63 183.714H220.096V182.678H226.354V183.714H223.848V190H222.63V183.714ZM231.991 189.006C231.73 189.323 231.398 189.599 230.997 189.832C230.596 190.056 230.096 190.168 229.499 190.168C229.135 190.168 228.799 190.121 228.491 190.028C228.192 189.944 227.931 189.813 227.707 189.636C227.492 189.449 227.324 189.221 227.203 188.95C227.082 188.679 227.021 188.362 227.021 187.998C227.021 187.494 227.124 187.083 227.329 186.766C227.544 186.439 227.824 186.187 228.169 186.01C228.524 185.823 228.92 185.697 229.359 185.632C229.798 185.557 230.25 185.511 230.717 185.492L231.963 185.45V185.156C231.963 184.54 231.832 184.097 231.571 183.826C231.31 183.555 230.885 183.42 230.297 183.42C229.718 183.42 229.294 183.518 229.023 183.714C228.752 183.901 228.575 184.162 228.491 184.498L227.385 184.372C227.516 183.709 227.828 183.229 228.323 182.93C228.818 182.622 229.49 182.468 230.339 182.468C230.862 182.468 231.3 182.533 231.655 182.664C232.019 182.785 232.313 182.963 232.537 183.196C232.761 183.429 232.92 183.719 233.013 184.064C233.116 184.409 233.167 184.797 233.167 185.226V190H231.991V189.006ZM231.963 186.318L230.801 186.36C230.306 186.379 229.896 186.425 229.569 186.5C229.242 186.575 228.981 186.677 228.785 186.808C228.598 186.939 228.463 187.102 228.379 187.298C228.304 187.485 228.267 187.709 228.267 187.97C228.267 188.334 228.374 188.628 228.589 188.852C228.813 189.067 229.177 189.174 229.681 189.174C230.4 189.174 230.96 188.997 231.361 188.642C231.762 188.287 231.963 187.802 231.963 187.186V186.318Z" fill="#212121"/>
<path d="M72.748 43.578H83.006V45.993H75.531V60H72.748V43.578ZM92.1278 56.458C91.9132 57.7 91.3842 58.666 90.5408 59.356C89.7128 60.0307 88.5015 60.368 86.9068 60.368C85.0055 60.368 83.5565 59.8083 82.5598 58.689C81.5785 57.5543 81.0878 55.9903 81.0878 53.997C81.0878 52.9697 81.2258 52.0573 81.5018 51.26C81.7932 50.4627 82.1918 49.788 82.6978 49.236C83.2192 48.684 83.8325 48.27 84.5378 47.994C85.2585 47.7027 86.0482 47.557 86.9068 47.557C87.8268 47.557 88.6242 47.7027 89.2988 47.994C89.9735 48.27 90.5332 48.6687 90.9778 49.19C91.4225 49.7113 91.7522 50.3323 91.9668 51.053C92.1815 51.7583 92.2888 52.548 92.2888 53.422V54.572H83.7098C83.7252 55.124 83.8018 55.63 83.9398 56.09C84.0778 56.5347 84.2772 56.9257 84.5378 57.263C84.7985 57.6003 85.1282 57.861 85.5268 58.045C85.9255 58.229 86.3855 58.321 86.9068 58.321C87.7348 58.321 88.3558 58.16 88.7698 57.838C89.1838 57.5007 89.4598 57.0407 89.5978 56.458H92.1278ZM89.7358 52.778C89.7358 51.7813 89.5058 50.9917 89.0458 50.409C88.6012 49.8263 87.8652 49.535 86.8378 49.535C85.8872 49.535 85.1512 49.834 84.6298 50.432C84.1238 51.0147 83.8325 51.7967 83.7558 52.778H89.7358ZM100.318 60.368C98.447 60.368 96.998 59.8007 95.9706 58.666C94.9433 57.5313 94.4296 55.9597 94.4296 53.951C94.4296 52.9697 94.5676 52.088 94.8436 51.306C95.1196 50.5087 95.5183 49.834 96.0396 49.282C96.561 48.73 97.182 48.3083 97.9026 48.017C98.6386 47.7103 99.459 47.557 100.364 47.557C101.284 47.557 102.104 47.7027 102.825 47.994C103.561 48.2853 104.182 48.707 104.688 49.259C105.194 49.811 105.577 50.478 105.838 51.26C106.114 52.042 106.252 52.9237 106.252 53.905C106.252 54.8863 106.114 55.7757 105.838 56.573C105.562 57.3703 105.163 58.0527 104.642 58.62C104.136 59.172 103.515 59.6013 102.779 59.908C102.058 60.2147 101.238 60.368 100.318 60.368ZM100.341 58.252C101.445 58.252 102.25 57.861 102.756 57.079C103.277 56.297 103.538 55.239 103.538 53.905C103.538 52.6017 103.277 51.5743 102.756 50.823C102.25 50.0563 101.445 49.673 100.341 49.673C99.2366 49.673 98.424 50.0563 97.9026 50.823C97.3966 51.5743 97.1436 52.6093 97.1436 53.928C97.1436 55.2467 97.3966 56.297 97.9026 57.079C98.424 57.861 99.2366 58.252 100.341 58.252ZM117.093 47.902V50.11H111.435V60H108.813V47.902H117.093ZM124.627 49.696C123.569 49.696 122.764 50.0333 122.212 50.708C121.675 51.3827 121.407 52.3487 121.407 53.606V54.342C121.407 55.5687 121.66 56.527 122.166 57.217C122.672 57.8917 123.462 58.229 124.535 58.229C125.516 58.229 126.268 57.8533 126.789 57.102C127.31 56.3507 127.571 55.3003 127.571 53.951C127.571 52.4943 127.295 51.421 126.743 50.731C126.206 50.041 125.501 49.696 124.627 49.696ZM121.384 47.902V49.581C121.476 49.4737 121.614 49.305 121.798 49.075C121.997 48.845 122.25 48.6227 122.557 48.408C122.879 48.178 123.262 47.9787 123.707 47.81C124.152 47.6413 124.673 47.557 125.271 47.557C126.206 47.557 126.988 47.7333 127.617 48.086C128.261 48.4387 128.782 48.9063 129.181 49.489C129.58 50.0717 129.863 50.7463 130.032 51.513C130.216 52.2797 130.308 53.0847 130.308 53.928C130.308 54.8173 130.193 55.653 129.963 56.435C129.748 57.217 129.419 57.8993 128.974 58.482C128.529 59.0647 127.977 59.5247 127.318 59.862C126.674 60.1993 125.915 60.368 125.041 60.368C124.504 60.368 124.029 60.299 123.615 60.161C123.216 60.023 122.871 59.862 122.58 59.678C122.289 59.494 122.051 59.31 121.867 59.126C121.683 58.9267 121.545 58.7657 121.453 58.643V64.462H118.831V47.902H121.384ZM138.412 54.319C137.676 54.3497 137.071 54.4263 136.595 54.549C136.12 54.6563 135.744 54.8097 135.468 55.009C135.192 55.2083 135.001 55.4383 134.893 55.699C134.801 55.9597 134.755 56.251 134.755 56.573C134.755 57.079 134.916 57.493 135.238 57.815C135.56 58.1217 136.051 58.275 136.71 58.275C137.753 58.275 138.573 58.022 139.171 57.516C139.785 56.9947 140.091 56.251 140.091 55.285V54.25L138.412 54.319ZM140.137 58.436C139.693 58.9573 139.156 59.402 138.527 59.77C137.899 60.1227 137.109 60.299 136.158 60.299C135.591 60.299 135.062 60.2223 134.571 60.069C134.081 59.931 133.651 59.7163 133.283 59.425C132.931 59.1183 132.647 58.735 132.432 58.275C132.233 57.815 132.133 57.2783 132.133 56.665C132.133 55.837 132.31 55.17 132.662 54.664C133.03 54.1427 133.506 53.7363 134.088 53.445C134.671 53.1537 135.33 52.9467 136.066 52.824C136.802 52.7013 137.554 52.617 138.32 52.571L140.091 52.479V51.973C140.091 51.099 139.884 50.478 139.47 50.11C139.056 49.742 138.474 49.558 137.722 49.558C136.925 49.558 136.327 49.696 135.928 49.972C135.53 50.2327 135.269 50.6313 135.146 51.168L132.754 50.915C132.969 49.7497 133.498 48.8987 134.341 48.362C135.185 47.8253 136.342 47.557 137.814 47.557C138.704 47.557 139.455 47.6643 140.068 47.879C140.682 48.0937 141.18 48.408 141.563 48.822C141.947 49.2207 142.223 49.7113 142.391 50.294C142.56 50.8767 142.644 51.5283 142.644 52.249V60H140.137V58.436ZM151.334 60C149.157 59.7853 147.547 59.1873 146.504 58.206C145.461 57.2093 144.94 55.8293 144.94 54.066C144.94 53.2533 145.086 52.5097 145.377 51.835C145.668 51.145 146.082 50.5393 146.619 50.018C147.171 49.4967 147.838 49.075 148.62 48.753C149.417 48.4157 150.322 48.1933 151.334 48.086V43.877H153.864V48.086C154.953 48.178 155.896 48.3927 156.693 48.73C157.506 49.052 158.173 49.4737 158.694 49.995C159.231 50.501 159.622 51.099 159.867 51.789C160.128 52.479 160.258 53.2303 160.258 54.043C160.258 54.917 160.097 55.699 159.775 56.389C159.468 57.079 159.031 57.677 158.464 58.183C157.897 58.689 157.222 59.0953 156.44 59.402C155.658 59.7087 154.799 59.908 153.864 60V64.094H151.334V60ZM147.585 53.974C147.585 55.2007 147.892 56.136 148.505 56.78C149.134 57.4087 150.077 57.7843 151.334 57.907V50.202C150.199 50.294 149.287 50.6773 148.597 51.352C147.922 52.0267 147.585 52.9007 147.585 53.974ZM157.613 54.043C157.613 52.8317 157.276 51.9117 156.601 51.283C155.926 50.6543 155.014 50.2863 153.864 50.179V57.884C154.999 57.792 155.903 57.4317 156.578 56.803C157.268 56.159 157.613 55.239 157.613 54.043ZM172.911 60H170.519V51.651L164.953 60H162.63V47.902H165.022V56.274L170.588 47.902H172.911V60ZM174.733 60L176.918 56.251C177.317 55.561 177.777 55.1087 178.298 54.894C177.976 54.8327 177.67 54.7177 177.378 54.549C177.087 54.3803 176.826 54.1657 176.596 53.905C176.366 53.6443 176.182 53.3223 176.044 52.939C175.922 52.5557 175.86 52.111 175.86 51.605C175.86 51.1143 175.945 50.6467 176.113 50.202C176.282 49.742 176.558 49.3433 176.941 49.006C177.34 48.6687 177.846 48.4003 178.459 48.201C179.073 48.0017 179.832 47.902 180.736 47.902H185.727V60H183.128V55.469H181.771C181.465 55.469 181.196 55.492 180.966 55.538C180.736 55.584 180.537 55.6607 180.368 55.768C180.2 55.86 180.046 55.9903 179.908 56.159C179.77 56.3277 179.632 56.527 179.494 56.757L177.7 60H174.733ZM183.128 53.33V50.018H180.69C179.234 50.018 178.505 50.5317 178.505 51.559C178.505 52.7397 179.18 53.33 180.529 53.33H183.128ZM78.429 77.708C78.0763 77.708 77.7083 77.754 77.325 77.846C76.957 77.938 76.612 78.1143 76.29 78.375C75.8607 78.7123 75.5463 79.134 75.347 79.64C75.163 80.146 75.071 80.6903 75.071 81.273C75.071 82.5303 75.3317 83.5117 75.853 84.217C76.3743 84.907 77.164 85.252 78.222 85.252C79.188 85.252 79.9393 84.9453 80.476 84.332C81.028 83.7033 81.304 82.768 81.304 81.526C81.304 80.146 81.0357 79.1647 80.499 78.582C79.9777 77.9993 79.2877 77.708 78.429 77.708ZM82.661 72.349L80.407 72.763C79.349 72.947 78.4903 73.1847 77.831 73.476C77.187 73.7673 76.6887 74.0817 76.336 74.419C75.508 75.1857 75.002 76.2897 74.818 77.731C75.2627 76.995 75.8377 76.4583 76.543 76.121C77.2483 75.7837 78.0533 75.615 78.958 75.615C79.6787 75.615 80.3457 75.7377 80.959 75.983C81.5723 76.2283 82.1013 76.5963 82.546 77.087C83.006 77.5623 83.3587 78.1603 83.604 78.881C83.8647 79.5863 83.995 80.4143 83.995 81.365C83.995 82.2237 83.8647 83.021 83.604 83.757C83.3587 84.493 82.983 85.1293 82.477 85.666C81.9863 86.2027 81.3807 86.6243 80.66 86.931C79.9393 87.2223 79.119 87.368 78.199 87.368C77.141 87.368 76.2363 87.1993 75.485 86.862C74.749 86.5247 74.1357 86.0417 73.645 85.413C73.1697 84.769 72.817 84.0023 72.587 83.113C72.3723 82.2083 72.265 81.1963 72.265 80.077C72.265 79.1723 72.3187 78.3597 72.426 77.639C72.5333 76.9183 72.6867 76.2743 72.886 75.707C73.0853 75.1243 73.3307 74.603 73.622 74.143C73.9287 73.683 74.2737 73.2613 74.657 72.878C74.9637 72.5713 75.3393 72.2953 75.784 72.05C76.2287 71.8047 76.7117 71.5823 77.233 71.383C77.7543 71.1837 78.3063 71.015 78.889 70.877C79.487 70.7237 80.085 70.5933 80.683 70.486L82.339 70.21L82.661 72.349ZM97.204 83.458C96.9893 84.7 96.4603 85.666 95.617 86.356C94.789 87.0307 93.5777 87.368 91.983 87.368C90.0817 87.368 88.6327 86.8083 87.636 85.689C86.6547 84.5543 86.164 82.9903 86.164 80.997C86.164 79.9697 86.302 79.0573 86.578 78.26C86.8693 77.4627 87.268 76.788 87.774 76.236C88.2953 75.684 88.9087 75.27 89.614 74.994C90.3347 74.7027 91.1243 74.557 91.983 74.557C92.903 74.557 93.7003 74.7027 94.375 74.994C95.0497 75.27 95.6093 75.6687 96.054 76.19C96.4987 76.7113 96.8283 77.3323 97.043 78.053C97.2577 78.7583 97.365 79.548 97.365 80.422V81.572H88.786C88.8013 82.124 88.878 82.63 89.016 83.09C89.154 83.5347 89.3533 83.9257 89.614 84.263C89.8747 84.6003 90.2043 84.861 90.603 85.045C91.0017 85.229 91.4617 85.321 91.983 85.321C92.811 85.321 93.432 85.16 93.846 84.838C94.26 84.5007 94.536 84.0407 94.674 83.458H97.204ZM94.812 79.778C94.812 78.7813 94.582 77.9917 94.122 77.409C93.6773 76.8263 92.9413 76.535 91.914 76.535C90.9633 76.535 90.2273 76.834 89.706 77.432C89.2 78.0147 88.9087 78.7967 88.832 79.778H94.812ZM104.589 74.557C106.291 74.557 107.548 74.879 108.361 75.523C109.173 76.1517 109.58 76.949 109.58 77.915C109.58 78.559 109.396 79.1263 109.028 79.617C108.675 80.0923 108.223 80.4297 107.671 80.629C108.284 80.813 108.805 81.135 109.235 81.595C109.679 82.055 109.902 82.699 109.902 83.527C109.902 84.6463 109.457 85.5663 108.568 86.287C107.694 86.9923 106.337 87.345 104.497 87.345C102.825 87.345 101.522 87.023 100.587 86.379C99.6668 85.7197 99.1685 84.677 99.0918 83.251H101.599C101.706 83.987 101.997 84.5083 102.473 84.815C102.948 85.1063 103.669 85.252 104.635 85.252C105.616 85.252 106.291 85.091 106.659 84.769C107.042 84.447 107.234 84.0177 107.234 83.481C107.234 82.3157 106.475 81.733 104.957 81.733H102.496V79.916H105.049C105.677 79.916 106.153 79.7703 106.475 79.479C106.812 79.1877 106.981 78.7813 106.981 78.26C106.981 77.7693 106.781 77.3783 106.383 77.087C105.999 76.7803 105.394 76.627 104.566 76.627C104.09 76.627 103.684 76.6653 103.347 76.742C103.025 76.8187 102.756 76.9413 102.542 77.11C102.327 77.2633 102.151 77.4627 102.013 77.708C101.875 77.938 101.76 78.2063 101.668 78.513L99.2758 78.076C99.3985 77.5547 99.5825 77.0793 99.8278 76.65C100.088 76.2207 100.426 75.8527 100.84 75.546C101.269 75.2393 101.783 75.0017 102.381 74.833C102.994 74.649 103.73 74.557 104.589 74.557ZM125.696 74.902V77.11H120.038V87H117.416V74.902H125.696ZM133.229 76.696C132.171 76.696 131.366 77.0333 130.814 77.708C130.278 78.3827 130.009 79.3487 130.009 80.606V81.342C130.009 82.5687 130.262 83.527 130.768 84.217C131.274 84.8917 132.064 85.229 133.137 85.229C134.119 85.229 134.87 84.8533 135.391 84.102C135.913 83.3507 136.173 82.3003 136.173 80.951C136.173 79.4943 135.897 78.421 135.345 77.731C134.809 77.041 134.103 76.696 133.229 76.696ZM129.986 74.902V76.581C130.078 76.4737 130.216 76.305 130.4 76.075C130.6 75.845 130.853 75.6227 131.159 75.408C131.481 75.178 131.865 74.9787 132.309 74.81C132.754 74.6413 133.275 74.557 133.873 74.557C134.809 74.557 135.591 74.7333 136.219 75.086C136.863 75.4387 137.385 75.9063 137.783 76.489C138.182 77.0717 138.466 77.7463 138.634 78.513C138.818 79.2797 138.91 80.0847 138.91 80.928C138.91 81.8173 138.795 82.653 138.565 83.435C138.351 84.217 138.021 84.8993 137.576 85.482C137.132 86.0647 136.58 86.5247 135.92 86.862C135.276 87.1993 134.517 87.368 133.643 87.368C133.107 87.368 132.631 87.299 132.217 87.161C131.819 87.023 131.474 86.862 131.182 86.678C130.891 86.494 130.653 86.31 130.469 86.126C130.285 85.9267 130.147 85.7657 130.055 85.643V91.462H127.433V74.902H129.986ZM147.015 81.319C146.279 81.3497 145.673 81.4263 145.198 81.549C144.723 81.6563 144.347 81.8097 144.071 82.009C143.795 82.2083 143.603 82.4383 143.496 82.699C143.404 82.9597 143.358 83.251 143.358 83.573C143.358 84.079 143.519 84.493 143.841 84.815C144.163 85.1217 144.654 85.275 145.313 85.275C146.356 85.275 147.176 85.022 147.774 84.516C148.387 83.9947 148.694 83.251 148.694 82.285V81.25L147.015 81.319ZM148.74 85.436C148.295 85.9573 147.759 86.402 147.13 86.77C146.501 87.1227 145.712 87.299 144.761 87.299C144.194 87.299 143.665 87.2223 143.174 87.069C142.683 86.931 142.254 86.7163 141.886 86.425C141.533 86.1183 141.25 85.735 141.035 85.275C140.836 84.815 140.736 84.2783 140.736 83.665C140.736 82.837 140.912 82.17 141.265 81.664C141.633 81.1427 142.108 80.7363 142.691 80.445C143.274 80.1537 143.933 79.9467 144.669 79.824C145.405 79.7013 146.156 79.617 146.923 79.571L148.694 79.479V78.973C148.694 78.099 148.487 77.478 148.073 77.11C147.659 76.742 147.076 76.558 146.325 76.558C145.528 76.558 144.93 76.696 144.531 76.972C144.132 77.2327 143.872 77.6313 143.749 78.168L141.357 77.915C141.572 76.7497 142.101 75.8987 142.944 75.362C143.787 74.8253 144.945 74.557 146.417 74.557C147.306 74.557 148.058 74.6643 148.671 74.879C149.284 75.0937 149.783 75.408 150.166 75.822C150.549 76.2207 150.825 76.7113 150.994 77.294C151.163 77.8767 151.247 78.5283 151.247 79.249V87H148.74V85.436ZM156.717 74.902V79.64H162.237V74.902H164.859V87H162.237V81.825H156.717V87H154.095V74.902H156.717ZM178.032 87H175.64V78.651L170.074 87H167.751V74.902H170.143V83.274L175.709 74.902H178.032V87ZM180.935 87V74.902H183.557V84.815H188.479V74.902H191.101V84.815H192.55V90.22H190.296V87H180.935Z" fill="#212121"/>
</svg>
