<svg width="310" height="166" viewBox="0 0 310 166" fill="none" xmlns="http://www.w3.org/2000/svg">
<rect width="311" height="166" fill="#F2F2F2"/>
<path d="M72.817 72.585C73.2617 72.033 73.6527 71.3583 73.99 70.561C74.3427 69.7637 74.6417 68.905 74.887 67.985C75.1323 67.0497 75.3393 66.0837 75.508 65.087C75.6767 64.0903 75.807 63.1167 75.899 62.166L76.244 58.578H85.789V72.585H87.537V78.979H85.076V75H73.645V78.979H71.184V72.585H72.817ZM78.429 63.201C78.337 64.0597 78.222 64.9337 78.084 65.823C77.9613 66.697 77.7927 67.5403 77.578 68.353C77.3787 69.1657 77.141 69.94 76.865 70.676C76.589 71.3967 76.2593 72.033 75.876 72.585H83.029V60.924H78.659L78.429 63.201ZM95.265 69.319C94.529 69.3497 93.9233 69.4263 93.448 69.549C92.9727 69.6563 92.597 69.8097 92.321 70.009C92.045 70.2083 91.8533 70.4383 91.746 70.699C91.654 70.9597 91.608 71.251 91.608 71.573C91.608 72.079 91.769 72.493 92.091 72.815C92.413 73.1217 92.9037 73.275 93.563 73.275C94.6057 73.275 95.426 73.022 96.024 72.516C96.6373 71.9947 96.944 71.251 96.944 70.285V69.25L95.265 69.319ZM96.99 73.436C96.5453 73.9573 96.0087 74.402 95.38 74.77C94.7513 75.1227 93.9617 75.299 93.011 75.299C92.4437 75.299 91.9147 75.2223 91.424 75.069C90.9333 74.931 90.504 74.7163 90.136 74.425C89.7833 74.1183 89.4997 73.735 89.285 73.275C89.0857 72.815 88.986 72.2783 88.986 71.665C88.986 70.837 89.1623 70.17 89.515 69.664C89.883 69.1427 90.3583 68.7363 90.941 68.445C91.5237 68.1537 92.183 67.9467 92.919 67.824C93.655 67.7013 94.4063 67.617 95.173 67.571L96.944 67.479V66.973C96.944 66.099 96.737 65.478 96.323 65.11C95.909 64.742 95.3263 64.558 94.575 64.558C93.7777 64.558 93.1797 64.696 92.781 64.972C92.3823 65.2327 92.1217 65.6313 91.999 66.168L89.607 65.915C89.8217 64.7497 90.3507 63.8987 91.194 63.362C92.0373 62.8253 93.195 62.557 94.667 62.557C95.5563 62.557 96.3077 62.6643 96.921 62.879C97.5343 63.0937 98.0327 63.408 98.416 63.822C98.7993 64.2207 99.0753 64.7113 99.244 65.294C99.4127 65.8767 99.497 66.5283 99.497 67.249V75H96.99V73.436ZM113.017 71.458C112.802 72.7 112.273 73.666 111.43 74.356C110.602 75.0307 109.39 75.368 107.796 75.368C105.894 75.368 104.445 74.8083 103.449 73.689C102.467 72.5543 101.977 70.9903 101.977 68.997C101.977 67.9697 102.115 67.0573 102.391 66.26C102.682 65.4627 103.081 64.788 103.587 64.236C104.108 63.684 104.721 63.27 105.427 62.994C106.147 62.7027 106.937 62.557 107.796 62.557C108.716 62.557 109.513 62.7027 110.188 62.994C110.862 63.27 111.422 63.6687 111.867 64.19C112.311 64.7113 112.641 65.3323 112.856 66.053C113.07 66.7583 113.178 67.548 113.178 68.422V69.572H104.599C104.614 70.124 104.691 70.63 104.829 71.09C104.967 71.5347 105.166 71.9257 105.427 72.263C105.687 72.6003 106.017 72.861 106.416 73.045C106.814 73.229 107.274 73.321 107.796 73.321C108.624 73.321 109.245 73.16 109.659 72.838C110.073 72.5007 110.349 72.0407 110.487 71.458H113.017ZM110.625 67.778C110.625 66.7813 110.395 65.9917 109.935 65.409C109.49 64.8263 108.754 64.535 107.727 64.535C106.776 64.535 106.04 64.834 105.519 65.432C105.013 66.0147 104.721 66.7967 104.645 67.778H110.625ZM111.131 58.348V60.924H108.624V58.348H111.131ZM106.784 58.348V60.924H104.277V58.348H106.784ZM115.709 62.902H118.653L122.494 72.263L126.427 62.902H129.187V75H126.818V66.996L123.368 75H121.39L118.078 66.996V75H115.709V62.902ZM139.733 70.653C139.795 71.067 139.887 71.435 140.009 71.757C140.147 72.0637 140.324 72.3243 140.538 72.539C140.768 72.7383 141.052 72.8917 141.389 72.999C141.742 73.091 142.164 73.137 142.654 73.137C143.528 73.137 144.211 72.884 144.701 72.378C145.207 71.8567 145.46 71.021 145.46 69.871C145.46 68.8743 145.223 68.1153 144.747 67.594C144.287 67.0727 143.574 66.812 142.608 66.812C141.964 66.812 141.412 66.9193 140.952 67.134C140.492 67.3333 140.078 67.6323 139.71 68.031H137.479L138.238 59.107H147.139V61.407H140.4L140.032 65.57C140.462 65.2787 140.937 65.0563 141.458 64.903C141.995 64.7497 142.547 64.673 143.114 64.673C144.019 64.673 144.786 64.8263 145.414 65.133C146.043 65.4243 146.549 65.8153 146.932 66.306C147.331 66.7813 147.615 67.3333 147.783 67.962C147.967 68.5753 148.059 69.1963 148.059 69.825C148.059 70.791 147.921 71.6267 147.645 72.332C147.385 73.022 147.017 73.597 146.541 74.057C146.066 74.517 145.499 74.8543 144.839 75.069C144.195 75.299 143.498 75.414 142.746 75.414C140.998 75.414 139.657 75.0307 138.721 74.264C137.786 73.482 137.257 72.2783 137.134 70.653H139.733ZM163.871 65.087H160.49L160.076 68.744C159.938 69.894 159.738 70.8753 159.478 71.688C159.217 72.4853 158.88 73.1447 158.466 73.666C158.067 74.172 157.584 74.54 157.017 74.77C156.449 75 155.79 75.115 155.039 75.115H154.51V72.953H154.763C155.131 72.953 155.46 72.884 155.752 72.746C156.058 72.608 156.327 72.3627 156.557 72.01C156.787 71.642 156.986 71.1437 157.155 70.515C157.323 69.8863 157.461 69.089 157.569 68.123L158.167 62.902H166.493V75H163.871V65.087ZM180.062 71.458C179.848 72.7 179.319 73.666 178.475 74.356C177.647 75.0307 176.436 75.368 174.841 75.368C172.94 75.368 171.491 74.8083 170.494 73.689C169.513 72.5543 169.022 70.9903 169.022 68.997C169.022 67.9697 169.16 67.0573 169.436 66.26C169.728 65.4627 170.126 64.788 170.632 64.236C171.154 63.684 171.767 63.27 172.472 62.994C173.193 62.7027 173.983 62.557 174.841 62.557C175.761 62.557 176.559 62.7027 177.233 62.994C177.908 63.27 178.468 63.6687 178.912 64.19C179.357 64.7113 179.687 65.3323 179.901 66.053C180.116 66.7583 180.223 67.548 180.223 68.422V69.572H171.644C171.66 70.124 171.736 70.63 171.874 71.09C172.012 71.5347 172.212 71.9257 172.472 72.263C172.733 72.6003 173.063 72.861 173.461 73.045C173.86 73.229 174.32 73.321 174.841 73.321C175.669 73.321 176.29 73.16 176.704 72.838C177.118 72.5007 177.394 72.0407 177.532 71.458H180.062ZM177.67 67.778C177.67 66.7813 177.44 65.9917 176.98 65.409C176.536 64.8263 175.8 64.535 174.772 64.535C173.822 64.535 173.086 64.834 172.564 65.432C172.058 66.0147 171.767 66.7967 171.69 67.778H177.67ZM185.385 65.087H181.337V62.902H192.009V65.087H188.007V75H185.385V65.087ZM80.729 89.902V92.11H75.071V102H72.449V89.902H80.729ZM87.7855 96.319C87.0495 96.3497 86.4438 96.4263 85.9685 96.549C85.4932 96.6563 85.1175 96.8097 84.8415 97.009C84.5655 97.2083 84.3738 97.4383 84.2665 97.699C84.1745 97.9597 84.1285 98.251 84.1285 98.573C84.1285 99.079 84.2895 99.493 84.6115 99.815C84.9335 100.122 85.4242 100.275 86.0835 100.275C87.1262 100.275 87.9465 100.022 88.5445 99.516C89.1578 98.9947 89.4645 98.251 89.4645 97.285V96.25L87.7855 96.319ZM89.5105 100.436C89.0658 100.957 88.5292 101.402 87.9005 101.77C87.2718 102.123 86.4822 102.299 85.5315 102.299C84.9642 102.299 84.4352 102.222 83.9445 102.069C83.4538 101.931 83.0245 101.716 82.6565 101.425C82.3038 101.118 82.0202 100.735 81.8055 100.275C81.6062 99.815 81.5065 99.2783 81.5065 98.665C81.5065 97.837 81.6828 97.17 82.0355 96.664C82.4035 96.1427 82.8788 95.7363 83.4615 95.445C84.0442 95.1537 84.7035 94.9467 85.4395 94.824C86.1755 94.7013 86.9268 94.617 87.6935 94.571L89.4645 94.479V93.973C89.4645 93.099 89.2575 92.478 88.8435 92.11C88.4295 91.742 87.8468 91.558 87.0955 91.558C86.2982 91.558 85.7002 91.696 85.3015 91.972C84.9028 92.2327 84.6422 92.6313 84.5195 93.168L82.1275 92.915C82.3422 91.7497 82.8712 90.8987 83.7145 90.362C84.5578 89.8253 85.7155 89.557 87.1875 89.557C88.0768 89.557 88.8282 89.6643 89.4415 89.879C90.0548 90.0937 90.5532 90.408 90.9365 90.822C91.3198 91.2207 91.5958 91.7113 91.7645 92.294C91.9332 92.8767 92.0175 93.5283 92.0175 94.249V102H89.5105V100.436ZM100.661 91.696C99.603 91.696 98.798 92.0333 98.246 92.708C97.7093 93.3827 97.441 94.3487 97.441 95.606V96.342C97.441 97.5687 97.694 98.527 98.2 99.217C98.706 99.8917 99.4957 100.229 100.569 100.229C101.55 100.229 102.302 99.8533 102.823 99.102C103.344 98.3507 103.605 97.3003 103.605 95.951C103.605 94.4943 103.329 93.421 102.777 92.731C102.24 92.041 101.535 91.696 100.661 91.696ZM97.418 89.902V91.581C97.51 91.4737 97.648 91.305 97.832 91.075C98.0313 90.845 98.2843 90.6227 98.591 90.408C98.913 90.178 99.2963 89.9787 99.741 89.81C100.186 89.6413 100.707 89.557 101.305 89.557C102.24 89.557 103.022 89.7333 103.651 90.086C104.295 90.4387 104.816 90.9063 105.215 91.489C105.614 92.0717 105.897 92.7463 106.066 93.513C106.25 94.2797 106.342 95.0847 106.342 95.928C106.342 96.8173 106.227 97.653 105.997 98.435C105.782 99.217 105.453 99.8993 105.008 100.482C104.563 101.065 104.011 101.525 103.352 101.862C102.708 102.199 101.949 102.368 101.075 102.368C100.538 102.368 100.063 102.299 99.649 102.161C99.2503 102.023 98.9053 101.862 98.614 101.678C98.3227 101.494 98.085 101.31 97.901 101.126C97.717 100.927 97.579 100.766 97.487 100.643V106.462H94.865V89.902H97.418ZM114.447 96.319C113.711 96.3497 113.105 96.4263 112.63 96.549C112.154 96.6563 111.779 96.8097 111.503 97.009C111.227 97.2083 111.035 97.4383 110.928 97.699C110.836 97.9597 110.79 98.251 110.79 98.573C110.79 99.079 110.951 99.493 111.273 99.815C111.595 100.122 112.085 100.275 112.745 100.275C113.787 100.275 114.608 100.022 115.206 99.516C115.819 98.9947 116.126 98.251 116.126 97.285V96.25L114.447 96.319ZM116.172 100.436C115.727 100.957 115.19 101.402 114.562 101.77C113.933 102.123 113.143 102.299 112.193 102.299C111.625 102.299 111.096 102.222 110.606 102.069C110.115 101.931 109.686 101.716 109.318 101.425C108.965 101.118 108.681 100.735 108.467 100.275C108.267 99.815 108.168 99.2783 108.168 98.665C108.168 97.837 108.344 97.17 108.697 96.664C109.065 96.1427 109.54 95.7363 110.123 95.445C110.705 95.1537 111.365 94.9467 112.101 94.824C112.837 94.7013 113.588 94.617 114.355 94.571L116.126 94.479V93.973C116.126 93.099 115.919 92.478 115.505 92.11C115.091 91.742 114.508 91.558 113.757 91.558C112.959 91.558 112.361 91.696 111.963 91.972C111.564 92.2327 111.303 92.6313 111.181 93.168L108.789 92.915C109.003 91.7497 109.532 90.8987 110.376 90.362C111.219 89.8253 112.377 89.557 113.849 89.557C114.738 89.557 115.489 89.6643 116.103 89.879C116.716 90.0937 117.214 90.408 117.598 90.822C117.981 91.2207 118.257 91.7113 118.426 92.294C118.594 92.8767 118.679 93.5283 118.679 94.249V102H116.172V100.436ZM124.148 89.902V94.64H129.668V89.902H132.29V102H129.668V96.825H124.148V102H121.526V89.902H124.148ZM138.172 92.087H134.124V89.902H144.796V92.087H140.794V102H138.172V92.087ZM156.896 102H154.504V93.651L148.938 102H146.615V89.902H149.007V98.274L154.573 89.902H156.896V102ZM170.081 102H167.689V93.651L162.123 102H159.8V89.902H162.192V98.274L167.758 89.902H170.081V102Z" fill="#212121"/>
</svg>
