<svg width="404" height="306" viewBox="0 0 404 306" fill="none" xmlns="http://www.w3.org/2000/svg">
<rect width="404" height="306" fill="#F2F2F2"/>
<path d="M105.656 154.576V155.872H99.736V159.456H105.336V160.768H99.736V164.704H105.96L105.72 166H98.264V154.576H105.656ZM114.537 163.2C114.398 164.149 114.036 164.896 113.449 165.44C112.862 165.984 112.036 166.256 110.969 166.256C110.34 166.256 109.78 166.155 109.289 165.952C108.809 165.749 108.404 165.456 108.073 165.072C107.753 164.688 107.508 164.224 107.337 163.68C107.177 163.136 107.097 162.523 107.097 161.84C107.097 161.168 107.188 160.56 107.369 160.016C107.55 159.461 107.812 158.992 108.153 158.608C108.494 158.213 108.91 157.909 109.401 157.696C109.892 157.483 110.446 157.376 111.065 157.376C112.057 157.376 112.825 157.621 113.369 158.112C113.913 158.592 114.26 159.259 114.409 160.112L113.017 160.368C112.964 160.101 112.889 159.856 112.793 159.632C112.708 159.408 112.585 159.216 112.425 159.056C112.265 158.885 112.068 158.757 111.833 158.672C111.609 158.576 111.337 158.528 111.017 158.528C110.58 158.528 110.206 158.613 109.897 158.784C109.588 158.944 109.332 159.173 109.129 159.472C108.937 159.771 108.793 160.123 108.697 160.528C108.612 160.923 108.569 161.349 108.569 161.808C108.569 162.277 108.612 162.715 108.697 163.12C108.782 163.515 108.921 163.861 109.113 164.16C109.305 164.448 109.556 164.677 109.865 164.848C110.174 165.019 110.553 165.104 111.001 165.104C111.673 165.104 112.169 164.933 112.489 164.592C112.82 164.251 113.033 163.787 113.129 163.2H114.537ZM121.922 158.768H119.154L118.802 161.648C118.706 162.448 118.573 163.131 118.402 163.696C118.232 164.251 118.013 164.709 117.746 165.072C117.48 165.424 117.16 165.68 116.786 165.84C116.424 166 115.997 166.08 115.506 166.08H115.234V164.912H115.394C115.672 164.912 115.917 164.859 116.13 164.752C116.354 164.645 116.552 164.453 116.722 164.176C116.904 163.899 117.058 163.515 117.186 163.024C117.314 162.533 117.421 161.909 117.506 161.152L117.906 157.632H123.314V166H121.922V158.768ZM132.327 166H131.015V159.696L126.743 166H125.431V157.632H126.727V163.952L130.999 157.632H132.327V166ZM138.009 157.632H141.625C142.254 157.632 142.772 157.691 143.177 157.808C143.593 157.925 143.918 158.085 144.153 158.288C144.398 158.491 144.569 158.72 144.665 158.976C144.761 159.232 144.809 159.499 144.809 159.776C144.809 160.213 144.713 160.592 144.521 160.912C144.34 161.221 144.03 161.467 143.593 161.648C144.084 161.808 144.452 162.059 144.697 162.4C144.953 162.741 145.081 163.141 145.081 163.6C145.081 163.941 145.028 164.256 144.921 164.544C144.825 164.832 144.649 165.088 144.393 165.312C144.148 165.525 143.812 165.696 143.385 165.824C142.969 165.941 142.436 166 141.785 166H138.009V157.632ZM141.689 161.2C142.297 161.2 142.734 161.093 143.001 160.88C143.278 160.667 143.417 160.363 143.417 159.968C143.417 159.563 143.273 159.259 142.985 159.056C142.708 158.843 142.249 158.736 141.609 158.736H139.401V161.2H141.689ZM141.785 164.88C142.478 164.88 142.964 164.773 143.241 164.56C143.518 164.336 143.657 164.011 143.657 163.584C143.657 163.157 143.508 162.827 143.209 162.592C142.91 162.347 142.441 162.224 141.801 162.224H139.401V164.88H141.785ZM148.12 157.632V160.704H150.616C151.661 160.704 152.419 160.944 152.888 161.424C153.357 161.893 153.592 162.523 153.592 163.312C153.592 164.112 153.331 164.763 152.808 165.264C152.296 165.755 151.491 166 150.392 166H146.728V157.632H148.12ZM154.712 157.632H156.104V166H154.712V157.632ZM148.12 164.848H150.456C151.043 164.848 151.469 164.72 151.736 164.464C152.003 164.197 152.136 163.824 152.136 163.344C152.136 162.853 152.008 162.48 151.752 162.224C151.507 161.968 151.053 161.84 150.392 161.84H148.12V164.848ZM168.959 163.2C168.82 164.149 168.457 164.896 167.871 165.44C167.284 165.984 166.457 166.256 165.391 166.256C164.761 166.256 164.201 166.155 163.711 165.952C163.231 165.749 162.825 165.456 162.495 165.072C162.175 164.688 161.929 164.224 161.759 163.68C161.599 163.136 161.519 162.523 161.519 161.84C161.519 161.168 161.609 160.56 161.791 160.016C161.972 159.461 162.233 158.992 162.575 158.608C162.916 158.213 163.332 157.909 163.823 157.696C164.313 157.483 164.868 157.376 165.487 157.376C166.479 157.376 167.247 157.621 167.791 158.112C168.335 158.592 168.681 159.259 168.831 160.112L167.439 160.368C167.385 160.101 167.311 159.856 167.215 159.632C167.129 159.408 167.007 159.216 166.847 159.056C166.687 158.885 166.489 158.757 166.255 158.672C166.031 158.576 165.759 158.528 165.439 158.528C165.001 158.528 164.628 158.613 164.319 158.784C164.009 158.944 163.753 159.173 163.551 159.472C163.359 159.771 163.215 160.123 163.119 160.528C163.033 160.923 162.991 161.349 162.991 161.808C162.991 162.277 163.033 162.715 163.119 163.12C163.204 163.515 163.343 163.861 163.535 164.16C163.727 164.448 163.977 164.677 164.287 164.848C164.596 165.019 164.975 165.104 165.423 165.104C166.095 165.104 166.591 164.933 166.911 164.592C167.241 164.251 167.455 163.787 167.551 163.2H168.959ZM172.776 158.816H169.88V157.632H177.032V158.816H174.168V166H172.776V158.816ZM178.322 157.632H179.698V158.816C180.039 158.347 180.434 157.989 180.882 157.744C181.341 157.499 181.874 157.376 182.482 157.376C183.069 157.376 183.581 157.483 184.018 157.696C184.466 157.909 184.834 158.208 185.122 158.592C185.421 158.976 185.639 159.44 185.778 159.984C185.927 160.517 186.002 161.109 186.002 161.76C186.002 162.453 185.917 163.077 185.746 163.632C185.575 164.187 185.33 164.661 185.01 165.056C184.69 165.44 184.301 165.739 183.842 165.952C183.394 166.155 182.887 166.256 182.322 166.256C181.853 166.256 181.389 166.165 180.93 165.984C180.482 165.792 180.077 165.456 179.714 164.976V169.104H178.322V157.632ZM179.698 162.048C179.698 162.592 179.757 163.056 179.874 163.44C180.002 163.824 180.173 164.144 180.386 164.4C180.599 164.645 180.855 164.827 181.154 164.944C181.453 165.051 181.778 165.104 182.13 165.104C182.471 165.104 182.786 165.045 183.074 164.928C183.373 164.811 183.629 164.619 183.842 164.352C184.055 164.085 184.221 163.744 184.338 163.328C184.466 162.901 184.53 162.384 184.53 161.776C184.53 161.157 184.461 160.64 184.322 160.224C184.194 159.808 184.023 159.477 183.81 159.232C183.597 158.976 183.351 158.795 183.074 158.688C182.807 158.581 182.53 158.528 182.242 158.528C181.879 158.528 181.543 158.587 181.234 158.704C180.925 158.821 180.653 159.003 180.418 159.248C180.194 159.483 180.018 159.787 179.89 160.16C179.762 160.523 179.698 160.949 179.698 161.44V162.048ZM191.581 166.256C190.952 166.256 190.392 166.155 189.901 165.952C189.41 165.739 188.994 165.44 188.653 165.056C188.312 164.672 188.05 164.208 187.869 163.664C187.688 163.12 187.597 162.507 187.597 161.824C187.597 161.152 187.693 160.544 187.885 160C188.077 159.445 188.349 158.976 188.701 158.592C189.053 158.197 189.474 157.899 189.965 157.696C190.466 157.483 191.021 157.376 191.629 157.376C192.248 157.376 192.802 157.483 193.293 157.696C193.784 157.899 194.2 158.192 194.541 158.576C194.893 158.949 195.16 159.408 195.341 159.952C195.522 160.485 195.613 161.088 195.613 161.76C195.613 162.443 195.517 163.061 195.325 163.616C195.144 164.171 194.877 164.645 194.525 165.04C194.184 165.424 193.762 165.723 193.261 165.936C192.76 166.149 192.2 166.256 191.581 166.256ZM191.597 165.104C192.045 165.104 192.429 165.024 192.749 164.864C193.069 164.693 193.33 164.464 193.533 164.176C193.746 163.877 193.901 163.525 193.997 163.12C194.093 162.715 194.141 162.272 194.141 161.792C194.141 161.312 194.093 160.875 193.997 160.48C193.901 160.075 193.746 159.728 193.533 159.44C193.33 159.152 193.069 158.928 192.749 158.768C192.429 158.608 192.045 158.528 191.597 158.528C191.149 158.528 190.765 158.608 190.445 158.768C190.136 158.928 189.874 159.152 189.661 159.44C189.458 159.728 189.309 160.075 189.213 160.48C189.117 160.875 189.069 161.312 189.069 161.792C189.069 162.272 189.117 162.715 189.213 163.12C189.309 163.525 189.458 163.877 189.661 164.176C189.864 164.464 190.125 164.693 190.445 164.864C190.765 165.024 191.149 165.104 191.597 165.104ZM204.358 166H203.046V159.696L198.774 166H197.462V157.632H198.758V163.952L203.03 157.632H204.358V166ZM208.542 158.816H205.646V157.632H212.798V158.816H209.934V166H208.542V158.816ZM220.99 163.68C220.851 164.48 220.494 165.109 219.918 165.568C219.352 166.027 218.536 166.256 217.47 166.256C216.211 166.256 215.246 165.872 214.574 165.104C213.902 164.325 213.566 163.248 213.566 161.872C213.566 161.157 213.662 160.523 213.854 159.968C214.046 159.403 214.312 158.928 214.654 158.544C215.006 158.16 215.422 157.872 215.902 157.68C216.382 157.477 216.904 157.376 217.47 157.376C218.11 157.376 218.659 157.477 219.118 157.68C219.576 157.883 219.95 158.165 220.238 158.528C220.536 158.891 220.755 159.323 220.894 159.824C221.043 160.325 221.118 160.869 221.118 161.456V162.144H214.974C214.974 162.581 215.027 162.981 215.134 163.344C215.251 163.707 215.411 164.021 215.614 164.288C215.827 164.555 216.088 164.763 216.398 164.912C216.707 165.061 217.064 165.136 217.47 165.136C218.163 165.136 218.67 165.008 218.99 164.752C219.31 164.485 219.528 164.128 219.646 163.68H220.99ZM219.726 161.104C219.726 160.315 219.55 159.68 219.198 159.2C218.846 158.709 218.264 158.464 217.454 158.464C216.718 158.464 216.142 158.693 215.726 159.152C215.31 159.6 215.07 160.251 215.006 161.104H219.726ZM230.237 166.256C229.608 166.256 229.048 166.155 228.557 165.952C228.066 165.739 227.65 165.44 227.309 165.056C226.968 164.672 226.706 164.208 226.525 163.664C226.344 163.12 226.253 162.507 226.253 161.824C226.253 161.152 226.349 160.544 226.541 160C226.733 159.445 227.005 158.976 227.357 158.592C227.709 158.197 228.13 157.899 228.621 157.696C229.122 157.483 229.677 157.376 230.285 157.376C230.904 157.376 231.458 157.483 231.949 157.696C232.44 157.899 232.856 158.192 233.197 158.576C233.549 158.949 233.816 159.408 233.997 159.952C234.178 160.485 234.269 161.088 234.269 161.76C234.269 162.443 234.173 163.061 233.981 163.616C233.8 164.171 233.533 164.645 233.181 165.04C232.84 165.424 232.418 165.723 231.917 165.936C231.416 166.149 230.856 166.256 230.237 166.256ZM230.253 165.104C230.701 165.104 231.085 165.024 231.405 164.864C231.725 164.693 231.986 164.464 232.189 164.176C232.402 163.877 232.557 163.525 232.653 163.12C232.749 162.715 232.797 162.272 232.797 161.792C232.797 161.312 232.749 160.875 232.653 160.48C232.557 160.075 232.402 159.728 232.189 159.44C231.986 159.152 231.725 158.928 231.405 158.768C231.085 158.608 230.701 158.528 230.253 158.528C229.805 158.528 229.421 158.608 229.101 158.768C228.792 158.928 228.53 159.152 228.317 159.44C228.114 159.728 227.965 160.075 227.869 160.48C227.773 160.875 227.725 161.312 227.725 161.792C227.725 162.272 227.773 162.715 227.869 163.12C227.965 163.525 228.114 163.877 228.317 164.176C228.52 164.464 228.781 164.693 229.101 164.864C229.421 165.024 229.805 165.104 230.253 165.104ZM240.119 159.28C239.809 159.28 239.5 159.328 239.191 159.424C238.892 159.509 238.62 159.659 238.375 159.872C238.087 160.117 237.868 160.416 237.719 160.768C237.569 161.12 237.495 161.504 237.495 161.92C237.495 162.891 237.692 163.669 238.087 164.256C238.481 164.832 239.116 165.12 239.991 165.12C240.791 165.12 241.388 164.864 241.783 164.352C242.177 163.829 242.375 163.099 242.375 162.16C242.375 160.24 241.623 159.28 240.119 159.28ZM242.919 155.504L241.431 155.776C240.588 155.925 239.937 156.107 239.479 156.32C239.02 156.533 238.663 156.768 238.407 157.024C237.799 157.621 237.436 158.539 237.319 159.776C237.66 159.232 238.081 158.821 238.583 158.544C239.084 158.267 239.671 158.128 240.343 158.128C240.855 158.128 241.324 158.213 241.751 158.384C242.177 158.555 242.545 158.811 242.855 159.152C243.175 159.483 243.42 159.893 243.591 160.384C243.761 160.875 243.847 161.445 243.847 162.096C243.847 162.704 243.761 163.264 243.591 163.776C243.431 164.277 243.185 164.715 242.855 165.088C242.535 165.461 242.135 165.755 241.655 165.968C241.175 166.171 240.615 166.272 239.975 166.272C239.239 166.272 238.615 166.144 238.103 165.888C237.591 165.632 237.175 165.28 236.855 164.832C236.535 164.373 236.3 163.835 236.151 163.216C236.012 162.597 235.943 161.925 235.943 161.2C235.943 160.528 235.975 159.936 236.039 159.424C236.113 158.912 236.22 158.459 236.359 158.064C236.497 157.669 236.663 157.323 236.855 157.024C237.047 156.725 237.265 156.453 237.511 156.208C237.905 155.803 238.444 155.461 239.127 155.184C239.82 154.907 240.631 154.693 241.559 154.544L242.759 154.336L242.919 155.504ZM244.641 157.632H247.921V160.704H250.401C251.457 160.704 252.219 160.939 252.689 161.408C253.158 161.867 253.393 162.507 253.393 163.328C253.393 164.16 253.126 164.816 252.593 165.296C252.059 165.765 251.275 166 250.241 166H246.529V158.784H244.641V157.632ZM247.921 164.848H250.273C250.849 164.848 251.27 164.72 251.537 164.464C251.803 164.197 251.937 163.824 251.937 163.344C251.937 162.853 251.809 162.48 251.553 162.224C251.307 161.968 250.854 161.84 250.193 161.84H247.921V164.848ZM262.099 163.68C261.96 164.48 261.603 165.109 261.027 165.568C260.462 166.027 259.646 166.256 258.579 166.256C257.32 166.256 256.355 165.872 255.683 165.104C255.011 164.325 254.675 163.248 254.675 161.872C254.675 161.157 254.771 160.523 254.963 159.968C255.155 159.403 255.422 158.928 255.763 158.544C256.115 158.16 256.531 157.872 257.011 157.68C257.491 157.477 258.014 157.376 258.579 157.376C259.219 157.376 259.768 157.477 260.227 157.68C260.686 157.883 261.059 158.165 261.347 158.528C261.646 158.891 261.864 159.323 262.003 159.824C262.152 160.325 262.227 160.869 262.227 161.456V162.144H256.083C256.083 162.581 256.136 162.981 256.243 163.344C256.36 163.707 256.52 164.021 256.723 164.288C256.936 164.555 257.198 164.763 257.507 164.912C257.816 165.061 258.174 165.136 258.579 165.136C259.272 165.136 259.779 165.008 260.099 164.752C260.419 164.485 260.638 164.128 260.755 163.68H262.099ZM260.835 161.104C260.835 160.315 260.659 159.68 260.307 159.2C259.955 158.709 259.374 158.464 258.563 158.464C257.827 158.464 257.251 158.693 256.835 159.152C256.419 159.6 256.179 160.251 256.115 161.104H260.835ZM264.056 166V157.632H265.432V161.264H265.992C266.195 161.264 266.371 161.243 266.52 161.2C266.68 161.157 266.824 161.088 266.952 160.992C267.08 160.885 267.197 160.752 267.304 160.592C267.411 160.432 267.523 160.229 267.64 159.984L268.12 158.992C268.237 158.747 268.355 158.539 268.472 158.368C268.6 158.197 268.739 158.059 268.888 157.952C269.048 157.835 269.229 157.755 269.432 157.712C269.635 157.659 269.875 157.632 270.152 157.632C270.301 157.632 270.44 157.643 270.568 157.664C270.707 157.685 270.808 157.707 270.872 157.728L270.728 158.8C270.696 158.779 270.632 158.763 270.536 158.752C270.44 158.741 270.333 158.736 270.216 158.736C269.939 158.736 269.731 158.8 269.592 158.928C269.464 159.045 269.341 159.237 269.224 159.504L268.76 160.512C268.632 160.811 268.483 161.056 268.312 161.248C268.152 161.429 267.944 161.579 267.688 161.696C267.912 161.781 268.109 161.904 268.28 162.064C268.451 162.224 268.632 162.443 268.824 162.72L271.016 166H269.416L267.496 163.12C267.304 162.832 267.112 162.619 266.92 162.48C266.728 162.341 266.456 162.272 266.104 162.272H265.432V166H264.056ZM274.808 158.816H271.912V157.632H279.064V158.816H276.2V166H274.808V158.816ZM98.056 179.632H101.672C102.301 179.632 102.819 179.691 103.224 179.808C103.64 179.925 103.965 180.085 104.2 180.288C104.445 180.491 104.616 180.72 104.712 180.976C104.808 181.232 104.856 181.499 104.856 181.776C104.856 182.213 104.76 182.592 104.568 182.912C104.387 183.221 104.077 183.467 103.64 183.648C104.131 183.808 104.499 184.059 104.744 184.4C105 184.741 105.128 185.141 105.128 185.6C105.128 185.941 105.075 186.256 104.968 186.544C104.872 186.832 104.696 187.088 104.44 187.312C104.195 187.525 103.859 187.696 103.432 187.824C103.016 187.941 102.483 188 101.832 188H98.056V179.632ZM101.736 183.2C102.344 183.2 102.781 183.093 103.048 182.88C103.325 182.667 103.464 182.363 103.464 181.968C103.464 181.563 103.32 181.259 103.032 181.056C102.755 180.843 102.296 180.736 101.656 180.736H99.448V183.2H101.736ZM101.832 186.88C102.525 186.88 103.011 186.773 103.288 186.56C103.565 186.336 103.704 186.011 103.704 185.584C103.704 185.157 103.555 184.827 103.256 184.592C102.957 184.347 102.488 184.224 101.848 184.224H99.448V186.88H101.832ZM115.969 180.768H113.201L112.849 183.648C112.753 184.448 112.62 185.131 112.449 185.696C112.279 186.251 112.06 186.709 111.793 187.072C111.527 187.424 111.207 187.68 110.833 187.84C110.471 188 110.044 188.08 109.553 188.08H109.281V186.912H109.441C109.719 186.912 109.964 186.859 110.177 186.752C110.401 186.645 110.599 186.453 110.769 186.176C110.951 185.899 111.105 185.515 111.233 185.024C111.361 184.533 111.468 183.909 111.553 183.152L111.953 179.632H117.361V188H115.969V180.768ZM120.87 179.632V183.2H122.694C122.801 182.016 123.185 181.083 123.846 180.4C124.518 179.717 125.414 179.376 126.534 179.376C127.142 179.376 127.681 179.483 128.15 179.696C128.619 179.899 129.019 180.192 129.35 180.576C129.681 180.949 129.931 181.408 130.102 181.952C130.273 182.496 130.358 183.104 130.358 183.776C130.358 184.459 130.267 185.077 130.086 185.632C129.915 186.187 129.665 186.661 129.334 187.056C129.014 187.44 128.614 187.739 128.134 187.952C127.654 188.155 127.11 188.256 126.502 188.256C125.318 188.256 124.401 187.904 123.75 187.2C123.099 186.496 122.737 185.525 122.662 184.288H120.87V188H119.478V179.632H120.87ZM126.518 187.104C126.945 187.104 127.307 187.024 127.606 186.864C127.905 186.693 128.15 186.464 128.342 186.176C128.534 185.877 128.673 185.525 128.758 185.12C128.843 184.715 128.886 184.272 128.886 183.792C128.886 183.312 128.843 182.875 128.758 182.48C128.673 182.075 128.534 181.728 128.342 181.44C128.15 181.152 127.905 180.928 127.606 180.768C127.307 180.608 126.945 180.528 126.518 180.528C126.091 180.528 125.723 180.608 125.414 180.768C125.115 180.928 124.865 181.157 124.662 181.456C124.47 181.744 124.326 182.091 124.23 182.496C124.145 182.891 124.102 183.328 124.102 183.808C124.102 184.288 124.145 184.731 124.23 185.136C124.326 185.541 124.47 185.888 124.662 186.176C124.854 186.464 125.099 186.693 125.398 186.864C125.707 187.024 126.081 187.104 126.518 187.104ZM136.228 181.28C135.919 181.28 135.609 181.328 135.3 181.424C135.001 181.509 134.729 181.659 134.484 181.872C134.196 182.117 133.977 182.416 133.828 182.768C133.679 183.12 133.604 183.504 133.604 183.92C133.604 184.891 133.801 185.669 134.196 186.256C134.591 186.832 135.225 187.12 136.1 187.12C136.9 187.12 137.497 186.864 137.892 186.352C138.287 185.829 138.484 185.099 138.484 184.16C138.484 182.24 137.732 181.28 136.228 181.28ZM139.028 177.504L137.54 177.776C136.697 177.925 136.047 178.107 135.588 178.32C135.129 178.533 134.772 178.768 134.516 179.024C133.908 179.621 133.545 180.539 133.428 181.776C133.769 181.232 134.191 180.821 134.692 180.544C135.193 180.267 135.78 180.128 136.452 180.128C136.964 180.128 137.433 180.213 137.86 180.384C138.287 180.555 138.655 180.811 138.964 181.152C139.284 181.483 139.529 181.893 139.7 182.384C139.871 182.875 139.956 183.445 139.956 184.096C139.956 184.704 139.871 185.264 139.7 185.776C139.54 186.277 139.295 186.715 138.964 187.088C138.644 187.461 138.244 187.755 137.764 187.968C137.284 188.171 136.724 188.272 136.084 188.272C135.348 188.272 134.724 188.144 134.212 187.888C133.7 187.632 133.284 187.28 132.964 186.832C132.644 186.373 132.409 185.835 132.26 185.216C132.121 184.597 132.052 183.925 132.052 183.2C132.052 182.528 132.084 181.936 132.148 181.424C132.223 180.912 132.329 180.459 132.468 180.064C132.607 179.669 132.772 179.323 132.964 179.024C133.156 178.725 133.375 178.453 133.62 178.208C134.015 177.803 134.553 177.461 135.236 177.184C135.929 176.907 136.74 176.693 137.668 176.544L138.868 176.336L139.028 177.504ZM145.534 188.256C144.905 188.256 144.345 188.155 143.854 187.952C143.363 187.739 142.947 187.44 142.606 187.056C142.265 186.672 142.003 186.208 141.822 185.664C141.641 185.12 141.55 184.507 141.55 183.824C141.55 183.152 141.646 182.544 141.838 182C142.03 181.445 142.302 180.976 142.654 180.592C143.006 180.197 143.427 179.899 143.918 179.696C144.419 179.483 144.974 179.376 145.582 179.376C146.201 179.376 146.755 179.483 147.246 179.696C147.737 179.899 148.153 180.192 148.494 180.576C148.846 180.949 149.113 181.408 149.294 181.952C149.475 182.485 149.566 183.088 149.566 183.76C149.566 184.443 149.47 185.061 149.278 185.616C149.097 186.171 148.83 186.645 148.478 187.04C148.137 187.424 147.715 187.723 147.214 187.936C146.713 188.149 146.153 188.256 145.534 188.256ZM145.55 187.104C145.998 187.104 146.382 187.024 146.702 186.864C147.022 186.693 147.283 186.464 147.486 186.176C147.699 185.877 147.854 185.525 147.95 185.12C148.046 184.715 148.094 184.272 148.094 183.792C148.094 183.312 148.046 182.875 147.95 182.48C147.854 182.075 147.699 181.728 147.486 181.44C147.283 181.152 147.022 180.928 146.702 180.768C146.382 180.608 145.998 180.528 145.55 180.528C145.102 180.528 144.718 180.608 144.398 180.768C144.089 180.928 143.827 181.152 143.614 181.44C143.411 181.728 143.262 182.075 143.166 182.48C143.07 182.875 143.022 183.312 143.022 183.792C143.022 184.272 143.07 184.715 143.166 185.12C143.262 185.525 143.411 185.877 143.614 186.176C143.817 186.464 144.078 186.693 144.398 186.864C144.718 187.024 145.102 187.104 145.55 187.104ZM151.431 179.632H153.127L155.959 186.528L158.887 179.632H160.503V188H159.223V181.664L156.487 188H155.335L152.727 181.728V188H151.431V179.632ZM166.228 179.632H167.604V180.816C167.946 180.347 168.34 179.989 168.788 179.744C169.247 179.499 169.78 179.376 170.388 179.376C170.975 179.376 171.487 179.483 171.924 179.696C172.372 179.909 172.74 180.208 173.028 180.592C173.327 180.976 173.546 181.44 173.684 181.984C173.834 182.517 173.908 183.109 173.908 183.76C173.908 184.453 173.823 185.077 173.652 185.632C173.482 186.187 173.236 186.661 172.916 187.056C172.596 187.44 172.207 187.739 171.748 187.952C171.3 188.155 170.794 188.256 170.228 188.256C169.759 188.256 169.295 188.165 168.836 187.984C168.388 187.792 167.983 187.456 167.62 186.976V191.104H166.228V179.632ZM167.604 184.048C167.604 184.592 167.663 185.056 167.78 185.44C167.908 185.824 168.079 186.144 168.292 186.4C168.506 186.645 168.762 186.827 169.06 186.944C169.359 187.051 169.684 187.104 170.036 187.104C170.378 187.104 170.692 187.045 170.98 186.928C171.279 186.811 171.535 186.619 171.748 186.352C171.962 186.085 172.127 185.744 172.244 185.328C172.372 184.901 172.436 184.384 172.436 183.776C172.436 183.157 172.367 182.64 172.228 182.224C172.1 181.808 171.93 181.477 171.716 181.232C171.503 180.976 171.258 180.795 170.98 180.688C170.714 180.581 170.436 180.528 170.148 180.528C169.786 180.528 169.45 180.587 169.14 180.704C168.831 180.821 168.559 181.003 168.324 181.248C168.1 181.483 167.924 181.787 167.796 182.16C167.668 182.523 167.604 182.949 167.604 183.44V184.048ZM182.927 185.68C182.788 186.48 182.431 187.109 181.855 187.568C181.29 188.027 180.474 188.256 179.407 188.256C178.148 188.256 177.183 187.872 176.511 187.104C175.839 186.325 175.503 185.248 175.503 183.872C175.503 183.157 175.599 182.523 175.791 181.968C175.983 181.403 176.25 180.928 176.591 180.544C176.943 180.16 177.359 179.872 177.839 179.68C178.319 179.477 178.842 179.376 179.407 179.376C180.047 179.376 180.596 179.477 181.055 179.68C181.514 179.883 181.887 180.165 182.175 180.528C182.474 180.891 182.692 181.323 182.831 181.824C182.98 182.325 183.055 182.869 183.055 183.456V184.144H176.911C176.911 184.581 176.964 184.981 177.071 185.344C177.188 185.707 177.348 186.021 177.551 186.288C177.764 186.555 178.026 186.763 178.335 186.912C178.644 187.061 179.002 187.136 179.407 187.136C180.1 187.136 180.607 187.008 180.927 186.752C181.247 186.485 181.466 186.128 181.583 185.68H182.927ZM181.663 183.104C181.663 182.315 181.487 181.68 181.135 181.2C180.783 180.709 180.202 180.464 179.391 180.464C178.655 180.464 178.079 180.693 177.663 181.152C177.247 181.6 177.007 182.251 176.943 183.104H181.663ZM190.452 179.632V180.832H186.276V188H184.884V179.632H190.452ZM198.577 188H197.265V181.696L192.993 188H191.681V179.632H192.977V185.952L197.249 179.632H198.577V188ZM204.425 188.256C203.795 188.256 203.235 188.155 202.745 187.952C202.254 187.739 201.838 187.44 201.497 187.056C201.155 186.672 200.894 186.208 200.713 185.664C200.531 185.12 200.441 184.507 200.441 183.824C200.441 183.152 200.537 182.544 200.729 182C200.921 181.445 201.193 180.976 201.545 180.592C201.897 180.197 202.318 179.899 202.809 179.696C203.31 179.483 203.865 179.376 204.473 179.376C205.091 179.376 205.646 179.483 206.137 179.696C206.627 179.899 207.043 180.192 207.385 180.576C207.737 180.949 208.003 181.408 208.185 181.952C208.366 182.485 208.457 183.088 208.457 183.76C208.457 184.443 208.361 185.061 208.169 185.616C207.987 186.171 207.721 186.645 207.369 187.04C207.027 187.424 206.606 187.723 206.105 187.936C205.603 188.149 205.043 188.256 204.425 188.256ZM204.441 187.104C204.889 187.104 205.273 187.024 205.593 186.864C205.913 186.693 206.174 186.464 206.377 186.176C206.59 185.877 206.745 185.525 206.841 185.12C206.937 184.715 206.985 184.272 206.985 183.792C206.985 183.312 206.937 182.875 206.841 182.48C206.745 182.075 206.59 181.728 206.377 181.44C206.174 181.152 205.913 180.928 205.593 180.768C205.273 180.608 204.889 180.528 204.441 180.528C203.993 180.528 203.609 180.608 203.289 180.768C202.979 180.928 202.718 181.152 202.505 181.44C202.302 181.728 202.153 182.075 202.057 182.48C201.961 182.875 201.913 183.312 201.913 183.792C201.913 184.272 201.961 184.715 202.057 185.12C202.153 185.525 202.302 185.877 202.505 186.176C202.707 186.464 202.969 186.693 203.289 186.864C203.609 187.024 203.993 187.104 204.441 187.104ZM211.698 179.632V183.04H216.098V179.632H217.49V188H216.098V184.224H211.698V188H210.306V179.632H211.698ZM226.771 185.68C226.632 186.48 226.275 187.109 225.699 187.568C225.134 188.027 224.318 188.256 223.251 188.256C221.992 188.256 221.027 187.872 220.355 187.104C219.683 186.325 219.347 185.248 219.347 183.872C219.347 183.157 219.443 182.523 219.635 181.968C219.827 181.403 220.094 180.928 220.435 180.544C220.787 180.16 221.203 179.872 221.683 179.68C222.163 179.477 222.686 179.376 223.251 179.376C223.891 179.376 224.44 179.477 224.899 179.68C225.358 179.883 225.731 180.165 226.019 180.528C226.318 180.891 226.536 181.323 226.675 181.824C226.824 182.325 226.899 182.869 226.899 183.456V184.144H220.755C220.755 184.581 220.808 184.981 220.915 185.344C221.032 185.707 221.192 186.021 221.395 186.288C221.608 186.555 221.87 186.763 222.179 186.912C222.488 187.061 222.846 187.136 223.251 187.136C223.944 187.136 224.451 187.008 224.771 186.752C225.091 186.485 225.31 186.128 225.427 185.68H226.771ZM225.507 183.104C225.507 182.315 225.331 181.68 224.979 181.2C224.627 180.709 224.046 180.464 223.235 180.464C222.499 180.464 221.923 180.693 221.507 181.152C221.091 181.6 220.851 182.251 220.787 183.104H225.507ZM236.306 182.32C236.861 182.32 237.32 182.267 237.682 182.16C238.045 182.053 238.328 181.899 238.53 181.696C238.733 181.493 238.872 181.253 238.946 180.976C239.032 180.688 239.074 180.368 239.074 180.016C239.074 179.653 239.032 179.333 238.946 179.056C238.861 178.779 238.712 178.549 238.498 178.368C238.296 178.187 238.013 178.053 237.65 177.968C237.288 177.872 236.834 177.824 236.29 177.824H233.954V182.32H236.306ZM236.322 176.576C237.165 176.576 237.858 176.667 238.402 176.848C238.957 177.029 239.389 177.275 239.698 177.584C240.018 177.893 240.237 178.256 240.354 178.672C240.482 179.077 240.546 179.509 240.546 179.968C240.546 180.448 240.482 180.907 240.354 181.344C240.226 181.781 240.002 182.165 239.682 182.496C239.362 182.827 238.93 183.088 238.386 183.28C237.842 183.472 237.154 183.568 236.322 183.568H233.954V188H232.498V176.576H236.322ZM245.534 188.256C244.905 188.256 244.345 188.155 243.854 187.952C243.363 187.739 242.947 187.44 242.606 187.056C242.265 186.672 242.003 186.208 241.822 185.664C241.641 185.12 241.55 184.507 241.55 183.824C241.55 183.152 241.646 182.544 241.838 182C242.03 181.445 242.302 180.976 242.654 180.592C243.006 180.197 243.427 179.899 243.918 179.696C244.419 179.483 244.974 179.376 245.582 179.376C246.201 179.376 246.755 179.483 247.246 179.696C247.737 179.899 248.153 180.192 248.494 180.576C248.846 180.949 249.113 181.408 249.294 181.952C249.475 182.485 249.566 183.088 249.566 183.76C249.566 184.443 249.47 185.061 249.278 185.616C249.097 186.171 248.83 186.645 248.478 187.04C248.137 187.424 247.715 187.723 247.214 187.936C246.713 188.149 246.153 188.256 245.534 188.256ZM245.55 187.104C245.998 187.104 246.382 187.024 246.702 186.864C247.022 186.693 247.283 186.464 247.486 186.176C247.699 185.877 247.854 185.525 247.95 185.12C248.046 184.715 248.094 184.272 248.094 183.792C248.094 183.312 248.046 182.875 247.95 182.48C247.854 182.075 247.699 181.728 247.486 181.44C247.283 181.152 247.022 180.928 246.702 180.768C246.382 180.608 245.998 180.528 245.55 180.528C245.102 180.528 244.718 180.608 244.398 180.768C244.089 180.928 243.827 181.152 243.614 181.44C243.411 181.728 243.262 182.075 243.166 182.48C243.07 182.875 243.022 183.312 243.022 183.792C243.022 184.272 243.07 184.715 243.166 185.12C243.262 185.525 243.411 185.877 243.614 186.176C243.817 186.464 244.078 186.693 244.398 186.864C244.718 187.024 245.102 187.104 245.55 187.104ZM258.599 185.2C258.461 186.149 258.098 186.896 257.511 187.44C256.925 187.984 256.098 188.256 255.031 188.256C254.402 188.256 253.842 188.155 253.351 187.952C252.871 187.749 252.466 187.456 252.135 187.072C251.815 186.688 251.57 186.224 251.399 185.68C251.239 185.136 251.159 184.523 251.159 183.84C251.159 183.168 251.25 182.56 251.431 182.016C251.613 181.461 251.874 180.992 252.215 180.608C252.557 180.213 252.973 179.909 253.463 179.696C253.954 179.483 254.509 179.376 255.127 179.376C256.119 179.376 256.887 179.621 257.431 180.112C257.975 180.592 258.322 181.259 258.471 182.112L257.079 182.368C257.026 182.101 256.951 181.856 256.855 181.632C256.77 181.408 256.647 181.216 256.487 181.056C256.327 180.885 256.13 180.757 255.895 180.672C255.671 180.576 255.399 180.528 255.079 180.528C254.642 180.528 254.269 180.613 253.959 180.784C253.65 180.944 253.394 181.173 253.191 181.472C252.999 181.771 252.855 182.123 252.759 182.528C252.674 182.923 252.631 183.349 252.631 183.808C252.631 184.277 252.674 184.715 252.759 185.12C252.845 185.515 252.983 185.861 253.175 186.16C253.367 186.448 253.618 186.677 253.927 186.848C254.237 187.019 254.615 187.104 255.063 187.104C255.735 187.104 256.231 186.933 256.551 186.592C256.882 186.251 257.095 185.787 257.191 185.2H258.599ZM267.537 185.2C267.398 186.149 267.036 186.896 266.449 187.44C265.862 187.984 265.036 188.256 263.969 188.256C263.34 188.256 262.78 188.155 262.289 187.952C261.809 187.749 261.404 187.456 261.073 187.072C260.753 186.688 260.508 186.224 260.337 185.68C260.177 185.136 260.097 184.523 260.097 183.84C260.097 183.168 260.188 182.56 260.369 182.016C260.55 181.461 260.812 180.992 261.153 180.608C261.494 180.213 261.91 179.909 262.401 179.696C262.892 179.483 263.446 179.376 264.065 179.376C265.057 179.376 265.825 179.621 266.369 180.112C266.913 180.592 267.26 181.259 267.409 182.112L266.017 182.368C265.964 182.101 265.889 181.856 265.793 181.632C265.708 181.408 265.585 181.216 265.425 181.056C265.265 180.885 265.068 180.757 264.833 180.672C264.609 180.576 264.337 180.528 264.017 180.528C263.58 180.528 263.206 180.613 262.897 180.784C262.588 180.944 262.332 181.173 262.129 181.472C261.937 181.771 261.793 182.123 261.697 182.528C261.612 182.923 261.569 183.349 261.569 183.808C261.569 184.277 261.612 184.715 261.697 185.12C261.782 185.515 261.921 185.861 262.113 186.16C262.305 186.448 262.556 186.677 262.865 186.848C263.174 187.019 263.553 187.104 264.001 187.104C264.673 187.104 265.169 186.933 265.489 186.592C265.82 186.251 266.033 185.787 266.129 185.2H267.537ZM276.186 188H274.874V181.696L270.602 188H269.29V179.632H270.586V185.952L274.858 179.632H276.186V188ZM285.202 188H283.89V181.696L279.618 188H278.306V179.632H279.602V185.952L283.874 179.632H285.202V188ZM104.952 210H103.64V203.696L99.368 210H98.056V201.632H99.352V207.952L103.624 201.632H104.952V210ZM112.704 202.768H109.936L109.584 205.648C109.488 206.448 109.354 207.131 109.184 207.696C109.013 208.251 108.794 208.709 108.528 209.072C108.261 209.424 107.941 209.68 107.568 209.84C107.205 210 106.778 210.08 106.288 210.08H106.016V208.912H106.176C106.453 208.912 106.698 208.859 106.912 208.752C107.136 208.645 107.333 208.453 107.504 208.176C107.685 207.899 107.84 207.515 107.968 207.024C108.096 206.533 108.202 205.909 108.288 205.152L108.688 201.632H114.096V210H112.704V202.768ZM123.108 210H121.796V203.696L117.524 210H116.212V201.632H117.508V207.952L121.78 201.632H123.108V210ZM131.926 201.376C132.492 201.376 132.977 201.435 133.382 201.552C133.798 201.669 134.14 201.835 134.406 202.048C134.684 202.251 134.886 202.491 135.014 202.768C135.142 203.035 135.206 203.328 135.206 203.648C135.206 204.117 135.078 204.523 134.822 204.864C134.566 205.195 134.241 205.435 133.846 205.584C134.316 205.733 134.694 205.979 134.982 206.32C135.27 206.651 135.414 207.099 135.414 207.664C135.414 208.037 135.345 208.379 135.206 208.688C135.068 208.997 134.849 209.269 134.55 209.504C134.262 209.739 133.889 209.92 133.43 210.048C132.982 210.176 132.449 210.24 131.83 210.24C130.764 210.24 129.916 210.032 129.286 209.616C128.657 209.189 128.31 208.501 128.246 207.552H129.59C129.676 208.117 129.905 208.523 130.278 208.768C130.652 209.003 131.19 209.12 131.894 209.12C132.673 209.12 133.212 208.987 133.51 208.72C133.82 208.443 133.974 208.085 133.974 207.648C133.974 207.168 133.814 206.805 133.494 206.56C133.174 206.315 132.721 206.192 132.134 206.192H130.454V205.168H132.198C132.721 205.168 133.116 205.051 133.382 204.816C133.66 204.571 133.798 204.24 133.798 203.824C133.798 203.408 133.644 203.088 133.334 202.864C133.025 202.629 132.545 202.512 131.894 202.512C131.521 202.512 131.206 202.544 130.95 202.608C130.694 202.661 130.481 202.747 130.31 202.864C130.15 202.981 130.017 203.131 129.91 203.312C129.804 203.483 129.713 203.68 129.638 203.904L128.374 203.68C128.46 203.349 128.582 203.045 128.742 202.768C128.913 202.48 129.137 202.235 129.414 202.032C129.692 201.829 130.033 201.669 130.438 201.552C130.854 201.435 131.35 201.376 131.926 201.376ZM142.365 208.864C142.066 209.227 141.687 209.541 141.229 209.808C140.77 210.064 140.199 210.192 139.517 210.192C139.101 210.192 138.717 210.139 138.365 210.032C138.023 209.936 137.725 209.787 137.469 209.584C137.223 209.371 137.031 209.109 136.893 208.8C136.754 208.491 136.685 208.128 136.685 207.712C136.685 207.136 136.802 206.667 137.037 206.304C137.282 205.931 137.602 205.643 137.997 205.44C138.402 205.227 138.855 205.083 139.357 205.008C139.858 204.923 140.375 204.869 140.909 204.848L142.333 204.8V204.464C142.333 203.76 142.183 203.253 141.885 202.944C141.586 202.635 141.101 202.48 140.429 202.48C139.767 202.48 139.282 202.592 138.973 202.816C138.663 203.029 138.461 203.328 138.365 203.712L137.101 203.568C137.25 202.811 137.607 202.261 138.173 201.92C138.738 201.568 139.506 201.392 140.477 201.392C141.074 201.392 141.575 201.467 141.981 201.616C142.397 201.755 142.733 201.957 142.989 202.224C143.245 202.491 143.426 202.821 143.533 203.216C143.65 203.611 143.709 204.053 143.709 204.544V210H142.365V208.864ZM142.333 205.792L141.005 205.84C140.439 205.861 139.97 205.915 139.597 206C139.223 206.085 138.925 206.203 138.701 206.352C138.487 206.501 138.333 206.688 138.237 206.912C138.151 207.125 138.109 207.381 138.109 207.68C138.109 208.096 138.231 208.432 138.477 208.688C138.733 208.933 139.149 209.056 139.725 209.056C140.546 209.056 141.186 208.853 141.645 208.448C142.103 208.043 142.333 207.488 142.333 206.784V205.792ZM154.937 201.632V202.832H150.761V210H149.368V201.632H154.937ZM156.181 201.632H157.557V202.816C157.899 202.347 158.293 201.989 158.741 201.744C159.2 201.499 159.733 201.376 160.341 201.376C160.928 201.376 161.44 201.483 161.877 201.696C162.325 201.909 162.693 202.208 162.981 202.592C163.28 202.976 163.499 203.44 163.637 203.984C163.787 204.517 163.861 205.109 163.861 205.76C163.861 206.453 163.776 207.077 163.605 207.632C163.435 208.187 163.189 208.661 162.869 209.056C162.549 209.44 162.16 209.739 161.701 209.952C161.253 210.155 160.747 210.256 160.181 210.256C159.712 210.256 159.248 210.165 158.789 209.984C158.341 209.792 157.936 209.456 157.573 208.976V213.104H156.181V201.632ZM157.557 206.048C157.557 206.592 157.616 207.056 157.733 207.44C157.861 207.824 158.032 208.144 158.245 208.4C158.459 208.645 158.715 208.827 159.013 208.944C159.312 209.051 159.637 209.104 159.989 209.104C160.331 209.104 160.645 209.045 160.933 208.928C161.232 208.811 161.488 208.619 161.701 208.352C161.915 208.085 162.08 207.744 162.197 207.328C162.325 206.901 162.389 206.384 162.389 205.776C162.389 205.157 162.32 204.64 162.181 204.224C162.053 203.808 161.883 203.477 161.669 203.232C161.456 202.976 161.211 202.795 160.933 202.688C160.667 202.581 160.389 202.528 160.101 202.528C159.739 202.528 159.403 202.587 159.093 202.704C158.784 202.821 158.512 203.003 158.277 203.248C158.053 203.483 157.877 203.787 157.749 204.16C157.621 204.523 157.557 204.949 157.557 205.44V206.048ZM170.88 208.864C170.582 209.227 170.203 209.541 169.744 209.808C169.286 210.064 168.715 210.192 168.032 210.192C167.616 210.192 167.232 210.139 166.88 210.032C166.539 209.936 166.24 209.787 165.984 209.584C165.739 209.371 165.547 209.109 165.408 208.8C165.27 208.491 165.2 208.128 165.2 207.712C165.2 207.136 165.318 206.667 165.552 206.304C165.798 205.931 166.118 205.643 166.512 205.44C166.918 205.227 167.371 205.083 167.872 205.008C168.374 204.923 168.891 204.869 169.424 204.848L170.848 204.8V204.464C170.848 203.76 170.699 203.253 170.4 202.944C170.102 202.635 169.616 202.48 168.944 202.48C168.283 202.48 167.798 202.592 167.488 202.816C167.179 203.029 166.976 203.328 166.88 203.712L165.616 203.568C165.766 202.811 166.123 202.261 166.688 201.92C167.254 201.568 168.022 201.392 168.992 201.392C169.59 201.392 170.091 201.467 170.496 201.616C170.912 201.755 171.248 201.957 171.504 202.224C171.76 202.491 171.942 202.821 172.048 203.216C172.166 203.611 172.224 204.053 172.224 204.544V210H170.88V208.864ZM170.848 205.792L169.52 205.84C168.955 205.861 168.486 205.915 168.112 206C167.739 206.085 167.44 206.203 167.216 206.352C167.003 206.501 166.848 206.688 166.752 206.912C166.667 207.125 166.624 207.381 166.624 207.68C166.624 208.096 166.747 208.432 166.992 208.688C167.248 208.933 167.664 209.056 168.24 209.056C169.062 209.056 169.702 208.853 170.16 208.448C170.619 208.043 170.848 207.488 170.848 206.784V205.792ZM175.714 201.632V205.04H180.114V201.632H181.506V210H180.114V206.224H175.714V210H174.322V201.632H175.714ZM190.515 210H189.203V203.696L184.931 210H183.618V201.632H184.914V207.952L189.187 201.632H190.515V210ZM192.634 210V201.632H194.026V208.816H197.978V201.632H199.37V208.816H200.346V212.24H199.082V210H192.634ZM208.818 207.68C208.679 208.48 208.322 209.109 207.746 209.568C207.18 210.027 206.364 210.256 205.298 210.256C204.039 210.256 203.074 209.872 202.402 209.104C201.73 208.325 201.394 207.248 201.394 205.872C201.394 205.157 201.49 204.523 201.682 203.968C201.874 203.403 202.14 202.928 202.482 202.544C202.834 202.16 203.25 201.872 203.73 201.68C204.21 201.477 204.732 201.376 205.298 201.376C205.938 201.376 206.487 201.477 206.946 201.68C207.404 201.883 207.778 202.165 208.066 202.528C208.364 202.891 208.583 203.323 208.722 203.824C208.871 204.325 208.946 204.869 208.946 205.456V206.144H202.802C202.802 206.581 202.855 206.981 202.962 207.344C203.079 207.707 203.239 208.021 203.442 208.288C203.655 208.555 203.916 208.763 204.226 208.912C204.535 209.061 204.892 209.136 205.298 209.136C205.991 209.136 206.498 209.008 206.818 208.752C207.138 208.485 207.356 208.128 207.474 207.68H208.818ZM207.554 205.104C207.554 204.315 207.378 203.68 207.026 203.2C206.674 202.709 206.092 202.464 205.282 202.464C204.546 202.464 203.97 202.693 203.554 203.152C203.138 203.6 202.898 204.251 202.834 205.104H207.554ZM217.671 210H216.359V203.696L212.087 210H210.775V201.632H212.071V207.952L216.343 201.632H217.671V210ZM212.999 198.384C213.02 198.789 213.153 199.109 213.399 199.344C213.644 199.568 213.985 199.68 214.423 199.68C214.86 199.68 215.201 199.568 215.447 199.344C215.692 199.109 215.831 198.789 215.863 198.384H216.919C216.919 199.045 216.7 199.584 216.263 200C215.836 200.405 215.223 200.608 214.423 200.608C213.601 200.608 212.983 200.405 212.567 200C212.151 199.584 211.943 199.045 211.943 198.384H212.999ZM219.934 208.096H221.406L220.574 211.552H219.454L219.934 208.096ZM226.931 201.632H228.627L231.459 208.528L234.387 201.632H236.003V210H234.723V203.664L231.987 210H230.835L228.227 203.728V210H226.931V201.632ZM239.542 201.632V204.704H242.038C243.083 204.704 243.84 204.944 244.31 205.424C244.779 205.893 245.014 206.523 245.014 207.312C245.014 208.112 244.752 208.763 244.23 209.264C243.718 209.755 242.912 210 241.814 210H238.15V201.632H239.542ZM246.134 201.632H247.526V210H246.134V201.632ZM239.542 208.848H241.878C242.464 208.848 242.891 208.72 243.158 208.464C243.424 208.197 243.558 207.824 243.558 207.344C243.558 206.853 243.43 206.48 243.174 206.224C242.928 205.968 242.475 205.84 241.814 205.84H239.542V208.848ZM99.448 223.632V227.04H103.848V223.632H105.24V232H103.848V228.224H99.448V232H98.056V223.632H99.448ZM112.521 230.864C112.222 231.227 111.844 231.541 111.385 231.808C110.926 232.064 110.356 232.192 109.673 232.192C109.257 232.192 108.873 232.139 108.521 232.032C108.18 231.936 107.881 231.787 107.625 231.584C107.38 231.371 107.188 231.109 107.049 230.8C106.91 230.491 106.841 230.128 106.841 229.712C106.841 229.136 106.958 228.667 107.193 228.304C107.438 227.931 107.758 227.643 108.153 227.44C108.558 227.227 109.012 227.083 109.513 227.008C110.014 226.923 110.532 226.869 111.065 226.848L112.489 226.8V226.464C112.489 225.76 112.34 225.253 112.041 224.944C111.742 224.635 111.257 224.48 110.585 224.48C109.924 224.48 109.438 224.592 109.129 224.816C108.82 225.029 108.617 225.328 108.521 225.712L107.257 225.568C107.406 224.811 107.764 224.261 108.329 223.92C108.894 223.568 109.662 223.392 110.633 223.392C111.23 223.392 111.732 223.467 112.137 223.616C112.553 223.755 112.889 223.957 113.145 224.224C113.401 224.491 113.582 224.821 113.689 225.216C113.806 225.611 113.865 226.053 113.865 226.544V232H112.521V230.864ZM112.489 227.792L111.161 227.84C110.596 227.861 110.126 227.915 109.753 228C109.38 228.085 109.081 228.203 108.857 228.352C108.644 228.501 108.489 228.688 108.393 228.912C108.308 229.125 108.265 229.381 108.265 229.68C108.265 230.096 108.388 230.432 108.633 230.688C108.889 230.933 109.305 231.056 109.881 231.056C110.702 231.056 111.342 230.853 111.801 230.448C112.26 230.043 112.489 229.488 112.489 228.784V227.792ZM122.922 223.632V232H121.53V224.832H117.354V232H115.962V223.632H122.922ZM125.072 223.632H126.448V224.816C126.789 224.347 127.184 223.989 127.632 223.744C128.091 223.499 128.624 223.376 129.232 223.376C129.819 223.376 130.331 223.483 130.768 223.696C131.216 223.909 131.584 224.208 131.872 224.592C132.171 224.976 132.389 225.44 132.528 225.984C132.677 226.517 132.752 227.109 132.752 227.76C132.752 228.453 132.667 229.077 132.496 229.632C132.325 230.187 132.08 230.661 131.76 231.056C131.44 231.44 131.051 231.739 130.592 231.952C130.144 232.155 129.637 232.256 129.072 232.256C128.603 232.256 128.139 232.165 127.68 231.984C127.232 231.792 126.827 231.456 126.464 230.976V235.104H125.072V223.632ZM126.448 228.048C126.448 228.592 126.507 229.056 126.624 229.44C126.752 229.824 126.923 230.144 127.136 230.4C127.349 230.645 127.605 230.827 127.904 230.944C128.203 231.051 128.528 231.104 128.88 231.104C129.221 231.104 129.536 231.045 129.824 230.928C130.123 230.811 130.379 230.619 130.592 230.352C130.805 230.085 130.971 229.744 131.088 229.328C131.216 228.901 131.28 228.384 131.28 227.776C131.28 227.157 131.211 226.64 131.072 226.224C130.944 225.808 130.773 225.477 130.56 225.232C130.347 224.976 130.101 224.795 129.824 224.688C129.557 224.581 129.28 224.528 128.992 224.528C128.629 224.528 128.293 224.587 127.984 224.704C127.675 224.821 127.403 225.003 127.168 225.248C126.944 225.483 126.768 225.787 126.64 226.16C126.512 226.523 126.448 226.949 126.448 227.44V228.048ZM139.771 230.864C139.472 231.227 139.094 231.541 138.635 231.808C138.176 232.064 137.606 232.192 136.923 232.192C136.507 232.192 136.123 232.139 135.771 232.032C135.43 231.936 135.131 231.787 134.875 231.584C134.63 231.371 134.438 231.109 134.299 230.8C134.16 230.491 134.091 230.128 134.091 229.712C134.091 229.136 134.208 228.667 134.443 228.304C134.688 227.931 135.008 227.643 135.403 227.44C135.808 227.227 136.262 227.083 136.763 227.008C137.264 226.923 137.782 226.869 138.315 226.848L139.739 226.8V226.464C139.739 225.76 139.59 225.253 139.291 224.944C138.992 224.635 138.507 224.48 137.835 224.48C137.174 224.48 136.688 224.592 136.379 224.816C136.07 225.029 135.867 225.328 135.771 225.712L134.507 225.568C134.656 224.811 135.014 224.261 135.579 223.92C136.144 223.568 136.912 223.392 137.883 223.392C138.48 223.392 138.982 223.467 139.387 223.616C139.803 223.755 140.139 223.957 140.395 224.224C140.651 224.491 140.832 224.821 140.939 225.216C141.056 225.611 141.115 226.053 141.115 226.544V232H139.771V230.864ZM139.739 227.792L138.411 227.84C137.846 227.861 137.376 227.915 137.003 228C136.63 228.085 136.331 228.203 136.107 228.352C135.894 228.501 135.739 228.688 135.643 228.912C135.558 229.125 135.515 229.381 135.515 229.68C135.515 230.096 135.638 230.432 135.883 230.688C136.139 230.933 136.555 231.056 137.131 231.056C137.952 231.056 138.592 230.853 139.051 230.448C139.51 230.043 139.739 229.488 139.739 228.784V227.792ZM143.212 223.632H146.828C147.458 223.632 147.975 223.691 148.38 223.808C148.796 223.925 149.122 224.085 149.356 224.288C149.602 224.491 149.772 224.72 149.868 224.976C149.964 225.232 150.012 225.499 150.012 225.776C150.012 226.213 149.916 226.592 149.724 226.912C149.543 227.221 149.234 227.467 148.796 227.648C149.287 227.808 149.655 228.059 149.9 228.4C150.156 228.741 150.284 229.141 150.284 229.6C150.284 229.941 150.231 230.256 150.124 230.544C150.028 230.832 149.852 231.088 149.596 231.312C149.351 231.525 149.015 231.696 148.588 231.824C148.172 231.941 147.639 232 146.988 232H143.212V223.632ZM146.892 227.2C147.5 227.2 147.938 227.093 148.204 226.88C148.482 226.667 148.62 226.363 148.62 225.968C148.62 225.563 148.476 225.259 148.188 225.056C147.911 224.843 147.452 224.736 146.812 224.736H144.604V227.2H146.892ZM146.988 230.88C147.682 230.88 148.167 230.773 148.444 230.56C148.722 230.336 148.86 230.011 148.86 229.584C148.86 229.157 148.711 228.827 148.412 228.592C148.114 228.347 147.644 228.224 147.004 228.224H144.604V230.88H146.988ZM158.827 232H157.515V225.696L153.243 232H151.931V223.632H153.227V229.952L157.499 223.632H158.827V232ZM160.963 223.632H162.659L165.491 230.528L168.419 223.632H170.035V232H168.755V225.664L166.019 232H164.867L162.259 225.728V232H160.963V223.632ZM175.743 232V223.632H177.12V227.264H177.68C177.882 227.264 178.058 227.243 178.208 227.2C178.368 227.157 178.512 227.088 178.64 226.992C178.768 226.885 178.885 226.752 178.992 226.592C179.098 226.432 179.21 226.229 179.328 225.984L179.808 224.992C179.925 224.747 180.042 224.539 180.16 224.368C180.288 224.197 180.426 224.059 180.576 223.952C180.736 223.835 180.917 223.755 181.12 223.712C181.322 223.659 181.562 223.632 181.84 223.632C181.989 223.632 182.128 223.643 182.256 223.664C182.394 223.685 182.496 223.707 182.56 223.728L182.416 224.8C182.384 224.779 182.32 224.763 182.224 224.752C182.128 224.741 182.021 224.736 181.904 224.736C181.626 224.736 181.418 224.8 181.28 224.928C181.152 225.045 181.029 225.237 180.912 225.504L180.448 226.512C180.32 226.811 180.17 227.056 180 227.248C179.84 227.429 179.632 227.579 179.376 227.696C179.6 227.781 179.797 227.904 179.968 228.064C180.138 228.224 180.32 228.443 180.512 228.72L182.704 232H181.104L179.184 229.12C178.992 228.832 178.8 228.619 178.608 228.48C178.416 228.341 178.144 228.272 177.792 228.272H177.12V232H175.743ZM187.431 223.632H191.047C191.676 223.632 192.194 223.691 192.599 223.808C193.015 223.925 193.34 224.085 193.575 224.288C193.82 224.491 193.991 224.72 194.087 224.976C194.183 225.232 194.231 225.499 194.231 225.776C194.231 226.213 194.135 226.592 193.943 226.912C193.762 227.221 193.452 227.467 193.015 227.648C193.506 227.808 193.874 228.059 194.119 228.4C194.375 228.741 194.503 229.141 194.503 229.6C194.503 229.941 194.45 230.256 194.343 230.544C194.247 230.832 194.071 231.088 193.815 231.312C193.57 231.525 193.234 231.696 192.807 231.824C192.391 231.941 191.858 232 191.207 232H187.431V223.632ZM191.111 227.2C191.719 227.2 192.156 227.093 192.423 226.88C192.7 226.667 192.839 226.363 192.839 225.968C192.839 225.563 192.695 225.259 192.407 225.056C192.13 224.843 191.671 224.736 191.031 224.736H188.823V227.2H191.111ZM191.207 230.88C191.9 230.88 192.386 230.773 192.663 230.56C192.94 230.336 193.079 230.011 193.079 229.584C193.079 229.157 192.93 228.827 192.631 228.592C192.332 228.347 191.863 228.224 191.223 228.224H188.823V230.88H191.207ZM201.318 230.864C201.019 231.227 200.64 231.541 200.182 231.808C199.723 232.064 199.152 232.192 198.47 232.192C198.054 232.192 197.67 232.139 197.318 232.032C196.976 231.936 196.678 231.787 196.422 231.584C196.176 231.371 195.984 231.109 195.846 230.8C195.707 230.491 195.638 230.128 195.638 229.712C195.638 229.136 195.755 228.667 195.99 228.304C196.235 227.931 196.555 227.643 196.95 227.44C197.355 227.227 197.808 227.083 198.31 227.008C198.811 226.923 199.328 226.869 199.862 226.848L201.286 226.8V226.464C201.286 225.76 201.136 225.253 200.838 224.944C200.539 224.635 200.054 224.48 199.382 224.48C198.72 224.48 198.235 224.592 197.926 224.816C197.616 225.029 197.414 225.328 197.318 225.712L196.054 225.568C196.203 224.811 196.56 224.261 197.126 223.92C197.691 223.568 198.459 223.392 199.43 223.392C200.027 223.392 200.528 223.467 200.934 223.616C201.35 223.755 201.686 223.957 201.942 224.224C202.198 224.491 202.379 224.821 202.486 225.216C202.603 225.611 202.662 226.053 202.662 226.544V232H201.318V230.864ZM201.286 227.792L199.958 227.84C199.392 227.861 198.923 227.915 198.55 228C198.176 228.085 197.878 228.203 197.654 228.352C197.44 228.501 197.286 228.688 197.19 228.912C197.104 229.125 197.062 229.381 197.062 229.68C197.062 230.096 197.184 230.432 197.43 230.688C197.686 230.933 198.102 231.056 198.678 231.056C199.499 231.056 200.139 230.853 200.598 230.448C201.056 230.043 201.286 229.488 201.286 228.784V227.792ZM204.775 223.632H206.471L209.303 230.528L212.231 223.632H213.847V232H212.567V225.664L209.831 232H208.679L206.071 225.728V232H204.775V223.632ZM219.556 232V223.632H220.932V227.264H221.492C221.695 227.264 221.871 227.243 222.02 227.2C222.18 227.157 222.324 227.088 222.452 226.992C222.58 226.885 222.697 226.752 222.804 226.592C222.911 226.432 223.023 226.229 223.14 225.984L223.62 224.992C223.737 224.747 223.855 224.539 223.972 224.368C224.1 224.197 224.239 224.059 224.388 223.952C224.548 223.835 224.729 223.755 224.932 223.712C225.135 223.659 225.375 223.632 225.652 223.632C225.801 223.632 225.94 223.643 226.068 223.664C226.207 223.685 226.308 223.707 226.372 223.728L226.228 224.8C226.196 224.779 226.132 224.763 226.036 224.752C225.94 224.741 225.833 224.736 225.716 224.736C225.439 224.736 225.231 224.8 225.092 224.928C224.964 225.045 224.841 225.237 224.724 225.504L224.26 226.512C224.132 226.811 223.983 227.056 223.812 227.248C223.652 227.429 223.444 227.579 223.188 227.696C223.412 227.781 223.609 227.904 223.78 228.064C223.951 228.224 224.132 228.443 224.324 228.72L226.516 232H224.916L222.996 229.12C222.804 228.832 222.612 228.619 222.42 228.48C222.228 228.341 221.956 228.272 221.604 228.272H220.932V232H219.556ZM231.065 232.256C230.436 232.256 229.876 232.155 229.385 231.952C228.895 231.739 228.479 231.44 228.137 231.056C227.796 230.672 227.535 230.208 227.353 229.664C227.172 229.12 227.081 228.507 227.081 227.824C227.081 227.152 227.177 226.544 227.369 226C227.561 225.445 227.833 224.976 228.185 224.592C228.537 224.197 228.959 223.899 229.449 223.696C229.951 223.483 230.505 223.376 231.113 223.376C231.732 223.376 232.287 223.483 232.777 223.696C233.268 223.899 233.684 224.192 234.025 224.576C234.377 224.949 234.644 225.408 234.825 225.952C235.007 226.485 235.097 227.088 235.097 227.76C235.097 228.443 235.001 229.061 234.809 229.616C234.628 230.171 234.361 230.645 234.009 231.04C233.668 231.424 233.247 231.723 232.745 231.936C232.244 232.149 231.684 232.256 231.065 232.256ZM231.081 231.104C231.529 231.104 231.913 231.024 232.233 230.864C232.553 230.693 232.815 230.464 233.017 230.176C233.231 229.877 233.385 229.525 233.481 229.12C233.577 228.715 233.625 228.272 233.625 227.792C233.625 227.312 233.577 226.875 233.481 226.48C233.385 226.075 233.231 225.728 233.017 225.44C232.815 225.152 232.553 224.928 232.233 224.768C231.913 224.608 231.529 224.528 231.081 224.528C230.633 224.528 230.249 224.608 229.929 224.768C229.62 224.928 229.359 225.152 229.145 225.44C228.943 225.728 228.793 226.075 228.697 226.48C228.601 226.875 228.553 227.312 228.553 227.792C228.553 228.272 228.601 228.715 228.697 229.12C228.793 229.525 228.943 229.877 229.145 230.176C229.348 230.464 229.609 230.693 229.929 230.864C230.249 231.024 230.633 231.104 231.081 231.104ZM236.963 223.632H238.659L241.491 230.528L244.419 223.632H246.035V232H244.755V225.664L242.019 232H240.867L238.259 225.728V232H236.963V223.632ZM253.349 230.864C253.05 231.227 252.672 231.541 252.213 231.808C251.754 232.064 251.184 232.192 250.501 232.192C250.085 232.192 249.701 232.139 249.349 232.032C249.008 231.936 248.709 231.787 248.453 231.584C248.208 231.371 248.016 231.109 247.877 230.8C247.738 230.491 247.669 230.128 247.669 229.712C247.669 229.136 247.786 228.667 248.021 228.304C248.266 227.931 248.586 227.643 248.981 227.44C249.386 227.227 249.84 227.083 250.341 227.008C250.842 226.923 251.36 226.869 251.893 226.848L253.317 226.8V226.464C253.317 225.76 253.168 225.253 252.869 224.944C252.57 224.635 252.085 224.48 251.413 224.48C250.752 224.48 250.266 224.592 249.957 224.816C249.648 225.029 249.445 225.328 249.349 225.712L248.085 225.568C248.234 224.811 248.592 224.261 249.157 223.92C249.722 223.568 250.49 223.392 251.461 223.392C252.058 223.392 252.56 223.467 252.965 223.616C253.381 223.755 253.717 223.957 253.973 224.224C254.229 224.491 254.41 224.821 254.517 225.216C254.634 225.611 254.693 226.053 254.693 226.544V232H253.349V230.864ZM253.317 227.792L251.989 227.84C251.424 227.861 250.954 227.915 250.581 228C250.208 228.085 249.909 228.203 249.685 228.352C249.472 228.501 249.317 228.688 249.221 228.912C249.136 229.125 249.093 229.381 249.093 229.68C249.093 230.096 249.216 230.432 249.461 230.688C249.717 230.933 250.133 231.056 250.709 231.056C251.53 231.056 252.17 230.853 252.629 230.448C253.088 230.043 253.317 229.488 253.317 228.784V227.792ZM258.182 223.632V227.04H262.582V223.632H263.974V232H262.582V228.224H258.182V232H256.79V223.632H258.182ZM272.999 223.632V230.816H273.975V234.24H272.711V232H266.455V234.24H265.191V230.816H266.007C266.199 230.635 266.375 230.395 266.535 230.096C266.695 229.797 266.839 229.429 266.967 228.992C267.095 228.544 267.207 228.016 267.303 227.408C267.41 226.8 267.501 226.096 267.575 225.296L267.719 223.632H272.999ZM268.807 226.048C268.679 227.328 268.503 228.347 268.279 229.104C268.066 229.861 267.815 230.432 267.527 230.816H271.607V224.768H268.935L268.807 226.048ZM275.46 233.744C275.599 233.797 275.754 233.84 275.924 233.872C276.095 233.915 276.26 233.936 276.42 233.936C276.751 233.936 277.007 233.845 277.188 233.664C277.38 233.483 277.578 233.152 277.78 232.672L278.132 231.824L274.596 223.632H276.212L278.836 230.224L281.22 223.632H282.756L279.14 232.784C278.991 233.157 278.836 233.488 278.676 233.776C278.527 234.064 278.356 234.304 278.164 234.496C277.972 234.699 277.748 234.848 277.492 234.944C277.247 235.051 276.959 235.104 276.628 235.104C276.308 235.104 276.042 235.083 275.828 235.04C275.615 234.997 275.402 234.939 275.188 234.864L275.46 233.744ZM104.968 245.632V252.816H105.944V256.24H104.68V254H98.424V256.24H97.16V252.816H97.976C98.168 252.635 98.344 252.395 98.504 252.096C98.664 251.797 98.808 251.429 98.936 250.992C99.064 250.544 99.176 250.016 99.272 249.408C99.3787 248.8 99.4693 248.096 99.544 247.296L99.688 245.632H104.968ZM100.776 248.048C100.648 249.328 100.472 250.347 100.248 251.104C100.035 251.861 99.784 252.432 99.496 252.816H103.576V246.768H100.904L100.776 248.048ZM113.313 246.768H110.545L110.193 249.648C110.097 250.448 109.964 251.131 109.793 251.696C109.622 252.251 109.404 252.709 109.137 253.072C108.87 253.424 108.55 253.68 108.177 253.84C107.814 254 107.388 254.08 106.897 254.08H106.625V252.912H106.785C107.062 252.912 107.308 252.859 107.521 252.752C107.745 252.645 107.942 252.453 108.113 252.176C108.294 251.899 108.449 251.515 108.577 251.024C108.705 250.533 108.812 249.909 108.897 249.152L109.297 245.632H114.705V254H113.313V246.768ZM116.134 254L117.686 251.312C117.952 250.853 118.246 250.544 118.566 250.384C118.032 250.267 117.611 250.011 117.302 249.616C116.992 249.221 116.838 248.715 116.838 248.096C116.838 247.744 116.891 247.419 116.998 247.12C117.104 246.821 117.28 246.56 117.526 246.336C117.782 246.112 118.118 245.941 118.534 245.824C118.95 245.696 119.467 245.632 120.086 245.632H123.414V254H122.022V250.656H120.822C120.566 250.656 120.347 250.672 120.166 250.704C119.995 250.736 119.846 250.789 119.718 250.864C119.59 250.939 119.472 251.04 119.366 251.168C119.259 251.296 119.152 251.456 119.046 251.648L117.702 254H116.134ZM122.022 249.504V246.768H120.102C118.875 246.768 118.262 247.195 118.262 248.048C118.262 249.019 118.832 249.504 119.974 249.504H122.022ZM129.119 245.632H130.495V246.816C130.836 246.347 131.231 245.989 131.679 245.744C132.138 245.499 132.671 245.376 133.279 245.376C133.866 245.376 134.378 245.483 134.815 245.696C135.263 245.909 135.631 246.208 135.919 246.592C136.218 246.976 136.436 247.44 136.575 247.984C136.724 248.517 136.799 249.109 136.799 249.76C136.799 250.453 136.714 251.077 136.543 251.632C136.372 252.187 136.127 252.661 135.807 253.056C135.487 253.44 135.098 253.739 134.639 253.952C134.191 254.155 133.684 254.256 133.119 254.256C132.65 254.256 132.186 254.165 131.727 253.984C131.279 253.792 130.874 253.456 130.511 252.976V257.104H129.119V245.632ZM130.495 250.048C130.495 250.592 130.554 251.056 130.671 251.44C130.799 251.824 130.97 252.144 131.183 252.4C131.396 252.645 131.652 252.827 131.951 252.944C132.25 253.051 132.575 253.104 132.927 253.104C133.268 253.104 133.583 253.045 133.871 252.928C134.17 252.811 134.426 252.619 134.639 252.352C134.852 252.085 135.018 251.744 135.135 251.328C135.263 250.901 135.327 250.384 135.327 249.776C135.327 249.157 135.258 248.64 135.119 248.224C134.991 247.808 134.82 247.477 134.607 247.232C134.394 246.976 134.148 246.795 133.871 246.688C133.604 246.581 133.327 246.528 133.039 246.528C132.676 246.528 132.34 246.587 132.031 246.704C131.722 246.821 131.45 247.003 131.215 247.248C130.991 247.483 130.815 247.787 130.687 248.16C130.559 248.523 130.495 248.949 130.495 249.44V250.048ZM145.818 251.68C145.679 252.48 145.322 253.109 144.746 253.568C144.18 254.027 143.364 254.256 142.298 254.256C141.039 254.256 140.074 253.872 139.402 253.104C138.73 252.325 138.394 251.248 138.394 249.872C138.394 249.157 138.49 248.523 138.682 247.968C138.874 247.403 139.14 246.928 139.482 246.544C139.834 246.16 140.25 245.872 140.73 245.68C141.21 245.477 141.732 245.376 142.298 245.376C142.938 245.376 143.487 245.477 143.946 245.68C144.404 245.883 144.778 246.165 145.066 246.528C145.364 246.891 145.583 247.323 145.722 247.824C145.871 248.325 145.946 248.869 145.946 249.456V250.144H139.802C139.802 250.581 139.855 250.981 139.962 251.344C140.079 251.707 140.239 252.021 140.442 252.288C140.655 252.555 140.916 252.763 141.226 252.912C141.535 253.061 141.892 253.136 142.298 253.136C142.991 253.136 143.498 253.008 143.818 252.752C144.138 252.485 144.356 252.128 144.474 251.68H145.818ZM144.554 249.104C144.554 248.315 144.378 247.68 144.026 247.2C143.674 246.709 143.092 246.464 142.282 246.464C141.546 246.464 140.97 246.693 140.554 247.152C140.138 247.6 139.898 248.251 139.834 249.104H144.554ZM152.943 252.864C152.644 253.227 152.265 253.541 151.807 253.808C151.348 254.064 150.777 254.192 150.095 254.192C149.679 254.192 149.295 254.139 148.943 254.032C148.601 253.936 148.303 253.787 148.047 253.584C147.801 253.371 147.609 253.109 147.471 252.8C147.332 252.491 147.263 252.128 147.263 251.712C147.263 251.136 147.38 250.667 147.615 250.304C147.86 249.931 148.18 249.643 148.575 249.44C148.98 249.227 149.433 249.083 149.935 249.008C150.436 248.923 150.953 248.869 151.487 248.848L152.911 248.8V248.464C152.911 247.76 152.761 247.253 152.463 246.944C152.164 246.635 151.679 246.48 151.007 246.48C150.345 246.48 149.86 246.592 149.551 246.816C149.241 247.029 149.039 247.328 148.943 247.712L147.679 247.568C147.828 246.811 148.185 246.261 148.751 245.92C149.316 245.568 150.084 245.392 151.055 245.392C151.652 245.392 152.153 245.467 152.559 245.616C152.975 245.755 153.311 245.957 153.567 246.224C153.823 246.491 154.004 246.821 154.111 247.216C154.228 247.611 154.287 248.053 154.287 248.544V254H152.943V252.864ZM152.911 249.792L151.583 249.84C151.017 249.861 150.548 249.915 150.175 250C149.801 250.085 149.503 250.203 149.279 250.352C149.065 250.501 148.911 250.688 148.815 250.912C148.729 251.125 148.687 251.381 148.687 251.68C148.687 252.096 148.809 252.432 149.055 252.688C149.311 252.933 149.727 253.056 150.303 253.056C151.124 253.056 151.764 252.853 152.223 252.448C152.681 252.043 152.911 251.488 152.911 250.784V249.792ZM162.016 246.768H159.248L158.896 249.648C158.8 250.448 158.667 251.131 158.496 251.696C158.325 252.251 158.107 252.709 157.84 253.072C157.573 253.424 157.253 253.68 156.88 253.84C156.517 254 156.091 254.08 155.6 254.08H155.328V252.912H155.488C155.765 252.912 156.011 252.859 156.224 252.752C156.448 252.645 156.645 252.453 156.816 252.176C156.997 251.899 157.152 251.515 157.28 251.024C157.408 250.533 157.515 249.909 157.6 249.152L158 245.632H163.408V254H162.016V246.768ZM172.421 254H171.109V247.696L166.837 254H165.525V245.632H166.821V251.952L171.093 245.632H172.421V254ZM177.676 245.376C178.242 245.376 178.727 245.435 179.132 245.552C179.548 245.669 179.89 245.835 180.156 246.048C180.434 246.251 180.636 246.491 180.764 246.768C180.892 247.035 180.956 247.328 180.956 247.648C180.956 248.117 180.828 248.523 180.572 248.864C180.316 249.195 179.991 249.435 179.596 249.584C180.066 249.733 180.444 249.979 180.732 250.32C181.02 250.651 181.164 251.099 181.164 251.664C181.164 252.037 181.095 252.379 180.956 252.688C180.818 252.997 180.599 253.269 180.3 253.504C180.012 253.739 179.639 253.92 179.18 254.048C178.732 254.176 178.199 254.24 177.58 254.24C176.514 254.24 175.666 254.032 175.036 253.616C174.407 253.189 174.06 252.501 173.996 251.552H175.34C175.426 252.117 175.655 252.523 176.028 252.768C176.402 253.003 176.94 253.12 177.644 253.12C178.423 253.12 178.962 252.987 179.26 252.72C179.57 252.443 179.724 252.085 179.724 251.648C179.724 251.168 179.564 250.805 179.244 250.56C178.924 250.315 178.471 250.192 177.884 250.192H176.204V249.168H177.948C178.471 249.168 178.866 249.051 179.132 248.816C179.41 248.571 179.548 248.24 179.548 247.824C179.548 247.408 179.394 247.088 179.084 246.864C178.775 246.629 178.295 246.512 177.644 246.512C177.271 246.512 176.956 246.544 176.7 246.608C176.444 246.661 176.231 246.747 176.06 246.864C175.9 246.981 175.767 247.131 175.66 247.312C175.554 247.483 175.463 247.68 175.388 247.904L174.124 247.68C174.21 247.349 174.332 247.045 174.492 246.768C174.663 246.48 174.887 246.235 175.164 246.032C175.442 245.829 175.783 245.669 176.188 245.552C176.604 245.435 177.1 245.376 177.676 245.376ZM188.115 252.864C187.816 253.227 187.437 253.541 186.979 253.808C186.52 254.064 185.949 254.192 185.267 254.192C184.851 254.192 184.467 254.139 184.115 254.032C183.773 253.936 183.475 253.787 183.219 253.584C182.973 253.371 182.781 253.109 182.643 252.8C182.504 252.491 182.435 252.128 182.435 251.712C182.435 251.136 182.552 250.667 182.787 250.304C183.032 249.931 183.352 249.643 183.747 249.44C184.152 249.227 184.605 249.083 185.107 249.008C185.608 248.923 186.125 248.869 186.659 248.848L188.083 248.8V248.464C188.083 247.76 187.933 247.253 187.635 246.944C187.336 246.635 186.851 246.48 186.179 246.48C185.517 246.48 185.032 246.592 184.723 246.816C184.413 247.029 184.211 247.328 184.115 247.712L182.851 247.568C183 246.811 183.357 246.261 183.923 245.92C184.488 245.568 185.256 245.392 186.227 245.392C186.824 245.392 187.325 245.467 187.731 245.616C188.147 245.755 188.483 245.957 188.739 246.224C188.995 246.491 189.176 246.821 189.283 247.216C189.4 247.611 189.459 248.053 189.459 248.544V254H188.115V252.864ZM188.083 249.792L186.755 249.84C186.189 249.861 185.72 249.915 185.347 250C184.973 250.085 184.675 250.203 184.451 250.352C184.237 250.501 184.083 250.688 183.987 250.912C183.901 251.125 183.859 251.381 183.859 251.68C183.859 252.096 183.981 252.432 184.227 252.688C184.483 252.933 184.899 253.056 185.475 253.056C186.296 253.056 186.936 252.853 187.395 252.448C187.853 252.043 188.083 251.488 188.083 250.784V249.792ZM191.556 254V245.632H192.948V252.816H196.9V245.632H198.292V252.816H199.268V256.24H198.004V254H191.556ZM207.468 254H206.156V247.696L201.884 254H200.572V245.632H201.868V251.952L206.14 245.632H207.468V254ZM216.483 254H215.171V247.696L210.899 254H209.587V245.632H210.883V251.952L215.155 245.632H216.483V254ZM229.125 245.632V254H227.733V246.832H223.557V254H222.165V245.632H229.125ZM231.275 245.632H232.651V246.816C232.992 246.347 233.387 245.989 233.835 245.744C234.294 245.499 234.827 245.376 235.435 245.376C236.022 245.376 236.534 245.483 236.971 245.696C237.419 245.909 237.787 246.208 238.075 246.592C238.374 246.976 238.592 247.44 238.731 247.984C238.88 248.517 238.955 249.109 238.955 249.76C238.955 250.453 238.87 251.077 238.699 251.632C238.528 252.187 238.283 252.661 237.963 253.056C237.643 253.44 237.254 253.739 236.795 253.952C236.347 254.155 235.84 254.256 235.275 254.256C234.806 254.256 234.342 254.165 233.883 253.984C233.435 253.792 233.03 253.456 232.667 252.976V257.104H231.275V245.632ZM232.651 250.048C232.651 250.592 232.71 251.056 232.827 251.44C232.955 251.824 233.126 252.144 233.339 252.4C233.552 252.645 233.808 252.827 234.107 252.944C234.406 253.051 234.731 253.104 235.083 253.104C235.424 253.104 235.739 253.045 236.027 252.928C236.326 252.811 236.582 252.619 236.795 252.352C237.008 252.085 237.174 251.744 237.291 251.328C237.419 250.901 237.483 250.384 237.483 249.776C237.483 249.157 237.414 248.64 237.275 248.224C237.147 247.808 236.976 247.477 236.763 247.232C236.55 246.976 236.304 246.795 236.027 246.688C235.76 246.581 235.483 246.528 235.195 246.528C234.832 246.528 234.496 246.587 234.187 246.704C233.878 246.821 233.606 247.003 233.371 247.248C233.147 247.483 232.971 247.787 232.843 248.16C232.715 248.523 232.651 248.949 232.651 249.44V250.048ZM244.534 254.256C243.905 254.256 243.345 254.155 242.854 253.952C242.363 253.739 241.947 253.44 241.606 253.056C241.265 252.672 241.003 252.208 240.822 251.664C240.641 251.12 240.55 250.507 240.55 249.824C240.55 249.152 240.646 248.544 240.838 248C241.03 247.445 241.302 246.976 241.654 246.592C242.006 246.197 242.427 245.899 242.918 245.696C243.419 245.483 243.974 245.376 244.582 245.376C245.201 245.376 245.755 245.483 246.246 245.696C246.737 245.899 247.153 246.192 247.494 246.576C247.846 246.949 248.113 247.408 248.294 247.952C248.475 248.485 248.566 249.088 248.566 249.76C248.566 250.443 248.47 251.061 248.278 251.616C248.097 252.171 247.83 252.645 247.478 253.04C247.137 253.424 246.715 253.723 246.214 253.936C245.713 254.149 245.153 254.256 244.534 254.256ZM244.55 253.104C244.998 253.104 245.382 253.024 245.702 252.864C246.022 252.693 246.283 252.464 246.486 252.176C246.699 251.877 246.854 251.525 246.95 251.12C247.046 250.715 247.094 250.272 247.094 249.792C247.094 249.312 247.046 248.875 246.95 248.48C246.854 248.075 246.699 247.728 246.486 247.44C246.283 247.152 246.022 246.928 245.702 246.768C245.382 246.608 244.998 246.528 244.55 246.528C244.102 246.528 243.718 246.608 243.398 246.768C243.089 246.928 242.827 247.152 242.614 247.44C242.411 247.728 242.262 248.075 242.166 248.48C242.07 248.875 242.022 249.312 242.022 249.792C242.022 250.272 242.07 250.715 242.166 251.12C242.262 251.525 242.411 251.877 242.614 252.176C242.817 252.464 243.078 252.693 243.398 252.864C243.718 253.024 244.102 253.104 244.55 253.104ZM257.583 251.68C257.445 252.48 257.087 253.109 256.511 253.568C255.946 254.027 255.13 254.256 254.063 254.256C252.805 254.256 251.839 253.872 251.167 253.104C250.495 252.325 250.159 251.248 250.159 249.872C250.159 249.157 250.255 248.523 250.447 247.968C250.639 247.403 250.906 246.928 251.247 246.544C251.599 246.16 252.015 245.872 252.495 245.68C252.975 245.477 253.498 245.376 254.063 245.376C254.703 245.376 255.253 245.477 255.711 245.68C256.17 245.883 256.543 246.165 256.831 246.528C257.13 246.891 257.349 247.323 257.487 247.824C257.637 248.325 257.711 248.869 257.711 249.456V250.144H251.567C251.567 250.581 251.621 250.981 251.727 251.344C251.845 251.707 252.005 252.021 252.207 252.288C252.421 252.555 252.682 252.763 252.991 252.912C253.301 253.061 253.658 253.136 254.063 253.136C254.757 253.136 255.263 253.008 255.583 252.752C255.903 252.485 256.122 252.128 256.239 251.68H257.583ZM256.319 249.104C256.319 248.315 256.143 247.68 255.791 247.2C255.439 246.709 254.858 246.464 254.047 246.464C253.311 246.464 252.735 246.693 252.319 247.152C251.903 247.6 251.663 248.251 251.599 249.104H256.319ZM259.54 254V245.632H260.916V249.264H261.476C261.679 249.264 261.855 249.243 262.004 249.2C262.164 249.157 262.308 249.088 262.436 248.992C262.564 248.885 262.682 248.752 262.788 248.592C262.895 248.432 263.007 248.229 263.124 247.984L263.604 246.992C263.722 246.747 263.839 246.539 263.956 246.368C264.084 246.197 264.223 246.059 264.372 245.952C264.532 245.835 264.714 245.755 264.916 245.712C265.119 245.659 265.359 245.632 265.636 245.632C265.786 245.632 265.924 245.643 266.052 245.664C266.191 245.685 266.292 245.707 266.356 245.728L266.212 246.8C266.18 246.779 266.116 246.763 266.02 246.752C265.924 246.741 265.818 246.736 265.7 246.736C265.423 246.736 265.215 246.8 265.076 246.928C264.948 247.045 264.826 247.237 264.708 247.504L264.244 248.512C264.116 248.811 263.967 249.056 263.796 249.248C263.636 249.429 263.428 249.579 263.172 249.696C263.396 249.781 263.594 249.904 263.764 250.064C263.935 250.224 264.116 250.443 264.308 250.72L266.5 254H264.9L262.98 251.12C262.788 250.832 262.596 250.619 262.404 250.48C262.212 250.341 261.94 250.272 261.588 250.272H260.916V254H259.54ZM270.292 246.816H267.396V245.632H274.548V246.816H271.684V254H270.292V246.816ZM280.99 252.864C280.691 253.227 280.312 253.541 279.854 253.808C279.395 254.064 278.824 254.192 278.142 254.192C277.726 254.192 277.342 254.139 276.99 254.032C276.648 253.936 276.35 253.787 276.094 253.584C275.848 253.371 275.656 253.109 275.518 252.8C275.379 252.491 275.31 252.128 275.31 251.712C275.31 251.136 275.427 250.667 275.662 250.304C275.907 249.931 276.227 249.643 276.622 249.44C277.027 249.227 277.48 249.083 277.982 249.008C278.483 248.923 279 248.869 279.534 248.848L280.958 248.8V248.464C280.958 247.76 280.808 247.253 280.51 246.944C280.211 246.635 279.726 246.48 279.054 246.48C278.392 246.48 277.907 246.592 277.598 246.816C277.288 247.029 277.086 247.328 276.99 247.712L275.726 247.568C275.875 246.811 276.232 246.261 276.798 245.92C277.363 245.568 278.131 245.392 279.102 245.392C279.699 245.392 280.2 245.467 280.606 245.616C281.022 245.755 281.358 245.957 281.614 246.224C281.87 246.491 282.051 246.821 282.158 247.216C282.275 247.611 282.334 248.053 282.334 248.544V254H280.99V252.864ZM280.958 249.792L279.63 249.84C279.064 249.861 278.595 249.915 278.222 250C277.848 250.085 277.55 250.203 277.326 250.352C277.112 250.501 276.958 250.688 276.862 250.912C276.776 251.125 276.734 251.381 276.734 251.68C276.734 252.096 276.856 252.432 277.102 252.688C277.358 252.933 277.774 253.056 278.35 253.056C279.171 253.056 279.811 252.853 280.27 252.448C280.728 252.043 280.958 251.488 280.958 250.784V249.792Z" fill="#212121"/>
<path d="M98.432 54.152H112.704V57.512H102.304V77H98.432V54.152ZM125.395 72.072C125.097 73.8 124.361 75.144 123.187 76.104C122.035 77.0427 120.35 77.512 118.131 77.512C115.486 77.512 113.47 76.7333 112.083 75.176C110.718 73.5973 110.035 71.4213 110.035 68.648C110.035 67.2187 110.227 65.9493 110.611 64.84C111.017 63.7307 111.571 62.792 112.275 62.024C113.001 61.256 113.854 60.68 114.835 60.296C115.838 59.8907 116.937 59.688 118.131 59.688C119.411 59.688 120.521 59.8907 121.459 60.296C122.398 60.68 123.177 61.2347 123.795 61.96C124.414 62.6853 124.873 63.5493 125.171 64.552C125.47 65.5333 125.619 66.632 125.619 67.848V69.448H113.683C113.705 70.216 113.811 70.92 114.003 71.56C114.195 72.1787 114.473 72.7227 114.835 73.192C115.198 73.6613 115.657 74.024 116.211 74.28C116.766 74.536 117.406 74.664 118.131 74.664C119.283 74.664 120.147 74.44 120.723 73.992C121.299 73.5227 121.683 72.8827 121.875 72.072H125.395ZM122.067 66.952C122.067 65.5653 121.747 64.4667 121.107 63.656C120.489 62.8453 119.465 62.44 118.035 62.44C116.713 62.44 115.689 62.856 114.963 63.688C114.259 64.4987 113.854 65.5867 113.747 66.952H122.067ZM136.79 77.512C134.187 77.512 132.171 76.7227 130.742 75.144C129.312 73.5653 128.598 71.3787 128.598 68.584C128.598 67.2187 128.79 65.992 129.174 64.904C129.558 63.7947 130.112 62.856 130.838 62.088C131.563 61.32 132.427 60.7333 133.43 60.328C134.454 59.9013 135.595 59.688 136.854 59.688C138.134 59.688 139.275 59.8907 140.278 60.296C141.302 60.7013 142.166 61.288 142.87 62.056C143.574 62.824 144.107 63.752 144.47 64.84C144.854 65.928 145.046 67.1547 145.046 68.52C145.046 69.8853 144.854 71.1227 144.47 72.232C144.086 73.3413 143.531 74.2907 142.806 75.08C142.102 75.848 141.238 76.4453 140.214 76.872C139.211 77.2987 138.07 77.512 136.79 77.512ZM136.822 74.568C138.358 74.568 139.478 74.024 140.182 72.936C140.907 71.848 141.27 70.376 141.27 68.52C141.27 66.7067 140.907 65.2773 140.182 64.232C139.478 63.1653 138.358 62.632 136.822 62.632C135.286 62.632 134.155 63.1653 133.43 64.232C132.726 65.2773 132.374 66.7173 132.374 68.552C132.374 70.3867 132.726 71.848 133.43 72.936C134.155 74.024 135.286 74.568 136.822 74.568ZM160.13 60.168V63.24H152.258V77H148.61V60.168H160.13ZM170.611 62.664C169.139 62.664 168.019 63.1333 167.251 64.072C166.505 65.0107 166.131 66.3547 166.131 68.104V69.128C166.131 70.8347 166.483 72.168 167.187 73.128C167.891 74.0667 168.99 74.536 170.483 74.536C171.849 74.536 172.894 74.0133 173.619 72.968C174.345 71.9227 174.707 70.4613 174.707 68.584C174.707 66.5573 174.323 65.064 173.555 64.104C172.809 63.144 171.827 62.664 170.611 62.664ZM166.099 60.168V62.504C166.227 62.3547 166.419 62.12 166.675 61.8C166.953 61.48 167.305 61.1707 167.731 60.872C168.179 60.552 168.713 60.2747 169.331 60.04C169.95 59.8053 170.675 59.688 171.507 59.688C172.809 59.688 173.897 59.9333 174.771 60.424C175.667 60.9147 176.393 61.5653 176.947 62.376C177.502 63.1867 177.897 64.1253 178.131 65.192C178.387 66.2587 178.515 67.3787 178.515 68.552C178.515 69.7893 178.355 70.952 178.035 72.04C177.737 73.128 177.278 74.0773 176.659 74.888C176.041 75.6987 175.273 76.3387 174.355 76.808C173.459 77.2773 172.403 77.512 171.187 77.512C170.441 77.512 169.779 77.416 169.203 77.224C168.649 77.032 168.169 76.808 167.763 76.552C167.358 76.296 167.027 76.04 166.771 75.784C166.515 75.5067 166.323 75.2827 166.195 75.112V83.208H162.547V60.168H166.099ZM189.791 69.096C188.767 69.1387 187.925 69.2453 187.263 69.416C186.602 69.5653 186.079 69.7787 185.695 70.056C185.311 70.3333 185.045 70.6533 184.895 71.016C184.767 71.3787 184.703 71.784 184.703 72.232C184.703 72.936 184.927 73.512 185.375 73.96C185.823 74.3867 186.506 74.6 187.423 74.6C188.874 74.6 190.015 74.248 190.847 73.544C191.701 72.8187 192.127 71.784 192.127 70.44V69L189.791 69.096ZM192.191 74.824C191.573 75.5493 190.826 76.168 189.951 76.68C189.077 77.1707 187.978 77.416 186.655 77.416C185.866 77.416 185.13 77.3093 184.447 77.096C183.765 76.904 183.167 76.6053 182.655 76.2C182.165 75.7733 181.77 75.24 181.471 74.6C181.194 73.96 181.055 73.2133 181.055 72.36C181.055 71.208 181.301 70.28 181.791 69.576C182.303 68.8507 182.965 68.2853 183.775 67.88C184.586 67.4747 185.503 67.1867 186.527 67.016C187.551 66.8453 188.597 66.728 189.663 66.664L192.127 66.536V65.832C192.127 64.616 191.839 63.752 191.263 63.24C190.687 62.728 189.877 62.472 188.831 62.472C187.722 62.472 186.89 62.664 186.335 63.048C185.781 63.4107 185.418 63.9653 185.247 64.712L181.919 64.36C182.218 62.7387 182.954 61.5547 184.127 60.808C185.301 60.0613 186.911 59.688 188.959 59.688C190.197 59.688 191.242 59.8373 192.095 60.136C192.949 60.4347 193.642 60.872 194.175 61.448C194.709 62.0027 195.093 62.6853 195.327 63.496C195.562 64.3067 195.679 65.2133 195.679 66.216V77H192.191V74.824ZM207.769 77C204.74 76.7013 202.5 75.8693 201.049 74.504C199.598 73.1173 198.873 71.1973 198.873 68.744C198.873 67.6133 199.076 66.5787 199.481 65.64C199.886 64.68 200.462 63.8373 201.209 63.112C201.977 62.3867 202.905 61.8 203.993 61.352C205.102 60.8827 206.361 60.5733 207.769 60.424V54.568H211.289V60.424C212.804 60.552 214.116 60.8507 215.225 61.32C216.356 61.768 217.284 62.3547 218.009 63.08C218.756 63.784 219.3 64.616 219.641 65.576C220.004 66.536 220.185 67.5813 220.185 68.712C220.185 69.928 219.961 71.016 219.513 71.976C219.086 72.936 218.478 73.768 217.689 74.472C216.9 75.176 215.961 75.7413 214.873 76.168C213.785 76.5947 212.59 76.872 211.289 77V82.696H207.769V77ZM202.553 68.616C202.553 70.3227 202.98 71.624 203.833 72.52C204.708 73.3947 206.02 73.9173 207.769 74.088V63.368C206.19 63.496 204.921 64.0293 203.961 64.968C203.022 65.9067 202.553 67.1227 202.553 68.616ZM216.505 68.712C216.505 67.0267 216.036 65.7467 215.097 64.872C214.158 63.9973 212.889 63.4853 211.289 63.336V74.056C212.868 73.928 214.126 73.4267 215.065 72.552C216.025 71.656 216.505 70.376 216.505 68.712ZM237.789 77H234.461V65.384L226.717 77H223.485V60.168H226.813V71.816L234.557 60.168H237.789V77ZM240.325 77L243.365 71.784C243.919 70.824 244.559 70.1947 245.285 69.896C244.837 69.8107 244.41 69.6507 244.005 69.416C243.599 69.1813 243.237 68.8827 242.917 68.52C242.597 68.1573 242.341 67.7093 242.149 67.176C241.978 66.6427 241.893 66.024 241.893 65.32C241.893 64.6373 242.01 63.9867 242.245 63.368C242.479 62.728 242.863 62.1733 243.397 61.704C243.951 61.2347 244.655 60.8613 245.509 60.584C246.362 60.3067 247.418 60.168 248.677 60.168H255.621V77H252.005V70.696H250.117C249.69 70.696 249.317 70.728 248.997 70.792C248.677 70.856 248.399 70.9627 248.165 71.112C247.93 71.24 247.717 71.4213 247.525 71.656C247.333 71.8907 247.141 72.168 246.949 72.488L244.453 77H240.325ZM252.005 67.72V63.112H248.613C246.586 63.112 245.573 63.8267 245.573 65.256C245.573 66.8987 246.511 67.72 248.389 67.72H252.005ZM106.336 101.072C105.845 101.072 105.333 101.136 104.8 101.264C104.288 101.392 103.808 101.637 103.36 102C102.763 102.469 102.325 103.056 102.048 103.76C101.792 104.464 101.664 105.221 101.664 106.032C101.664 107.781 102.027 109.147 102.752 110.128C103.477 111.088 104.576 111.568 106.048 111.568C107.392 111.568 108.437 111.141 109.184 110.288C109.952 109.413 110.336 108.112 110.336 106.384C110.336 104.464 109.963 103.099 109.216 102.288C108.491 101.477 107.531 101.072 106.336 101.072ZM112.224 93.616L109.088 94.192C107.616 94.448 106.421 94.7787 105.504 95.184C104.608 95.5893 103.915 96.0267 103.424 96.496C102.272 97.5627 101.568 99.0987 101.312 101.104C101.931 100.08 102.731 99.3333 103.712 98.864C104.693 98.3947 105.813 98.16 107.072 98.16C108.075 98.16 109.003 98.3307 109.856 98.672C110.709 99.0133 111.445 99.5253 112.064 100.208C112.704 100.869 113.195 101.701 113.536 102.704C113.899 103.685 114.08 104.837 114.08 106.16C114.08 107.355 113.899 108.464 113.536 109.488C113.195 110.512 112.672 111.397 111.968 112.144C111.285 112.891 110.443 113.477 109.44 113.904C108.437 114.309 107.296 114.512 106.016 114.512C104.544 114.512 103.285 114.277 102.24 113.808C101.216 113.339 100.363 112.667 99.68 111.792C99.0187 110.896 98.528 109.829 98.208 108.592C97.9093 107.333 97.76 105.925 97.76 104.368C97.76 103.109 97.8347 101.979 97.984 100.976C98.1333 99.9733 98.3467 99.0773 98.624 98.288C98.9013 97.4773 99.2427 96.752 99.648 96.112C100.075 95.472 100.555 94.8853 101.088 94.352C101.515 93.9253 102.037 93.5413 102.656 93.2C103.275 92.8587 103.947 92.5493 104.672 92.272C105.397 91.9947 106.165 91.76 106.976 91.568C107.808 91.3547 108.64 91.1733 109.472 91.024L111.776 90.64L112.224 93.616ZM132.458 109.072C132.159 110.8 131.423 112.144 130.25 113.104C129.098 114.043 127.412 114.512 125.194 114.512C122.548 114.512 120.532 113.733 119.146 112.176C117.78 110.597 117.098 108.421 117.098 105.648C117.098 104.219 117.29 102.949 117.674 101.84C118.079 100.731 118.634 99.792 119.338 99.024C120.063 98.256 120.916 97.68 121.898 97.296C122.9 96.8907 123.999 96.688 125.194 96.688C126.474 96.688 127.583 96.8907 128.522 97.296C129.46 97.68 130.239 98.2347 130.858 98.96C131.476 99.6853 131.935 100.549 132.234 101.552C132.532 102.533 132.682 103.632 132.682 104.848V106.448H120.746C120.767 107.216 120.874 107.92 121.066 108.56C121.258 109.179 121.535 109.723 121.898 110.192C122.26 110.661 122.719 111.024 123.274 111.28C123.828 111.536 124.468 111.664 125.194 111.664C126.346 111.664 127.21 111.44 127.786 110.992C128.362 110.523 128.746 109.883 128.938 109.072H132.458ZM129.13 103.952C129.13 102.565 128.81 101.467 128.17 100.656C127.551 99.8453 126.527 99.44 125.098 99.44C123.775 99.44 122.751 99.856 122.026 100.688C121.322 101.499 120.916 102.587 120.81 103.952H129.13ZM142.732 96.688C145.1 96.688 146.85 97.136 147.98 98.032C149.111 98.9067 149.676 100.016 149.676 101.36C149.676 102.256 149.42 103.045 148.908 103.728C148.418 104.389 147.788 104.859 147.02 105.136C147.874 105.392 148.599 105.84 149.196 106.48C149.815 107.12 150.124 108.016 150.124 109.168C150.124 110.725 149.506 112.005 148.268 113.008C147.052 113.989 145.164 114.48 142.604 114.48C140.279 114.48 138.466 114.032 137.164 113.136C135.884 112.219 135.191 110.768 135.084 108.784H138.572C138.722 109.808 139.127 110.533 139.788 110.96C140.45 111.365 141.452 111.568 142.796 111.568C144.162 111.568 145.1 111.344 145.612 110.896C146.146 110.448 146.412 109.851 146.412 109.104C146.412 107.483 145.356 106.672 143.244 106.672H139.82V104.144H143.372C144.247 104.144 144.908 103.941 145.356 103.536C145.826 103.131 146.06 102.565 146.06 101.84C146.06 101.157 145.783 100.613 145.228 100.208C144.695 99.7813 143.852 99.568 142.7 99.568C142.039 99.568 141.474 99.6213 141.004 99.728C140.556 99.8347 140.183 100.005 139.884 100.24C139.586 100.453 139.34 100.731 139.148 101.072C138.956 101.392 138.796 101.765 138.668 102.192L135.34 101.584C135.511 100.859 135.767 100.197 136.108 99.6C136.471 99.0027 136.94 98.4907 137.516 98.064C138.114 97.6373 138.828 97.3067 139.66 97.072C140.514 96.816 141.538 96.688 142.732 96.688ZM172.099 97.168V100.24H164.227V114H160.579V97.168H172.099ZM182.58 99.664C181.108 99.664 179.988 100.133 179.22 101.072C178.473 102.011 178.1 103.355 178.1 105.104V106.128C178.1 107.835 178.452 109.168 179.156 110.128C179.86 111.067 180.959 111.536 182.452 111.536C183.817 111.536 184.863 111.013 185.588 109.968C186.313 108.923 186.676 107.461 186.676 105.584C186.676 103.557 186.292 102.064 185.524 101.104C184.777 100.144 183.796 99.664 182.58 99.664ZM178.068 97.168V99.504C178.196 99.3547 178.388 99.12 178.644 98.8C178.921 98.48 179.273 98.1707 179.7 97.872C180.148 97.552 180.681 97.2747 181.3 97.04C181.919 96.8053 182.644 96.688 183.476 96.688C184.777 96.688 185.865 96.9333 186.74 97.424C187.636 97.9147 188.361 98.5653 188.916 99.376C189.471 100.187 189.865 101.125 190.1 102.192C190.356 103.259 190.484 104.379 190.484 105.552C190.484 106.789 190.324 107.952 190.004 109.04C189.705 110.128 189.247 111.077 188.628 111.888C188.009 112.699 187.241 113.339 186.324 113.808C185.428 114.277 184.372 114.512 183.156 114.512C182.409 114.512 181.748 114.416 181.172 114.224C180.617 114.032 180.137 113.808 179.732 113.552C179.327 113.296 178.996 113.04 178.74 112.784C178.484 112.507 178.292 112.283 178.164 112.112V120.208H174.516V97.168H178.068ZM201.76 106.096C200.736 106.139 199.893 106.245 199.232 106.416C198.571 106.565 198.048 106.779 197.664 107.056C197.28 107.333 197.013 107.653 196.864 108.016C196.736 108.379 196.672 108.784 196.672 109.232C196.672 109.936 196.896 110.512 197.344 110.96C197.792 111.387 198.475 111.6 199.392 111.6C200.843 111.6 201.984 111.248 202.816 110.544C203.669 109.819 204.096 108.784 204.096 107.44V106L201.76 106.096ZM204.16 111.824C203.541 112.549 202.795 113.168 201.92 113.68C201.045 114.171 199.947 114.416 198.624 114.416C197.835 114.416 197.099 114.309 196.416 114.096C195.733 113.904 195.136 113.605 194.624 113.2C194.133 112.773 193.739 112.24 193.44 111.6C193.163 110.96 193.024 110.213 193.024 109.36C193.024 108.208 193.269 107.28 193.76 106.576C194.272 105.851 194.933 105.285 195.744 104.88C196.555 104.475 197.472 104.187 198.496 104.016C199.52 103.845 200.565 103.728 201.632 103.664L204.096 103.536V102.832C204.096 101.616 203.808 100.752 203.232 100.24C202.656 99.728 201.845 99.472 200.8 99.472C199.691 99.472 198.859 99.664 198.304 100.048C197.749 100.411 197.387 100.965 197.216 101.712L193.888 101.36C194.187 99.7387 194.923 98.5547 196.096 97.808C197.269 97.0613 198.88 96.688 200.928 96.688C202.165 96.688 203.211 96.8373 204.064 97.136C204.917 97.4347 205.611 97.872 206.144 98.448C206.677 99.0027 207.061 99.6853 207.296 100.496C207.531 101.307 207.648 102.213 207.648 103.216V114H204.16V111.824ZM215.258 97.168V103.76H222.938V97.168H226.586V114H222.938V106.8H215.258V114H211.61V97.168H215.258ZM244.914 114H241.586V102.384L233.842 114H230.61V97.168H233.938V108.816L241.682 97.168H244.914V114ZM248.954 114V97.168H252.602V110.96H259.45V97.168H263.097V110.96H265.114V118.48H261.978V114H248.954Z" fill="#212121"/>
</svg>
