<svg width="404" height="306" viewBox="0 0 404 306" fill="none" xmlns="http://www.w3.org/2000/svg">
<rect width="404" height="306" fill="#F2F2F2"/>
<path d="M100.528 142.64C101.147 141.872 101.691 140.933 102.16 139.824C102.651 138.715 103.067 137.52 103.408 136.24C103.749 134.939 104.037 133.595 104.272 132.208C104.507 130.821 104.688 129.467 104.816 128.144L105.296 123.152H118.576V142.64H121.008V151.536H117.584V146H101.68V151.536H98.256V142.64H100.528ZM108.336 129.584C108.208 130.779 108.048 131.995 107.856 133.232C107.685 134.448 107.451 135.621 107.152 136.752C106.875 137.883 106.544 138.96 106.16 139.984C105.776 140.987 105.317 141.872 104.784 142.64H114.736V126.416H108.656L108.336 129.584ZM131.76 138.096C130.736 138.139 129.893 138.245 129.232 138.416C128.571 138.565 128.048 138.779 127.664 139.056C127.28 139.333 127.013 139.653 126.864 140.016C126.736 140.379 126.672 140.784 126.672 141.232C126.672 141.936 126.896 142.512 127.344 142.96C127.792 143.387 128.475 143.6 129.392 143.6C130.843 143.6 131.984 143.248 132.816 142.544C133.669 141.819 134.096 140.784 134.096 139.44V138L131.76 138.096ZM134.16 143.824C133.541 144.549 132.795 145.168 131.92 145.68C131.045 146.171 129.947 146.416 128.624 146.416C127.835 146.416 127.099 146.309 126.416 146.096C125.733 145.904 125.136 145.605 124.624 145.2C124.133 144.773 123.739 144.24 123.44 143.6C123.163 142.96 123.024 142.213 123.024 141.36C123.024 140.208 123.269 139.28 123.76 138.576C124.272 137.851 124.933 137.285 125.744 136.88C126.555 136.475 127.472 136.187 128.496 136.016C129.52 135.845 130.565 135.728 131.632 135.664L134.096 135.536V134.832C134.096 133.616 133.808 132.752 133.232 132.24C132.656 131.728 131.845 131.472 130.8 131.472C129.691 131.472 128.859 131.664 128.304 132.048C127.749 132.411 127.387 132.965 127.216 133.712L123.888 133.36C124.187 131.739 124.923 130.555 126.096 129.808C127.269 129.061 128.88 128.688 130.928 128.688C132.165 128.688 133.211 128.837 134.064 129.136C134.917 129.435 135.611 129.872 136.144 130.448C136.677 131.003 137.061 131.685 137.296 132.496C137.531 133.307 137.648 134.213 137.648 135.216V146H134.16V143.824ZM156.458 141.072C156.159 142.8 155.423 144.144 154.25 145.104C153.098 146.043 151.412 146.512 149.194 146.512C146.548 146.512 144.532 145.733 143.146 144.176C141.78 142.597 141.098 140.421 141.098 137.648C141.098 136.219 141.29 134.949 141.674 133.84C142.079 132.731 142.634 131.792 143.338 131.024C144.063 130.256 144.916 129.68 145.898 129.296C146.9 128.891 147.999 128.688 149.194 128.688C150.474 128.688 151.583 128.891 152.522 129.296C153.46 129.68 154.239 130.235 154.858 130.96C155.476 131.685 155.935 132.549 156.234 133.552C156.532 134.533 156.682 135.632 156.682 136.848V138.448H144.746C144.767 139.216 144.874 139.92 145.066 140.56C145.258 141.179 145.535 141.723 145.898 142.192C146.26 142.661 146.719 143.024 147.274 143.28C147.828 143.536 148.468 143.664 149.194 143.664C150.346 143.664 151.21 143.44 151.786 142.992C152.362 142.523 152.746 141.883 152.938 141.072H156.458ZM153.13 135.952C153.13 134.565 152.81 133.467 152.17 132.656C151.551 131.845 150.527 131.44 149.098 131.44C147.775 131.44 146.751 131.856 146.026 132.688C145.322 133.499 144.916 134.587 144.81 135.952H153.13ZM153.834 122.832V126.416H150.346V122.832H153.834ZM147.786 122.832V126.416H144.298V122.832H147.786ZM160.204 129.168H164.3L169.644 142.192L175.116 129.168H178.956V146H175.66V134.864L170.86 146H168.108L163.5 134.864V146H160.204V129.168ZM193.629 139.952C193.714 140.528 193.842 141.04 194.013 141.488C194.205 141.915 194.45 142.277 194.749 142.576C195.069 142.853 195.464 143.067 195.933 143.216C196.424 143.344 197.01 143.408 197.693 143.408C198.909 143.408 199.858 143.056 200.541 142.352C201.245 141.627 201.597 140.464 201.597 138.864C201.597 137.477 201.266 136.421 200.605 135.696C199.965 134.971 198.973 134.608 197.629 134.608C196.733 134.608 195.965 134.757 195.325 135.056C194.685 135.333 194.109 135.749 193.597 136.304H190.493L191.549 123.888H203.933V127.088H194.557L194.045 132.88C194.642 132.475 195.304 132.165 196.029 131.952C196.776 131.739 197.544 131.632 198.333 131.632C199.592 131.632 200.658 131.845 201.533 132.272C202.408 132.677 203.112 133.221 203.645 133.904C204.2 134.565 204.594 135.333 204.829 136.208C205.085 137.061 205.213 137.925 205.213 138.8C205.213 140.144 205.021 141.307 204.637 142.288C204.274 143.248 203.762 144.048 203.101 144.688C202.44 145.328 201.65 145.797 200.733 146.096C199.837 146.416 198.866 146.576 197.821 146.576C195.389 146.576 193.522 146.043 192.221 144.976C190.92 143.888 190.184 142.213 190.013 139.952H193.629ZM227.212 132.208H222.508L221.932 137.296C221.74 138.896 221.462 140.261 221.1 141.392C220.737 142.501 220.268 143.419 219.692 144.144C219.137 144.848 218.465 145.36 217.676 145.68C216.886 146 215.969 146.16 214.924 146.16H214.188V143.152H214.54C215.052 143.152 215.51 143.056 215.916 142.864C216.342 142.672 216.716 142.331 217.036 141.84C217.356 141.328 217.633 140.635 217.868 139.76C218.102 138.885 218.294 137.776 218.444 136.432L219.276 129.168H230.86V146H227.212V132.208ZM249.739 141.072C249.44 142.8 248.704 144.144 247.531 145.104C246.379 146.043 244.694 146.512 242.475 146.512C239.83 146.512 237.814 145.733 236.427 144.176C235.062 142.597 234.379 140.421 234.379 137.648C234.379 136.219 234.571 134.949 234.955 133.84C235.36 132.731 235.915 131.792 236.619 131.024C237.344 130.256 238.198 129.68 239.179 129.296C240.182 128.891 241.28 128.688 242.475 128.688C243.755 128.688 244.864 128.891 245.803 129.296C246.742 129.68 247.52 130.235 248.139 130.96C248.758 131.685 249.216 132.549 249.515 133.552C249.814 134.533 249.963 135.632 249.963 136.848V138.448H238.027C238.048 139.216 238.155 139.92 238.347 140.56C238.539 141.179 238.816 141.723 239.179 142.192C239.542 142.661 240 143.024 240.555 143.28C241.11 143.536 241.75 143.664 242.475 143.664C243.627 143.664 244.491 143.44 245.067 142.992C245.643 142.523 246.027 141.883 246.219 141.072H249.739ZM246.411 135.952C246.411 134.565 246.091 133.467 245.451 132.656C244.832 131.845 243.808 131.44 242.379 131.44C241.056 131.44 240.032 131.856 239.307 132.688C238.603 133.499 238.198 134.587 238.091 135.952H246.411ZM257.145 132.208H251.513V129.168H266.361V132.208H260.793V146H257.145V132.208ZM111.536 166.168V169.24H103.664V183H100.016V166.168H111.536ZM121.354 175.096C120.33 175.139 119.487 175.245 118.826 175.416C118.164 175.565 117.642 175.779 117.258 176.056C116.874 176.333 116.607 176.653 116.458 177.016C116.33 177.379 116.266 177.784 116.266 178.232C116.266 178.936 116.49 179.512 116.938 179.96C117.386 180.387 118.068 180.6 118.986 180.6C120.436 180.6 121.578 180.248 122.41 179.544C123.263 178.819 123.69 177.784 123.69 176.44V175L121.354 175.096ZM123.754 180.824C123.135 181.549 122.388 182.168 121.514 182.68C120.639 183.171 119.54 183.416 118.218 183.416C117.428 183.416 116.692 183.309 116.01 183.096C115.327 182.904 114.73 182.605 114.218 182.2C113.727 181.773 113.332 181.24 113.034 180.6C112.756 179.96 112.618 179.213 112.618 178.36C112.618 177.208 112.863 176.28 113.354 175.576C113.866 174.851 114.527 174.285 115.338 173.88C116.148 173.475 117.066 173.187 118.09 173.016C119.114 172.845 120.159 172.728 121.226 172.664L123.69 172.536V171.832C123.69 170.616 123.402 169.752 122.826 169.24C122.25 168.728 121.439 168.472 120.394 168.472C119.284 168.472 118.452 168.664 117.898 169.048C117.343 169.411 116.98 169.965 116.81 170.712L113.482 170.36C113.78 168.739 114.516 167.555 115.69 166.808C116.863 166.061 118.474 165.688 120.522 165.688C121.759 165.688 122.804 165.837 123.658 166.136C124.511 166.435 125.204 166.872 125.738 167.448C126.271 168.003 126.655 168.685 126.89 169.496C127.124 170.307 127.242 171.213 127.242 172.216V183H123.754V180.824ZM139.268 168.664C137.796 168.664 136.676 169.133 135.908 170.072C135.161 171.011 134.788 172.355 134.788 174.104V175.128C134.788 176.835 135.14 178.168 135.844 179.128C136.548 180.067 137.646 180.536 139.14 180.536C140.505 180.536 141.55 180.013 142.276 178.968C143.001 177.923 143.364 176.461 143.364 174.584C143.364 172.557 142.98 171.064 142.212 170.104C141.465 169.144 140.484 168.664 139.268 168.664ZM134.756 166.168V168.504C134.884 168.355 135.076 168.12 135.332 167.8C135.609 167.48 135.961 167.171 136.388 166.872C136.836 166.552 137.369 166.275 137.988 166.04C138.606 165.805 139.332 165.688 140.164 165.688C141.465 165.688 142.553 165.933 143.428 166.424C144.324 166.915 145.049 167.565 145.604 168.376C146.158 169.187 146.553 170.125 146.788 171.192C147.044 172.259 147.172 173.379 147.172 174.552C147.172 175.789 147.012 176.952 146.692 178.04C146.393 179.128 145.934 180.077 145.316 180.888C144.697 181.699 143.929 182.339 143.012 182.808C142.116 183.277 141.06 183.512 139.844 183.512C139.097 183.512 138.436 183.416 137.86 183.224C137.305 183.032 136.825 182.808 136.42 182.552C136.014 182.296 135.684 182.04 135.428 181.784C135.172 181.507 134.98 181.283 134.852 181.112V189.208H131.204V166.168H134.756ZM158.448 175.096C157.424 175.139 156.581 175.245 155.92 175.416C155.258 175.565 154.736 175.779 154.352 176.056C153.968 176.333 153.701 176.653 153.552 177.016C153.424 177.379 153.36 177.784 153.36 178.232C153.36 178.936 153.584 179.512 154.032 179.96C154.48 180.387 155.162 180.6 156.08 180.6C157.53 180.6 158.672 180.248 159.504 179.544C160.357 178.819 160.784 177.784 160.784 176.44V175L158.448 175.096ZM160.848 180.824C160.229 181.549 159.482 182.168 158.608 182.68C157.733 183.171 156.634 183.416 155.312 183.416C154.522 183.416 153.786 183.309 153.104 183.096C152.421 182.904 151.824 182.605 151.312 182.2C150.821 181.773 150.426 181.24 150.128 180.6C149.85 179.96 149.712 179.213 149.712 178.36C149.712 177.208 149.957 176.28 150.448 175.576C150.96 174.851 151.621 174.285 152.432 173.88C153.242 173.475 154.16 173.187 155.184 173.016C156.208 172.845 157.253 172.728 158.32 172.664L160.784 172.536V171.832C160.784 170.616 160.496 169.752 159.92 169.24C159.344 168.728 158.533 168.472 157.488 168.472C156.378 168.472 155.546 168.664 154.992 169.048C154.437 169.411 154.074 169.965 153.904 170.712L150.576 170.36C150.874 168.739 151.61 167.555 152.784 166.808C153.957 166.061 155.568 165.688 157.616 165.688C158.853 165.688 159.898 165.837 160.752 166.136C161.605 166.435 162.298 166.872 162.832 167.448C163.365 168.003 163.749 168.685 163.984 169.496C164.218 170.307 164.336 171.213 164.336 172.216V183H160.848V180.824ZM171.945 166.168V172.76H179.625V166.168H183.273V183H179.625V175.8H171.945V183H168.297V166.168H171.945ZM191.457 169.208H185.825V166.168H200.673V169.208H195.105V183H191.457V169.208ZM217.508 183H214.18V171.384L206.436 183H203.204V166.168H206.532V177.816L214.276 166.168H217.508V183ZM235.851 183H232.523V171.384L224.779 183H221.547V166.168H224.875V177.816L232.619 166.168H235.851V183Z" fill="#212121"/>
</svg>
