<svg width="250" height="38" viewBox="0 0 250 38" fill="none" xmlns="http://www.w3.org/2000/svg">
<path opacity="0.5" d="M7.05371 26.1C7.32038 28.4333 8.15371 30.1333 9.55371 31.2C10.987 32.2667 13.1037 32.8 15.9037 32.8C17.2704 32.8 18.4204 32.65 19.3537 32.35C20.287 32.05 21.037 31.65 21.6037 31.15C22.1704 30.65 22.5704 30.0667 22.8037 29.4C23.037 28.7 23.1537 27.9667 23.1537 27.2C23.1537 26.6333 23.0704 26.0833 22.9037 25.55C22.737 24.9833 22.437 24.4667 22.0037 24C21.5704 23.5333 20.987 23.1333 20.2537 22.8C19.5204 22.4333 18.587 22.15 17.4537 21.95L12.9037 21.1C11.1037 20.7667 9.50371 20.35 8.10371 19.85C6.70371 19.35 5.52038 18.7 4.55371 17.9C3.62038 17.0667 2.90371 16.0667 2.40371 14.9C1.93704 13.7 1.70371 12.25 1.70371 10.55C1.70371 8.85 2.03704 7.36666 2.70371 6.1C3.40371 4.83333 4.35371 3.78333 5.55371 2.95C6.75371 2.08333 8.17038 1.45 9.80371 1.05C11.4704 0.616664 13.2704 0.399997 15.2037 0.399997C17.6704 0.399997 19.737 0.683331 21.4037 1.25C23.0704 1.81667 24.4204 2.56667 25.4537 3.5C26.487 4.4 27.2704 5.45 27.8037 6.65C28.337 7.85 28.7037 9.1 28.9037 10.4L23.2037 11.3C22.737 9.3 21.9204 7.81667 20.7537 6.85C19.6204 5.88333 17.8037 5.4 15.3037 5.4C13.8704 5.4 12.6704 5.53333 11.7037 5.8C10.7704 6.03333 10.0037 6.38333 9.40371 6.85C8.83704 7.28333 8.42038 7.8 8.15371 8.4C7.92038 8.96667 7.80371 9.56667 7.80371 10.2C7.80371 11.7667 8.22038 12.9333 9.05371 13.7C9.92038 14.4667 11.4204 15.0667 13.5537 15.5L18.5037 16.45C22.2704 17.15 25.037 18.35 26.8037 20.05C28.5704 21.7167 29.4537 24.1333 29.4537 27.3C29.4537 28.8 29.1704 30.2 28.6037 31.5C28.0704 32.7667 27.237 33.8833 26.1037 34.85C24.9704 35.7833 23.5537 36.5167 21.8537 37.05C20.187 37.6167 18.237 37.9 16.0037 37.9C11.437 37.9 7.85371 36.95 5.25371 35.05C2.65371 33.1167 1.22038 30.1333 0.953711 26.1H7.05371ZM65.1814 24.95C64.9814 26.8167 64.5314 28.5333 63.8314 30.1C63.1314 31.6667 62.1648 33.0333 60.9314 34.2C59.6981 35.3667 58.1981 36.2833 56.4314 36.95C54.6648 37.5833 52.6148 37.9 50.2814 37.9C47.7148 37.9 45.4148 37.4667 43.3814 36.6C41.3814 35.7333 39.6814 34.5 38.2814 32.9C36.9148 31.2667 35.8648 29.3 35.1314 27C34.4314 24.6667 34.0814 22.0667 34.0814 19.2C34.0814 16.2667 34.4648 13.6333 35.2314 11.3C36.0314 8.96666 37.1481 7 38.5814 5.4C40.0148 3.76666 41.7314 2.53333 43.7314 1.7C45.7314 0.833331 47.9314 0.399997 50.3314 0.399997C52.5648 0.399997 54.4981 0.683331 56.1314 1.25C57.7648 1.81667 59.1481 2.63333 60.2814 3.7C61.4481 4.73333 62.3648 5.98333 63.0314 7.45C63.7314 8.91666 64.2481 10.55 64.5814 12.35L58.6314 13.2C58.3648 12 58.0314 10.9333 57.6314 10C57.2314 9.06667 56.6981 8.28333 56.0314 7.65C55.3981 6.98333 54.6148 6.48333 53.6814 6.15C52.7481 5.78333 51.6314 5.6 50.3314 5.6C48.7314 5.6 47.3148 5.91667 46.0814 6.55C44.8481 7.18333 43.7981 8.1 42.9314 9.3C42.0981 10.4667 41.4648 11.8833 41.0314 13.55C40.5981 15.2167 40.3814 17.0833 40.3814 19.15C40.3814 21.25 40.5981 23.1333 41.0314 24.8C41.4981 26.4667 42.1648 27.9 43.0314 29.1C43.8981 30.2667 44.9314 31.1667 46.1314 31.8C47.3648 32.4 48.7648 32.7 50.3314 32.7C51.7314 32.7 52.9148 32.5167 53.8814 32.15C54.8814 31.7833 55.7148 31.2667 56.3814 30.6C57.0481 29.9333 57.5648 29.1333 57.9314 28.2C58.3314 27.2333 58.6148 26.15 58.7814 24.95H65.1814ZM70.8771 1.3L94.6271 1.3V6.5H76.9271V16H93.6271V21.25H76.9271V31.8H95.5772L94.8772 37H70.8771L70.8771 1.3ZM101.346 1.3L106.946 1.3L123.346 27.1V1.3L129.246 1.3V37H123.646L107.196 11.3L107.196 37H101.346L101.346 1.3ZM147.194 1.3L153.194 1.3L166.794 37H160.344L156.994 27.9L143.144 27.9L139.844 37H133.594L147.194 1.3ZM155.344 22.85L150.044 8.15L144.794 22.85L155.344 22.85ZM183.771 17.8C185.138 17.8 186.271 17.6667 187.171 17.4C188.071 17.1 188.771 16.7 189.271 16.2C189.805 15.6667 190.171 15.0333 190.371 14.3C190.605 13.5667 190.721 12.75 190.721 11.85C190.721 11.0167 190.588 10.2667 190.321 9.6C190.088 8.9 189.671 8.31667 189.071 7.85C188.505 7.35 187.738 6.96666 186.771 6.7C185.805 6.43333 184.605 6.3 183.171 6.3H177.071V17.8H183.771ZM183.321 1.3C186.021 1.3 188.238 1.61666 189.971 2.25C191.738 2.88333 193.121 3.71666 194.121 4.75C195.155 5.75 195.871 6.86667 196.271 8.1C196.671 9.33333 196.871 10.55 196.871 11.75C196.871 14.0833 196.405 16.0333 195.471 17.6C194.571 19.1667 193.105 20.4333 191.071 21.4L198.471 37L191.871 37L185.471 22.8C185.171 22.8333 184.855 22.8667 184.521 22.9C184.188 22.9 183.838 22.9 183.471 22.9H177.071V37H171.121V1.3L183.321 1.3ZM203.25 1.3L209.3 1.3V37H203.25V1.3ZM232.423 37.9C229.857 37.9 227.54 37.4833 225.473 36.65C223.44 35.7833 221.69 34.55 220.223 32.95C218.757 31.35 217.623 29.4 216.823 27.1C216.057 24.7667 215.673 22.1333 215.673 19.2C215.673 16.2667 216.073 13.6333 216.873 11.3C217.673 8.96666 218.807 7 220.273 5.4C221.74 3.76666 223.507 2.53333 225.573 1.7C227.64 0.833331 229.923 0.399997 232.423 0.399997C234.957 0.399997 237.257 0.833331 239.323 1.7C241.39 2.53333 243.14 3.75 244.573 5.35C246.007 6.95 247.107 8.91666 247.873 11.25C248.673 13.55 249.073 16.1667 249.073 19.1C249.073 22.0667 248.69 24.7167 247.923 27.05C247.157 29.35 246.057 31.3167 244.623 32.95C243.19 34.55 241.44 35.7833 239.373 36.65C237.34 37.4833 235.023 37.9 232.423 37.9ZM232.373 32.7C235.807 32.7 238.407 31.5 240.173 29.1C241.94 26.6667 242.823 23.35 242.823 19.15C242.823 17.05 242.59 15.1667 242.123 13.5C241.69 11.8333 241.04 10.4167 240.173 9.25C239.307 8.08333 238.223 7.18333 236.923 6.55C235.623 5.91667 234.107 5.6 232.373 5.6C230.64 5.6 229.123 5.91667 227.823 6.55C226.523 7.18333 225.423 8.08333 224.523 9.25C223.657 10.4167 223.007 11.8333 222.573 13.5C222.14 15.1667 221.923 17.05 221.923 19.15C221.923 23.35 222.79 26.6667 224.523 29.1C226.29 31.5 228.907 32.7 232.373 32.7Z" fill="#EEEEEE"/>
</svg>
