<svg width="44" height="44" viewBox="0 0 44 44" fill="none" xmlns="http://www.w3.org/2000/svg">
<g clip-path="url(#clip0)">
<path d="M21.7928 43.0435C21.7928 43.1573 21.8856 43.25 21.9994 43.25C22.1132 43.25 22.2059 43.1573 22.2059 43.0435V37.3043C22.2059 37.1906 22.1132 37.0978 21.9994 37.0978C21.8851 37.0978 21.7928 37.1901 21.7928 37.3043V43.0435Z" fill="white" stroke="white" stroke-width="1.5"/>
<path d="M21.7928 6.69582C21.7928 6.80961 21.8856 6.90234 21.9994 6.90234C22.1132 6.90234 22.2059 6.80961 22.2059 6.69582V0.956686C22.2059 0.842902 22.1132 0.750164 21.9994 0.750164C21.8856 0.750164 21.7928 0.842901 21.7928 0.956686V6.69582Z" fill="white" stroke="white" stroke-width="1.5"/>
<path d="M37.3036 22.2065H43.0427C43.1565 22.2065 43.2492 22.1138 43.2492 22C43.2492 21.8862 43.1565 21.7935 43.0427 21.7935H37.3036C37.1898 21.7935 37.097 21.8862 37.097 22C37.097 22.1143 37.1893 22.2065 37.3036 22.2065Z" fill="white" stroke="white" stroke-width="1.5"/>
<path d="M0.956522 22.2065H6.69565C6.80944 22.2065 6.90217 22.1138 6.90217 22C6.90217 21.8862 6.80944 21.7935 6.69565 21.7935H0.956522C0.842268 21.7935 0.75 21.8857 0.75 22C0.75 22.1138 0.842736 22.2065 0.956522 22.2065Z" fill="white" stroke="white" stroke-width="1.5"/>
<path d="M32.6671 11.6242L37.4497 6.84162C37.5308 6.76052 37.5308 6.63087 37.4497 6.54976C37.4092 6.50921 37.3574 6.48917 37.3038 6.48917C37.2502 6.48917 37.1984 6.50921 37.1579 6.54976L32.3753 11.3324C32.2942 11.4135 32.2942 11.5431 32.3753 11.6242C32.4564 11.7053 32.586 11.7053 32.6671 11.6242Z" fill="white" stroke="white" stroke-width="1.5"/>
<path d="M6.84134 37.4509L11.6239 32.6683C11.7051 32.5872 11.7051 32.4575 11.6239 32.3764C11.5834 32.3359 11.5316 32.3158 11.478 32.3158C11.4244 32.3158 11.3726 32.3359 11.3321 32.3764L6.54948 37.159C6.46837 37.2401 6.46837 37.3698 6.54948 37.4509C6.63058 37.532 6.76023 37.532 6.84134 37.4509Z" fill="white" stroke="white" stroke-width="1.5"/>
<path d="M11.3321 11.6242C11.4132 11.7053 11.5428 11.7053 11.6239 11.6242C11.7051 11.5431 11.7051 11.4135 11.6239 11.3324L6.84134 6.54976C6.80079 6.50921 6.74902 6.48917 6.69541 6.48917C6.6418 6.48917 6.59003 6.50921 6.54948 6.54976C6.46837 6.63087 6.46837 6.76052 6.54948 6.84162L11.3321 11.6242Z" fill="white" stroke="white" stroke-width="1.5"/>
<path d="M37.1579 37.4509C37.239 37.532 37.3686 37.532 37.4497 37.4509C37.5308 37.3698 37.5308 37.2401 37.4497 37.159L32.6671 32.3764C32.6266 32.3359 32.5748 32.3158 32.5212 32.3158C32.4676 32.3158 32.4158 32.3359 32.3753 32.3764L31.845 31.8461L32.3753 32.3764C32.2942 32.4575 32.2942 32.5872 32.3753 32.6683L37.1579 37.4509Z" fill="white" stroke="white" stroke-width="1.5"/>
<path d="M12.2286 22.0007C12.2286 27.3878 16.6133 31.7725 22.0004 31.7725C27.3875 31.7725 31.7721 27.3878 31.7721 22.0007C31.7721 16.6136 27.3875 12.229 22.0004 12.229C16.6133 12.229 12.2286 16.6136 12.2286 22.0007ZM12.6417 22.0007C12.6417 16.8402 16.8399 12.642 22.0004 12.642C27.1608 12.642 31.3591 16.8402 31.3591 22.0007C31.3591 27.1612 27.1608 31.3594 22.0004 31.3594C16.8399 31.3594 12.6417 27.1612 12.6417 22.0007Z" fill="white" stroke="white" stroke-width="1.5"/>
</g>
<defs>
<clipPath id="clip0">
<rect width="44" height="44" fill="white" transform="matrix(1 0 0 -1 0 44)"/>
</clipPath>
</defs>
</svg>
