<svg width="48" height="48" viewBox="0 0 48 48" fill="none" xmlns="http://www.w3.org/2000/svg">
<g clip-path="url(#clip0)">
<mask id="path-1-inside-1" fill="white">
<path d="M47.2949 1.62131H44.6627V0.705C44.6627 0.315656 44.347 0 43.9576 0C43.5682 0 43.2525 0.315656 43.2525 0.705V1.62131H36.6818V0.705C36.6818 0.315656 36.3661 0 35.9767 0C35.5872 0 35.2716 0.315656 35.2716 0.705V1.62131H28.7008V0.705C28.7008 0.315656 28.3852 0 27.9957 0C27.6063 0 27.2906 0.315656 27.2906 0.705V1.62131H20.7199V0.705C20.7199 0.315656 20.4042 0 20.0148 0C19.6253 0 19.3097 0.315656 19.3097 0.705V1.62131H12.7388V0.705C12.7388 0.315656 12.4231 0 12.0337 0C11.6442 0 11.3286 0.315656 11.3286 0.705V1.62131H4.75772V0.705C4.75772 0.315656 4.44206 0 4.05263 0C3.66319 0 3.34753 0.315656 3.34753 0.705V1.62131H0.705094C0.315656 1.62131 0 1.93697 0 2.32631C0 2.71566 0.315656 3.03131 0.705094 3.03131H3.34753V4.54509V45.6179C3.34753 45.7478 3.38344 45.8753 3.45141 45.9861C3.50166 46.0683 4.72294 48 8.04309 48C9.75075 48 10.8881 47.4793 11.5416 47.0425C11.5468 47.0391 11.7759 46.8844 12.0324 46.6599C12.6945 47.2459 13.9495 48 16.024 48C17.7317 48 18.8691 47.4793 19.5225 47.0425C19.5278 47.0391 19.757 46.8844 20.0135 46.6599C20.6755 47.2459 21.9306 48 24.0052 48C25.1696 48 26.3599 47.7524 27.3593 47.1352C27.5845 46.996 27.7954 46.8341 27.9945 46.6599C28.6566 47.2459 29.9116 48 31.9862 48C33.1507 48 34.3409 47.7524 35.3404 47.1352C35.5656 46.996 35.7764 46.8341 35.9755 46.6599C36.6375 47.2459 37.8925 48 39.967 48C41.6747 48 42.8121 47.4793 43.4655 47.0425C43.4774 47.0345 44.6626 46.2351 44.6626 45.6179V4.54509V3.03131H47.2948C47.6842 3.03131 47.9999 2.71566 47.9999 2.32631C48 1.93697 47.6843 1.62131 47.2949 1.62131ZM4.75772 3.03131H11.3285V4.30856C11.0283 4.65459 10.076 5.51719 8.04309 5.51719C6.00375 5.51719 5.052 4.64906 4.75772 4.30969V3.03131ZM19.3096 45.3815C19.0089 45.7278 18.0562 46.5901 16.0241 46.5901C13.9913 46.5901 13.039 45.7274 12.7388 45.3814V16.4805C12.7388 16.0912 12.4231 15.7755 12.0337 15.7755C11.6442 15.7755 11.3286 16.0912 11.3286 16.4805V45.3815C11.028 45.7277 10.0752 46.59 8.04319 46.59C6.00497 46.59 5.05275 45.7225 4.75781 45.3827V6.10209C5.48625 6.53831 6.55359 6.92728 8.04319 6.92728C9.53288 6.92728 10.6001 6.53831 11.3286 6.10209V13.6606C11.3286 14.0499 11.6442 14.3656 12.0337 14.3656C12.4231 14.3656 12.7388 14.0499 12.7388 13.6606V6.10125C13.4672 6.53775 14.5336 6.92728 16.0241 6.92728C17.514 6.92728 18.5812 6.53841 19.3096 6.10209V45.3815ZM19.3096 4.30856C19.0093 4.65459 18.057 5.51719 16.0241 5.51719C13.9848 5.51719 13.033 4.64906 12.7388 4.30969V3.03131H19.3096V4.30856ZM28.7007 3.03131H35.2715V4.30856C34.9712 4.65459 34.0189 5.51719 31.9861 5.51719C29.9468 5.51719 28.995 4.64916 28.7007 4.30969V3.03131ZM20.7198 3.03131H27.2905V4.30856C26.9902 4.65459 26.0379 5.51719 24.0052 5.51719C21.9658 5.51719 21.0141 4.64916 20.7198 4.30969V3.03131ZM43.2524 45.3815C42.9518 45.7277 41.9991 46.59 39.967 46.59C37.9342 46.59 36.9819 45.7273 36.6817 45.3813V16.4805C36.6817 16.0912 36.366 15.7755 35.9766 15.7755C35.5871 15.7755 35.2715 16.0912 35.2715 16.4805V45.3815C34.9708 45.7277 34.018 46.59 31.9861 46.59C29.9532 46.59 29.0009 45.7273 28.7007 45.3814V36.6128C28.7007 36.2234 28.3851 35.9077 27.9956 35.9077C27.6062 35.9077 27.2905 36.2234 27.2905 36.6128V45.3815C26.9899 45.7277 26.0371 46.59 24.0052 46.59C21.9723 46.59 21.02 45.7273 20.7198 45.3814V6.10125C21.4482 6.53775 22.5146 6.92719 24.0052 6.92719C25.4947 6.92719 26.5621 6.53822 27.2905 6.102V33.7927C27.2905 34.1821 27.6062 34.4977 27.9956 34.4977C28.3851 34.4977 28.7007 34.1821 28.7007 33.7927V6.10125C29.4292 6.53775 30.4956 6.92719 31.9861 6.92719C33.4757 6.92719 34.543 6.53822 35.2715 6.102V13.6605C35.2715 14.0498 35.5871 14.3655 35.9766 14.3655C36.366 14.3655 36.6817 14.0498 36.6817 13.6605V6.10125C37.4101 6.53775 38.4765 6.92728 39.967 6.92728C41.4568 6.92728 42.524 6.53831 43.2524 6.10209V45.3815ZM43.2524 4.30856C42.9522 4.65459 41.9999 5.51719 39.967 5.51719C37.9277 5.51719 36.9759 4.64906 36.6817 4.30969V3.03131H43.2524V4.30856Z"/>
</mask>
<path d="M47.2949 1.62131H44.6627V0.705C44.6627 0.315656 44.347 0 43.9576 0C43.5682 0 43.2525 0.315656 43.2525 0.705V1.62131H36.6818V0.705C36.6818 0.315656 36.3661 0 35.9767 0C35.5872 0 35.2716 0.315656 35.2716 0.705V1.62131H28.7008V0.705C28.7008 0.315656 28.3852 0 27.9957 0C27.6063 0 27.2906 0.315656 27.2906 0.705V1.62131H20.7199V0.705C20.7199 0.315656 20.4042 0 20.0148 0C19.6253 0 19.3097 0.315656 19.3097 0.705V1.62131H12.7388V0.705C12.7388 0.315656 12.4231 0 12.0337 0C11.6442 0 11.3286 0.315656 11.3286 0.705V1.62131H4.75772V0.705C4.75772 0.315656 4.44206 0 4.05263 0C3.66319 0 3.34753 0.315656 3.34753 0.705V1.62131H0.705094C0.315656 1.62131 0 1.93697 0 2.32631C0 2.71566 0.315656 3.03131 0.705094 3.03131H3.34753V4.54509V45.6179C3.34753 45.7478 3.38344 45.8753 3.45141 45.9861C3.50166 46.0683 4.72294 48 8.04309 48C9.75075 48 10.8881 47.4793 11.5416 47.0425C11.5468 47.0391 11.7759 46.8844 12.0324 46.6599C12.6945 47.2459 13.9495 48 16.024 48C17.7317 48 18.8691 47.4793 19.5225 47.0425C19.5278 47.0391 19.757 46.8844 20.0135 46.6599C20.6755 47.2459 21.9306 48 24.0052 48C25.1696 48 26.3599 47.7524 27.3593 47.1352C27.5845 46.996 27.7954 46.8341 27.9945 46.6599C28.6566 47.2459 29.9116 48 31.9862 48C33.1507 48 34.3409 47.7524 35.3404 47.1352C35.5656 46.996 35.7764 46.8341 35.9755 46.6599C36.6375 47.2459 37.8925 48 39.967 48C41.6747 48 42.8121 47.4793 43.4655 47.0425C43.4774 47.0345 44.6626 46.2351 44.6626 45.6179V4.54509V3.03131H47.2948C47.6842 3.03131 47.9999 2.71566 47.9999 2.32631C48 1.93697 47.6843 1.62131 47.2949 1.62131ZM4.75772 3.03131H11.3285V4.30856C11.0283 4.65459 10.076 5.51719 8.04309 5.51719C6.00375 5.51719 5.052 4.64906 4.75772 4.30969V3.03131ZM19.3096 45.3815C19.0089 45.7278 18.0562 46.5901 16.0241 46.5901C13.9913 46.5901 13.039 45.7274 12.7388 45.3814V16.4805C12.7388 16.0912 12.4231 15.7755 12.0337 15.7755C11.6442 15.7755 11.3286 16.0912 11.3286 16.4805V45.3815C11.028 45.7277 10.0752 46.59 8.04319 46.59C6.00497 46.59 5.05275 45.7225 4.75781 45.3827V6.10209C5.48625 6.53831 6.55359 6.92728 8.04319 6.92728C9.53288 6.92728 10.6001 6.53831 11.3286 6.10209V13.6606C11.3286 14.0499 11.6442 14.3656 12.0337 14.3656C12.4231 14.3656 12.7388 14.0499 12.7388 13.6606V6.10125C13.4672 6.53775 14.5336 6.92728 16.0241 6.92728C17.514 6.92728 18.5812 6.53841 19.3096 6.10209V45.3815ZM19.3096 4.30856C19.0093 4.65459 18.057 5.51719 16.0241 5.51719C13.9848 5.51719 13.033 4.64906 12.7388 4.30969V3.03131H19.3096V4.30856ZM28.7007 3.03131H35.2715V4.30856C34.9712 4.65459 34.0189 5.51719 31.9861 5.51719C29.9468 5.51719 28.995 4.64916 28.7007 4.30969V3.03131ZM20.7198 3.03131H27.2905V4.30856C26.9902 4.65459 26.0379 5.51719 24.0052 5.51719C21.9658 5.51719 21.0141 4.64916 20.7198 4.30969V3.03131ZM43.2524 45.3815C42.9518 45.7277 41.9991 46.59 39.967 46.59C37.9342 46.59 36.9819 45.7273 36.6817 45.3813V16.4805C36.6817 16.0912 36.366 15.7755 35.9766 15.7755C35.5871 15.7755 35.2715 16.0912 35.2715 16.4805V45.3815C34.9708 45.7277 34.018 46.59 31.9861 46.59C29.9532 46.59 29.0009 45.7273 28.7007 45.3814V36.6128C28.7007 36.2234 28.3851 35.9077 27.9956 35.9077C27.6062 35.9077 27.2905 36.2234 27.2905 36.6128V45.3815C26.9899 45.7277 26.0371 46.59 24.0052 46.59C21.9723 46.59 21.02 45.7273 20.7198 45.3814V6.10125C21.4482 6.53775 22.5146 6.92719 24.0052 6.92719C25.4947 6.92719 26.5621 6.53822 27.2905 6.102V33.7927C27.2905 34.1821 27.6062 34.4977 27.9956 34.4977C28.3851 34.4977 28.7007 34.1821 28.7007 33.7927V6.10125C29.4292 6.53775 30.4956 6.92719 31.9861 6.92719C33.4757 6.92719 34.543 6.53822 35.2715 6.102V13.6605C35.2715 14.0498 35.5871 14.3655 35.9766 14.3655C36.366 14.3655 36.6817 14.0498 36.6817 13.6605V6.10125C37.4101 6.53775 38.4765 6.92728 39.967 6.92728C41.4568 6.92728 42.524 6.53831 43.2524 6.10209V45.3815ZM43.2524 4.30856C42.9522 4.65459 41.9999 5.51719 39.967 5.51719C37.9277 5.51719 36.9759 4.64906 36.6817 4.30969V3.03131H43.2524V4.30856Z" fill="white" stroke="white" stroke-width="3" mask="url(#path-1-inside-1)"/>
</g>
<defs>
<clipPath id="clip0">
<rect width="48" height="48" fill="white"/>
</clipPath>
</defs>
</svg>
