<svg width="42" height="43" viewBox="0 0 42 43" fill="none" xmlns="http://www.w3.org/2000/svg">
<g clip-path="url(#clip0)">
<path d="M37.5879 42.5H4.41489C2.00339 42.5 0.0398865 40.5365 0.0398865 38.125V4.875C0.0398865 2.4635 2.00339 0.5 4.41489 0.5H37.5879C39.9994 0.5 41.9629 2.4635 41.9629 4.875V38.125C41.9629 40.5365 39.9994 42.5 37.5879 42.5ZM4.41489 2.25C2.96764 2.25 1.78989 3.42775 1.78989 4.875V38.125C1.78989 39.5723 2.96764 40.75 4.41489 40.75H37.5879C39.0351 40.75 40.2129 39.5723 40.2129 38.125V4.875C40.2129 3.42775 39.0351 2.25 37.5879 2.25H4.41489Z" fill="white"/>
<path d="M21.0002 37.2505C12.3167 37.2505 5.25015 30.184 5.25015 21.5005C5.25015 12.817 12.3167 5.75049 21.0002 5.75049C29.6836 5.75049 36.7501 12.817 36.7501 21.5005C36.7501 30.184 29.6836 37.2505 21.0002 37.2505ZM21.0002 7.50049C13.2809 7.50049 7.00015 13.7812 7.00015 21.5005C7.00015 29.2197 13.2809 35.5005 21.0002 35.5005C28.7194 35.5005 35.0001 29.2197 35.0001 21.5005C35.0001 13.7812 28.7194 7.50049 21.0002 7.50049Z" fill="white"/>
<path d="M14.8744 30.25C14.3914 30.25 13.9994 29.858 13.9994 29.375V15.375C13.9994 14.892 14.3914 14.5 14.8744 14.5C15.3574 14.5 15.7494 14.892 15.7494 15.375V29.375C15.7494 29.858 15.3574 30.25 14.8744 30.25Z" fill="white"/>
<path d="M27.1246 30.25C26.6416 30.25 26.2496 29.858 26.2496 29.375V15.375C26.2496 14.892 26.6416 14.5 27.1246 14.5C27.6076 14.5 27.9996 14.892 27.9996 15.375V29.375C27.9996 29.858 27.6076 30.25 27.1246 30.25Z" fill="white"/>
</g>
<defs>
<clipPath id="clip0">
<rect width="42" height="42" fill="white" transform="translate(0 0.5)"/>
</clipPath>
</defs>
</svg>
