<svg width="46" height="46" viewBox="0 0 46 46" fill="none" xmlns="http://www.w3.org/2000/svg">
<path d="M44.5835 20.287L39.1079 15.2518V5.52093C39.1079 4.80902 38.5308 4.23187 37.8189 4.23187H32.4214C31.7095 4.23187 31.1323 4.80902 31.1323 5.52093V7.9179L23.8726 1.2421C23.3793 0.78844 22.6208 0.78844 22.1275 1.2421L1.41654 20.2869C0.892491 20.7687 0.858288 21.5842 1.34023 22.1082C1.82208 22.6322 2.63762 22.6666 3.16167 22.1845L3.89171 21.5133V43.6128C3.89171 44.3247 4.46886 44.9018 5.18077 44.9018H40.8195C41.5314 44.9018 42.1085 44.3247 42.1085 43.6128V21.5134L42.8385 22.1846C43.0862 22.4124 43.3989 22.5249 43.7107 22.5249C44.0587 22.5249 44.4057 22.3847 44.6598 22.1083C45.1417 21.5842 45.1075 20.7688 44.5835 20.287ZM33.7105 6.80999H36.5298V12.8811L33.7105 10.2887V6.80999ZM25.7808 42.3237H20.2193V33.1608H25.7808V42.3237ZM39.5303 42.3237H28.359V31.8718C28.359 31.1598 27.7818 30.5827 27.0699 30.5827H18.9302C18.2183 30.5827 17.6412 31.1598 17.6412 31.8718V42.3237H6.46975V19.1426L23 3.94217L39.5303 19.1426V42.3237Z" fill="#FCFCFC" stroke="#334A54"/>
<path d="M20.2916 13.1202C17.4896 13.1202 15.21 15.2969 15.21 17.9725C15.21 19.2631 15.7429 20.4745 16.7104 21.3836C18.5406 23.1029 22.0098 26.3621 22.1247 26.4703C22.3629 26.6968 22.6803 26.825 23.0127 26.825C23.3453 26.825 23.6629 26.6965 23.9012 26.4698C24.0255 26.3528 27.4875 23.1004 29.315 21.3835C30.2676 20.4886 30.7921 19.2771 30.7921 17.9724C30.7921 15.2968 28.5125 13.1201 25.7104 13.1201C24.7363 13.1201 23.8044 13.3799 23.0011 13.8655C22.1976 13.3801 21.2657 13.1202 20.2916 13.1202ZM25.7104 15.6983C27.0908 15.6983 28.214 16.7185 28.214 17.9725C28.214 18.5751 27.9905 19.0905 27.5498 19.5046L23.0127 23.7671L18.4758 19.5047C18.026 19.082 17.7882 18.5521 17.7882 17.9725C17.7882 16.7185 18.9113 15.6983 20.2917 15.6983C20.9849 15.6983 21.6302 15.9512 22.1087 16.4103C22.6075 16.8888 23.3947 16.8888 23.8936 16.4103C24.3719 15.9512 25.0172 15.6983 25.7104 15.6983Z" fill="#FCFCFC" stroke="#334A54"/>
</svg>
