<svg width="41" height="43" viewBox="0 0 41 43" fill="none" xmlns="http://www.w3.org/2000/svg">
<path d="M39.9522 27.8818V1L13.407 6.3379V33.893" stroke="white" stroke-width="2" stroke-miterlimit="10" stroke-linecap="round" stroke-linejoin="round"/>
<path d="M7.20348 41.0583C10.6296 41.0583 13.407 38.0871 13.407 34.422C13.407 30.7568 10.6296 27.7856 7.20348 27.7856C3.77738 27.7856 1 30.7568 1 34.422C1 38.0871 3.77738 41.0583 7.20348 41.0583Z" stroke="white" stroke-width="2" stroke-miterlimit="10" stroke-linecap="round" stroke-linejoin="round"/>
<path d="M33.7966 35.4801C37.2227 35.4801 40.0001 32.5089 40.0001 28.8438C40.0001 25.1787 37.2227 22.2075 33.7966 22.2075C30.3705 22.2075 27.5931 25.1787 27.5931 28.8438C27.5931 32.5089 30.3705 35.4801 33.7966 35.4801Z" stroke="white" stroke-width="2" stroke-miterlimit="10" stroke-linecap="round" stroke-linejoin="round"/>
<path d="M13.5991 15.763L39.7596 10.7617" stroke="white" stroke-width="2" stroke-miterlimit="10" stroke-linecap="round" stroke-linejoin="round"/>
</svg>
