<svg width="46" height="47" viewBox="0 0 46 47" fill="none" xmlns="http://www.w3.org/2000/svg">
<g clip-path="url(#clip0)">
<path d="M41.9304 27.3069C41.9263 27.3058 41.922 27.3048 41.9178 27.3038C41.5407 27.2144 41.1623 27.447 41.072 27.824C38.6853 37.8038 28.6603 43.9591 18.6804 41.5723C13.2007 40.2618 8.61155 36.5354 6.20402 31.4414L4.79834 31.7353C9.34308 41.7913 21.1793 46.2592 31.2355 41.7146C36.8636 39.1711 40.9992 34.1678 42.438 28.1615C42.5338 27.7853 42.3066 27.4027 41.9304 27.3069Z" fill="white"/>
<path d="M9.42521 28.6153C9.40178 28.491 9.3453 28.3753 9.26171 28.2805L6.5258 25.2309L3.82165 22.2131C3.5832 21.9067 3.14164 21.8517 2.83529 22.0902C2.7245 22.1764 2.64201 22.294 2.59863 22.4275L1.31207 26.3229L0.0334595 30.2143C-0.084574 30.5841 0.119627 30.9795 0.489412 31.0975C0.59871 31.1324 0.714758 31.14 0.827629 31.1197L4.83819 30.2779L8.86463 29.436C9.24613 29.3643 9.49708 28.9968 9.42521 28.6153ZM4.57214 28.9001L1.74887 29.4957L2.64628 26.7558L3.54766 24.0199L5.46955 26.1642L7.39144 28.3084L4.57214 28.9001Z" fill="white"/>
<path d="M45.9919 16.4239C45.9124 16.0449 45.5414 15.8016 45.162 15.8799L41.1515 16.7217L37.1449 17.5436C36.7634 17.6155 36.5124 17.983 36.5843 18.3644C36.6077 18.4887 36.6642 18.6044 36.7478 18.6992L39.4837 21.7488L42.1879 24.7666C42.4263 25.0729 42.8679 25.1279 43.1742 24.8895C43.285 24.8032 43.3675 24.6858 43.4109 24.5522L44.6855 20.6568L45.9602 16.7614C45.9983 16.6532 46.0092 16.5372 45.9919 16.4239ZM43.3593 20.2438L42.4619 22.9797L40.54 20.8355L38.6181 18.6912L41.4374 18.0996L44.2567 17.5079L43.3593 20.2438Z" fill="white"/>
<path d="M14.7742 5.2849C9.14608 7.82842 5.01044 12.8317 3.5716 18.838C3.46459 19.2112 3.6804 19.6003 4.05356 19.7073C4.42672 19.8143 4.81587 19.5985 4.92288 19.2254C4.92874 19.205 4.9336 19.1844 4.93757 19.1636C7.32872 9.18487 17.3564 3.03382 27.3352 5.42497C32.8132 6.73763 37.3999 10.4646 39.8056 15.5581L41.2113 15.2642C36.6665 5.20806 24.8303 0.740161 14.7742 5.2849Z" fill="white"/>
<path d="M30.3747 11.1189C30.3747 10.7307 30.06 10.416 29.6718 10.416H20.5826C20.2789 10.4164 20.0099 10.6118 19.9155 10.9005L15.6865 23.8415C15.5396 24.2007 15.7117 24.6111 16.071 24.758C16.1569 24.7932 16.2489 24.8109 16.3417 24.8103H19.5184L16.7388 35.6388C16.6081 36.0044 16.7984 36.4066 17.164 36.5372C17.4361 36.6345 17.7399 36.5553 17.93 36.3377L29.6798 22.6701C29.9497 22.3911 29.9425 21.9462 29.6635 21.6762C29.5267 21.5438 29.342 21.4725 29.1517 21.4788H25.0299L30.2635 11.504C30.3372 11.3891 30.3758 11.2553 30.3747 11.1189ZM23.247 21.8759C23.0694 22.221 23.2051 22.6448 23.5503 22.8224C23.6494 22.8734 23.759 22.9001 23.8704 22.9004H27.6149L18.8076 33.1412L21.0869 24.2941C21.1812 23.9176 20.9524 23.5359 20.5758 23.4416C20.5209 23.4278 20.4644 23.4207 20.4079 23.4205H17.3106L21.0908 11.8257H28.5084L23.247 21.8759Z" fill="white"/>
</g>
<defs>
<clipPath id="clip0">
<rect width="46" height="46" fill="white" transform="translate(0 0.5)"/>
</clipPath>
</defs>
</svg>
