<svg width="46" height="46" viewBox="0 0 46 46" fill="none" xmlns="http://www.w3.org/2000/svg">
<g clip-path="url(#clip0)">
<path d="M27.0138 25.3525V6.03469C27.0138 2.70178 24.3121 0 20.9791 0C17.6462 0 14.9445 2.70178 14.9445 6.03469V25.344C9.72844 28.6718 8.19768 35.5981 11.5256 40.8141C13.5793 44.0329 17.1309 45.9842 20.9491 45.9914L21.0092 46C27.1964 45.9884 32.2027 40.9633 32.1911 34.7761C32.184 30.9579 30.2327 27.4062 27.0138 25.3525ZM16.2655 43.018C11.7236 40.3958 10.1675 34.5881 12.7897 30.0464C13.6232 28.6028 14.8219 27.4041 16.2655 26.5706C16.5319 26.4168 16.6956 26.132 16.6944 25.8243V6.03469C16.6944 3.64933 18.6281 1.71562 21.0135 1.71562C23.3988 1.71562 25.3325 3.64933 25.3325 6.03469V25.8243C25.3314 26.132 25.495 26.4168 25.7614 26.5706C30.3033 29.1928 31.8594 35.0005 29.2372 39.5423C26.615 44.0842 20.8073 45.6404 16.2655 43.018Z" fill="white"/>
<path d="M21.8673 28.6291V15.6161C21.8673 15.1424 21.4832 14.7583 21.0095 14.7583C20.5358 14.7583 20.1517 15.1424 20.1517 15.6161V28.6291C16.9112 29.0938 14.6609 32.0974 15.1257 35.3379C15.5451 38.2628 18.0547 40.4321 21.0095 40.4239C24.2831 40.433 26.9442 37.7865 26.9534 34.5129C26.9615 31.5581 24.7922 29.0485 21.8673 28.6291ZM21.0095 38.6998C18.6833 38.6998 16.7976 36.8141 16.7976 34.4879C16.8024 32.1638 18.6853 30.2808 21.0095 30.2761C23.3357 30.2761 25.2213 32.1617 25.2213 34.4879C25.2213 36.8141 23.3355 38.6998 21.0095 38.6998Z" fill="white"/>
<path d="M35.3768 5.89795H30.0155C29.5418 5.89795 29.1577 6.28203 29.1577 6.75576C29.1577 7.22949 29.5418 7.61357 30.0155 7.61357H35.3768C35.8505 7.61357 36.2346 7.22949 36.2346 6.75576C36.2346 6.28203 35.8505 5.89795 35.3768 5.89795Z" fill="white"/>
<path d="M34.2367 10.186H31.0886C30.6149 10.186 30.2308 10.5701 30.2308 11.0438C30.2308 11.5176 30.6149 11.9017 31.0886 11.9017H34.2367C34.7105 11.9017 35.0945 11.5176 35.0945 11.0438C35.0945 10.5701 34.7105 10.186 34.2367 10.186Z" fill="white"/>
<path d="M35.3768 14.4761H30.0155C29.5418 14.4761 29.1577 14.8602 29.1577 15.3339C29.1577 15.8076 29.5418 16.1917 30.0155 16.1917H35.3768C35.8505 16.1917 36.2346 15.8076 36.2346 15.3339C36.2346 14.8602 35.8505 14.4761 35.3768 14.4761Z" fill="white"/>
<path d="M34.2367 18.7646H31.0886C30.6149 18.7646 30.2308 19.1487 30.2308 19.6225C30.2308 20.0962 30.6149 20.4803 31.0886 20.4803H34.2367C34.7105 20.4803 35.0945 20.0962 35.0945 19.6225C35.0945 19.1487 34.7105 18.7646 34.2367 18.7646Z" fill="white"/>
<path d="M35.3768 23.0537H30.0155C29.5418 23.0537 29.1577 23.4378 29.1577 23.9115C29.1577 24.3852 29.5418 24.7693 30.0155 24.7693H35.3768C35.8505 24.7693 36.2346 24.3852 36.2346 23.9115C36.2346 23.4378 35.8505 23.0537 35.3768 23.0537Z" fill="white"/>
</g>
<defs>
<clipPath id="clip0">
<rect width="46" height="46" fill="white"/>
</clipPath>
</defs>
</svg>
