<svg width="44" height="44" viewBox="0 0 44 44" fill="none" xmlns="http://www.w3.org/2000/svg">
<g clip-path="url(#clip0)">
<path d="M26.0806 4.23349C24.8314 2.77608 23.7071 1.48522 22.8327 0.402575C22.7911 0.319295 22.7078 0.277654 22.6661 0.236014C22.2081 -0.138749 21.5418 -0.0554685 21.1671 0.402575C20.2926 1.48522 19.1683 2.77608 17.9191 4.23349C12.4226 10.6045 4.80243 19.4322 4.80243 26.8026C4.80243 31.5496 6.71788 35.8385 9.84091 38.9615C12.9639 42.0429 17.2529 44 21.9999 44C26.7469 44 31.0358 42.0846 34.1589 38.9615C37.2819 35.8385 39.1974 31.5496 39.1974 26.8026C39.1974 19.4322 31.5772 10.6045 26.0806 4.23349ZM32.6598 37.4208C29.9116 40.1691 26.1639 41.8764 21.9999 41.8764C17.8359 41.8764 14.0882 40.1691 11.34 37.4625C8.63334 34.7559 6.92609 30.9666 6.92609 26.8026C6.92609 20.2234 14.2548 11.7288 19.5431 5.60762C20.4176 4.56661 21.2504 3.60888 21.9999 2.69279C22.7494 3.60888 23.5822 4.56661 24.4567 5.56598C29.745 11.6871 37.0737 20.1401 37.0737 26.7609C37.0737 30.9249 35.3664 34.6726 32.6598 37.4208Z" fill="white"/>
<path d="M22.0837 36.422C19.502 36.422 17.1701 35.381 15.5045 33.7154C13.8389 32.0498 12.7979 29.7179 12.7979 27.1362C12.7979 26.5533 12.3399 26.0952 11.7569 26.0952C11.1739 26.0952 10.7159 26.5533 10.7159 27.1362C10.7159 30.3009 12.0067 33.1324 14.0471 35.2144C16.0458 37.2132 18.919 38.504 22.0837 38.504C22.6667 38.504 23.1247 38.046 23.1247 37.463C23.1247 36.8801 22.6667 36.422 22.0837 36.422Z" fill="white"/>
</g>
<defs>
<clipPath id="clip0">
<rect width="44" height="44" fill="white"/>
</clipPath>
</defs>
</svg>
