<svg width="48" height="48" viewBox="0 0 48 48" fill="none" xmlns="http://www.w3.org/2000/svg">
<path d="M42.7824 29.2176C41.6084 29.2176 40.5243 29.6079 39.6519 30.2632V30.2611C39.6519 27.3842 37.3114 25.0437 34.4345 25.0437C32.7295 25.0437 31.2133 25.866 30.2606 27.1338C29.3079 25.866 27.7917 25.0437 26.0867 25.0437C24.9128 25.0437 23.8286 25.434 22.9563 26.0893V17.7394C22.9563 14.8625 20.6157 12.522 17.7389 12.522C14.862 12.522 12.5215 14.8625 12.5215 17.7394V46.9568C12.5215 47.5328 12.9879 48.0002 13.565 48.0002C14.142 48.0002 14.6084 47.5328 14.6084 46.9568V17.7394C14.6084 16.0135 16.013 14.6089 17.7389 14.6089C19.4648 14.6089 20.8693 16.0135 20.8693 17.7394V30.2611V38.6089C20.8693 39.1849 21.3357 39.6524 21.9128 39.6524C22.4898 39.6524 22.9563 39.1849 22.9563 38.6089V30.2611C22.9563 28.5352 24.3608 27.1307 26.0867 27.1307C27.8126 27.1307 29.2171 28.5352 29.2171 30.2611V38.6089C29.2171 39.1849 29.6836 39.6524 30.2606 39.6524C30.8377 39.6524 31.3041 39.1849 31.3041 38.6089V30.2611C31.3041 28.5352 32.7086 27.1307 34.4345 27.1307C36.1604 27.1307 37.565 28.5352 37.565 30.2611V34.435V38.6089C37.565 39.1849 38.0314 39.6524 38.6084 39.6524C39.1855 39.6524 39.6519 39.1849 39.6519 38.6089V34.435C39.6519 32.7091 41.0564 31.3046 42.7824 31.3046C44.5083 31.3046 45.9128 32.7091 45.9128 34.435V46.9568C45.9128 47.5328 46.3792 48.0002 46.9563 48.0002C47.5333 48.0002 47.9997 47.5328 47.9997 46.9568V34.435C47.9997 31.5581 45.6592 29.2176 42.7824 29.2176Z" fill="#FF7819"/>
<path d="M17.7388 0C17.1617 0 16.6953 0.467478 16.6953 1.04348V7.30435C16.6953 7.88035 17.1617 8.34783 17.7388 8.34783C18.3158 8.34783 18.7823 7.88035 18.7823 7.30435V1.04348C18.7823 0.467478 18.3158 0 17.7388 0Z" fill="#FF7819"/>
<path d="M7.30435 14.6089H1.04348C0.466435 14.6089 0 15.0764 0 15.6524C0 16.2284 0.466435 16.6958 1.04348 16.6958H7.30435C7.88139 16.6958 8.34783 16.2284 8.34783 15.6524C8.34783 15.0764 7.88139 14.6089 7.30435 14.6089Z" fill="#FF7819"/>
<path d="M34.4352 14.6089H28.1743C27.5973 14.6089 27.1309 15.0764 27.1309 15.6524C27.1309 16.2284 27.5973 16.6958 28.1743 16.6958H34.4352C35.0123 16.6958 35.4787 16.2284 35.4787 15.6524C35.4787 15.0764 35.0123 14.6089 34.4352 14.6089Z" fill="#FF7819"/>
<path d="M11.1722 8.65374L6.99827 4.47983C6.59027 4.07183 5.9308 4.07183 5.5228 4.47983C5.1148 4.88783 5.1148 5.54731 5.5228 5.95531L9.69671 10.1292C9.90019 10.3327 10.1673 10.435 10.4344 10.435C10.7016 10.435 10.9687 10.3327 11.1722 10.1292C11.5802 9.72122 11.5802 9.06174 11.1722 8.65374Z" fill="#FF7819"/>
<path d="M29.9554 4.47983C29.5474 4.07183 28.8879 4.07183 28.4799 4.47983L24.306 8.65374C23.898 9.06174 23.898 9.72122 24.306 10.1292C24.5095 10.3327 24.7766 10.435 25.0437 10.435C25.3109 10.435 25.578 10.3327 25.7815 10.1292L29.9554 5.95531C30.3634 5.54731 30.3634 4.88783 29.9554 4.47983Z" fill="#FF7819"/>
</svg>
