<svg width="37" height="37" viewBox="0 0 37 37" fill="none" xmlns="http://www.w3.org/2000/svg">
<path d="M18.5 37C28.7173 37 37 28.7173 37 18.5C37 8.28273 28.7173 0 18.5 0C8.28273 0 0 8.28273 0 18.5C0 28.7173 8.28273 37 18.5 37Z" fill="black"/>
<path d="M8.46582 18.0992L26.3029 11.2219C27.1308 10.9228 27.8538 11.4238 27.5856 12.6757L27.5871 12.6741L24.55 26.9823C24.3249 27.9967 23.7222 28.2434 22.8789 27.7655L18.2539 24.3569L16.0231 26.506C15.7764 26.7526 15.5683 26.9607 15.0904 26.9607L15.4187 22.254L23.9904 14.5102C24.3635 14.1819 23.9072 13.9969 23.4154 14.3237L12.8226 20.993L8.25615 19.5685C7.26486 19.254 7.24328 18.5772 8.46582 18.0992Z" fill="#F2F2F2"/>
</svg>
