<svg width="70" height="70" viewBox="0 0 70 70" fill="none" xmlns="http://www.w3.org/2000/svg">
<path d="M23 34.51C22.9996 34.7466 23.0914 34.9736 23.2554 35.1411L42.4947 54.7498C42.8421 55.0918 43.3958 55.0819 43.7313 54.7279C44.0586 54.3825 44.0586 53.8349 43.7313 53.4895L25.1111 34.5101L43.7331 15.5324C44.0804 15.1904 44.09 14.6262 43.7545 14.2721C43.419 13.918 42.8654 13.9083 42.5179 14.2502C42.5106 14.2574 42.5035 14.2646 42.4965 14.2721L23.2571 33.8807C23.093 34.0475 23.0006 34.2739 23 34.51Z" fill="#C4C4C4"/>
<rect x="-0.5" y="0.5" width="69" height="69" rx="4.5" transform="matrix(-1 0 0 1 69 0)" stroke="#C4C4C4"/>
</svg>
