<svg width="55" height="57" viewBox="0 0 55 57" fill="none" xmlns="http://www.w3.org/2000/svg">
<path d="M45.6385 31.3775C44.7494 30.2342 45.0037 29.7255 45.6385 28.7035C45.65 28.6918 52.9902 18.3645 53.7465 14.8622L53.751 14.8598C54.1269 13.5835 53.751 12.6455 51.9337 12.6455H45.9204C44.3896 12.6455 43.6837 13.4505 43.3056 14.3512C43.3056 14.3512 40.244 21.8132 35.9127 26.6502C34.5148 28.0478 33.8685 28.4958 33.1054 28.4958C32.7296 28.4958 32.1452 28.0478 32.1452 26.7715V14.8598C32.1452 13.3292 31.7167 12.6455 30.4494 12.6455H20.994C20.0337 12.6455 19.4631 13.3595 19.4631 14.0245C19.4631 15.4758 21.6287 15.8095 21.8533 19.8928V28.7525C21.8533 30.6938 21.5073 31.0508 20.7396 31.0508C18.6954 31.0508 13.734 23.5585 10.7937 14.9835C10.2002 13.3198 9.62042 12.6478 8.07812 12.6478H2.0625C0.346042 12.6478 0 13.4528 0 14.3535C0 15.9448 2.04417 23.8572 9.50583 34.3105C14.4787 41.4458 21.4821 45.3122 27.8529 45.3122C31.6823 45.3122 32.1498 44.4535 32.1498 42.9765C32.1498 36.1585 31.8037 35.5145 33.7219 35.5145C34.611 35.5145 36.1419 35.9625 39.7169 39.4042C43.8029 43.4852 44.4744 45.3122 46.7615 45.3122H52.7748C54.489 45.3122 55.3575 44.4535 54.8579 42.7595C53.7144 39.1965 45.9869 31.8675 45.6385 31.3775Z" fill="#B0B0B0"/>
</svg>
