<svg width="267" height="93" viewBox="0 0 267 93" fill="none" xmlns="http://www.w3.org/2000/svg">
<path fill-rule="evenodd" clip-rule="evenodd" d="M254.732 0C261.507 0 267 5.49273 267 12.2684V58.7414C267 65.517 261.507 71.0097 254.732 71.0097H234.923C233.244 77.6337 235.176 83.8508 240.423 92.5739C227.626 88.3238 219.245 78.6867 215.744 71.4534L216.62 71.0097H12.3888C5.61313 71.0097 0.120392 65.517 0.120392 58.7414V12.2684C0.120392 5.49274 5.61313 0 12.3888 0H254.732Z" fill="#E5E5E5"/>
<path d="M72.6737 29.9263L70.1969 36.5377H75.1904L72.6737 29.9263ZM73.7123 27.8491L79.245 42.1104H77.2477L75.7496 38.1356H69.6377L68.1396 42.1104H66.2221L71.7748 27.8491H73.7123ZM88.1225 33.0822H84.667L84.2276 36.6775C84.1077 37.6762 83.9413 38.5284 83.7282 39.2341C83.5152 39.9265 83.2422 40.4991 82.9093 40.9519C82.5764 41.3913 82.1769 41.7109 81.7109 41.9106C81.2581 42.1104 80.7255 42.2102 80.113 42.2102H79.7734V40.7521H79.9732C80.3194 40.7521 80.6256 40.6856 80.8919 40.5524C81.1716 40.4192 81.4179 40.1796 81.631 39.8333C81.8573 39.4871 82.0504 39.0078 82.2102 38.3952C82.37 37.7827 82.5032 37.0037 82.6097 36.0583L83.109 31.6641H89.8602V42.1104H88.1225V33.0822ZM101.111 42.1104H99.4734V34.2407L94.1404 42.1104H92.5025V31.6641H94.1204V39.5537L99.4534 31.6641H101.111V42.1104ZM112.726 38.6149C112.552 39.8 112.1 40.7322 111.367 41.4113C110.635 42.0904 109.603 42.4299 108.271 42.4299C107.486 42.4299 106.787 42.3034 106.174 42.0504C105.575 41.7974 105.069 41.4312 104.656 40.9519C104.257 40.4725 103.95 39.8933 103.737 39.2142C103.538 38.535 103.438 37.7694 103.438 36.9172C103.438 36.0783 103.551 35.3193 103.777 34.6402C104.004 33.9477 104.33 33.3618 104.756 32.8825C105.182 32.3898 105.701 32.0103 106.314 31.7439C106.926 31.4776 107.619 31.3445 108.391 31.3445C109.63 31.3445 110.588 31.6507 111.267 32.2633C111.947 32.8625 112.379 33.6947 112.566 34.76L110.828 35.0796C110.761 34.7467 110.668 34.4404 110.548 34.1608C110.442 33.8811 110.289 33.6415 110.089 33.4417C109.889 33.2287 109.643 33.0689 109.35 32.9624C109.07 32.8425 108.731 32.7826 108.331 32.7826C107.785 32.7826 107.319 32.8891 106.933 33.1022C106.547 33.3019 106.227 33.5882 105.974 33.961C105.735 34.3339 105.555 34.7733 105.435 35.2793C105.329 35.772 105.275 36.3046 105.275 36.8772C105.275 37.4631 105.329 38.0091 105.435 38.5151C105.542 39.0078 105.715 39.4405 105.954 39.8134C106.194 40.1729 106.507 40.4592 106.893 40.6722C107.279 40.8853 107.752 40.9918 108.311 40.9918C109.15 40.9918 109.769 40.7788 110.169 40.3527C110.582 39.9265 110.848 39.3473 110.968 38.6149H112.726ZM121.366 40.6922C120.993 41.145 120.52 41.5378 119.948 41.8707C119.375 42.1902 118.663 42.35 117.811 42.35C117.291 42.35 116.812 42.2835 116.373 42.1503C115.946 42.0305 115.574 41.844 115.254 41.591C114.948 41.3247 114.708 40.9985 114.535 40.6123C114.362 40.2262 114.275 39.7734 114.275 39.2541C114.275 38.535 114.422 37.9491 114.715 37.4964C115.021 37.0303 115.421 36.6708 115.913 36.4178C116.419 36.1515 116.985 35.9717 117.611 35.8785C118.237 35.772 118.883 35.7054 119.548 35.6788L121.326 35.6189V35.1994C121.326 34.3206 121.14 33.6881 120.767 33.3019C120.394 32.9157 119.788 32.7227 118.949 32.7227C118.124 32.7227 117.518 32.8625 117.132 33.1421C116.745 33.4084 116.492 33.7813 116.373 34.2606L114.795 34.0809C114.981 33.1355 115.427 32.4497 116.133 32.0236C116.839 31.5842 117.797 31.3644 119.009 31.3644C119.755 31.3644 120.381 31.4577 120.887 31.6441C121.406 31.8172 121.825 32.0702 122.145 32.4031C122.465 32.736 122.691 33.1488 122.824 33.6415C122.971 34.1341 123.044 34.6868 123.044 35.2993V42.1104H121.366V40.6922ZM121.326 36.8572L119.668 36.9172C118.963 36.9438 118.377 37.0104 117.911 37.1169C117.445 37.2234 117.072 37.3699 116.792 37.5563C116.526 37.7427 116.333 37.9758 116.213 38.2554C116.106 38.5217 116.053 38.8413 116.053 39.2142C116.053 39.7335 116.206 40.1529 116.512 40.4725C116.832 40.7788 117.351 40.9319 118.07 40.9319C119.096 40.9319 119.895 40.6789 120.467 40.1729C121.04 39.6669 121.326 38.9745 121.326 38.0956V36.8572ZM125.842 39.7335H127.679L126.641 44.0478H125.243L125.842 39.7335ZM133.698 42.1104L135.635 38.7548C135.968 38.1822 136.334 37.796 136.734 37.5963C136.068 37.4498 135.542 37.1302 135.156 36.6375C134.77 36.1448 134.577 35.5123 134.577 34.74C134.577 34.3006 134.643 33.8945 134.776 33.5216C134.91 33.1488 135.129 32.8225 135.436 32.5429C135.755 32.2633 136.175 32.0502 136.694 31.9037C137.213 31.7439 137.859 31.6641 138.631 31.6641H142.786V42.1104H141.048V37.9358H139.55C139.231 37.9358 138.958 37.9558 138.731 37.9957C138.518 38.0357 138.332 38.1023 138.172 38.1955C138.012 38.2887 137.866 38.4152 137.733 38.575C137.599 38.7348 137.466 38.9345 137.333 39.1742L135.655 42.1104H133.698ZM141.048 36.4977V33.0822H138.651C137.12 33.0822 136.354 33.6148 136.354 34.6801C136.354 35.8918 137.067 36.4977 138.492 36.4977H141.048ZM158.517 31.6641V40.6323H159.735V44.9067H158.157V42.1104H150.348V44.9067H148.77V40.6323H149.788C150.028 40.4059 150.248 40.1063 150.447 39.7335C150.647 39.3606 150.827 38.9012 150.987 38.3553C151.147 37.796 151.286 37.1369 151.406 36.3779C151.539 35.6189 151.653 34.74 151.746 33.7413L151.925 31.6641H158.517ZM153.284 34.6801C153.124 36.278 152.904 37.5497 152.625 38.4951C152.358 39.4405 152.045 40.1529 151.686 40.6323H156.779V33.0822H153.443L153.284 34.6801ZM166.011 42.4299C165.226 42.4299 164.527 42.3034 163.914 42.0504C163.302 41.7841 162.782 41.4113 162.356 40.9319C161.93 40.4525 161.604 39.8733 161.377 39.1942C161.151 38.5151 161.038 37.7494 161.038 36.8972C161.038 36.0583 161.158 35.2993 161.397 34.6202C161.637 33.9278 161.977 33.3419 162.416 32.8625C162.856 32.3698 163.381 31.997 163.994 31.7439C164.62 31.4776 165.312 31.3445 166.071 31.3445C166.844 31.3445 167.536 31.4776 168.149 31.7439C168.761 31.997 169.28 32.3631 169.707 32.8425C170.146 33.3086 170.479 33.8811 170.705 34.5603C170.932 35.226 171.045 35.9784 171.045 36.8173C171.045 37.6695 170.925 38.4418 170.685 39.1343C170.459 39.8267 170.126 40.4192 169.687 40.9119C169.26 41.3913 168.734 41.7641 168.109 42.0305C167.483 42.2968 166.784 42.4299 166.011 42.4299ZM166.031 40.9918C166.591 40.9918 167.07 40.8919 167.469 40.6922C167.869 40.4792 168.195 40.1929 168.448 39.8333C168.715 39.4605 168.908 39.0211 169.027 38.5151C169.147 38.0091 169.207 37.4565 169.207 36.8572C169.207 36.258 169.147 35.7121 169.027 35.2194C168.908 34.7134 168.715 34.2806 168.448 33.9211C168.195 33.5616 167.869 33.2819 167.469 33.0822C167.07 32.8825 166.591 32.7826 166.031 32.7826C165.472 32.7826 164.993 32.8825 164.593 33.0822C164.207 33.2819 163.881 33.5616 163.615 33.9211C163.362 34.2806 163.175 34.7134 163.055 35.2194C162.935 35.7121 162.875 36.258 162.875 36.8572C162.875 37.4565 162.935 38.0091 163.055 38.5151C163.175 39.0211 163.362 39.4605 163.615 39.8333C163.868 40.1929 164.194 40.4792 164.593 40.6922C164.993 40.8919 165.472 40.9918 166.031 40.9918ZM173.373 31.6641H175.491L179.026 40.2728L182.681 31.6641H184.699V42.1104H183.101V34.2007L179.685 42.1104H178.247L174.991 34.2806V42.1104H173.373V31.6641ZM193.83 40.6922C193.457 41.145 192.984 41.5378 192.411 41.8707C191.839 42.1902 191.126 42.35 190.274 42.35C189.755 42.35 189.276 42.2835 188.836 42.1503C188.41 42.0305 188.037 41.844 187.718 41.591C187.411 41.3247 187.172 40.9985 186.999 40.6123C186.825 40.2262 186.739 39.7734 186.739 39.2541C186.739 38.535 186.885 37.9491 187.178 37.4964C187.485 37.0303 187.884 36.6708 188.377 36.4178C188.883 36.1515 189.449 35.9717 190.075 35.8785C190.7 35.772 191.346 35.7054 192.012 35.6788L193.79 35.6189V35.1994C193.79 34.3206 193.603 33.6881 193.23 33.3019C192.858 32.9157 192.252 32.7227 191.413 32.7227C190.587 32.7227 189.981 32.8625 189.595 33.1421C189.209 33.4084 188.956 33.7813 188.836 34.2606L187.258 34.0809C187.445 33.1355 187.891 32.4497 188.596 32.0236C189.302 31.5842 190.261 31.3644 191.473 31.3644C192.218 31.3644 192.844 31.4577 193.35 31.6441C193.87 31.8172 194.289 32.0702 194.609 32.4031C194.928 32.736 195.155 33.1488 195.288 33.6415C195.434 34.1341 195.507 34.6868 195.507 35.2993V42.1104H193.83V40.6922ZM193.79 36.8572L192.132 36.9172C191.426 36.9438 190.84 37.0104 190.374 37.1169C189.908 37.2234 189.535 37.3699 189.256 37.5563C188.989 37.7427 188.796 37.9758 188.676 38.2554C188.57 38.5217 188.517 38.8413 188.517 39.2142C188.517 39.7335 188.67 40.1529 188.976 40.4725C189.296 40.7788 189.815 40.9319 190.534 40.9319C191.559 40.9319 192.358 40.6789 192.931 40.1729C193.503 39.6669 193.79 38.9745 193.79 38.0956V36.8572ZM198.046 39.7734H200.043V42.1104H198.046V39.7734Z" fill="black"/>
</svg>
