<svg width="246" height="38" viewBox="0 0 246 38" fill="none" xmlns="http://www.w3.org/2000/svg">
<path opacity="0.5" d="M14.15 1.3H20.15L33.75 37H27.3L23.95 27.9H10.1L6.8 37H0.55L14.15 1.3ZM22.3 22.85L17 8.15L11.75 22.85H22.3ZM38.0773 1.3H50.4273C53.0273 1.3 55.1607 1.55 56.8273 2.05C58.494 2.51666 59.8107 3.18333 60.7773 4.05C61.7773 4.88333 62.4607 5.88333 62.8273 7.05C63.194 8.18333 63.3773 9.4 63.3773 10.7C63.3773 12.2 63.044 13.6 62.3773 14.9C61.7107 16.1667 60.494 17.2167 58.7273 18.05C59.8607 18.55 60.794 19.1167 61.5273 19.75C62.2607 20.3833 62.844 21.0667 63.2773 21.8C63.7107 22.5 64.0107 23.25 64.1773 24.05C64.344 24.8167 64.4273 25.6 64.4273 26.4C64.4273 27.8667 64.194 29.25 63.7273 30.55C63.294 31.85 62.5607 32.9833 61.5273 33.95C60.494 34.8833 59.144 35.6333 57.4773 36.2C55.8107 36.7333 53.7607 37 51.3273 37H38.0773V1.3ZM51.1273 15.95C53.494 15.95 55.144 15.5167 56.0773 14.65C57.0107 13.7833 57.4773 12.5333 57.4773 10.9C57.4773 9.2 56.9273 7.98333 55.8273 7.25C54.7607 6.48333 52.894 6.1 50.2273 6.1H43.9273V15.95H51.1273ZM51.1273 32.15C52.5607 32.15 53.744 32.0167 54.6773 31.75C55.644 31.4833 56.394 31.1 56.9273 30.6C57.494 30.1 57.894 29.5 58.1273 28.8C58.3607 28.1 58.4773 27.3167 58.4773 26.45C58.4773 24.65 57.9607 23.2833 56.9273 22.35C55.9273 21.3833 54.1773 20.9 51.6773 20.9H43.9273V32.15H51.1273ZM85.6098 37.9C83.0431 37.9 80.7264 37.4833 78.6598 36.65C76.6264 35.7833 74.8764 34.55 73.4098 32.95C71.9431 31.35 70.8098 29.4 70.0098 27.1C69.2431 24.7667 68.8598 22.1333 68.8598 19.2C68.8598 16.2667 69.2598 13.6333 70.0598 11.3C70.8598 8.96666 71.9931 7 73.4598 5.4C74.9264 3.76666 76.6931 2.53333 78.7598 1.7C80.8264 0.833331 83.1098 0.399997 85.6098 0.399997C88.1431 0.399997 90.4431 0.833331 92.5098 1.7C94.5764 2.53333 96.3264 3.75 97.7598 5.35C99.1931 6.95 100.293 8.91666 101.06 11.25C101.86 13.55 102.26 16.1667 102.26 19.1C102.26 22.0667 101.876 24.7167 101.11 27.05C100.343 29.35 99.2431 31.3167 97.8098 32.95C96.3764 34.55 94.6264 35.7833 92.5598 36.65C90.5264 37.4833 88.2098 37.9 85.6098 37.9ZM85.5598 32.7C88.9931 32.7 91.5931 31.5 93.3598 29.1C95.1264 26.6667 96.0098 23.35 96.0098 19.15C96.0098 17.05 95.7764 15.1667 95.3098 13.5C94.8764 11.8333 94.2264 10.4167 93.3598 9.25C92.4931 8.08333 91.4098 7.18333 90.1098 6.55C88.8098 5.91667 87.2931 5.6 85.5598 5.6C83.8264 5.6 82.3098 5.91667 81.0098 6.55C79.7098 7.18333 78.6098 8.08333 77.7098 9.25C76.8431 10.4167 76.1931 11.8333 75.7598 13.5C75.3264 15.1667 75.1098 17.05 75.1098 19.15C75.1098 23.35 75.9764 26.6667 77.7098 29.1C79.4764 31.5 82.0931 32.7 85.5598 32.7ZM114.133 1.3V22.7C114.133 26.0667 114.733 28.5833 115.933 30.25C117.166 31.8833 119.233 32.7 122.133 32.7C124.999 32.7 127.016 31.8833 128.183 30.25C129.383 28.5833 129.983 26.0667 129.983 22.7V1.3H136.033V22.7C136.033 25.4667 135.699 27.8167 135.033 29.75C134.366 31.65 133.416 33.2167 132.183 34.45C130.949 35.65 129.483 36.5167 127.783 37.05C126.083 37.6167 124.183 37.9 122.083 37.9C117.516 37.9 114.049 36.6833 111.683 34.25C109.316 31.7833 108.133 27.8833 108.133 22.55V1.3H114.133ZM151.557 6.55H140.257V1.3H168.857V6.55H157.607V37H151.557V6.55ZM189.67 1.3V22.7C189.67 26.0667 190.27 28.5833 191.47 30.25C192.703 31.8833 194.77 32.7 197.67 32.7C200.537 32.7 202.553 31.8833 203.72 30.25C204.92 28.5833 205.52 26.0667 205.52 22.7V1.3H211.57V22.7C211.57 25.4667 211.237 27.8167 210.57 29.75C209.903 31.65 208.953 33.2167 207.72 34.45C206.487 35.65 205.02 36.5167 203.32 37.05C201.62 37.6167 199.72 37.9 197.62 37.9C193.053 37.9 189.587 36.6833 187.22 34.25C184.853 31.7833 183.67 27.8833 183.67 22.55V1.3H189.67ZM223.131 26.1C223.398 28.4333 224.231 30.1333 225.631 31.2C227.064 32.2667 229.181 32.8 231.981 32.8C233.348 32.8 234.498 32.65 235.431 32.35C236.364 32.05 237.114 31.65 237.681 31.15C238.248 30.65 238.648 30.0667 238.881 29.4C239.114 28.7 239.231 27.9667 239.231 27.2C239.231 26.6333 239.148 26.0833 238.981 25.55C238.814 24.9833 238.514 24.4667 238.081 24C237.648 23.5333 237.064 23.1333 236.331 22.8C235.598 22.4333 234.664 22.15 233.531 21.95L228.981 21.1C227.181 20.7667 225.581 20.35 224.181 19.85C222.781 19.35 221.598 18.7 220.631 17.9C219.698 17.0667 218.981 16.0667 218.481 14.9C218.014 13.7 217.781 12.25 217.781 10.55C217.781 8.85 218.114 7.36666 218.781 6.1C219.481 4.83333 220.431 3.78333 221.631 2.95C222.831 2.08333 224.248 1.45 225.881 1.05C227.548 0.616664 229.348 0.399997 231.281 0.399997C233.748 0.399997 235.814 0.683331 237.481 1.25C239.148 1.81667 240.498 2.56667 241.531 3.5C242.564 4.4 243.348 5.45 243.881 6.65C244.414 7.85 244.781 9.1 244.981 10.4L239.281 11.3C238.814 9.3 237.998 7.81667 236.831 6.85C235.698 5.88333 233.881 5.4 231.381 5.4C229.948 5.4 228.748 5.53333 227.781 5.8C226.848 6.03333 226.081 6.38333 225.481 6.85C224.914 7.28333 224.498 7.8 224.231 8.4C223.998 8.96667 223.881 9.56667 223.881 10.2C223.881 11.7667 224.298 12.9333 225.131 13.7C225.998 14.4667 227.498 15.0667 229.631 15.5L234.581 16.45C238.348 17.15 241.114 18.35 242.881 20.05C244.648 21.7167 245.531 24.1333 245.531 27.3C245.531 28.8 245.248 30.2 244.681 31.5C244.148 32.7667 243.314 33.8833 242.181 34.85C241.048 35.7833 239.631 36.5167 237.931 37.05C236.264 37.6167 234.314 37.9 232.081 37.9C227.514 37.9 223.931 36.95 221.331 35.05C218.731 33.1167 217.298 30.1333 217.031 26.1H223.131Z" fill="#EEEEEE"/>
</svg>
