<svg width="236" height="38" viewBox="0 0 236 38" fill="none" xmlns="http://www.w3.org/2000/svg">
<path opacity="0.5" d="M31.7 24.95C31.5 26.8167 31.05 28.5333 30.35 30.1C29.65 31.6667 28.6833 33.0333 27.45 34.2C26.2167 35.3667 24.7167 36.2833 22.95 36.95C21.1833 37.5833 19.1333 37.9 16.8 37.9C14.2333 37.9 11.9333 37.4667 9.9 36.6C7.9 35.7333 6.2 34.5 4.8 32.9C3.43333 31.2667 2.38333 29.3 1.65 27C0.95 24.6667 0.6 22.0667 0.6 19.2C0.6 16.2667 0.983333 13.6333 1.75 11.3C2.55 8.96666 3.66667 7 5.1 5.4C6.53333 3.76666 8.25 2.53333 10.25 1.7C12.25 0.833331 14.45 0.399997 16.85 0.399997C19.0833 0.399997 21.0167 0.683331 22.65 1.25C24.2833 1.81667 25.6667 2.63333 26.8 3.7C27.9667 4.73333 28.8833 5.98333 29.55 7.45C30.25 8.91666 30.7667 10.55 31.1 12.35L25.15 13.2C24.8833 12 24.55 10.9333 24.15 10C23.75 9.06667 23.2167 8.28333 22.55 7.65C21.9167 6.98333 21.1333 6.48333 20.2 6.15C19.2667 5.78333 18.15 5.6 16.85 5.6C15.25 5.6 13.8333 5.91667 12.6 6.55C11.3667 7.18333 10.3167 8.1 9.45 9.3C8.61667 10.4667 7.98333 11.8833 7.55 13.55C7.11667 15.2167 6.9 17.0833 6.9 19.15C6.9 21.25 7.11667 23.1333 7.55 24.8C8.01667 26.4667 8.68333 27.9 9.55 29.1C10.4167 30.2667 11.45 31.1667 12.65 31.8C13.8833 32.4 15.2833 32.7 16.85 32.7C18.25 32.7 19.4333 32.5167 20.4 32.15C21.4 31.7833 22.2333 31.2667 22.9 30.6C23.5667 29.9333 24.0833 29.1333 24.45 28.2C24.85 27.2333 25.1333 26.15 25.3 24.95H31.7ZM52.9457 37.9C50.379 37.9 48.0624 37.4833 45.9957 36.65C43.9624 35.7833 42.2124 34.55 40.7457 32.95C39.279 31.35 38.1457 29.4 37.3457 27.1C36.579 24.7667 36.1957 22.1333 36.1957 19.2C36.1957 16.2667 36.5957 13.6333 37.3957 11.3C38.1957 8.96666 39.329 7 40.7957 5.4C42.2624 3.76666 44.029 2.53333 46.0957 1.7C48.1624 0.833331 50.4457 0.399997 52.9457 0.399997C55.479 0.399997 57.779 0.833331 59.8457 1.7C61.9124 2.53333 63.6624 3.75 65.0957 5.35C66.529 6.95 67.629 8.91666 68.3957 11.25C69.1957 13.55 69.5957 16.1667 69.5957 19.1C69.5957 22.0667 69.2124 24.7167 68.4457 27.05C67.679 29.35 66.579 31.3167 65.1457 32.95C63.7124 34.55 61.9624 35.7833 59.8957 36.65C57.8624 37.4833 55.5457 37.9 52.9457 37.9ZM52.8957 32.7C56.329 32.7 58.929 31.5 60.6957 29.1C62.4624 26.6667 63.3457 23.35 63.3457 19.15C63.3457 17.05 63.1124 15.1667 62.6457 13.5C62.2124 11.8333 61.5624 10.4167 60.6957 9.25C59.829 8.08333 58.7457 7.18333 57.4457 6.55C56.1457 5.91667 54.629 5.6 52.8957 5.6C51.1624 5.6 49.6457 5.91667 48.3457 6.55C47.0457 7.18333 45.9457 8.08333 45.0457 9.25C44.179 10.4167 43.529 11.8333 43.0957 13.5C42.6624 15.1667 42.4457 17.05 42.4457 19.15C42.4457 23.35 43.3124 26.6667 45.0457 29.1C46.8124 31.5 49.429 32.7 52.8957 32.7ZM76.0188 1.3L81.6188 1.3L98.0188 27.1V1.3L103.919 1.3L103.919 37H98.3188L81.8688 11.3L81.8688 37H76.0188L76.0188 1.3ZM119.967 6.55L108.667 6.55V1.3L137.267 1.3V6.55H126.017V37H119.967L119.967 6.55ZM154.684 17.8C156.051 17.8 157.184 17.6667 158.084 17.4C158.984 17.1 159.684 16.7 160.184 16.2C160.718 15.6667 161.084 15.0333 161.284 14.3C161.518 13.5667 161.634 12.75 161.634 11.85C161.634 11.0167 161.501 10.2667 161.234 9.6C161.001 8.9 160.584 8.31667 159.984 7.85C159.418 7.35 158.651 6.96666 157.684 6.7C156.718 6.43333 155.518 6.3 154.084 6.3H147.984V17.8H154.684ZM154.234 1.3C156.934 1.3 159.151 1.61666 160.884 2.25C162.651 2.88333 164.034 3.71666 165.034 4.75C166.068 5.75 166.784 6.86667 167.184 8.1C167.584 9.33333 167.784 10.55 167.784 11.75C167.784 14.0833 167.318 16.0333 166.384 17.6C165.484 19.1667 164.018 20.4333 161.984 21.4L169.384 37H162.784L156.384 22.8C156.084 22.8333 155.768 22.8667 155.434 22.9C155.101 22.9 154.751 22.9 154.384 22.9L147.984 22.9V37H142.034V1.3L154.234 1.3ZM189.079 37.9C186.512 37.9 184.195 37.4833 182.129 36.65C180.095 35.7833 178.345 34.55 176.879 32.95C175.412 31.35 174.279 29.4 173.479 27.1C172.712 24.7667 172.329 22.1333 172.329 19.2C172.329 16.2667 172.729 13.6333 173.529 11.3C174.329 8.96666 175.462 7 176.929 5.4C178.395 3.76666 180.162 2.53333 182.229 1.7C184.295 0.833331 186.579 0.399997 189.079 0.399997C191.612 0.399997 193.912 0.833331 195.979 1.7C198.045 2.53333 199.795 3.75 201.229 5.35C202.662 6.95 203.762 8.91666 204.529 11.25C205.329 13.55 205.729 16.1667 205.729 19.1C205.729 22.0667 205.345 24.7167 204.579 27.05C203.812 29.35 202.712 31.3167 201.279 32.95C199.845 34.55 198.095 35.7833 196.029 36.65C193.995 37.4833 191.679 37.9 189.079 37.9ZM189.029 32.7C192.462 32.7 195.062 31.5 196.829 29.1C198.595 26.6667 199.479 23.35 199.479 19.15C199.479 17.05 199.245 15.1667 198.779 13.5C198.345 11.8333 197.695 10.4167 196.829 9.25C195.962 8.08333 194.879 7.18333 193.579 6.55C192.279 5.91667 190.762 5.6 189.029 5.6C187.295 5.6 185.779 5.91667 184.479 6.55C183.179 7.18333 182.079 8.08333 181.179 9.25C180.312 10.4167 179.662 11.8333 179.229 13.5C178.795 15.1667 178.579 17.05 178.579 19.15C178.579 23.35 179.445 26.6667 181.179 29.1C182.945 31.5 185.562 32.7 189.029 32.7ZM218.202 1.3V31.75H235.902L235.152 37H212.152V1.3L218.202 1.3Z" fill="#EEEEEE"/>
</svg>
