<svg width="177" height="38" viewBox="0 0 177 38" fill="none" xmlns="http://www.w3.org/2000/svg">
<path d="M12.7 31.85C14.8 31.85 16.5833 31.55 18.05 30.95C19.55 30.35 20.7667 29.4833 21.7 28.35C22.6667 27.2167 23.3667 25.8667 23.8 24.3C24.2333 22.7333 24.45 20.9667 24.45 19C24.45 15.0667 23.6167 12 21.95 9.8C20.2833 7.56667 17.55 6.45 13.75 6.45L6.85 6.45L6.85 31.85H12.7ZM13.7 1.3C16.3333 1.3 18.7 1.66666 20.8 2.4C22.9 3.1 24.6833 4.18333 26.15 5.65C27.6167 7.11667 28.7333 8.96667 29.5 11.2C30.3 13.4 30.7 15.9833 30.7 18.95C30.7 21.9167 30.2833 24.5333 29.45 26.8C28.6167 29.0333 27.4167 30.9167 25.85 32.45C24.2833 33.95 22.3667 35.0833 20.1 35.85C17.8667 36.6167 15.3333 37 12.5 37H0.8L0.8 1.3L13.7 1.3ZM37.0793 1.3L60.8293 1.3V6.5L43.1293 6.5L43.1293 16L59.8293 16V21.25L43.1293 21.25V31.8H61.7793L61.0793 37H37.0793L37.0793 1.3ZM70.9609 26.1C71.2276 28.4333 72.0609 30.1333 73.4609 31.2C74.8943 32.2667 77.0109 32.8 79.8109 32.8C81.1776 32.8 82.3276 32.65 83.2609 32.35C84.1943 32.05 84.9443 31.65 85.5109 31.15C86.0776 30.65 86.4776 30.0667 86.7109 29.4C86.9443 28.7 87.0609 27.9667 87.0609 27.2C87.0609 26.6333 86.9776 26.0833 86.8109 25.55C86.6443 24.9833 86.3443 24.4667 85.9109 24C85.4776 23.5333 84.8943 23.1333 84.1609 22.8C83.4276 22.4333 82.4943 22.15 81.3609 21.95L76.8109 21.1C75.0109 20.7667 73.4109 20.35 72.0109 19.85C70.6109 19.35 69.4276 18.7 68.4609 17.9C67.5276 17.0667 66.8109 16.0667 66.3109 14.9C65.8443 13.7 65.6109 12.25 65.6109 10.55C65.6109 8.85 65.9443 7.36666 66.6109 6.1C67.3109 4.83333 68.2609 3.78333 69.4609 2.95C70.6609 2.08333 72.0776 1.45 73.7109 1.05C75.3776 0.616664 77.1776 0.399997 79.1109 0.399997C81.5776 0.399997 83.6443 0.683331 85.3109 1.25C86.9776 1.81667 88.3276 2.56667 89.3609 3.5C90.3943 4.4 91.1776 5.45 91.7109 6.65C92.2443 7.85 92.6109 9.1 92.8109 10.4L87.1109 11.3C86.6443 9.3 85.8276 7.81667 84.6609 6.85C83.5276 5.88333 81.7109 5.4 79.2109 5.4C77.7776 5.4 76.5776 5.53333 75.6109 5.8C74.6776 6.03333 73.9109 6.38333 73.3109 6.85C72.7443 7.28333 72.3276 7.8 72.0609 8.4C71.8276 8.96667 71.7109 9.56667 71.7109 10.2C71.7109 11.7667 72.1276 12.9333 72.9609 13.7C73.8276 14.4667 75.3276 15.0667 77.4609 15.5L82.4109 16.45C86.1776 17.15 88.9443 18.35 90.7109 20.05C92.4776 21.7167 93.3609 24.1333 93.3609 27.3C93.3609 28.8 93.0776 30.2 92.5109 31.5C91.9776 32.7667 91.1443 33.8833 90.0109 34.85C88.8776 35.7833 87.4609 36.5167 85.7609 37.05C84.0943 37.6167 82.1443 37.9 79.9109 37.9C75.3443 37.9 71.7609 36.95 69.1609 35.05C66.5609 33.1167 65.1276 30.1333 64.8609 26.1H70.9609ZM99.1887 1.3L105.239 1.3L105.239 37H99.1887L99.1887 1.3ZM142.362 18.05V32.75C140.528 34.45 138.362 35.7333 135.862 36.6C133.362 37.4667 130.845 37.9 128.312 37.9C125.545 37.9 123.112 37.4667 121.012 36.6C118.945 35.7 117.212 34.45 115.812 32.85C114.412 31.2167 113.362 29.25 112.662 26.95C111.962 24.65 111.612 22.0667 111.612 19.2C111.612 16.3 111.995 13.7 112.762 11.4C113.528 9.06667 114.612 7.08333 116.012 5.45C117.412 3.81667 119.112 2.56667 121.112 1.7C123.112 0.833331 125.345 0.399997 127.812 0.399997C129.978 0.399997 131.862 0.683331 133.462 1.25C135.095 1.78333 136.462 2.53333 137.562 3.5C138.695 4.46667 139.595 5.6 140.262 6.9C140.962 8.16667 141.462 9.53333 141.762 11L135.812 11.85C135.545 10.85 135.212 9.96666 134.812 9.2C134.445 8.4 133.945 7.73333 133.312 7.2C132.712 6.66666 131.962 6.26666 131.062 6C130.162 5.7 129.078 5.55 127.812 5.55C126.145 5.55 124.678 5.88333 123.412 6.55C122.178 7.18333 121.145 8.1 120.312 9.3C119.478 10.5 118.862 11.9333 118.462 13.6C118.062 15.2667 117.862 17.1167 117.862 19.15C117.862 21.25 118.062 23.1333 118.462 24.8C118.862 26.4667 119.495 27.9 120.362 29.1C121.228 30.2667 122.312 31.1667 123.612 31.8C124.945 32.4333 126.545 32.75 128.412 32.75C130.078 32.75 131.578 32.5833 132.912 32.25C134.245 31.8833 135.528 31.2667 136.762 30.4V23.15H128.862V18.05L142.362 18.05ZM148.847 1.3H154.447L170.847 27.1V1.3H176.747V37H171.147L154.697 11.3V37L148.847 37V1.3Z" fill="#E8E8E8" fill-opacity="0.3"/>
</svg>
