<svg width="130" height="33" viewBox="0 0 130 33" fill="none" xmlns="http://www.w3.org/2000/svg">
<path d="M18.996 9.59856C18.7718 9.59856 18.6037 9.54253 18.5477 9.4865L12.0479 5.73227L18.8839 1.75391C18.8839 1.75391 18.9399 1.75391 19.052 1.75391C19.1641 1.75391 19.2201 1.75391 19.2201 1.75391L26.0562 5.73227L19.5563 9.4865C19.5003 9.54253 19.3322 9.59856 19.108 9.59856H18.996Z" fill="#212121"/>
<path d="M18.9945 3.15505L23.4772 5.73258L18.9945 8.31011L14.5119 5.73258L18.9945 3.15505ZM18.9945 0.521484C18.7144 0.521484 18.4342 0.577518 18.2101 0.689584L9.5249 5.73258V5.78861L17.8739 10.6075C18.154 10.7756 18.5463 10.8876 18.9385 10.8876H18.9945H19.0506C19.4428 10.8876 19.835 10.7756 20.1152 10.6075L28.4641 5.78861V5.73258L19.779 0.689584C19.6109 0.577518 19.2747 0.521484 18.9945 0.521484Z" fill="#212121"/>
<path d="M18.9951 31.6943C18.7149 31.6943 18.5468 31.6383 18.4908 31.5823L1.68081 21.8325C1.51271 21.7204 1.28857 21.3282 1.28857 20.992V8.7207L17.3701 18.0222C17.8184 18.3024 18.3787 18.4145 18.9951 18.4705H19.0511C19.6675 18.4705 20.2278 18.3024 20.6761 18.0222L36.7576 8.7207V20.992C36.7576 21.3282 36.5335 21.7204 36.3654 21.8325L19.5554 31.6383C19.4994 31.6943 19.3313 31.7504 19.1072 31.7504C19.0511 31.6943 18.9951 31.6943 18.9951 31.6943Z" fill="#212121"/>
<path d="M2.5215 10.9068L16.7539 19.1436C17.3703 19.5359 18.1548 19.704 18.9392 19.76H18.9953H19.0513C19.8358 19.76 20.6202 19.5359 21.2366 19.1436L35.4691 10.9068V20.8807L19.0513 30.4624H18.9953L2.57753 20.8807V10.9068H2.5215ZM0.0560367 6.08789C3.41916e-06 6.08789 0 6.08789 0 6.14392V20.9927C0 21.7212 0.392226 22.5617 1.00859 22.8979L17.8186 32.6477C18.0987 32.8158 18.547 32.9278 18.9392 32.9278H18.9953H19.0513C19.4435 32.9278 19.8358 32.8158 20.172 32.6477L36.982 22.8979C37.5983 22.5617 37.9906 21.6651 37.9906 20.9927V6.19996C37.9906 6.14392 37.9905 6.14392 37.9345 6.14392C37.9345 6.14392 37.8785 6.14392 37.8785 6.19996C37.7104 6.76029 37.3182 6.98442 36.8699 7.20856L20.0039 16.9583C19.7237 17.1264 19.3315 17.1825 18.9953 17.2385C18.603 17.2385 18.2668 17.1264 17.9867 16.9583L1.12067 7.20856C0.728433 6.92839 0.336203 6.70426 0.0560367 6.08789C0.11207 6.14392 0.11207 6.14392 0.0560367 6.08789C0.11207 6.14392 0.11207 6.14392 0.0560367 6.08789C0.11207 6.14392 0.11207 6.14392 0.0560367 6.08789C0.11207 6.14392 0.11207 6.08789 0.0560367 6.08789Z" fill="#212121"/>
<path d="M61.582 8.81425H54.2977L53.4011 16.3787C53.121 18.452 52.7848 20.245 52.3365 21.7019C51.8882 23.1588 51.3279 24.3915 50.5995 25.288C49.871 26.2406 49.0866 26.913 48.078 27.3052C47.1254 27.6975 46.0047 27.9216 44.716 27.9216H43.9875V24.8958H44.4358C45.1642 24.8958 45.8366 24.7837 46.397 24.4475C46.9573 24.1674 47.5176 23.6631 47.9659 22.9346C48.4142 22.2062 48.8064 21.1976 49.1426 19.9088C49.4788 18.6201 49.759 16.9951 49.9831 14.9779L51.0477 5.73242H65.2242V27.6975H61.582V8.81425Z" fill="#212121"/>
<path d="M86.5722 27.7531H83.0982V11.1673L71.8915 27.6971H68.4175V5.78809H71.8355V22.3739L83.0421 5.78809H86.5162V27.7531H86.5722Z" fill="#212121"/>
<path d="M107.922 27.7531H104.504V11.1673L93.2974 27.6971H89.8794V5.78809H93.2974V22.3739L104.504 5.78809H107.978V27.7531H107.922Z" fill="#212121"/>
<path d="M129.886 20.4129C129.494 22.9344 128.542 24.8956 127.029 26.2964C125.46 27.6973 123.33 28.4257 120.529 28.4257C118.848 28.4257 117.391 28.1455 116.158 27.6412C114.869 27.1369 113.805 26.3525 112.964 25.3439C112.124 24.3353 111.451 23.1025 111.059 21.7017C110.611 20.3009 110.387 18.6759 110.387 16.8828C110.387 15.1458 110.611 13.5208 111.115 12.064C111.563 10.6071 112.292 9.37437 113.188 8.36577C114.085 7.35717 115.15 6.57271 116.438 6.01237C117.727 5.45204 119.184 5.17188 120.809 5.17188C123.386 5.17188 125.404 5.78824 126.861 7.07701C128.261 8.36577 129.214 10.1028 129.606 12.3441L125.964 13.0165C125.796 12.3441 125.628 11.6717 125.404 11.0554C125.18 10.495 124.843 9.9347 124.395 9.54247C123.947 9.0942 123.442 8.758 122.882 8.53387C122.266 8.30974 121.537 8.19767 120.697 8.19767C119.52 8.19767 118.568 8.4218 117.783 8.87007C116.943 9.31834 116.326 9.9347 115.766 10.7192C115.262 11.5036 114.869 12.4002 114.645 13.4648C114.421 14.5294 114.309 15.6501 114.309 16.8268C114.309 18.0595 114.421 19.1802 114.645 20.2448C114.869 21.3095 115.206 22.206 115.766 22.9905C116.27 23.7749 116.943 24.3913 117.727 24.8396C118.512 25.2878 119.52 25.512 120.697 25.512C122.49 25.512 123.779 25.0637 124.619 24.1672C125.46 23.2706 126.02 22.0379 126.3 20.525H129.886V20.4129Z" fill="#212121"/>
</svg>
