<svg width="155" height="315" viewBox="0 0 155 315" fill="none" xmlns="http://www.w3.org/2000/svg">
<rect width="155" height="315" fill="#F2F2F2"/>
<path d="M106.08 116.48L102.72 118.48L97.36 109.92V105.92H125V110.56H102.52L106.08 116.48ZM103.32 84.2081L114.8 92.3281V84.2081H103.32ZM97.36 84.1281V79.8481H114.8V76.2081L118.48 76.7681V79.8481H125V84.2081H118.48V97.0481H115.24L97.36 84.1281ZM121.72 62.8562C121.72 61.8162 121.48 60.9496 121 60.2562C120.493 59.5362 119.787 58.9629 118.88 58.5362C117.973 58.0829 116.867 57.7629 115.56 57.5762C114.253 57.3629 112.787 57.2562 111.16 57.2562C109.56 57.2562 108.107 57.3629 106.8 57.5762C105.493 57.7629 104.387 58.0829 103.48 58.5362C102.547 58.9629 101.84 59.5362 101.36 60.2562C100.853 60.9496 100.6 61.8162 100.6 62.8562C100.6 63.8962 100.853 64.7762 101.36 65.4962C101.867 66.1896 102.587 66.7496 103.52 67.1762C104.427 67.6029 105.533 67.9096 106.84 68.0962C108.12 68.2829 109.56 68.3762 111.16 68.3762C114.573 68.3762 117.187 67.9629 119 67.1362C120.813 66.2829 121.72 64.8562 121.72 62.8562ZM125.72 62.8963C125.72 64.4962 125.44 65.9362 124.88 67.2162C124.32 68.4696 123.453 69.5362 122.28 70.4162C121.08 71.2962 119.56 71.9762 117.72 72.4562C115.88 72.9096 113.693 73.1362 111.16 73.1362C106.28 73.1362 102.64 72.2429 100.24 70.4562C97.8133 68.6429 96.6 66.0696 96.6 62.7362C96.6 59.5096 97.7867 57.0029 100.16 55.2162C102.507 53.4029 106.173 52.4962 111.16 52.4962C113.693 52.4962 115.88 52.7362 117.72 53.2162C119.533 53.6696 121.04 54.3496 122.24 55.2562C123.413 56.1362 124.293 57.2296 124.88 58.5362C125.44 59.8162 125.72 61.2696 125.72 62.8963Z" fill="#212121"/>
<path d="M113.36 48.5444H109.4V41.1844H101.48V37.1044H109.4V29.7444H113.36V37.1044H121.28V41.1844H113.36V48.5444Z" fill="#FF8733"/>
<path d="M27.21 199.55C27.0887 200.381 26.7713 201.034 26.258 201.51C25.7447 201.986 25.0213 202.224 24.088 202.224C23.5373 202.224 23.0473 202.135 22.618 201.958C22.198 201.781 21.8433 201.524 21.554 201.188C21.274 200.852 21.0593 200.446 20.91 199.97C20.77 199.494 20.7 198.957 20.7 198.36C20.7 197.772 20.7793 197.24 20.938 196.764C21.0967 196.279 21.3253 195.868 21.624 195.532C21.9227 195.187 22.2867 194.921 22.716 194.734C23.1453 194.547 23.6307 194.454 24.172 194.454C25.04 194.454 25.712 194.669 26.188 195.098C26.664 195.518 26.9673 196.101 27.098 196.848L25.88 197.072C25.8333 196.839 25.768 196.624 25.684 196.428C25.6093 196.232 25.502 196.064 25.362 195.924C25.222 195.775 25.0493 195.663 24.844 195.588C24.648 195.504 24.41 195.462 24.13 195.462C23.7473 195.462 23.4207 195.537 23.15 195.686C22.8793 195.826 22.6553 196.027 22.478 196.288C22.31 196.549 22.184 196.857 22.1 197.212C22.0253 197.557 21.988 197.931 21.988 198.332C21.988 198.743 22.0253 199.125 22.1 199.48C22.1747 199.825 22.296 200.129 22.464 200.39C22.632 200.642 22.8513 200.843 23.122 200.992C23.3927 201.141 23.724 201.216 24.116 201.216C24.704 201.216 25.138 201.067 25.418 200.768C25.7073 200.469 25.894 200.063 25.978 199.55H27.21ZM32.0063 202.224C31.4556 202.224 30.9656 202.135 30.5363 201.958C30.107 201.771 29.743 201.51 29.4443 201.174C29.1456 200.838 28.917 200.432 28.7583 199.956C28.5996 199.48 28.5203 198.943 28.5203 198.346C28.5203 197.758 28.6043 197.226 28.7723 196.75C28.9403 196.265 29.1783 195.854 29.4863 195.518C29.7943 195.173 30.163 194.911 30.5923 194.734C31.031 194.547 31.5163 194.454 32.0483 194.454C32.5896 194.454 33.075 194.547 33.5043 194.734C33.9336 194.911 34.2976 195.168 34.5963 195.504C34.9043 195.831 35.1376 196.232 35.2963 196.708C35.455 197.175 35.5343 197.702 35.5343 198.29C35.5343 198.887 35.4503 199.429 35.2823 199.914C35.1236 200.399 34.8903 200.815 34.5823 201.16C34.2836 201.496 33.915 201.757 33.4763 201.944C33.0376 202.131 32.5476 202.224 32.0063 202.224ZM32.0203 201.216C32.4123 201.216 32.7483 201.146 33.0283 201.006C33.3083 200.857 33.537 200.656 33.7143 200.404C33.901 200.143 34.0363 199.835 34.1203 199.48C34.2043 199.125 34.2463 198.738 34.2463 198.318C34.2463 197.898 34.2043 197.515 34.1203 197.17C34.0363 196.815 33.901 196.512 33.7143 196.26C33.537 196.008 33.3083 195.812 33.0283 195.672C32.7483 195.532 32.4123 195.462 32.0203 195.462C31.6283 195.462 31.2923 195.532 31.0123 195.672C30.7416 195.812 30.513 196.008 30.3263 196.26C30.149 196.512 30.0183 196.815 29.9343 197.17C29.8503 197.515 29.8083 197.898 29.8083 198.318C29.8083 198.738 29.8503 199.125 29.9343 199.48C30.0183 199.835 30.149 200.143 30.3263 200.404C30.5036 200.656 30.7323 200.857 31.0123 201.006C31.2923 201.146 31.6283 201.216 32.0203 201.216ZM38.7398 195.714H36.2058V194.678H42.4638V195.714H39.9578V202H38.7398V195.714ZM43.5923 194.678H44.7963V195.714C45.095 195.303 45.4403 194.991 45.8323 194.776C46.2336 194.561 46.7003 194.454 47.2323 194.454C47.7456 194.454 48.1936 194.547 48.5763 194.734C48.9683 194.921 49.2903 195.182 49.5423 195.518C49.8036 195.854 49.995 196.26 50.1163 196.736C50.247 197.203 50.3123 197.721 50.3123 198.29C50.3123 198.897 50.2376 199.443 50.0883 199.928C49.939 200.413 49.7243 200.829 49.4443 201.174C49.1643 201.51 48.8236 201.771 48.4223 201.958C48.0303 202.135 47.587 202.224 47.0923 202.224C46.6816 202.224 46.2756 202.145 45.8743 201.986C45.4823 201.818 45.1276 201.524 44.8103 201.104V204.716H43.5923V194.678ZM44.7963 198.542C44.7963 199.018 44.8476 199.424 44.9503 199.76C45.0623 200.096 45.2116 200.376 45.3983 200.6C45.585 200.815 45.809 200.973 46.0703 201.076C46.3316 201.169 46.6163 201.216 46.9243 201.216C47.223 201.216 47.4983 201.165 47.7503 201.062C48.0116 200.959 48.2356 200.791 48.4223 200.558C48.609 200.325 48.7536 200.026 48.8563 199.662C48.9683 199.289 49.0243 198.836 49.0243 198.304C49.0243 197.763 48.9636 197.31 48.8423 196.946C48.7303 196.582 48.581 196.293 48.3943 196.078C48.2076 195.854 47.993 195.695 47.7503 195.602C47.517 195.509 47.2743 195.462 47.0223 195.462C46.705 195.462 46.411 195.513 46.1403 195.616C45.8696 195.719 45.6316 195.877 45.4263 196.092C45.2303 196.297 45.0763 196.563 44.9643 196.89C44.8523 197.207 44.7963 197.581 44.7963 198.01V198.542ZM51.7388 203.526C51.8601 203.573 51.9954 203.61 52.1448 203.638C52.2941 203.675 52.4388 203.694 52.5788 203.694C52.8681 203.694 53.0921 203.615 53.2508 203.456C53.4188 203.297 53.5914 203.008 53.7688 202.588L54.0768 201.846L50.9828 194.678H52.3968L54.6928 200.446L56.7788 194.678H58.1228L54.9588 202.686C54.8281 203.013 54.6928 203.302 54.5528 203.554C54.4221 203.806 54.2728 204.016 54.1048 204.184C53.9368 204.361 53.7408 204.492 53.5168 204.576C53.3021 204.669 53.0501 204.716 52.7608 204.716C52.4808 204.716 52.2474 204.697 52.0608 204.66C51.8741 204.623 51.6874 204.571 51.5008 204.506L51.7388 203.526ZM64.8431 194.678V200.964H65.6971V203.96H64.5911V202H59.1171V203.96H58.0111V200.964H58.7251C58.8931 200.805 59.0471 200.595 59.1871 200.334C59.3271 200.073 59.4531 199.751 59.5651 199.368C59.6771 198.976 59.7751 198.514 59.8591 197.982C59.9524 197.45 60.0318 196.834 60.0971 196.134L60.2231 194.678H64.8431ZM61.1751 196.792C61.0631 197.912 60.9091 198.803 60.7131 199.466C60.5264 200.129 60.3071 200.628 60.0551 200.964H63.6251V195.672H61.2871L61.1751 196.792ZM68.0522 194.678V197.66H71.9022V194.678H73.1202V202H71.9022V198.696H68.0522V202H66.8342V194.678H68.0522ZM81.0029 202H79.8549V196.484L76.1169 202H74.9689V194.678H76.1029V200.208L79.8409 194.678H81.0029V202ZM82.8576 202V194.678H84.0616V197.856H84.5516C84.7289 197.856 84.8829 197.837 85.0136 197.8C85.1536 197.763 85.2796 197.702 85.3916 197.618C85.5036 197.525 85.6063 197.408 85.6996 197.268C85.7929 197.128 85.8909 196.951 85.9936 196.736L86.4136 195.868C86.5163 195.653 86.6189 195.471 86.7216 195.322C86.8336 195.173 86.9549 195.051 87.0856 194.958C87.2256 194.855 87.3843 194.785 87.5616 194.748C87.7389 194.701 87.9489 194.678 88.1916 194.678C88.3223 194.678 88.4436 194.687 88.5556 194.706C88.6769 194.725 88.7656 194.743 88.8216 194.762L88.6956 195.7C88.6676 195.681 88.6116 195.667 88.5276 195.658C88.4436 195.649 88.3503 195.644 88.2476 195.644C88.0049 195.644 87.8229 195.7 87.7016 195.812C87.5896 195.915 87.4823 196.083 87.3796 196.316L86.9736 197.198C86.8616 197.459 86.7309 197.674 86.5816 197.842C86.4416 198.001 86.2596 198.131 86.0356 198.234C86.2316 198.309 86.4043 198.416 86.5536 198.556C86.7029 198.696 86.8616 198.887 87.0296 199.13L88.9476 202H87.5476L85.8676 199.48C85.6996 199.228 85.5316 199.041 85.3636 198.92C85.1956 198.799 84.9576 198.738 84.6496 198.738H84.0616V202H82.8576ZM92.9282 202.224C92.3775 202.224 91.8875 202.135 91.4582 201.958C91.0289 201.771 90.6649 201.51 90.3662 201.174C90.0675 200.838 89.8389 200.432 89.6802 199.956C89.5215 199.48 89.4422 198.943 89.4422 198.346C89.4422 197.758 89.5262 197.226 89.6942 196.75C89.8622 196.265 90.1002 195.854 90.4082 195.518C90.7162 195.173 91.0849 194.911 91.5142 194.734C91.9529 194.547 92.4382 194.454 92.9702 194.454C93.5115 194.454 93.9969 194.547 94.4262 194.734C94.8555 194.911 95.2195 195.168 95.5182 195.504C95.8262 195.831 96.0595 196.232 96.2182 196.708C96.3769 197.175 96.4562 197.702 96.4562 198.29C96.4562 198.887 96.3722 199.429 96.2042 199.914C96.0455 200.399 95.8122 200.815 95.5042 201.16C95.2055 201.496 94.8369 201.757 94.3982 201.944C93.9595 202.131 93.4695 202.224 92.9282 202.224ZM92.9422 201.216C93.3342 201.216 93.6702 201.146 93.9502 201.006C94.2302 200.857 94.4589 200.656 94.6362 200.404C94.8229 200.143 94.9582 199.835 95.0422 199.48C95.1262 199.125 95.1682 198.738 95.1682 198.318C95.1682 197.898 95.1262 197.515 95.0422 197.17C94.9582 196.815 94.8229 196.512 94.6362 196.26C94.4589 196.008 94.2302 195.812 93.9502 195.672C93.6702 195.532 93.3342 195.462 92.9422 195.462C92.5502 195.462 92.2142 195.532 91.9342 195.672C91.6635 195.812 91.4349 196.008 91.2482 196.26C91.0709 196.512 90.9402 196.815 90.8562 197.17C90.7722 197.515 90.7302 197.898 90.7302 198.318C90.7302 198.738 90.7722 199.125 90.8562 199.48C90.9402 199.835 91.0709 200.143 91.2482 200.404C91.4255 200.656 91.6542 200.857 91.9342 201.006C92.2142 201.146 92.5502 201.216 92.9422 201.216ZM98.0744 194.678H101.238C101.789 194.678 102.242 194.729 102.596 194.832C102.96 194.935 103.245 195.075 103.45 195.252C103.665 195.429 103.814 195.63 103.898 195.854C103.982 196.078 104.024 196.311 104.024 196.554C104.024 196.937 103.94 197.268 103.772 197.548C103.614 197.819 103.343 198.033 102.96 198.192C103.39 198.332 103.712 198.551 103.926 198.85C104.15 199.149 104.262 199.499 104.262 199.9C104.262 200.199 104.216 200.474 104.122 200.726C104.038 200.978 103.884 201.202 103.66 201.398C103.446 201.585 103.152 201.734 102.778 201.846C102.414 201.949 101.948 202 101.378 202H98.0744V194.678ZM101.294 197.8C101.826 197.8 102.209 197.707 102.442 197.52C102.685 197.333 102.806 197.067 102.806 196.722C102.806 196.367 102.68 196.101 102.428 195.924C102.186 195.737 101.784 195.644 101.224 195.644H99.2924V197.8H101.294ZM101.378 201.02C101.985 201.02 102.41 200.927 102.652 200.74C102.895 200.544 103.016 200.259 103.016 199.886C103.016 199.513 102.886 199.223 102.624 199.018C102.363 198.803 101.952 198.696 101.392 198.696H99.2924V201.02H101.378ZM20.924 210.678H24.088C24.6387 210.678 25.0913 210.729 25.446 210.832C25.81 210.935 26.0947 211.075 26.3 211.252C26.5147 211.429 26.664 211.63 26.748 211.854C26.832 212.078 26.874 212.311 26.874 212.554C26.874 212.937 26.79 213.268 26.622 213.548C26.4633 213.819 26.1927 214.033 25.81 214.192C26.2393 214.332 26.5613 214.551 26.776 214.85C27 215.149 27.112 215.499 27.112 215.9C27.112 216.199 27.0653 216.474 26.972 216.726C26.888 216.978 26.734 217.202 26.51 217.398C26.2953 217.585 26.0013 217.734 25.628 217.846C25.264 217.949 24.7973 218 24.228 218H20.924V210.678ZM24.144 213.8C24.676 213.8 25.0587 213.707 25.292 213.52C25.5347 213.333 25.656 213.067 25.656 212.722C25.656 212.367 25.53 212.101 25.278 211.924C25.0353 211.737 24.634 211.644 24.074 211.644H22.142V213.8H24.144ZM24.228 217.02C24.8347 217.02 25.2593 216.927 25.502 216.74C25.7447 216.544 25.866 216.259 25.866 215.886C25.866 215.513 25.7353 215.223 25.474 215.018C25.2127 214.803 24.802 214.696 24.242 214.696H22.142V217.02H24.228ZM41.0501 218H31.6701V210.678H32.8881V216.964H35.7581V210.678H36.9761V216.964H39.8321V210.678H41.0501V218ZM44.7007 211.714H42.1667V210.678H48.4247V211.714H45.9187V218H44.7007V211.714ZM54.0612 217.006C53.7999 217.323 53.4686 217.599 53.0672 217.832C52.6659 218.056 52.1666 218.168 51.5692 218.168C51.2052 218.168 50.8692 218.121 50.5612 218.028C50.2626 217.944 50.0012 217.813 49.7772 217.636C49.5626 217.449 49.3946 217.221 49.2732 216.95C49.1519 216.679 49.0912 216.362 49.0912 215.998C49.0912 215.494 49.1939 215.083 49.3992 214.766C49.6139 214.439 49.8939 214.187 50.2392 214.01C50.5939 213.823 50.9906 213.697 51.4292 213.632C51.8679 213.557 52.3206 213.511 52.7872 213.492L54.0332 213.45V213.156C54.0332 212.54 53.9026 212.097 53.6412 211.826C53.3799 211.555 52.9552 211.42 52.3672 211.42C51.7886 211.42 51.3639 211.518 51.0932 211.714C50.8226 211.901 50.6452 212.162 50.5612 212.498L49.4552 212.372C49.5859 211.709 49.8986 211.229 50.3932 210.93C50.8879 210.622 51.5599 210.468 52.4092 210.468C52.9319 210.468 53.3706 210.533 53.7252 210.664C54.0892 210.785 54.3832 210.963 54.6072 211.196C54.8312 211.429 54.9899 211.719 55.0832 212.064C55.1859 212.409 55.2372 212.797 55.2372 213.226V218H54.0612V217.006ZM54.0332 214.318L52.8712 214.36C52.3766 214.379 51.9659 214.425 51.6392 214.5C51.3126 214.575 51.0512 214.677 50.8552 214.808C50.6686 214.939 50.5332 215.102 50.4492 215.298C50.3746 215.485 50.3372 215.709 50.3372 215.97C50.3372 216.334 50.4446 216.628 50.6592 216.852C50.8832 217.067 51.2472 217.174 51.7512 217.174C52.4699 217.174 53.0299 216.997 53.4312 216.642C53.8326 216.287 54.0332 215.802 54.0332 215.186V214.318ZM58.8784 211.714H56.3444V210.678H62.6024V211.714H60.0964V218H58.8784V211.714ZM69.7702 215.97C69.6489 216.67 69.3362 217.221 68.8322 217.622C68.3376 218.023 67.6236 218.224 66.6902 218.224C65.5889 218.224 64.7442 217.888 64.1562 217.216C63.5682 216.535 63.2742 215.592 63.2742 214.388C63.2742 213.763 63.3582 213.207 63.5262 212.722C63.6942 212.227 63.9276 211.812 64.2262 211.476C64.5342 211.14 64.8982 210.888 65.3182 210.72C65.7382 210.543 66.1956 210.454 66.6902 210.454C67.2502 210.454 67.7309 210.543 68.1322 210.72C68.5336 210.897 68.8602 211.145 69.1122 211.462C69.3736 211.779 69.5649 212.157 69.6862 212.596C69.8169 213.035 69.8822 213.511 69.8822 214.024V214.626H64.5062C64.5062 215.009 64.5529 215.359 64.6462 215.676C64.7489 215.993 64.8889 216.269 65.0662 216.502C65.2529 216.735 65.4816 216.917 65.7522 217.048C66.0229 217.179 66.3356 217.244 66.6902 217.244C67.2969 217.244 67.7402 217.132 68.0202 216.908C68.3002 216.675 68.4916 216.362 68.5942 215.97H69.7702ZM68.6642 213.716C68.6642 213.025 68.5102 212.47 68.2022 212.05C67.8942 211.621 67.3856 211.406 66.6762 211.406C66.0322 211.406 65.5282 211.607 65.1642 212.008C64.8002 212.4 64.5902 212.969 64.5342 213.716H68.6642ZM71.2258 216.334H72.5138L71.7858 219.358H70.8058L71.2258 216.334ZM27.21 231.55C27.0887 232.381 26.7713 233.034 26.258 233.51C25.7447 233.986 25.0213 234.224 24.088 234.224C23.5373 234.224 23.0473 234.135 22.618 233.958C22.198 233.781 21.8433 233.524 21.554 233.188C21.274 232.852 21.0593 232.446 20.91 231.97C20.77 231.494 20.7 230.957 20.7 230.36C20.7 229.772 20.7793 229.24 20.938 228.764C21.0967 228.279 21.3253 227.868 21.624 227.532C21.9227 227.187 22.2867 226.921 22.716 226.734C23.1453 226.547 23.6307 226.454 24.172 226.454C25.04 226.454 25.712 226.669 26.188 227.098C26.664 227.518 26.9673 228.101 27.098 228.848L25.88 229.072C25.8333 228.839 25.768 228.624 25.684 228.428C25.6093 228.232 25.502 228.064 25.362 227.924C25.222 227.775 25.0493 227.663 24.844 227.588C24.648 227.504 24.41 227.462 24.13 227.462C23.7473 227.462 23.4207 227.537 23.15 227.686C22.8793 227.826 22.6553 228.027 22.478 228.288C22.31 228.549 22.184 228.857 22.1 229.212C22.0253 229.557 21.988 229.931 21.988 230.332C21.988 230.743 22.0253 231.125 22.1 231.48C22.1747 231.825 22.296 232.129 22.464 232.39C22.632 232.642 22.8513 232.843 23.122 232.992C23.3927 233.141 23.724 233.216 24.116 233.216C24.704 233.216 25.138 233.067 25.418 232.768C25.7073 232.469 25.894 232.063 25.978 231.55H27.21ZM28.7443 226.678H31.9083C32.459 226.678 32.9116 226.729 33.2663 226.832C33.6303 226.935 33.915 227.075 34.1203 227.252C34.335 227.429 34.4843 227.63 34.5683 227.854C34.6523 228.078 34.6943 228.311 34.6943 228.554C34.6943 228.937 34.6103 229.268 34.4423 229.548C34.2836 229.819 34.013 230.033 33.6303 230.192C34.0596 230.332 34.3816 230.551 34.5963 230.85C34.8203 231.149 34.9323 231.499 34.9323 231.9C34.9323 232.199 34.8856 232.474 34.7923 232.726C34.7083 232.978 34.5543 233.202 34.3303 233.398C34.1156 233.585 33.8216 233.734 33.4483 233.846C33.0843 233.949 32.6176 234 32.0483 234H28.7443V226.678ZM31.9643 229.8C32.4963 229.8 32.879 229.707 33.1123 229.52C33.355 229.333 33.4763 229.067 33.4763 228.722C33.4763 228.367 33.3503 228.101 33.0983 227.924C32.8556 227.737 32.4543 227.644 31.8943 227.644H29.9623V229.8H31.9643ZM32.0483 233.02C32.655 233.02 33.0796 232.927 33.3223 232.74C33.565 232.544 33.6863 232.259 33.6863 231.886C33.6863 231.513 33.5556 231.223 33.2943 231.018C33.033 230.803 32.6223 230.696 32.0623 230.696H29.9623V233.02H32.0483ZM39.6352 234.224C39.0846 234.224 38.5946 234.135 38.1652 233.958C37.7359 233.771 37.3719 233.51 37.0732 233.174C36.7746 232.838 36.5459 232.432 36.3872 231.956C36.2286 231.48 36.1492 230.943 36.1492 230.346C36.1492 229.758 36.2332 229.226 36.4012 228.75C36.5692 228.265 36.8072 227.854 37.1152 227.518C37.4232 227.173 37.7919 226.911 38.2212 226.734C38.6599 226.547 39.1452 226.454 39.6772 226.454C40.2186 226.454 40.7039 226.547 41.1332 226.734C41.5626 226.911 41.9266 227.168 42.2252 227.504C42.5332 227.831 42.7666 228.232 42.9252 228.708C43.0839 229.175 43.1632 229.702 43.1632 230.29C43.1632 230.887 43.0792 231.429 42.9112 231.914C42.7526 232.399 42.5192 232.815 42.2112 233.16C41.9126 233.496 41.5439 233.757 41.1052 233.944C40.6666 234.131 40.1766 234.224 39.6352 234.224ZM39.6492 233.216C40.0412 233.216 40.3772 233.146 40.6572 233.006C40.9372 232.857 41.1659 232.656 41.3432 232.404C41.5299 232.143 41.6652 231.835 41.7492 231.48C41.8332 231.125 41.8752 230.738 41.8752 230.318C41.8752 229.898 41.8332 229.515 41.7492 229.17C41.6652 228.815 41.5299 228.512 41.3432 228.26C41.1659 228.008 40.9372 227.812 40.6572 227.672C40.3772 227.532 40.0412 227.462 39.6492 227.462C39.2572 227.462 38.9212 227.532 38.6412 227.672C38.3706 227.812 38.1419 228.008 37.9552 228.26C37.7779 228.512 37.6472 228.815 37.5632 229.17C37.4792 229.515 37.4372 229.898 37.4372 230.318C37.4372 230.738 37.4792 231.125 37.5632 231.48C37.6472 231.835 37.7779 232.143 37.9552 232.404C38.1326 232.656 38.3612 232.857 38.6412 233.006C38.9212 233.146 39.2572 233.216 39.6492 233.216ZM50.8154 234H49.6674V228.484L45.9294 234H44.7814V226.678H45.9154V232.208L49.6534 226.678H50.8154V234ZM59.0493 234.224C58.4986 234.224 58.0086 234.135 57.5793 233.958C57.1499 233.771 56.7859 233.51 56.4873 233.174C56.1886 232.838 55.9599 232.432 55.8013 231.956C55.6426 231.48 55.5633 230.943 55.5633 230.346C55.5633 229.758 55.6473 229.226 55.8153 228.75C55.9833 228.265 56.2213 227.854 56.5293 227.518C56.8373 227.173 57.2059 226.911 57.6353 226.734C58.0739 226.547 58.5593 226.454 59.0913 226.454C59.6326 226.454 60.1179 226.547 60.5473 226.734C60.9766 226.911 61.3406 227.168 61.6393 227.504C61.9473 227.831 62.1806 228.232 62.3393 228.708C62.4979 229.175 62.5773 229.702 62.5773 230.29C62.5773 230.887 62.4933 231.429 62.3253 231.914C62.1666 232.399 61.9333 232.815 61.6253 233.16C61.3266 233.496 60.9579 233.757 60.5193 233.944C60.0806 234.131 59.5906 234.224 59.0493 234.224ZM59.0633 233.216C59.4553 233.216 59.7913 233.146 60.0713 233.006C60.3513 232.857 60.5799 232.656 60.7573 232.404C60.9439 232.143 61.0793 231.835 61.1633 231.48C61.2473 231.125 61.2893 230.738 61.2893 230.318C61.2893 229.898 61.2473 229.515 61.1633 229.17C61.0793 228.815 60.9439 228.512 60.7573 228.26C60.5799 228.008 60.3513 227.812 60.0713 227.672C59.7913 227.532 59.4553 227.462 59.0633 227.462C58.6713 227.462 58.3353 227.532 58.0553 227.672C57.7846 227.812 57.5559 228.008 57.3693 228.26C57.1919 228.512 57.0613 228.815 56.9773 229.17C56.8933 229.515 56.8513 229.898 56.8513 230.318C56.8513 230.738 56.8933 231.125 56.9773 231.48C57.0613 231.835 57.1919 232.143 57.3693 232.404C57.5466 232.656 57.7753 232.857 58.0553 233.006C58.3353 233.146 58.6713 233.216 59.0633 233.216ZM65.7827 227.714H63.2487V226.678H69.5067V227.714H67.0007V234H65.7827V227.714ZM76.0404 226.678V232.964H76.8944V235.96H75.7884V234H70.3144V235.96H69.2084V232.964H69.9224C70.0904 232.805 70.2444 232.595 70.3844 232.334C70.5244 232.073 70.6504 231.751 70.7624 231.368C70.8744 230.976 70.9724 230.514 71.0564 229.982C71.1497 229.45 71.229 228.834 71.2944 228.134L71.4204 226.678H76.0404ZM72.3724 228.792C72.2604 229.912 72.1064 230.803 71.9104 231.466C71.7237 232.129 71.5044 232.628 71.2524 232.964H74.8224V227.672H72.4844L72.3724 228.792ZM84.3034 231.97C84.1821 232.67 83.8694 233.221 83.3654 233.622C82.8708 234.023 82.1568 234.224 81.2234 234.224C80.1221 234.224 79.2774 233.888 78.6894 233.216C78.1014 232.535 77.8074 231.592 77.8074 230.388C77.8074 229.763 77.8914 229.207 78.0594 228.722C78.2274 228.227 78.4608 227.812 78.7594 227.476C79.0674 227.14 79.4314 226.888 79.8514 226.72C80.2714 226.543 80.7288 226.454 81.2234 226.454C81.7834 226.454 82.2641 226.543 82.6654 226.72C83.0668 226.897 83.3934 227.145 83.6454 227.462C83.9068 227.779 84.0981 228.157 84.2194 228.596C84.3501 229.035 84.4154 229.511 84.4154 230.024V230.626H79.0394C79.0394 231.009 79.0861 231.359 79.1794 231.676C79.2821 231.993 79.4221 232.269 79.5994 232.502C79.7861 232.735 80.0148 232.917 80.2854 233.048C80.5561 233.179 80.8688 233.244 81.2234 233.244C81.8301 233.244 82.2734 233.132 82.5534 232.908C82.8334 232.675 83.0248 232.362 83.1274 231.97H84.3034ZM83.1974 229.716C83.1974 229.025 83.0434 228.47 82.7354 228.05C82.4274 227.621 81.9188 227.406 81.2094 227.406C80.5654 227.406 80.0614 227.607 79.6974 228.008C79.3334 228.4 79.1234 228.969 79.0674 229.716H83.1974ZM90.6157 227.672H88.1937L87.8857 230.192C87.8017 230.892 87.685 231.489 87.5357 231.984C87.3863 232.469 87.195 232.871 86.9617 233.188C86.7283 233.496 86.4483 233.72 86.1217 233.86C85.8043 234 85.431 234.07 85.0017 234.07H84.7637V233.048H84.9037C85.1463 233.048 85.361 233.001 85.5477 232.908C85.7437 232.815 85.9163 232.647 86.0657 232.404C86.2243 232.161 86.3597 231.825 86.4717 231.396C86.5837 230.967 86.677 230.421 86.7517 229.758L87.1017 226.678H91.8337V234H90.6157V227.672ZM94.9037 226.678V229.366H97.0877C98.0024 229.366 98.6651 229.576 99.0757 229.996C99.4864 230.407 99.6917 230.957 99.6917 231.648C99.6917 232.348 99.4631 232.917 99.0057 233.356C98.5577 233.785 97.8531 234 96.8917 234H93.6857V226.678H94.9037ZM100.672 226.678H101.89V234H100.672V226.678ZM94.9037 232.992H96.9477C97.4611 232.992 97.8344 232.88 98.0677 232.656C98.3011 232.423 98.4177 232.096 98.4177 231.676C98.4177 231.247 98.3057 230.92 98.0817 230.696C97.8671 230.472 97.4704 230.36 96.8917 230.36H94.9037V232.992ZM20.938 242.678H22.142V243.714C22.4407 243.303 22.786 242.991 23.178 242.776C23.5793 242.561 24.046 242.454 24.578 242.454C25.0913 242.454 25.5393 242.547 25.922 242.734C26.314 242.921 26.636 243.182 26.888 243.518C27.1493 243.854 27.3407 244.26 27.462 244.736C27.5927 245.203 27.658 245.721 27.658 246.29C27.658 246.897 27.5833 247.443 27.434 247.928C27.2847 248.413 27.07 248.829 26.79 249.174C26.51 249.51 26.1693 249.771 25.768 249.958C25.376 250.135 24.9327 250.224 24.438 250.224C24.0273 250.224 23.6213 250.145 23.22 249.986C22.828 249.818 22.4733 249.524 22.156 249.104V252.716H20.938V242.678ZM22.142 246.542C22.142 247.018 22.1933 247.424 22.296 247.76C22.408 248.096 22.5573 248.376 22.744 248.6C22.9307 248.815 23.1547 248.973 23.416 249.076C23.6773 249.169 23.962 249.216 24.27 249.216C24.5687 249.216 24.844 249.165 25.096 249.062C25.3573 248.959 25.5813 248.791 25.768 248.558C25.9547 248.325 26.0993 248.026 26.202 247.662C26.314 247.289 26.37 246.836 26.37 246.304C26.37 245.763 26.3093 245.31 26.188 244.946C26.076 244.582 25.9267 244.293 25.74 244.078C25.5533 243.854 25.3387 243.695 25.096 243.602C24.8627 243.509 24.62 243.462 24.368 243.462C24.0507 243.462 23.7567 243.513 23.486 243.616C23.2153 243.719 22.9773 243.877 22.772 244.092C22.576 244.297 22.422 244.563 22.31 244.89C22.198 245.207 22.142 245.581 22.142 246.01V246.542ZM33.7995 249.006C33.5382 249.323 33.2068 249.599 32.8055 249.832C32.4042 250.056 31.9048 250.168 31.3075 250.168C30.9435 250.168 30.6075 250.121 30.2995 250.028C30.0008 249.944 29.7395 249.813 29.5155 249.636C29.3008 249.449 29.1328 249.221 29.0115 248.95C28.8902 248.679 28.8295 248.362 28.8295 247.998C28.8295 247.494 28.9322 247.083 29.1375 246.766C29.3522 246.439 29.6322 246.187 29.9775 246.01C30.3322 245.823 30.7288 245.697 31.1675 245.632C31.6062 245.557 32.0588 245.511 32.5255 245.492L33.7715 245.45V245.156C33.7715 244.54 33.6408 244.097 33.3795 243.826C33.1182 243.555 32.6935 243.42 32.1055 243.42C31.5268 243.42 31.1022 243.518 30.8315 243.714C30.5608 243.901 30.3835 244.162 30.2995 244.498L29.1935 244.372C29.3242 243.709 29.6368 243.229 30.1315 242.93C30.6262 242.622 31.2982 242.468 32.1475 242.468C32.6702 242.468 33.1088 242.533 33.4635 242.664C33.8275 242.785 34.1215 242.963 34.3455 243.196C34.5695 243.429 34.7282 243.719 34.8215 244.064C34.9242 244.409 34.9755 244.797 34.9755 245.226V250H33.7995V249.006ZM33.7715 246.318L32.6095 246.36C32.1148 246.379 31.7042 246.425 31.3775 246.5C31.0508 246.575 30.7895 246.677 30.5935 246.808C30.4068 246.939 30.2715 247.102 30.1875 247.298C30.1128 247.485 30.0755 247.709 30.0755 247.97C30.0755 248.334 30.1828 248.628 30.3975 248.852C30.6215 249.067 30.9855 249.174 31.4895 249.174C32.2082 249.174 32.7682 248.997 33.1695 248.642C33.5708 248.287 33.7715 247.802 33.7715 247.186V246.318ZM39.5547 242.454C40.0494 242.454 40.4741 242.505 40.8287 242.608C41.1927 242.711 41.4914 242.855 41.7247 243.042C41.9674 243.219 42.1447 243.429 42.2567 243.672C42.3687 243.905 42.4247 244.162 42.4247 244.442C42.4247 244.853 42.3127 245.207 42.0887 245.506C41.8647 245.795 41.5801 246.005 41.2347 246.136C41.6454 246.267 41.9767 246.481 42.2287 246.78C42.4807 247.069 42.6067 247.461 42.6067 247.956C42.6067 248.283 42.5461 248.581 42.4247 248.852C42.3034 249.123 42.1121 249.361 41.8507 249.566C41.5987 249.771 41.2721 249.93 40.8707 250.042C40.4787 250.154 40.0121 250.21 39.4707 250.21C38.5374 250.21 37.7954 250.028 37.2447 249.664C36.6941 249.291 36.3907 248.689 36.3347 247.858H37.5107C37.5854 248.353 37.7861 248.707 38.1127 248.922C38.4394 249.127 38.9107 249.23 39.5267 249.23C40.2081 249.23 40.6794 249.113 40.9407 248.88C41.2114 248.637 41.3467 248.325 41.3467 247.942C41.3467 247.522 41.2067 247.205 40.9267 246.99C40.6467 246.775 40.2501 246.668 39.7367 246.668H38.2667V245.772H39.7927C40.2501 245.772 40.5954 245.669 40.8287 245.464C41.0714 245.249 41.1927 244.96 41.1927 244.596C41.1927 244.232 41.0574 243.952 40.7867 243.756C40.5161 243.551 40.0961 243.448 39.5267 243.448C39.2001 243.448 38.9247 243.476 38.7007 243.532C38.4767 243.579 38.2901 243.653 38.1407 243.756C38.0007 243.859 37.8841 243.989 37.7907 244.148C37.6974 244.297 37.6181 244.47 37.5527 244.666L36.4467 244.47C36.5214 244.181 36.6287 243.915 36.7687 243.672C36.9181 243.42 37.1141 243.205 37.3567 243.028C37.5994 242.851 37.8981 242.711 38.2527 242.608C38.6167 242.505 39.0507 242.454 39.5547 242.454ZM44.1802 242.678H45.3842V243.714C45.6829 243.303 46.0282 242.991 46.4202 242.776C46.8215 242.561 47.2882 242.454 47.8202 242.454C48.3335 242.454 48.7815 242.547 49.1642 242.734C49.5562 242.921 49.8782 243.182 50.1302 243.518C50.3915 243.854 50.5829 244.26 50.7042 244.736C50.8349 245.203 50.9002 245.721 50.9002 246.29C50.9002 246.897 50.8255 247.443 50.6762 247.928C50.5269 248.413 50.3122 248.829 50.0322 249.174C49.7522 249.51 49.4115 249.771 49.0102 249.958C48.6182 250.135 48.1749 250.224 47.6802 250.224C47.2695 250.224 46.8635 250.145 46.4622 249.986C46.0702 249.818 45.7155 249.524 45.3982 249.104V252.716H44.1802V242.678ZM45.3842 246.542C45.3842 247.018 45.4355 247.424 45.5382 247.76C45.6502 248.096 45.7995 248.376 45.9862 248.6C46.1729 248.815 46.3969 248.973 46.6582 249.076C46.9195 249.169 47.2042 249.216 47.5122 249.216C47.8109 249.216 48.0862 249.165 48.3382 249.062C48.5995 248.959 48.8235 248.791 49.0102 248.558C49.1969 248.325 49.3415 248.026 49.4442 247.662C49.5562 247.289 49.6122 246.836 49.6122 246.304C49.6122 245.763 49.5515 245.31 49.4302 244.946C49.3182 244.582 49.1689 244.293 48.9822 244.078C48.7955 243.854 48.5809 243.695 48.3382 243.602C48.1049 243.509 47.8622 243.462 47.6102 243.462C47.2929 243.462 46.9989 243.513 46.7282 243.616C46.4575 243.719 46.2195 243.877 46.0142 244.092C45.8182 244.297 45.6642 244.563 45.5522 244.89C45.4402 245.207 45.3842 245.581 45.3842 246.01V246.542ZM57.0417 249.006C56.7804 249.323 56.449 249.599 56.0477 249.832C55.6464 250.056 55.147 250.168 54.5497 250.168C54.1857 250.168 53.8497 250.121 53.5417 250.028C53.243 249.944 52.9817 249.813 52.7577 249.636C52.543 249.449 52.375 249.221 52.2537 248.95C52.1324 248.679 52.0717 248.362 52.0717 247.998C52.0717 247.494 52.1744 247.083 52.3797 246.766C52.5944 246.439 52.8744 246.187 53.2197 246.01C53.5744 245.823 53.971 245.697 54.4097 245.632C54.8484 245.557 55.301 245.511 55.7677 245.492L57.0137 245.45V245.156C57.0137 244.54 56.883 244.097 56.6217 243.826C56.3604 243.555 55.9357 243.42 55.3477 243.42C54.769 243.42 54.3444 243.518 54.0737 243.714C53.803 243.901 53.6257 244.162 53.5417 244.498L52.4357 244.372C52.5664 243.709 52.879 243.229 53.3737 242.93C53.8684 242.622 54.5404 242.468 55.3897 242.468C55.9124 242.468 56.351 242.533 56.7057 242.664C57.0697 242.785 57.3637 242.963 57.5877 243.196C57.8117 243.429 57.9704 243.719 58.0637 244.064C58.1664 244.409 58.2177 244.797 58.2177 245.226V250H57.0417V249.006ZM57.0137 246.318L55.8517 246.36C55.357 246.379 54.9464 246.425 54.6197 246.5C54.293 246.575 54.0317 246.677 53.8357 246.808C53.649 246.939 53.5137 247.102 53.4297 247.298C53.355 247.485 53.3177 247.709 53.3177 247.97C53.3177 248.334 53.425 248.628 53.6397 248.852C53.8637 249.067 54.2277 249.174 54.7317 249.174C55.4504 249.174 56.0104 248.997 56.4117 248.642C56.813 248.287 57.0137 247.802 57.0137 247.186V246.318ZM63.5529 244.12C63.2822 244.12 63.0116 244.162 62.7409 244.246C62.4796 244.321 62.2416 244.451 62.0269 244.638C61.7749 244.853 61.5836 245.114 61.4529 245.422C61.3222 245.73 61.2569 246.066 61.2569 246.43C61.2569 247.279 61.4296 247.961 61.7749 248.474C62.1202 248.978 62.6756 249.23 63.4409 249.23C64.1409 249.23 64.6636 249.006 65.0089 248.558C65.3542 248.101 65.5269 247.461 65.5269 246.64C65.5269 244.96 64.8689 244.12 63.5529 244.12ZM66.0029 240.816L64.7009 241.054C63.9636 241.185 63.3942 241.343 62.9929 241.53C62.5916 241.717 62.2789 241.922 62.0549 242.146C61.5229 242.669 61.2056 243.471 61.1029 244.554C61.4016 244.078 61.7702 243.719 62.2089 243.476C62.6476 243.233 63.1609 243.112 63.7489 243.112C64.1969 243.112 64.6076 243.187 64.9809 243.336C65.3542 243.485 65.6762 243.709 65.9469 244.008C66.2269 244.297 66.4416 244.657 66.5909 245.086C66.7402 245.515 66.8149 246.015 66.8149 246.584C66.8149 247.116 66.7402 247.606 66.5909 248.054C66.4509 248.493 66.2362 248.875 65.9469 249.202C65.6669 249.529 65.3169 249.785 64.8969 249.972C64.4769 250.149 63.9869 250.238 63.4269 250.238C62.7829 250.238 62.2369 250.126 61.7889 249.902C61.3409 249.678 60.9769 249.37 60.6969 248.978C60.4169 248.577 60.2116 248.105 60.0809 247.564C59.9596 247.023 59.8989 246.435 59.8989 245.8C59.8989 245.212 59.9269 244.694 59.9829 244.246C60.0482 243.798 60.1416 243.401 60.2629 243.056C60.3842 242.711 60.5289 242.407 60.6969 242.146C60.8649 241.885 61.0562 241.647 61.2709 241.432C61.6162 241.077 62.0876 240.779 62.6849 240.536C63.2916 240.293 64.0009 240.107 64.8129 239.976L65.8629 239.794L66.0029 240.816ZM71.6958 250.224C71.1451 250.224 70.6551 250.135 70.2258 249.958C69.7964 249.771 69.4324 249.51 69.1338 249.174C68.8351 248.838 68.6064 248.432 68.4478 247.956C68.2891 247.48 68.2098 246.943 68.2098 246.346C68.2098 245.758 68.2938 245.226 68.4618 244.75C68.6298 244.265 68.8678 243.854 69.1758 243.518C69.4838 243.173 69.8524 242.911 70.2818 242.734C70.7204 242.547 71.2058 242.454 71.7378 242.454C72.2791 242.454 72.7644 242.547 73.1938 242.734C73.6231 242.911 73.9871 243.168 74.2858 243.504C74.5938 243.831 74.8271 244.232 74.9858 244.708C75.1444 245.175 75.2238 245.702 75.2238 246.29C75.2238 246.887 75.1398 247.429 74.9718 247.914C74.8131 248.399 74.5798 248.815 74.2718 249.16C73.9731 249.496 73.6044 249.757 73.1658 249.944C72.7271 250.131 72.2371 250.224 71.6958 250.224ZM71.7098 249.216C72.1018 249.216 72.4378 249.146 72.7178 249.006C72.9978 248.857 73.2264 248.656 73.4038 248.404C73.5904 248.143 73.7258 247.835 73.8098 247.48C73.8938 247.125 73.9358 246.738 73.9358 246.318C73.9358 245.898 73.8938 245.515 73.8098 245.17C73.7258 244.815 73.5904 244.512 73.4038 244.26C73.2264 244.008 72.9978 243.812 72.7178 243.672C72.4378 243.532 72.1018 243.462 71.7098 243.462C71.3178 243.462 70.9818 243.532 70.7018 243.672C70.4311 243.812 70.2024 244.008 70.0158 244.26C69.8384 244.512 69.7078 244.815 69.6238 245.17C69.5398 245.515 69.4978 245.898 69.4978 246.318C69.4978 246.738 69.5398 247.125 69.6238 247.48C69.7078 247.835 69.8384 248.143 70.0158 248.404C70.1931 248.656 70.4218 248.857 70.7018 249.006C70.9818 249.146 71.3178 249.216 71.7098 249.216ZM78.4292 243.714H75.8952V242.678H82.1532V243.714H79.6472V250H78.4292V243.714ZM83.2677 250V242.678H84.4718V245.856H84.9618C85.1391 245.856 85.2931 245.837 85.4238 245.8C85.5638 245.763 85.6898 245.702 85.8018 245.618C85.9138 245.525 86.0164 245.408 86.1098 245.268C86.2031 245.128 86.3011 244.951 86.4038 244.736L86.8238 243.868C86.9264 243.653 87.0291 243.471 87.1318 243.322C87.2438 243.173 87.3651 243.051 87.4958 242.958C87.6358 242.855 87.7944 242.785 87.9718 242.748C88.1491 242.701 88.3591 242.678 88.6018 242.678C88.7324 242.678 88.8538 242.687 88.9658 242.706C89.0871 242.725 89.1758 242.743 89.2318 242.762L89.1058 243.7C89.0778 243.681 89.0218 243.667 88.9378 243.658C88.8538 243.649 88.7604 243.644 88.6578 243.644C88.4151 243.644 88.2331 243.7 88.1118 243.812C87.9998 243.915 87.8924 244.083 87.7898 244.316L87.3838 245.198C87.2718 245.459 87.1411 245.674 86.9918 245.842C86.8518 246.001 86.6698 246.131 86.4458 246.234C86.6418 246.309 86.8144 246.416 86.9638 246.556C87.1131 246.696 87.2718 246.887 87.4398 247.13L89.3578 250H87.9578L86.2778 247.48C86.1098 247.228 85.9418 247.041 85.7738 246.92C85.6058 246.799 85.3678 246.738 85.0598 246.738H84.4718V250H83.2677ZM96.4111 250H95.2631V244.484L91.5251 250H90.3771V242.678H91.5111V248.208L95.2491 242.678H96.4111V250ZM98.3918 248.334H99.6798L98.9518 251.358H97.9718L98.3918 248.334ZM26.958 266H25.81V260.484L22.072 266H20.924V258.678H22.058V264.208L25.796 258.678H26.958V266ZM30.0307 258.678V261.66H33.8807V258.678H35.0987V266H33.8807V262.696H30.0307V266H28.8127V258.678H30.0307ZM42.0014 266H40.8394V262.738H40.4054C40.2188 262.738 40.0601 262.757 39.9294 262.794C39.8081 262.831 39.6914 262.892 39.5794 262.976C39.4768 263.06 39.3788 263.167 39.2854 263.298C39.1921 263.419 39.0894 263.564 38.9774 263.732L37.4794 266H36.1354L38.0814 263.13C38.2494 262.878 38.4128 262.687 38.5714 262.556C38.7394 262.416 38.9214 262.309 39.1174 262.234C38.9028 262.141 38.7208 262.029 38.5714 261.898C38.4314 261.767 38.2868 261.534 38.1374 261.198L37.7034 260.26C37.6008 260.055 37.5028 259.901 37.4094 259.798C37.3161 259.695 37.1528 259.644 36.9194 259.644C36.8168 259.644 36.7188 259.649 36.6254 259.658C36.5414 259.667 36.4854 259.681 36.4574 259.7L36.3454 258.762C36.4014 258.743 36.4854 258.725 36.5974 258.706C36.7094 258.687 36.8308 258.678 36.9614 258.678C37.2041 258.678 37.4141 258.701 37.5914 258.748C37.7688 258.795 37.9228 258.869 38.0534 258.972C38.1934 259.075 38.3148 259.21 38.4174 259.378C38.5294 259.537 38.6368 259.733 38.7394 259.966L39.0894 260.736C39.2761 261.156 39.4768 261.45 39.6914 261.618C39.9154 261.777 40.1908 261.856 40.5174 261.856H40.8394V258.678H42.0014V261.856H42.3094C42.6548 261.856 42.9254 261.772 43.1214 261.604C43.3268 261.436 43.5321 261.147 43.7374 260.736L44.1154 259.966C44.2088 259.77 44.3021 259.597 44.3954 259.448C44.4888 259.299 44.5914 259.173 44.7034 259.07C44.8154 258.967 44.9368 258.888 45.0674 258.832C45.2074 258.767 45.3754 258.72 45.5714 258.692C45.6368 258.683 45.7021 258.678 45.7674 258.678C45.8421 258.678 45.9214 258.678 46.0054 258.678C46.1174 258.687 46.2201 258.701 46.3134 258.72C46.4161 258.739 46.4814 258.753 46.5094 258.762L46.3974 259.7C46.3228 259.663 46.1688 259.644 45.9354 259.644C45.6554 259.644 45.4594 259.719 45.3474 259.868C45.2354 260.017 45.1094 260.241 44.9694 260.54L44.6614 261.198C44.5494 261.45 44.4188 261.66 44.2694 261.828C44.1294 261.987 43.9521 262.117 43.7374 262.22C43.9614 262.304 44.1621 262.439 44.3394 262.626C44.5261 262.813 44.7314 263.069 44.9554 263.396L46.6914 266H45.3194L43.6394 263.48C43.4714 263.228 43.3034 263.041 43.1354 262.92C42.9674 262.799 42.7294 262.738 42.4214 262.738H42.0014V266ZM53.7194 263.97C53.5981 264.67 53.2854 265.221 52.7814 265.622C52.2868 266.023 51.5728 266.224 50.6394 266.224C49.5381 266.224 48.6934 265.888 48.1054 265.216C47.5174 264.535 47.2234 263.592 47.2234 262.388C47.2234 261.763 47.3074 261.207 47.4754 260.722C47.6434 260.227 47.8768 259.812 48.1754 259.476C48.4834 259.14 48.8474 258.888 49.2674 258.72C49.6874 258.543 50.1448 258.454 50.6394 258.454C51.1994 258.454 51.6801 258.543 52.0814 258.72C52.4828 258.897 52.8094 259.145 53.0614 259.462C53.3228 259.779 53.5141 260.157 53.6354 260.596C53.7661 261.035 53.8314 261.511 53.8314 262.024V262.626H48.4554C48.4554 263.009 48.5021 263.359 48.5954 263.676C48.6981 263.993 48.8381 264.269 49.0154 264.502C49.2021 264.735 49.4308 264.917 49.7014 265.048C49.9721 265.179 50.2848 265.244 50.6394 265.244C51.2461 265.244 51.6894 265.132 51.9694 264.908C52.2494 264.675 52.4408 264.362 52.5434 263.97H53.7194ZM52.6134 261.716C52.6134 261.025 52.4594 260.47 52.1514 260.05C51.8434 259.621 51.3348 259.406 50.6254 259.406C49.9814 259.406 49.4774 259.607 49.1134 260.008C48.7494 260.4 48.5394 260.969 48.4834 261.716H52.6134ZM56.6498 258.678V261.66H60.4998V258.678H61.7178V266H60.4998V262.696H56.6498V266H55.4318V258.678H56.6498ZM69.8386 263.97C69.7172 264.67 69.4046 265.221 68.9006 265.622C68.4059 266.023 67.6919 266.224 66.7586 266.224C65.6572 266.224 64.8126 265.888 64.2246 265.216C63.6366 264.535 63.3426 263.592 63.3426 262.388C63.3426 261.763 63.4266 261.207 63.5946 260.722C63.7626 260.227 63.9959 259.812 64.2946 259.476C64.6026 259.14 64.9666 258.888 65.3866 258.72C65.8066 258.543 66.2639 258.454 66.7586 258.454C67.3186 258.454 67.7992 258.543 68.2006 258.72C68.6019 258.897 68.9286 259.145 69.1806 259.462C69.4419 259.779 69.6332 260.157 69.7546 260.596C69.8852 261.035 69.9506 261.511 69.9506 262.024V262.626H64.5746C64.5746 263.009 64.6212 263.359 64.7146 263.676C64.8172 263.993 64.9572 264.269 65.1346 264.502C65.3212 264.735 65.5499 264.917 65.8206 265.048C66.0912 265.179 66.4039 265.244 66.7586 265.244C67.3652 265.244 67.8086 265.132 68.0886 264.908C68.3686 264.675 68.5599 264.362 68.6626 263.97H69.8386ZM68.7326 261.716C68.7326 261.025 68.5786 260.47 68.2706 260.05C67.9626 259.621 67.4539 259.406 66.7446 259.406C66.1006 259.406 65.5966 259.607 65.2326 260.008C64.8686 260.4 64.6586 260.969 64.6026 261.716H68.7326ZM71.565 258.678H72.769V259.714C73.0676 259.303 73.413 258.991 73.805 258.776C74.2063 258.561 74.673 258.454 75.205 258.454C75.7183 258.454 76.1663 258.547 76.549 258.734C76.941 258.921 77.263 259.182 77.515 259.518C77.7763 259.854 77.9676 260.26 78.089 260.736C78.2196 261.203 78.285 261.721 78.285 262.29C78.285 262.897 78.2103 263.443 78.061 263.928C77.9116 264.413 77.697 264.829 77.417 265.174C77.137 265.51 76.7963 265.771 76.395 265.958C76.003 266.135 75.5596 266.224 75.065 266.224C74.6543 266.224 74.2483 266.145 73.847 265.986C73.455 265.818 73.1003 265.524 72.783 265.104V268.716H71.565V258.678ZM72.769 262.542C72.769 263.018 72.8203 263.424 72.923 263.76C73.035 264.096 73.1843 264.376 73.371 264.6C73.5576 264.815 73.7816 264.973 74.043 265.076C74.3043 265.169 74.589 265.216 74.897 265.216C75.1956 265.216 75.471 265.165 75.723 265.062C75.9843 264.959 76.2083 264.791 76.395 264.558C76.5816 264.325 76.7263 264.026 76.829 263.662C76.941 263.289 76.997 262.836 76.997 262.304C76.997 261.763 76.9363 261.31 76.815 260.946C76.703 260.582 76.5536 260.293 76.367 260.078C76.1803 259.854 75.9656 259.695 75.723 259.602C75.4896 259.509 75.247 259.462 74.995 259.462C74.6776 259.462 74.3836 259.513 74.113 259.616C73.8423 259.719 73.6043 259.877 73.399 260.092C73.203 260.297 73.049 260.563 72.937 260.89C72.825 261.207 72.769 261.581 72.769 262.01V262.542ZM85.9385 266H84.7905V260.484L81.0525 266H79.9045V258.678H81.0385V264.208L84.7765 258.678H85.9385V266ZM93.8271 266H92.6791V260.484L88.9411 266H87.7931V258.678H88.9271V264.208L92.6651 258.678H93.8271V266ZM95.8078 264.334H97.0958L96.3678 267.358H95.3878L95.8078 264.334ZM22.73 275.714H20.196V274.678H26.454V275.714H23.948V282H22.73V275.714ZM33.6218 279.97C33.5004 280.67 33.1878 281.221 32.6838 281.622C32.1891 282.023 31.4751 282.224 30.5418 282.224C29.4404 282.224 28.5958 281.888 28.0078 281.216C27.4198 280.535 27.1258 279.592 27.1258 278.388C27.1258 277.763 27.2098 277.207 27.3778 276.722C27.5458 276.227 27.7791 275.812 28.0778 275.476C28.3858 275.14 28.7498 274.888 29.1698 274.72C29.5898 274.543 30.0471 274.454 30.5418 274.454C31.1018 274.454 31.5824 274.543 31.9838 274.72C32.3851 274.897 32.7118 275.145 32.9638 275.462C33.2251 275.779 33.4164 276.157 33.5378 276.596C33.6684 277.035 33.7338 277.511 33.7338 278.024V278.626H28.3578C28.3578 279.009 28.4044 279.359 28.4978 279.676C28.6004 279.993 28.7404 280.269 28.9178 280.502C29.1044 280.735 29.3331 280.917 29.6038 281.048C29.8744 281.179 30.1871 281.244 30.5418 281.244C31.1484 281.244 31.5918 281.132 31.8718 280.908C32.1518 280.675 32.3431 280.362 32.4458 279.97H33.6218ZM32.5158 277.716C32.5158 277.025 32.3618 276.47 32.0538 276.05C31.7458 275.621 31.2371 275.406 30.5278 275.406C29.8838 275.406 29.3798 275.607 29.0158 276.008C28.6518 276.4 28.4418 276.969 28.3858 277.716H32.5158ZM37.0334 278.15L34.5974 274.678H36.0254L37.7754 277.268L39.5814 274.678H40.8694L38.4754 278.136L41.1354 282H39.7214L37.7054 279.032L35.6894 282H34.3454L37.0334 278.15ZM42.1278 280.362H43.5278V282H42.1278V280.362ZM51.4046 274.678V282H50.1866V275.728H46.5326V282H45.3146V274.678H51.4046ZM56.5337 282.224C55.983 282.224 55.493 282.135 55.0637 281.958C54.6343 281.771 54.2703 281.51 53.9717 281.174C53.673 280.838 53.4443 280.432 53.2857 279.956C53.127 279.48 53.0477 278.943 53.0477 278.346C53.0477 277.758 53.1317 277.226 53.2997 276.75C53.4677 276.265 53.7057 275.854 54.0137 275.518C54.3217 275.173 54.6903 274.911 55.1197 274.734C55.5583 274.547 56.0437 274.454 56.5757 274.454C57.117 274.454 57.6023 274.547 58.0317 274.734C58.461 274.911 58.825 275.168 59.1237 275.504C59.4317 275.831 59.665 276.232 59.8237 276.708C59.9823 277.175 60.0617 277.702 60.0617 278.29C60.0617 278.887 59.9777 279.429 59.8097 279.914C59.651 280.399 59.4177 280.815 59.1097 281.16C58.811 281.496 58.4423 281.757 58.0037 281.944C57.565 282.131 57.075 282.224 56.5337 282.224ZM56.5477 281.216C56.9397 281.216 57.2757 281.146 57.5557 281.006C57.8357 280.857 58.0643 280.656 58.2417 280.404C58.4283 280.143 58.5637 279.835 58.6477 279.48C58.7317 279.125 58.7737 278.738 58.7737 278.318C58.7737 277.898 58.7317 277.515 58.6477 277.17C58.5637 276.815 58.4283 276.512 58.2417 276.26C58.0643 276.008 57.8357 275.812 57.5557 275.672C57.2757 275.532 56.9397 275.462 56.5477 275.462C56.1557 275.462 55.8197 275.532 55.5397 275.672C55.269 275.812 55.0403 276.008 54.8537 276.26C54.6763 276.512 54.5457 276.815 54.4617 277.17C54.3777 277.515 54.3357 277.898 54.3357 278.318C54.3357 278.738 54.3777 279.125 54.4617 279.48C54.5457 279.835 54.6763 280.143 54.8537 280.404C55.031 280.656 55.2597 280.857 55.5397 281.006C55.8197 281.146 56.1557 281.216 56.5477 281.216ZM67.3314 274.678V280.964H68.1854V283.96H67.0794V282H61.6054V283.96H60.4994V280.964H61.2134C61.3814 280.805 61.5354 280.595 61.6754 280.334C61.8154 280.073 61.9414 279.751 62.0534 279.368C62.1654 278.976 62.2634 278.514 62.3474 277.982C62.4407 277.45 62.52 276.834 62.5854 276.134L62.7114 274.678H67.3314ZM63.6634 276.792C63.5514 277.912 63.3974 278.803 63.2014 279.466C63.0147 280.129 62.7954 280.628 62.5434 280.964H66.1134V275.672H63.7754L63.6634 276.792ZM75.8763 274.678V280.964H76.7303V283.96H75.6243V282H70.1503V283.96H69.0443V280.964H69.7583C69.9263 280.805 70.0803 280.595 70.2203 280.334C70.3603 280.073 70.4863 279.751 70.5983 279.368C70.7103 278.976 70.8083 278.514 70.8923 277.982C70.9856 277.45 71.065 276.834 71.1303 276.134L71.2563 274.678H75.8763ZM72.2083 276.792C72.0963 277.912 71.9423 278.803 71.7463 279.466C71.5596 280.129 71.3403 280.628 71.0883 280.964H74.6583V275.672H72.3203L72.2083 276.792ZM84.1394 279.97C84.018 280.67 83.7054 281.221 83.2014 281.622C82.7067 282.023 81.9927 282.224 81.0594 282.224C79.958 282.224 79.1134 281.888 78.5254 281.216C77.9374 280.535 77.6434 279.592 77.6434 278.388C77.6434 277.763 77.7274 277.207 77.8954 276.722C78.0634 276.227 78.2967 275.812 78.5954 275.476C78.9034 275.14 79.2674 274.888 79.6874 274.72C80.1074 274.543 80.5647 274.454 81.0594 274.454C81.6194 274.454 82.1 274.543 82.5014 274.72C82.9027 274.897 83.2294 275.145 83.4814 275.462C83.7427 275.779 83.934 276.157 84.0554 276.596C84.186 277.035 84.2514 277.511 84.2514 278.024V278.626H78.8754C78.8754 279.009 78.922 279.359 79.0154 279.676C79.118 279.993 79.258 280.269 79.4354 280.502C79.622 280.735 79.8507 280.917 80.1214 281.048C80.392 281.179 80.7047 281.244 81.0594 281.244C81.666 281.244 82.1094 281.132 82.3894 280.908C82.6694 280.675 82.8607 280.362 82.9634 279.97H84.1394ZM83.0334 277.716C83.0334 277.025 82.8794 276.47 82.5714 276.05C82.2634 275.621 81.7547 275.406 81.0454 275.406C80.4014 275.406 79.8974 275.607 79.5334 276.008C79.1694 276.4 78.9594 276.969 78.9034 277.716H83.0334ZM85.8657 274.678H87.0697V275.714C87.3684 275.303 87.7137 274.991 88.1057 274.776C88.5071 274.561 88.9737 274.454 89.5057 274.454C90.0191 274.454 90.4671 274.547 90.8497 274.734C91.2417 274.921 91.5637 275.182 91.8157 275.518C92.0771 275.854 92.2684 276.26 92.3897 276.736C92.5204 277.203 92.5857 277.721 92.5857 278.29C92.5857 278.897 92.5111 279.443 92.3617 279.928C92.2124 280.413 91.9977 280.829 91.7177 281.174C91.4377 281.51 91.0971 281.771 90.6957 281.958C90.3037 282.135 89.8604 282.224 89.3657 282.224C88.9551 282.224 88.5491 282.145 88.1477 281.986C87.7557 281.818 87.4011 281.524 87.0837 281.104V284.716H85.8657V274.678ZM87.0697 278.542C87.0697 279.018 87.1211 279.424 87.2237 279.76C87.3357 280.096 87.4851 280.376 87.6717 280.6C87.8584 280.815 88.0824 280.973 88.3437 281.076C88.6051 281.169 88.8897 281.216 89.1977 281.216C89.4964 281.216 89.7717 281.165 90.0237 281.062C90.2851 280.959 90.5091 280.791 90.6957 280.558C90.8824 280.325 91.0271 280.026 91.1297 279.662C91.2417 279.289 91.2977 278.836 91.2977 278.304C91.2977 277.763 91.2371 277.31 91.1157 276.946C91.0037 276.582 90.8544 276.293 90.6677 276.078C90.4811 275.854 90.2664 275.695 90.0237 275.602C89.7904 275.509 89.5477 275.462 89.2957 275.462C88.9784 275.462 88.6844 275.513 88.4137 275.616C88.1431 275.719 87.9051 275.877 87.6997 276.092C87.5037 276.297 87.3497 276.563 87.2377 276.89C87.1257 277.207 87.0697 277.581 87.0697 278.01V278.542ZM99.0952 282H97.9332V278.738H97.4992C97.3125 278.738 97.1539 278.757 97.0232 278.794C96.9019 278.831 96.7852 278.892 96.6732 278.976C96.5705 279.06 96.4725 279.167 96.3792 279.298C96.2859 279.419 96.1832 279.564 96.0712 279.732L94.5732 282H93.2292L95.1752 279.13C95.3432 278.878 95.5065 278.687 95.6652 278.556C95.8332 278.416 96.0152 278.309 96.2112 278.234C95.9965 278.141 95.8145 278.029 95.6652 277.898C95.5252 277.767 95.3805 277.534 95.2312 277.198L94.7972 276.26C94.6945 276.055 94.5965 275.901 94.5032 275.798C94.4099 275.695 94.2465 275.644 94.0132 275.644C93.9105 275.644 93.8125 275.649 93.7192 275.658C93.6352 275.667 93.5792 275.681 93.5512 275.7L93.4392 274.762C93.4952 274.743 93.5792 274.725 93.6912 274.706C93.8032 274.687 93.9245 274.678 94.0552 274.678C94.2979 274.678 94.5079 274.701 94.6852 274.748C94.8625 274.795 95.0165 274.869 95.1472 274.972C95.2872 275.075 95.4085 275.21 95.5112 275.378C95.6232 275.537 95.7305 275.733 95.8332 275.966L96.1832 276.736C96.3699 277.156 96.5705 277.45 96.7852 277.618C97.0092 277.777 97.2845 277.856 97.6112 277.856H97.9332V274.678H99.0952V277.856H99.4032C99.7485 277.856 100.019 277.772 100.215 277.604C100.421 277.436 100.626 277.147 100.831 276.736L101.209 275.966C101.303 275.77 101.396 275.597 101.489 275.448C101.583 275.299 101.685 275.173 101.797 275.07C101.909 274.967 102.031 274.888 102.161 274.832C102.301 274.767 102.469 274.72 102.665 274.692C102.731 274.683 102.796 274.678 102.861 274.678C102.936 274.678 103.015 274.678 103.099 274.678C103.211 274.687 103.314 274.701 103.407 274.72C103.51 274.739 103.575 274.753 103.603 274.762L103.491 275.7C103.417 275.663 103.263 275.644 103.029 275.644C102.749 275.644 102.553 275.719 102.441 275.868C102.329 276.017 102.203 276.241 102.063 276.54L101.755 277.198C101.643 277.45 101.513 277.66 101.363 277.828C101.223 277.987 101.046 278.117 100.831 278.22C101.055 278.304 101.256 278.439 101.433 278.626C101.62 278.813 101.825 279.069 102.049 279.396L103.785 282H102.413L100.733 279.48C100.565 279.228 100.397 279.041 100.229 278.92C100.061 278.799 99.8232 278.738 99.5152 278.738H99.0952V282ZM104.842 282V274.678H106.046V277.856H106.536C106.713 277.856 106.867 277.837 106.998 277.8C107.138 277.763 107.264 277.702 107.376 277.618C107.488 277.525 107.591 277.408 107.684 277.268C107.777 277.128 107.875 276.951 107.978 276.736L108.398 275.868C108.501 275.653 108.603 275.471 108.706 275.322C108.818 275.173 108.939 275.051 109.07 274.958C109.21 274.855 109.369 274.785 109.546 274.748C109.723 274.701 109.933 274.678 110.176 274.678C110.307 274.678 110.428 274.687 110.54 274.706C110.661 274.725 110.75 274.743 110.806 274.762L110.68 275.7C110.652 275.681 110.596 275.667 110.512 275.658C110.428 275.649 110.335 275.644 110.232 275.644C109.989 275.644 109.807 275.7 109.686 275.812C109.574 275.915 109.467 276.083 109.364 276.316L108.958 277.198C108.846 277.459 108.715 277.674 108.566 277.842C108.426 278.001 108.244 278.131 108.02 278.234C108.216 278.309 108.389 278.416 108.538 278.556C108.687 278.696 108.846 278.887 109.014 279.13L110.932 282H109.532L107.852 279.48C107.684 279.228 107.516 279.041 107.348 278.92C107.18 278.799 106.942 278.738 106.634 278.738H106.046V282H104.842ZM117.985 282H116.837V276.484L113.099 282H111.951V274.678H113.085V280.208L116.823 274.678H117.985V282Z" fill="#212121"/>
</svg>
