<svg width="154" height="315" viewBox="0 0 154 315" fill="none" xmlns="http://www.w3.org/2000/svg">
<rect width="155" height="315" fill="#F2F2F2"/>
<path d="M132 107.72C123.6 105.213 115.72 102.04 108.36 98.2V112.24H104.36V93.08H108C111.867 95.1867 115.76 97.0267 119.68 98.6C123.573 100.147 127.68 101.493 132 102.64V107.72ZM128.72 78.5281C128.72 77.4881 128.48 76.6215 128 75.9281C127.493 75.2081 126.787 74.6348 125.88 74.2081C124.973 73.7548 123.867 73.4348 122.56 73.2481C121.253 73.0348 119.787 72.9281 118.16 72.9281C116.56 72.9281 115.107 73.0348 113.8 73.2481C112.493 73.4348 111.387 73.7548 110.48 74.2081C109.547 74.6348 108.84 75.2081 108.36 75.9281C107.853 76.6215 107.6 77.4881 107.6 78.5281C107.6 79.5681 107.853 80.4481 108.36 81.1681C108.867 81.8615 109.587 82.4215 110.52 82.8481C111.427 83.2748 112.533 83.5815 113.84 83.7681C115.12 83.9548 116.56 84.0481 118.16 84.0481C121.573 84.0481 124.187 83.6348 126 82.8081C127.813 81.9548 128.72 80.5281 128.72 78.5281ZM132.72 78.5681C132.72 80.1681 132.44 81.6081 131.88 82.8881C131.32 84.1415 130.453 85.2081 129.28 86.0881C128.08 86.9681 126.56 87.6481 124.72 88.1281C122.88 88.5815 120.693 88.8081 118.16 88.8081C113.28 88.8081 109.64 87.9148 107.24 86.1281C104.813 84.3148 103.6 81.7415 103.6 78.4081C103.6 75.1815 104.787 72.6748 107.16 70.8881C109.507 69.0748 113.173 68.1681 118.16 68.1681C120.693 68.1681 122.88 68.4081 124.72 68.8881C126.533 69.3415 128.04 70.0215 129.24 70.9281C130.413 71.8081 131.293 72.9015 131.88 74.2081C132.44 75.4881 132.72 76.9415 132.72 78.5681ZM128.72 54.8562C128.72 53.8162 128.48 52.9496 128 52.2562C127.493 51.5362 126.787 50.9629 125.88 50.5362C124.973 50.0829 123.867 49.7629 122.56 49.5762C121.253 49.3629 119.787 49.2562 118.16 49.2562C116.56 49.2562 115.107 49.3629 113.8 49.5762C112.493 49.7629 111.387 50.0829 110.48 50.5362C109.547 50.9629 108.84 51.5362 108.36 52.2562C107.853 52.9496 107.6 53.8162 107.6 54.8562C107.6 55.8962 107.853 56.7762 108.36 57.4962C108.867 58.1896 109.587 58.7496 110.52 59.1762C111.427 59.6029 112.533 59.9096 113.84 60.0962C115.12 60.2829 116.56 60.3762 118.16 60.3762C121.573 60.3762 124.187 59.9629 126 59.1362C127.813 58.2829 128.72 56.8562 128.72 54.8562ZM132.72 54.8963C132.72 56.4962 132.44 57.9362 131.88 59.2162C131.32 60.4696 130.453 61.5362 129.28 62.4162C128.08 63.2962 126.56 63.9762 124.72 64.4562C122.88 64.9096 120.693 65.1362 118.16 65.1362C113.28 65.1362 109.64 64.2429 107.24 62.4562C104.813 60.6429 103.6 58.0696 103.6 54.7362C103.6 51.5096 104.787 49.0029 107.16 47.2162C109.507 45.4029 113.173 44.4962 118.16 44.4962C120.693 44.4962 122.88 44.7362 124.72 45.2162C126.533 45.6696 128.04 46.3496 129.24 47.2562C130.413 48.1362 131.293 49.2296 131.88 50.5362C132.44 51.8162 132.72 53.2696 132.72 54.8963Z" fill="#212121"/>
<path d="M120.36 40.5444H116.4V33.1844H108.48V29.1044H116.4V21.7444H120.36V29.1044H128.28V33.1844H120.36V40.5444Z" fill="#FF8733"/>
<path d="M20.938 258.678H22.142V259.714C22.4407 259.303 22.786 258.991 23.178 258.776C23.5793 258.561 24.046 258.454 24.578 258.454C25.0913 258.454 25.5393 258.547 25.922 258.734C26.314 258.921 26.636 259.182 26.888 259.518C27.1493 259.854 27.3407 260.26 27.462 260.736C27.5927 261.203 27.658 261.721 27.658 262.29C27.658 262.897 27.5833 263.443 27.434 263.928C27.2847 264.413 27.07 264.829 26.79 265.174C26.51 265.51 26.1693 265.771 25.768 265.958C25.376 266.135 24.9327 266.224 24.438 266.224C24.0273 266.224 23.6213 266.145 23.22 265.986C22.828 265.818 22.4733 265.524 22.156 265.104V268.716H20.938V258.678ZM22.142 262.542C22.142 263.018 22.1933 263.424 22.296 263.76C22.408 264.096 22.5573 264.376 22.744 264.6C22.9307 264.815 23.1547 264.973 23.416 265.076C23.6773 265.169 23.962 265.216 24.27 265.216C24.5687 265.216 24.844 265.165 25.096 265.062C25.3573 264.959 25.5813 264.791 25.768 264.558C25.9547 264.325 26.0993 264.026 26.202 263.662C26.314 263.289 26.37 262.836 26.37 262.304C26.37 261.763 26.3093 261.31 26.188 260.946C26.076 260.582 25.9267 260.293 25.74 260.078C25.5533 259.854 25.3387 259.695 25.096 259.602C24.8627 259.509 24.62 259.462 24.368 259.462C24.0507 259.462 23.7567 259.513 23.486 259.616C23.2153 259.719 22.9773 259.877 22.772 260.092C22.576 260.297 22.422 260.563 22.31 260.89C22.198 261.207 22.142 261.581 22.142 262.01V262.542ZM35.5495 263.97C35.4282 264.67 35.1155 265.221 34.6115 265.622C34.1168 266.023 33.4028 266.224 32.4695 266.224C31.3682 266.224 30.5235 265.888 29.9355 265.216C29.3475 264.535 29.0535 263.592 29.0535 262.388C29.0535 261.763 29.1375 261.207 29.3055 260.722C29.4735 260.227 29.7068 259.812 30.0055 259.476C30.3135 259.14 30.6775 258.888 31.0975 258.72C31.5175 258.543 31.9748 258.454 32.4695 258.454C33.0295 258.454 33.5102 258.543 33.9115 258.72C34.3128 258.897 34.6395 259.145 34.8915 259.462C35.1528 259.779 35.3442 260.157 35.4655 260.596C35.5962 261.035 35.6615 261.511 35.6615 262.024V262.626H30.2855C30.2855 263.009 30.3322 263.359 30.4255 263.676C30.5282 263.993 30.6682 264.269 30.8455 264.502C31.0322 264.735 31.2608 264.917 31.5315 265.048C31.8022 265.179 32.1148 265.244 32.4695 265.244C33.0762 265.244 33.5195 265.132 33.7995 264.908C34.0795 264.675 34.2708 264.362 34.3735 263.97H35.5495ZM34.4435 261.716C34.4435 261.025 34.2895 260.47 33.9815 260.05C33.6735 259.621 33.1648 259.406 32.4555 259.406C31.8115 259.406 31.3075 259.607 30.9435 260.008C30.5795 260.4 30.3695 260.969 30.3135 261.716H34.4435ZM41.7839 265.006C41.5226 265.323 41.1912 265.599 40.7899 265.832C40.3886 266.056 39.8892 266.168 39.2919 266.168C38.9279 266.168 38.5919 266.121 38.2839 266.028C37.9852 265.944 37.7239 265.813 37.4999 265.636C37.2852 265.449 37.1172 265.221 36.9959 264.95C36.8746 264.679 36.8139 264.362 36.8139 263.998C36.8139 263.494 36.9166 263.083 37.1219 262.766C37.3366 262.439 37.6166 262.187 37.9619 262.01C38.3166 261.823 38.7132 261.697 39.1519 261.632C39.5906 261.557 40.0432 261.511 40.5099 261.492L41.7559 261.45V261.156C41.7559 260.54 41.6252 260.097 41.3639 259.826C41.1026 259.555 40.6779 259.42 40.0899 259.42C39.5112 259.42 39.0866 259.518 38.8159 259.714C38.5452 259.901 38.3679 260.162 38.2839 260.498L37.1779 260.372C37.3086 259.709 37.6212 259.229 38.1159 258.93C38.6106 258.622 39.2826 258.468 40.1319 258.468C40.6546 258.468 41.0932 258.533 41.4479 258.664C41.8119 258.785 42.1059 258.963 42.3299 259.196C42.5539 259.429 42.7126 259.719 42.8059 260.064C42.9086 260.409 42.9599 260.797 42.9599 261.226V266H41.7839V265.006ZM41.7559 262.318L40.5939 262.36C40.0992 262.379 39.6886 262.425 39.3619 262.5C39.0352 262.575 38.7739 262.677 38.5779 262.808C38.3912 262.939 38.2559 263.102 38.1719 263.298C38.0972 263.485 38.0599 263.709 38.0599 263.97C38.0599 264.334 38.1672 264.628 38.3819 264.852C38.6059 265.067 38.9699 265.174 39.4739 265.174C40.1926 265.174 40.7526 264.997 41.1539 264.642C41.5552 264.287 41.7559 263.802 41.7559 263.186V262.318ZM49.7231 259.672H47.3011L46.9931 262.192C46.9091 262.892 46.7924 263.489 46.6431 263.984C46.4938 264.469 46.3024 264.871 46.0691 265.188C45.8358 265.496 45.5558 265.72 45.2291 265.86C44.9118 266 44.5384 266.07 44.1091 266.07H43.8711V265.048H44.0111C44.2538 265.048 44.4684 265.001 44.6551 264.908C44.8511 264.815 45.0238 264.647 45.1731 264.404C45.3318 264.161 45.4671 263.825 45.5791 263.396C45.6911 262.967 45.7844 262.421 45.8591 261.758L46.2091 258.678H50.9411V266H49.7231V259.672ZM58.8271 266H57.6791V260.484L53.9411 266H52.7931V258.678H53.9271V264.208L57.6651 258.678H58.8271V266ZM63.4258 258.454C63.9205 258.454 64.3451 258.505 64.6998 258.608C65.0638 258.711 65.3625 258.855 65.5958 259.042C65.8385 259.219 66.0158 259.429 66.1278 259.672C66.2398 259.905 66.2958 260.162 66.2958 260.442C66.2958 260.853 66.1838 261.207 65.9598 261.506C65.7358 261.795 65.4511 262.005 65.1058 262.136C65.5165 262.267 65.8478 262.481 66.0998 262.78C66.3518 263.069 66.4778 263.461 66.4778 263.956C66.4778 264.283 66.4171 264.581 66.2958 264.852C66.1745 265.123 65.9831 265.361 65.7218 265.566C65.4698 265.771 65.1431 265.93 64.7418 266.042C64.3498 266.154 63.8831 266.21 63.3418 266.21C62.4085 266.21 61.6665 266.028 61.1158 265.664C60.5651 265.291 60.2618 264.689 60.2058 263.858H61.3818C61.4565 264.353 61.6571 264.707 61.9838 264.922C62.3105 265.127 62.7818 265.23 63.3978 265.23C64.0791 265.23 64.5505 265.113 64.8118 264.88C65.0825 264.637 65.2178 264.325 65.2178 263.942C65.2178 263.522 65.0778 263.205 64.7978 262.99C64.5178 262.775 64.1211 262.668 63.6078 262.668H62.1378V261.772H63.6638C64.1211 261.772 64.4665 261.669 64.6998 261.464C64.9425 261.249 65.0638 260.96 65.0638 260.596C65.0638 260.232 64.9285 259.952 64.6578 259.756C64.3871 259.551 63.9671 259.448 63.3978 259.448C63.0711 259.448 62.7958 259.476 62.5718 259.532C62.3478 259.579 62.1611 259.653 62.0118 259.756C61.8718 259.859 61.7551 259.989 61.6618 260.148C61.5685 260.297 61.4891 260.47 61.4238 260.666L60.3178 260.47C60.3925 260.181 60.4998 259.915 60.6398 259.672C60.7891 259.42 60.9851 259.205 61.2278 259.028C61.4705 258.851 61.7691 258.711 62.1238 258.608C62.4878 258.505 62.9218 258.454 63.4258 258.454ZM71.2993 266.224C70.7486 266.224 70.2586 266.135 69.8293 265.958C69.3999 265.771 69.0359 265.51 68.7373 265.174C68.4386 264.838 68.2099 264.432 68.0513 263.956C67.8926 263.48 67.8133 262.943 67.8133 262.346C67.8133 261.758 67.8973 261.226 68.0653 260.75C68.2333 260.265 68.4713 259.854 68.7793 259.518C69.0873 259.173 69.4559 258.911 69.8853 258.734C70.3239 258.547 70.8093 258.454 71.3413 258.454C71.8826 258.454 72.3679 258.547 72.7973 258.734C73.2266 258.911 73.5906 259.168 73.8893 259.504C74.1973 259.831 74.4306 260.232 74.5893 260.708C74.7479 261.175 74.8273 261.702 74.8273 262.29C74.8273 262.887 74.7433 263.429 74.5753 263.914C74.4166 264.399 74.1833 264.815 73.8753 265.16C73.5766 265.496 73.2079 265.757 72.7693 265.944C72.3306 266.131 71.8406 266.224 71.2993 266.224ZM71.3133 265.216C71.7053 265.216 72.0413 265.146 72.3213 265.006C72.6013 264.857 72.8299 264.656 73.0073 264.404C73.1939 264.143 73.3293 263.835 73.4133 263.48C73.4973 263.125 73.5393 262.738 73.5393 262.318C73.5393 261.898 73.4973 261.515 73.4133 261.17C73.3293 260.815 73.1939 260.512 73.0073 260.26C72.8299 260.008 72.6013 259.812 72.3213 259.672C72.0413 259.532 71.7053 259.462 71.3133 259.462C70.9213 259.462 70.5853 259.532 70.3053 259.672C70.0346 259.812 69.8059 260.008 69.6193 260.26C69.4419 260.512 69.3113 260.815 69.2273 261.17C69.1433 261.515 69.1013 261.898 69.1013 262.318C69.1013 262.738 69.1433 263.125 69.2273 263.48C69.3113 263.835 69.4419 264.143 69.6193 264.404C69.7966 264.656 70.0253 264.857 70.3053 265.006C70.5853 265.146 70.9213 265.216 71.3133 265.216ZM76.4455 258.678H79.6095C80.1602 258.678 80.6128 258.729 80.9675 258.832C81.3315 258.935 81.6162 259.075 81.8215 259.252C82.0362 259.429 82.1855 259.63 82.2695 259.854C82.3535 260.078 82.3955 260.311 82.3955 260.554C82.3955 260.937 82.3115 261.268 82.1435 261.548C81.9848 261.819 81.7142 262.033 81.3315 262.192C81.7608 262.332 82.0828 262.551 82.2975 262.85C82.5215 263.149 82.6335 263.499 82.6335 263.9C82.6335 264.199 82.5868 264.474 82.4935 264.726C82.4095 264.978 82.2555 265.202 82.0315 265.398C81.8168 265.585 81.5228 265.734 81.1495 265.846C80.7855 265.949 80.3188 266 79.7495 266H76.4455V258.678ZM79.6655 261.8C80.1975 261.8 80.5802 261.707 80.8135 261.52C81.0562 261.333 81.1775 261.067 81.1775 260.722C81.1775 260.367 81.0515 260.101 80.7995 259.924C80.5568 259.737 80.1555 259.644 79.5955 259.644H77.6635V261.8H79.6655ZM79.7495 265.02C80.3562 265.02 80.7808 264.927 81.0235 264.74C81.2662 264.544 81.3875 264.259 81.3875 263.886C81.3875 263.513 81.2568 263.223 80.9955 263.018C80.7342 262.803 80.3235 262.696 79.7635 262.696H77.6635V265.02H79.7495ZM88.5964 265.006C88.3351 265.323 88.0037 265.599 87.6024 265.832C87.2011 266.056 86.7017 266.168 86.1044 266.168C85.7404 266.168 85.4044 266.121 85.0964 266.028C84.7977 265.944 84.5364 265.813 84.3124 265.636C84.0977 265.449 83.9297 265.221 83.8084 264.95C83.6871 264.679 83.6264 264.362 83.6264 263.998C83.6264 263.494 83.7291 263.083 83.9344 262.766C84.1491 262.439 84.4291 262.187 84.7744 262.01C85.1291 261.823 85.5257 261.697 85.9644 261.632C86.4031 261.557 86.8557 261.511 87.3224 261.492L88.5684 261.45V261.156C88.5684 260.54 88.4377 260.097 88.1764 259.826C87.9151 259.555 87.4904 259.42 86.9024 259.42C86.3237 259.42 85.8991 259.518 85.6284 259.714C85.3577 259.901 85.1804 260.162 85.0964 260.498L83.9904 260.372C84.1211 259.709 84.4337 259.229 84.9284 258.93C85.4231 258.622 86.0951 258.468 86.9444 258.468C87.4671 258.468 87.9057 258.533 88.2604 258.664C88.6244 258.785 88.9184 258.963 89.1424 259.196C89.3664 259.429 89.5251 259.719 89.6184 260.064C89.7211 260.409 89.7724 260.797 89.7724 261.226V266H88.5964V265.006ZM88.5684 262.318L87.4064 262.36C86.9117 262.379 86.5011 262.425 86.1744 262.5C85.8477 262.575 85.5864 262.677 85.3904 262.808C85.2037 262.939 85.0684 263.102 84.9844 263.298C84.9097 263.485 84.8724 263.709 84.8724 263.97C84.8724 264.334 84.9797 264.628 85.1944 264.852C85.4184 265.067 85.7824 265.174 86.2864 265.174C87.0051 265.174 87.5651 264.997 87.9664 264.642C88.3677 264.287 88.5684 263.802 88.5684 263.186V262.318ZM92.8256 258.678V261.66H96.6756V258.678H97.8936V266H96.6756V262.696H92.8256V266H91.6076V258.678H92.8256ZM100.96 258.678V261.66H104.81V258.678H106.028V266H104.81V262.696H100.96V266H99.7424V258.678H100.96ZM109.095 258.678V261.366H111.279C112.194 261.366 112.856 261.576 113.267 261.996C113.678 262.407 113.883 262.957 113.883 263.648C113.883 264.348 113.654 264.917 113.197 265.356C112.749 265.785 112.044 266 111.083 266H107.877V258.678H109.095ZM114.863 258.678H116.081V266H114.863V258.678ZM109.095 264.992H111.139C111.652 264.992 112.026 264.88 112.259 264.656C112.492 264.423 112.609 264.096 112.609 263.676C112.609 263.247 112.497 262.92 112.273 262.696C112.058 262.472 111.662 262.36 111.083 262.36H109.095V264.992ZM119.844 262.15L117.408 258.678H118.836L120.586 261.268L122.392 258.678H123.68L121.286 262.136L123.946 266H122.532L120.516 263.032L118.5 266H117.156L119.844 262.15ZM27.014 274.678V282H25.796V275.728H22.142V282H20.924V274.678H27.014ZM28.895 274.678H30.099V275.714C30.3977 275.303 30.743 274.991 31.135 274.776C31.5364 274.561 32.003 274.454 32.535 274.454C33.0484 274.454 33.4964 274.547 33.879 274.734C34.271 274.921 34.593 275.182 34.845 275.518C35.1064 275.854 35.2977 276.26 35.419 276.736C35.5497 277.203 35.615 277.721 35.615 278.29C35.615 278.897 35.5404 279.443 35.391 279.928C35.2417 280.413 35.027 280.829 34.747 281.174C34.467 281.51 34.1264 281.771 33.725 281.958C33.333 282.135 32.8897 282.224 32.395 282.224C31.9844 282.224 31.5784 282.145 31.177 281.986C30.785 281.818 30.4304 281.524 30.113 281.104V284.716H28.895V274.678ZM30.099 278.542C30.099 279.018 30.1504 279.424 30.253 279.76C30.365 280.096 30.5144 280.376 30.701 280.6C30.8877 280.815 31.1117 280.973 31.373 281.076C31.6344 281.169 31.919 281.216 32.227 281.216C32.5257 281.216 32.801 281.165 33.053 281.062C33.3144 280.959 33.5384 280.791 33.725 280.558C33.9117 280.325 34.0564 280.026 34.159 279.662C34.271 279.289 34.327 278.836 34.327 278.304C34.327 277.763 34.2664 277.31 34.145 276.946C34.033 276.582 33.8837 276.293 33.697 276.078C33.5104 275.854 33.2957 275.695 33.053 275.602C32.8197 275.509 32.577 275.462 32.325 275.462C32.0077 275.462 31.7137 275.513 31.443 275.616C31.1724 275.719 30.9344 275.877 30.729 276.092C30.533 276.297 30.379 276.563 30.267 276.89C30.155 277.207 30.099 277.581 30.099 278.01V278.542ZM40.4965 282.224C39.9459 282.224 39.4559 282.135 39.0265 281.958C38.5972 281.771 38.2332 281.51 37.9345 281.174C37.6359 280.838 37.4072 280.432 37.2485 279.956C37.0899 279.48 37.0105 278.943 37.0105 278.346C37.0105 277.758 37.0945 277.226 37.2625 276.75C37.4305 276.265 37.6685 275.854 37.9765 275.518C38.2845 275.173 38.6532 274.911 39.0825 274.734C39.5212 274.547 40.0065 274.454 40.5385 274.454C41.0799 274.454 41.5652 274.547 41.9945 274.734C42.4239 274.911 42.7879 275.168 43.0865 275.504C43.3945 275.831 43.6279 276.232 43.7865 276.708C43.9452 277.175 44.0245 277.702 44.0245 278.29C44.0245 278.887 43.9405 279.429 43.7725 279.914C43.6139 280.399 43.3805 280.815 43.0725 281.16C42.7739 281.496 42.4052 281.757 41.9665 281.944C41.5279 282.131 41.0379 282.224 40.4965 282.224ZM40.5105 281.216C40.9025 281.216 41.2385 281.146 41.5185 281.006C41.7985 280.857 42.0272 280.656 42.2045 280.404C42.3912 280.143 42.5265 279.835 42.6105 279.48C42.6945 279.125 42.7365 278.738 42.7365 278.318C42.7365 277.898 42.6945 277.515 42.6105 277.17C42.5265 276.815 42.3912 276.512 42.2045 276.26C42.0272 276.008 41.7985 275.812 41.5185 275.672C41.2385 275.532 40.9025 275.462 40.5105 275.462C40.1185 275.462 39.7825 275.532 39.5025 275.672C39.2319 275.812 39.0032 276.008 38.8165 276.26C38.6392 276.512 38.5085 276.815 38.4245 277.17C38.3405 277.515 38.2985 277.898 38.2985 278.318C38.2985 278.738 38.3405 279.125 38.4245 279.48C38.5085 279.835 38.6392 280.143 38.8165 280.404C38.9939 280.656 39.2225 280.857 39.5025 281.006C39.7825 281.146 40.1185 281.216 40.5105 281.216ZM51.9147 279.97C51.7934 280.67 51.4808 281.221 50.9768 281.622C50.4821 282.023 49.7681 282.224 48.8347 282.224C47.7334 282.224 46.8888 281.888 46.3008 281.216C45.7128 280.535 45.4188 279.592 45.4188 278.388C45.4188 277.763 45.5028 277.207 45.6708 276.722C45.8388 276.227 46.0721 275.812 46.3708 275.476C46.6788 275.14 47.0428 274.888 47.4628 274.72C47.8828 274.543 48.3401 274.454 48.8347 274.454C49.3948 274.454 49.8754 274.543 50.2768 274.72C50.6781 274.897 51.0048 275.145 51.2568 275.462C51.5181 275.779 51.7094 276.157 51.8308 276.596C51.9614 277.035 52.0268 277.511 52.0268 278.024V278.626H46.6508C46.6508 279.009 46.6974 279.359 46.7908 279.676C46.8934 279.993 47.0334 280.269 47.2108 280.502C47.3974 280.735 47.6261 280.917 47.8968 281.048C48.1674 281.179 48.4801 281.244 48.8347 281.244C49.4414 281.244 49.8848 281.132 50.1648 280.908C50.4448 280.675 50.6361 280.362 50.7388 279.97H51.9147ZM50.8088 277.716C50.8088 277.025 50.6548 276.47 50.3468 276.05C50.0388 275.621 49.5301 275.406 48.8208 275.406C48.1768 275.406 47.6728 275.607 47.3088 276.008C46.9448 276.4 46.7348 276.969 46.6788 277.716H50.8088ZM53.6271 282V274.678H54.8311V277.856H55.3211C55.4985 277.856 55.6525 277.837 55.7831 277.8C55.9231 277.763 56.0491 277.702 56.1611 277.618C56.2731 277.525 56.3758 277.408 56.4691 277.268C56.5625 277.128 56.6605 276.951 56.7631 276.736L57.1831 275.868C57.2858 275.653 57.3885 275.471 57.4911 275.322C57.6031 275.173 57.7245 275.051 57.8551 274.958C57.9951 274.855 58.1538 274.785 58.3311 274.748C58.5085 274.701 58.7185 274.678 58.9611 274.678C59.0918 274.678 59.2131 274.687 59.3251 274.706C59.4465 274.725 59.5351 274.743 59.5911 274.762L59.4651 275.7C59.4371 275.681 59.3811 275.667 59.2971 275.658C59.2131 275.649 59.1198 275.644 59.0171 275.644C58.7745 275.644 58.5925 275.7 58.4711 275.812C58.3591 275.915 58.2518 276.083 58.1491 276.316L57.7431 277.198C57.6311 277.459 57.5005 277.674 57.3511 277.842C57.2111 278.001 57.0291 278.131 56.8051 278.234C57.0011 278.309 57.1738 278.416 57.3231 278.556C57.4725 278.696 57.6311 278.887 57.7991 279.13L59.7171 282H58.3171L56.6371 279.48C56.4691 279.228 56.3011 279.041 56.1331 278.92C55.9651 278.799 55.7271 278.738 55.4191 278.738H54.8311V282H53.6271ZM63.0347 275.714H60.5007V274.678H66.7587V275.714H64.2527V282H63.0347V275.714ZM70.9165 282.224C70.3658 282.224 69.8758 282.135 69.4465 281.958C69.0171 281.771 68.6531 281.51 68.3545 281.174C68.0558 280.838 67.8271 280.432 67.6685 279.956C67.5098 279.48 67.4305 278.943 67.4305 278.346C67.4305 277.758 67.5145 277.226 67.6825 276.75C67.8505 276.265 68.0885 275.854 68.3965 275.518C68.7045 275.173 69.0731 274.911 69.5025 274.734C69.9411 274.547 70.4265 274.454 70.9585 274.454C71.4998 274.454 71.9851 274.547 72.4145 274.734C72.8438 274.911 73.2078 275.168 73.5065 275.504C73.8145 275.831 74.0478 276.232 74.2065 276.708C74.3651 277.175 74.4445 277.702 74.4445 278.29C74.4445 278.887 74.3605 279.429 74.1925 279.914C74.0338 280.399 73.8005 280.815 73.4925 281.16C73.1938 281.496 72.8251 281.757 72.3865 281.944C71.9478 282.131 71.4578 282.224 70.9165 282.224ZM70.9305 281.216C71.3225 281.216 71.6585 281.146 71.9385 281.006C72.2185 280.857 72.4471 280.656 72.6245 280.404C72.8111 280.143 72.9465 279.835 73.0305 279.48C73.1145 279.125 73.1565 278.738 73.1565 278.318C73.1565 277.898 73.1145 277.515 73.0305 277.17C72.9465 276.815 72.8111 276.512 72.6245 276.26C72.4471 276.008 72.2185 275.812 71.9385 275.672C71.6585 275.532 71.3225 275.462 70.9305 275.462C70.5385 275.462 70.2025 275.532 69.9225 275.672C69.6518 275.812 69.4231 276.008 69.2365 276.26C69.0591 276.512 68.9285 276.815 68.8445 277.17C68.7605 277.515 68.7185 277.898 68.7185 278.318C68.7185 278.738 68.7605 279.125 68.8445 279.48C68.9285 279.835 69.0591 280.143 69.2365 280.404C69.4138 280.656 69.6425 280.857 69.9225 281.006C70.2025 281.146 70.5385 281.216 70.9305 281.216ZM76.0627 274.678H79.2267C79.7773 274.678 80.23 274.729 80.5847 274.832C80.9487 274.935 81.2333 275.075 81.4387 275.252C81.6533 275.429 81.8027 275.63 81.8867 275.854C81.9707 276.078 82.0127 276.311 82.0127 276.554C82.0127 276.937 81.9287 277.268 81.7607 277.548C81.602 277.819 81.3313 278.033 80.9487 278.192C81.378 278.332 81.7 278.551 81.9147 278.85C82.1387 279.149 82.2507 279.499 82.2507 279.9C82.2507 280.199 82.204 280.474 82.1107 280.726C82.0267 280.978 81.8727 281.202 81.6487 281.398C81.434 281.585 81.14 281.734 80.7667 281.846C80.4027 281.949 79.936 282 79.3667 282H76.0627V274.678ZM79.2827 277.8C79.8147 277.8 80.1973 277.707 80.4307 277.52C80.6733 277.333 80.7947 277.067 80.7947 276.722C80.7947 276.367 80.6687 276.101 80.4167 275.924C80.174 275.737 79.7727 275.644 79.2127 275.644H77.2807V277.8H79.2827ZM79.3667 281.02C79.9733 281.02 80.398 280.927 80.6407 280.74C80.8833 280.544 81.0047 280.259 81.0047 279.886C81.0047 279.513 80.874 279.223 80.6127 279.018C80.3513 278.803 79.9407 278.696 79.3807 278.696H77.2807V281.02H79.3667Z" fill="#212121"/>
</svg>
