<svg width="310" height="175" viewBox="0 0 310 175" fill="none" xmlns="http://www.w3.org/2000/svg">
<rect width="311" height="175" fill="#F2F2F2"/>
<path d="M81.684 68V56.063L74.324 68H71.748V51.578H74.462V63.584L81.799 51.578H84.375V68H81.684ZM90.198 55.902V60.64H95.718V55.902H98.34V68H95.718V62.825H90.198V68H87.576V55.902H90.198ZM104.222 58.087H100.174V55.902H110.846V58.087H106.844V68H104.222V58.087ZM113.409 70.093C113.624 70.1697 113.846 70.2233 114.076 70.254C114.306 70.3 114.536 70.323 114.766 70.323C115.211 70.323 115.564 70.208 115.824 69.978C116.1 69.748 116.353 69.334 116.583 68.736L117.02 67.609L111.983 55.902H115.019L118.308 64.665L121.344 55.902H124.196L119.159 68.736C118.914 69.3493 118.676 69.886 118.446 70.346C118.216 70.8213 117.956 71.2123 117.664 71.519C117.373 71.8257 117.028 72.0557 116.629 72.209C116.231 72.3777 115.748 72.462 115.18 72.462C114.751 72.462 114.36 72.4313 114.007 72.37C113.655 72.3087 113.294 72.2167 112.926 72.094L113.409 70.093ZM136.085 68H133.693V59.651L128.127 68H125.804V55.902H128.196V64.274L133.762 55.902H136.085V68ZM141.979 58.087H137.931V55.902H148.603V58.087H144.601V68H141.979V58.087ZM160.703 68H158.311V59.651L152.745 68H150.422V55.902H152.814V64.274L158.38 55.902H160.703V68ZM163.606 55.902H169.103C169.993 55.902 170.736 55.9863 171.334 56.155C171.948 56.3237 172.438 56.5537 172.806 56.845C173.174 57.121 173.435 57.4507 173.588 57.834C173.742 58.2173 173.818 58.6237 173.818 59.053C173.818 59.697 173.68 60.2413 173.404 60.686C173.128 61.1153 172.699 61.4603 172.116 61.721C172.76 61.9357 173.266 62.2807 173.634 62.756C174.002 63.216 174.186 63.791 174.186 64.481C174.186 64.9563 174.11 65.4087 173.956 65.838C173.818 66.252 173.558 66.62 173.174 66.942C172.806 67.264 172.293 67.5247 171.633 67.724C170.989 67.908 170.169 68 169.172 68H163.606V55.902ZM169.103 60.939C169.87 60.939 170.407 60.8087 170.713 60.548C171.035 60.2873 171.196 59.927 171.196 59.467C171.196 58.9457 171.035 58.5623 170.713 58.317C170.407 58.0717 169.847 57.949 169.034 57.949H166.136V60.939H169.103ZM169.264 65.953C170.123 65.953 170.721 65.8303 171.058 65.585C171.396 65.3243 171.564 64.9257 171.564 64.389C171.564 63.883 171.388 63.4843 171.035 63.193C170.698 62.9017 170.1 62.756 169.241 62.756H166.136V65.953H169.264ZM179.031 55.902V60.64H184.551V55.902H187.173V68H184.551V62.825H179.031V68H176.409V55.902H179.031ZM195.585 68.368C193.715 68.368 192.266 67.8007 191.238 66.666C190.211 65.5313 189.697 63.9597 189.697 61.951C189.697 60.9697 189.835 60.088 190.111 59.306C190.387 58.5087 190.786 57.834 191.307 57.282C191.829 56.73 192.45 56.3083 193.17 56.017C193.906 55.7103 194.727 55.557 195.631 55.557C196.551 55.557 197.372 55.7027 198.092 55.994C198.828 56.2853 199.449 56.707 199.955 57.259C200.461 57.811 200.845 58.478 201.105 59.26C201.381 60.042 201.519 60.9237 201.519 61.905C201.519 62.8863 201.381 63.7757 201.105 64.573C200.829 65.3703 200.431 66.0527 199.909 66.62C199.403 67.172 198.782 67.6013 198.046 67.908C197.326 68.2147 196.505 68.368 195.585 68.368ZM195.608 66.252C196.712 66.252 197.517 65.861 198.023 65.079C198.545 64.297 198.805 63.239 198.805 61.905C198.805 60.6017 198.545 59.5743 198.023 58.823C197.517 58.0563 196.712 57.673 195.608 57.673C194.504 57.673 193.692 58.0563 193.17 58.823C192.664 59.5743 192.411 60.6093 192.411 61.928C192.411 63.2467 192.664 64.297 193.17 65.079C193.692 65.861 194.504 66.252 195.608 66.252ZM81.937 82.902V95H79.315V85.11H74.071V95H71.449V82.902H81.937ZM90.3557 95.368C88.4851 95.368 87.0361 94.8007 86.0087 93.666C84.9814 92.5313 84.4677 90.9597 84.4677 88.951C84.4677 87.9697 84.6057 87.088 84.8817 86.306C85.1577 85.5087 85.5564 84.834 86.0777 84.282C86.5991 83.73 87.2201 83.3083 87.9407 83.017C88.6767 82.7103 89.4971 82.557 90.4017 82.557C91.3217 82.557 92.1421 82.7027 92.8627 82.994C93.5987 83.2853 94.2197 83.707 94.7257 84.259C95.2317 84.811 95.6151 85.478 95.8757 86.26C96.1517 87.042 96.2897 87.9237 96.2897 88.905C96.2897 89.8863 96.1517 90.7757 95.8757 91.573C95.5997 92.3703 95.2011 93.0527 94.6797 93.62C94.1737 94.172 93.5527 94.6013 92.8167 94.908C92.0961 95.2147 91.2757 95.368 90.3557 95.368ZM90.3787 93.252C91.4827 93.252 92.2877 92.861 92.7937 92.079C93.3151 91.297 93.5757 90.239 93.5757 88.905C93.5757 87.6017 93.3151 86.5743 92.7937 85.823C92.2877 85.0563 91.4827 84.673 90.3787 84.673C89.2747 84.673 88.4621 85.0563 87.9407 85.823C87.4347 86.5743 87.1817 87.6093 87.1817 88.928C87.1817 90.2467 87.4347 91.297 87.9407 92.079C88.4621 92.861 89.2747 93.252 90.3787 93.252ZM101.473 82.902V87.64H106.993V82.902H109.615V95H106.993V89.825H101.473V95H98.8513V82.902H101.473ZM111.427 95L113.612 91.251C114.01 90.561 114.47 90.1087 114.992 89.894C114.67 89.8327 114.363 89.7177 114.072 89.549C113.78 89.3803 113.52 89.1657 113.29 88.905C113.06 88.6443 112.876 88.3223 112.738 87.939C112.615 87.5557 112.554 87.111 112.554 86.605C112.554 86.1143 112.638 85.6467 112.807 85.202C112.975 84.742 113.251 84.3433 113.635 84.006C114.033 83.6687 114.539 83.4003 115.153 83.201C115.766 83.0017 116.525 82.902 117.43 82.902H122.421V95H119.822V90.469H118.465C118.158 90.469 117.89 90.492 117.66 90.538C117.43 90.584 117.23 90.6607 117.062 90.768C116.893 90.86 116.74 90.9903 116.602 91.159C116.464 91.3277 116.326 91.527 116.188 91.757L114.394 95H111.427ZM119.822 88.33V85.018H117.384C115.927 85.018 115.199 85.5317 115.199 86.559C115.199 87.7397 115.873 88.33 117.223 88.33H119.822ZM128.3 85.087H124.252V82.902H134.924V85.087H130.922V95H128.3V85.087ZM139.365 82.902V87.64H144.885V82.902H147.507V95H144.885V89.825H139.365V95H136.743V82.902H139.365ZM155.919 95.368C154.049 95.368 152.6 94.8007 151.572 93.666C150.545 92.5313 150.031 90.9597 150.031 88.951C150.031 87.9697 150.169 87.088 150.445 86.306C150.721 85.5087 151.12 84.834 151.641 84.282C152.163 83.73 152.784 83.3083 153.504 83.017C154.24 82.7103 155.061 82.557 155.965 82.557C156.885 82.557 157.706 82.7027 158.426 82.994C159.162 83.2853 159.783 83.707 160.289 84.259C160.795 84.811 161.179 85.478 161.439 86.26C161.715 87.042 161.853 87.9237 161.853 88.905C161.853 89.8863 161.715 90.7757 161.439 91.573C161.163 92.3703 160.765 93.0527 160.243 93.62C159.737 94.172 159.116 94.6013 158.38 94.908C157.66 95.2147 156.839 95.368 155.919 95.368ZM155.942 93.252C157.046 93.252 157.851 92.861 158.357 92.079C158.879 91.297 159.139 90.239 159.139 88.905C159.139 87.6017 158.879 86.5743 158.357 85.823C157.851 85.0563 157.046 84.673 155.942 84.673C154.838 84.673 154.026 85.0563 153.504 85.823C152.998 86.5743 152.745 87.6093 152.745 88.928C152.745 90.2467 152.998 91.297 153.504 92.079C154.026 92.861 154.838 93.252 155.942 93.252ZM175.087 91.458C174.872 92.7 174.343 93.666 173.5 94.356C172.672 95.0307 171.46 95.368 169.866 95.368C167.964 95.368 166.515 94.8083 165.519 93.689C164.537 92.5543 164.047 90.9903 164.047 88.997C164.047 87.9697 164.185 87.0573 164.461 86.26C164.752 85.4627 165.151 84.788 165.657 84.236C166.178 83.684 166.791 83.27 167.497 82.994C168.217 82.7027 169.007 82.557 169.866 82.557C170.786 82.557 171.583 82.7027 172.258 82.994C172.932 83.27 173.492 83.6687 173.937 84.19C174.381 84.7113 174.711 85.3323 174.926 86.053C175.14 86.7583 175.248 87.548 175.248 88.422V89.572H166.669C166.684 90.124 166.761 90.63 166.899 91.09C167.037 91.5347 167.236 91.9257 167.497 92.263C167.757 92.6003 168.087 92.861 168.486 93.045C168.884 93.229 169.344 93.321 169.866 93.321C170.694 93.321 171.315 93.16 171.729 92.838C172.143 92.5007 172.419 92.0407 172.557 91.458H175.087ZM172.695 87.778C172.695 86.7813 172.465 85.9917 172.005 85.409C171.56 84.8263 170.824 84.535 169.797 84.535C168.846 84.535 168.11 84.834 167.589 85.432C167.083 86.0147 166.791 86.7967 166.715 87.778H172.695ZM71.587 124.093C71.8017 124.17 72.024 124.223 72.254 124.254C72.484 124.3 72.714 124.323 72.944 124.323C73.3887 124.323 73.7413 124.208 74.002 123.978C74.278 123.748 74.531 123.334 74.761 122.736L75.198 121.609L70.161 109.902H73.197L76.486 118.665L79.522 109.902H82.374L77.337 122.736C77.0917 123.349 76.854 123.886 76.624 124.346C76.394 124.821 76.1333 125.212 75.842 125.519C75.5507 125.826 75.2057 126.056 74.807 126.209C74.4083 126.378 73.9253 126.462 73.358 126.462C72.9287 126.462 72.5377 126.431 72.185 126.37C71.8323 126.309 71.472 126.217 71.104 126.094L71.587 124.093ZM94.4702 109.902V122H91.8482V112.11H86.6042V122H83.9822V109.902H94.4702ZM103.165 111.696C102.107 111.696 101.302 112.033 100.75 112.708C100.213 113.383 99.9449 114.349 99.9449 115.606V116.342C99.9449 117.569 100.198 118.527 100.704 119.217C101.21 119.892 102 120.229 103.073 120.229C104.054 120.229 104.806 119.853 105.327 119.102C105.848 118.351 106.109 117.3 106.109 115.951C106.109 114.494 105.833 113.421 105.281 112.731C104.744 112.041 104.039 111.696 103.165 111.696ZM99.9219 109.902V111.581C100.014 111.474 100.152 111.305 100.336 111.075C100.535 110.845 100.788 110.623 101.095 110.408C101.417 110.178 101.8 109.979 102.245 109.81C102.69 109.641 103.211 109.557 103.809 109.557C104.744 109.557 105.526 109.733 106.155 110.086C106.799 110.439 107.32 110.906 107.719 111.489C108.118 112.072 108.401 112.746 108.57 113.513C108.754 114.28 108.846 115.085 108.846 115.928C108.846 116.817 108.731 117.653 108.501 118.435C108.286 119.217 107.957 119.899 107.512 120.482C107.067 121.065 106.515 121.525 105.856 121.862C105.212 122.199 104.453 122.368 103.579 122.368C103.042 122.368 102.567 122.299 102.153 122.161C101.754 122.023 101.409 121.862 101.118 121.678C100.827 121.494 100.589 121.31 100.405 121.126C100.221 120.927 100.083 120.766 99.9909 120.643V126.462H97.3689V109.902H99.9219ZM116.951 116.319C116.215 116.35 115.609 116.426 115.134 116.549C114.658 116.656 114.283 116.81 114.007 117.009C113.731 117.208 113.539 117.438 113.432 117.699C113.34 117.96 113.294 118.251 113.294 118.573C113.294 119.079 113.455 119.493 113.777 119.815C114.099 120.122 114.589 120.275 115.249 120.275C116.291 120.275 117.112 120.022 117.71 119.516C118.323 118.995 118.63 118.251 118.63 117.285V116.25L116.951 116.319ZM118.676 120.436C118.231 120.957 117.694 121.402 117.066 121.77C116.437 122.123 115.647 122.299 114.697 122.299C114.129 122.299 113.6 122.222 113.11 122.069C112.619 121.931 112.19 121.716 111.822 121.425C111.469 121.118 111.185 120.735 110.971 120.275C110.771 119.815 110.672 119.278 110.672 118.665C110.672 117.837 110.848 117.17 111.201 116.664C111.569 116.143 112.044 115.736 112.627 115.445C113.209 115.154 113.869 114.947 114.605 114.824C115.341 114.701 116.092 114.617 116.859 114.571L118.63 114.479V113.973C118.63 113.099 118.423 112.478 118.009 112.11C117.595 111.742 117.012 111.558 116.261 111.558C115.463 111.558 114.865 111.696 114.467 111.972C114.068 112.233 113.807 112.631 113.685 113.168L111.293 112.915C111.507 111.75 112.036 110.899 112.88 110.362C113.723 109.825 114.881 109.557 116.353 109.557C117.242 109.557 117.993 109.664 118.607 109.879C119.22 110.094 119.718 110.408 120.102 110.822C120.485 111.221 120.761 111.711 120.93 112.294C121.098 112.877 121.183 113.528 121.183 114.249V122H118.676V120.436ZM124.03 109.902H129.527C130.416 109.902 131.16 109.986 131.758 110.155C132.371 110.324 132.862 110.554 133.23 110.845C133.598 111.121 133.859 111.451 134.012 111.834C134.165 112.217 134.242 112.624 134.242 113.053C134.242 113.697 134.104 114.241 133.828 114.686C133.552 115.115 133.123 115.46 132.54 115.721C133.184 115.936 133.69 116.281 134.058 116.756C134.426 117.216 134.61 117.791 134.61 118.481C134.61 118.956 134.533 119.409 134.38 119.838C134.242 120.252 133.981 120.62 133.598 120.942C133.23 121.264 132.716 121.525 132.057 121.724C131.413 121.908 130.593 122 129.596 122H124.03V109.902ZM129.527 114.939C130.294 114.939 130.83 114.809 131.137 114.548C131.459 114.287 131.62 113.927 131.62 113.467C131.62 112.946 131.459 112.562 131.137 112.317C130.83 112.072 130.271 111.949 129.458 111.949H126.56V114.939H129.527ZM129.688 119.953C130.547 119.953 131.145 119.83 131.482 119.585C131.819 119.324 131.988 118.926 131.988 118.389C131.988 117.883 131.812 117.484 131.459 117.193C131.122 116.902 130.524 116.756 129.665 116.756H126.56V119.953H129.688ZM145.261 112.087H141.88L141.466 115.744C141.328 116.894 141.129 117.875 140.868 118.688C140.608 119.485 140.27 120.145 139.856 120.666C139.458 121.172 138.975 121.54 138.407 121.77C137.84 122 137.181 122.115 136.429 122.115H135.9V119.953H136.153C136.521 119.953 136.851 119.884 137.142 119.746C137.449 119.608 137.717 119.363 137.947 119.01C138.177 118.642 138.377 118.144 138.545 117.515C138.714 116.886 138.852 116.089 138.959 115.123L139.557 109.902H147.883V122H145.261V112.087ZM161.453 118.458C161.238 119.7 160.709 120.666 159.866 121.356C159.038 122.031 157.827 122.368 156.232 122.368C154.331 122.368 152.882 121.808 151.885 120.689C150.904 119.554 150.413 117.99 150.413 115.997C150.413 114.97 150.551 114.057 150.827 113.26C151.118 112.463 151.517 111.788 152.023 111.236C152.544 110.684 153.158 110.27 153.863 109.994C154.584 109.703 155.373 109.557 156.232 109.557C157.152 109.557 157.949 109.703 158.624 109.994C159.299 110.27 159.858 110.669 160.303 111.19C160.748 111.711 161.077 112.332 161.292 113.053C161.507 113.758 161.614 114.548 161.614 115.422V116.572H153.035C153.05 117.124 153.127 117.63 153.265 118.09C153.403 118.535 153.602 118.926 153.863 119.263C154.124 119.6 154.453 119.861 154.852 120.045C155.251 120.229 155.711 120.321 156.232 120.321C157.06 120.321 157.681 120.16 158.095 119.838C158.509 119.501 158.785 119.041 158.923 118.458H161.453ZM159.061 114.778C159.061 113.781 158.831 112.992 158.371 112.409C157.926 111.826 157.19 111.535 156.163 111.535C155.212 111.535 154.476 111.834 153.955 112.432C153.449 113.015 153.158 113.797 153.081 114.778H159.061ZM166.745 109.902V114.64H172.265V109.902H174.887V122H172.265V116.825H166.745V122H164.123V109.902H166.745ZM188.06 122H185.668V113.651L180.102 122H177.779V109.902H180.171V118.274L185.737 109.902H188.06V122ZM201.636 118.458C201.421 119.7 200.892 120.666 200.049 121.356C199.221 122.031 198.009 122.368 196.415 122.368C194.513 122.368 193.064 121.808 192.068 120.689C191.086 119.554 190.596 117.99 190.596 115.997C190.596 114.97 190.734 114.057 191.01 113.26C191.301 112.463 191.7 111.788 192.206 111.236C192.727 110.684 193.34 110.27 194.046 109.994C194.766 109.703 195.556 109.557 196.415 109.557C197.335 109.557 198.132 109.703 198.807 109.994C199.481 110.27 200.041 110.669 200.486 111.19C200.93 111.711 201.26 112.332 201.475 113.053C201.689 113.758 201.797 114.548 201.797 115.422V116.572H193.218C193.233 117.124 193.31 117.63 193.448 118.09C193.586 118.535 193.785 118.926 194.046 119.263C194.306 119.6 194.636 119.861 195.035 120.045C195.433 120.229 195.893 120.321 196.415 120.321C197.243 120.321 197.864 120.16 198.278 119.838C198.692 119.501 198.968 119.041 199.106 118.458H201.636ZM199.244 114.778C199.244 113.781 199.014 112.992 198.554 112.409C198.109 111.826 197.373 111.535 196.346 111.535C195.395 111.535 194.659 111.834 194.138 112.432C193.632 113.015 193.34 113.797 193.264 114.778H199.244Z" fill="#212121"/>
<rect x="207" y="119" width="10" height="10" rx="5" fill="#FF7819"/>
</svg>
