<svg width="344" height="306" viewBox="0 0 344 306" fill="none" xmlns="http://www.w3.org/2000/svg">
<rect width="344" height="306" fill="#F2F2F2"/>
<path d="M298.838 171.752C296.247 168.813 293.947 166.107 291.936 163.632C289.887 161.119 287.973 158.973 286.194 157.194C284.377 155.377 282.617 153.965 280.916 152.96C279.176 151.916 277.281 151.394 275.232 151.394C273.183 151.394 271.578 151.974 270.418 153.134C269.219 154.255 268.62 155.802 268.62 157.774C268.62 160.171 269.142 161.969 270.186 163.168C271.191 164.367 272.912 165.256 275.348 165.836L274.478 172.158C272.931 171.81 271.462 171.327 270.07 170.708C268.639 170.051 267.402 169.161 266.358 168.04C265.275 166.88 264.425 165.469 263.806 163.806C263.149 162.105 262.82 160.055 262.82 157.658C262.82 153.366 263.922 150.099 266.126 147.856C268.291 145.613 271.191 144.492 274.826 144.492C277.107 144.492 279.157 144.917 280.974 145.768C282.753 146.58 284.512 147.759 286.252 149.306C287.992 150.814 289.809 152.651 291.704 154.816C293.56 156.943 295.706 159.34 298.142 162.008V143.97L304 144.782V171.752H299.882H298.838ZM299.244 123.566C299.244 122.058 298.896 120.801 298.2 119.796C297.465 118.752 296.441 117.92 295.126 117.302C293.811 116.644 292.207 116.18 290.312 115.91C288.417 115.6 286.291 115.446 283.932 115.446C281.612 115.446 279.505 115.6 277.61 115.91C275.715 116.18 274.111 116.644 272.796 117.302C271.443 117.92 270.418 118.752 269.722 119.796C268.987 120.801 268.62 122.058 268.62 123.566C268.62 125.074 268.987 126.35 269.722 127.394C270.457 128.399 271.501 129.211 272.854 129.83C274.169 130.448 275.773 130.893 277.668 131.164C279.524 131.434 281.612 131.57 283.932 131.57C288.881 131.57 292.671 130.97 295.3 129.772C297.929 128.534 299.244 126.466 299.244 123.566ZM305.044 123.624C305.044 125.944 304.638 128.032 303.826 129.888C303.014 131.705 301.757 133.252 300.056 134.528C298.316 135.804 296.112 136.79 293.444 137.486C290.776 138.143 287.605 138.472 283.932 138.472C276.856 138.472 271.578 137.176 268.098 134.586C264.579 131.956 262.82 128.225 262.82 123.392C262.82 118.713 264.541 115.078 267.982 112.488C271.385 109.858 276.701 108.544 283.932 108.544C287.605 108.544 290.776 108.892 293.444 109.588C296.073 110.245 298.258 111.231 299.998 112.546C301.699 113.822 302.975 115.407 303.826 117.302C304.638 119.158 305.044 121.265 305.044 123.624ZM299.244 89.2416C299.244 87.7336 298.896 86.4769 298.2 85.4716C297.465 84.4276 296.441 83.5962 295.126 82.9776C293.811 82.3202 292.207 81.8562 290.312 81.5856C288.417 81.2762 286.291 81.1216 283.932 81.1216C281.612 81.1216 279.505 81.2762 277.61 81.5856C275.715 81.8562 274.111 82.3202 272.796 82.9776C271.443 83.5962 270.418 84.4276 269.722 85.4716C268.987 86.4769 268.62 87.7336 268.62 89.2416C268.62 90.7496 268.987 92.0256 269.722 93.0696C270.457 94.0749 271.501 94.8869 272.854 95.5056C274.169 96.1242 275.773 96.5689 277.668 96.8396C279.524 97.1102 281.612 97.2456 283.932 97.2456C288.881 97.2456 292.671 96.6462 295.3 95.4476C297.929 94.2102 299.244 92.1416 299.244 89.2416ZM305.044 89.2996C305.044 91.6196 304.638 93.7076 303.826 95.5636C303.014 97.3809 301.757 98.9276 300.056 100.204C298.316 101.48 296.112 102.466 293.444 103.162C290.776 103.819 287.605 104.148 283.932 104.148C276.856 104.148 271.578 102.852 268.098 100.262C264.579 97.6322 262.82 93.9009 262.82 89.0676C262.82 84.3889 264.541 80.7542 267.982 78.1636C271.385 75.5342 276.701 74.2196 283.932 74.2196C287.605 74.2196 290.776 74.5676 293.444 75.2636C296.073 75.9209 298.258 76.9069 299.998 78.2216C301.699 79.4976 302.975 81.0829 303.826 82.9776C304.638 84.8336 305.044 86.9409 305.044 89.2996ZM299.65 54.5693C299.65 52.3267 298.973 50.49 297.62 49.0593C296.228 47.6287 294.159 46.9133 291.414 46.9133C289.055 46.9133 287.141 47.474 285.672 48.5953C284.164 49.678 283.41 51.5147 283.41 54.1053C283.41 55.2267 283.584 56.2707 283.932 57.2373C284.241 58.204 284.744 59.0547 285.44 59.7893C286.136 60.4853 287.006 61.0267 288.05 61.4133C289.055 61.8 290.254 61.9353 291.646 61.8193C292.69 61.8193 293.695 61.6647 294.662 61.3553C295.629 61.046 296.479 60.6013 297.214 60.0213C297.949 59.4027 298.548 58.6487 299.012 57.7593C299.437 56.87 299.65 55.8067 299.65 54.5693ZM272.796 47.3193C272.139 47.59 271.578 47.8607 271.114 48.1313C270.65 48.3633 270.263 48.6533 269.954 49.0013C269.606 49.3493 269.335 49.7553 269.142 50.2193C268.91 50.6833 268.736 51.244 268.62 51.9013C268.465 52.6747 268.446 53.5833 268.562 54.6273C268.755 57.102 270.031 58.9773 272.39 60.2533C274.749 61.5293 278.093 62.2447 282.424 62.3993C280.955 61.2007 279.872 59.8087 279.176 58.2233C278.48 56.5993 278.113 54.7433 278.074 52.6553C278.074 50.606 278.383 48.8273 279.002 47.3193C279.621 45.7727 280.51 44.4967 281.67 43.4913C282.83 42.486 284.222 41.732 285.846 41.2293C287.47 40.7267 289.287 40.4753 291.298 40.4753C293.541 40.4753 295.532 40.8427 297.272 41.5773C298.973 42.312 300.404 43.3173 301.564 44.5933C302.724 45.8693 303.594 47.358 304.174 49.0593C304.754 50.7607 305.044 52.5973 305.044 54.5693C305.044 57.4693 304.483 59.8473 303.362 61.7033C302.241 63.5207 300.791 64.9707 299.012 66.0533C297.233 67.0973 295.261 67.832 293.096 68.2573C290.892 68.644 288.727 68.8373 286.6 68.8373C282.153 68.8373 278.422 68.4313 275.406 67.6193C272.351 66.8073 269.896 65.7053 268.04 64.3133C266.184 62.9213 264.85 61.2973 264.038 59.4413C263.226 57.5467 262.82 55.536 262.82 53.4093C262.82 49.5813 263.613 46.72 265.198 44.8253C266.783 42.892 269.219 41.616 272.506 40.9973L273.376 47.0873L272.796 47.3193Z" fill="#212121"/>
<path d="M26.624 252.632V253.832H22.448V261H21.056V252.632H26.624ZM31.1746 261.256C30.5453 261.256 29.9853 261.155 29.4946 260.952C29.004 260.739 28.588 260.44 28.2466 260.056C27.9053 259.672 27.644 259.208 27.4626 258.664C27.2813 258.12 27.1906 257.507 27.1906 256.824C27.1906 256.152 27.2866 255.544 27.4786 255C27.6706 254.445 27.9426 253.976 28.2946 253.592C28.6466 253.197 29.068 252.899 29.5586 252.696C30.06 252.483 30.6146 252.376 31.2226 252.376C31.8413 252.376 32.396 252.483 32.8866 252.696C33.3773 252.899 33.7933 253.192 34.1346 253.576C34.4866 253.949 34.7533 254.408 34.9346 254.952C35.116 255.485 35.2066 256.088 35.2066 256.76C35.2066 257.443 35.1106 258.061 34.9186 258.616C34.7373 259.171 34.4706 259.645 34.1186 260.04C33.7773 260.424 33.356 260.723 32.8546 260.936C32.3533 261.149 31.7933 261.256 31.1746 261.256ZM31.1906 260.104C31.6386 260.104 32.0226 260.024 32.3426 259.864C32.6626 259.693 32.924 259.464 33.1266 259.176C33.34 258.877 33.4946 258.525 33.5906 258.12C33.6866 257.715 33.7346 257.272 33.7346 256.792C33.7346 256.312 33.6866 255.875 33.5906 255.48C33.4946 255.075 33.34 254.728 33.1266 254.44C32.924 254.152 32.6626 253.928 32.3426 253.768C32.0226 253.608 31.6386 253.528 31.1906 253.528C30.7426 253.528 30.3586 253.608 30.0386 253.768C29.7293 253.928 29.468 254.152 29.2546 254.44C29.052 254.728 28.9026 255.075 28.8066 255.48C28.7106 255.875 28.6626 256.312 28.6626 256.792C28.6626 257.272 28.7106 257.715 28.8066 258.12C28.9026 258.525 29.052 258.877 29.2546 259.176C29.4573 259.464 29.7186 259.693 30.0386 259.864C30.3586 260.024 30.7426 260.104 31.1906 260.104ZM43.5149 252.632V259.816H44.4909V263.24H43.2269V261H36.9709V263.24H35.7069V259.816H36.5229C36.7149 259.635 36.8909 259.395 37.0509 259.096C37.2109 258.797 37.3549 258.429 37.4829 257.992C37.6109 257.544 37.7229 257.016 37.8189 256.408C37.9255 255.8 38.0162 255.096 38.0909 254.296L38.2349 252.632H43.5149ZM39.3229 255.048C39.1949 256.328 39.0189 257.347 38.7949 258.104C38.5815 258.861 38.3309 259.432 38.0429 259.816H42.1229V253.768H39.4509L39.3229 255.048ZM53.0809 261.256C52.4515 261.256 51.8915 261.155 51.4009 260.952C50.9102 260.739 50.4942 260.44 50.1529 260.056C49.8115 259.672 49.5502 259.208 49.3689 258.664C49.1875 258.12 49.0969 257.507 49.0969 256.824C49.0969 256.152 49.1929 255.544 49.3849 255C49.5769 254.445 49.8489 253.976 50.2009 253.592C50.5529 253.197 50.9742 252.899 51.4649 252.696C51.9662 252.483 52.5209 252.376 53.1289 252.376C53.7475 252.376 54.3022 252.483 54.7929 252.696C55.2835 252.899 55.6995 253.192 56.0409 253.576C56.3929 253.949 56.6595 254.408 56.8409 254.952C57.0222 255.485 57.1129 256.088 57.1129 256.76C57.1129 257.443 57.0169 258.061 56.8249 258.616C56.6435 259.171 56.3769 259.645 56.0249 260.04C55.6835 260.424 55.2622 260.723 54.7609 260.936C54.2595 261.149 53.6995 261.256 53.0809 261.256ZM53.0969 260.104C53.5449 260.104 53.9289 260.024 54.2489 259.864C54.5689 259.693 54.8302 259.464 55.0329 259.176C55.2462 258.877 55.4009 258.525 55.4969 258.12C55.5929 257.715 55.6409 257.272 55.6409 256.792C55.6409 256.312 55.5929 255.875 55.4969 255.48C55.4009 255.075 55.2462 254.728 55.0329 254.44C54.8302 254.152 54.5689 253.928 54.2489 253.768C53.9289 253.608 53.5449 253.528 53.0969 253.528C52.6489 253.528 52.2649 253.608 51.9449 253.768C51.6355 253.928 51.3742 254.152 51.1609 254.44C50.9582 254.728 50.8089 255.075 50.7129 255.48C50.6169 255.875 50.5689 256.312 50.5689 256.792C50.5689 257.272 50.6169 257.715 50.7129 258.12C50.8089 258.525 50.9582 258.877 51.1609 259.176C51.3635 259.464 51.6249 259.693 51.9449 259.864C52.2649 260.024 52.6489 260.104 53.0969 260.104ZM66.1463 258.2C66.0076 259.149 65.6449 259.896 65.0583 260.44C64.4716 260.984 63.6449 261.256 62.5783 261.256C61.9489 261.256 61.3889 261.155 60.8983 260.952C60.4183 260.749 60.0129 260.456 59.6823 260.072C59.3623 259.688 59.1169 259.224 58.9463 258.68C58.7863 258.136 58.7063 257.523 58.7063 256.84C58.7063 256.168 58.7969 255.56 58.9783 255.016C59.1596 254.461 59.4209 253.992 59.7623 253.608C60.1036 253.213 60.5196 252.909 61.0103 252.696C61.5009 252.483 62.0556 252.376 62.6743 252.376C63.6663 252.376 64.4343 252.621 64.9783 253.112C65.5223 253.592 65.8689 254.259 66.0183 255.112L64.6263 255.368C64.5729 255.101 64.4983 254.856 64.4023 254.632C64.3169 254.408 64.1943 254.216 64.0343 254.056C63.8743 253.885 63.6769 253.757 63.4423 253.672C63.2183 253.576 62.9463 253.528 62.6263 253.528C62.1889 253.528 61.8156 253.613 61.5063 253.784C61.1969 253.944 60.9409 254.173 60.7383 254.472C60.5463 254.771 60.4023 255.123 60.3063 255.528C60.2209 255.923 60.1783 256.349 60.1783 256.808C60.1783 257.277 60.2209 257.715 60.3063 258.12C60.3916 258.515 60.5303 258.861 60.7223 259.16C60.9143 259.448 61.1649 259.677 61.4743 259.848C61.7836 260.019 62.1623 260.104 62.6102 260.104C63.2823 260.104 63.7783 259.933 64.0983 259.592C64.4289 259.251 64.6423 258.787 64.7383 258.2H66.1463ZM69.2918 252.632V256.04H73.6918V252.632H75.0838V261H73.6918V257.224H69.2918V261H67.8997V252.632H69.2918ZM80.9246 261.256C80.2953 261.256 79.7353 261.155 79.2446 260.952C78.754 260.739 78.338 260.44 77.9966 260.056C77.6553 259.672 77.394 259.208 77.2126 258.664C77.0313 258.12 76.9406 257.507 76.9406 256.824C76.9406 256.152 77.0366 255.544 77.2286 255C77.4206 254.445 77.6926 253.976 78.0446 253.592C78.3966 253.197 78.818 252.899 79.3086 252.696C79.81 252.483 80.3646 252.376 80.9726 252.376C81.5913 252.376 82.146 252.483 82.6366 252.696C83.1273 252.899 83.5433 253.192 83.8846 253.576C84.2366 253.949 84.5033 254.408 84.6846 254.952C84.866 255.485 84.9566 256.088 84.9566 256.76C84.9566 257.443 84.8606 258.061 84.6686 258.616C84.4873 259.171 84.2206 259.645 83.8686 260.04C83.5273 260.424 83.106 260.723 82.6046 260.936C82.1033 261.149 81.5433 261.256 80.9246 261.256ZM80.9406 260.104C81.3886 260.104 81.7726 260.024 82.0926 259.864C82.4126 259.693 82.674 259.464 82.8766 259.176C83.09 258.877 83.2446 258.525 83.3406 258.12C83.4366 257.715 83.4846 257.272 83.4846 256.792C83.4846 256.312 83.4366 255.875 83.3406 255.48C83.2446 255.075 83.09 254.728 82.8766 254.44C82.674 254.152 82.4126 253.928 82.0926 253.768C81.7726 253.608 81.3886 253.528 80.9406 253.528C80.4926 253.528 80.1086 253.608 79.7886 253.768C79.4793 253.928 79.218 254.152 79.0046 254.44C78.802 254.728 78.6526 255.075 78.5566 255.48C78.4606 255.875 78.4126 256.312 78.4126 256.792C78.4126 257.272 78.4606 257.715 78.5566 258.12C78.6526 258.525 78.802 258.877 79.0046 259.176C79.2073 259.464 79.4686 259.693 79.7886 259.864C80.1086 260.024 80.4926 260.104 80.9406 260.104ZM86.806 252.632H90.422C91.0513 252.632 91.5687 252.691 91.974 252.808C92.39 252.925 92.7153 253.085 92.95 253.288C93.1953 253.491 93.366 253.72 93.462 253.976C93.558 254.232 93.606 254.499 93.606 254.776C93.606 255.213 93.51 255.592 93.318 255.912C93.1367 256.221 92.8273 256.467 92.39 256.648C92.8807 256.808 93.2487 257.059 93.494 257.4C93.75 257.741 93.878 258.141 93.878 258.6C93.878 258.941 93.8247 259.256 93.718 259.544C93.622 259.832 93.446 260.088 93.19 260.312C92.9447 260.525 92.6087 260.696 92.182 260.824C91.766 260.941 91.2327 261 90.582 261H86.806V252.632ZM90.486 256.2C91.094 256.2 91.5313 256.093 91.798 255.88C92.0753 255.667 92.214 255.363 92.214 254.968C92.214 254.563 92.07 254.259 91.782 254.056C91.5047 253.843 91.046 253.736 90.406 253.736H88.198V256.2H90.486ZM90.582 259.88C91.2753 259.88 91.7607 259.773 92.038 259.56C92.3153 259.336 92.454 259.011 92.454 258.584C92.454 258.157 92.3047 257.827 92.006 257.592C91.7073 257.347 91.238 257.224 90.598 257.224H88.198V259.88H90.582ZM100.693 259.864C100.394 260.227 100.015 260.541 99.5568 260.808C99.0981 261.064 98.5274 261.192 97.8448 261.192C97.4288 261.192 97.0448 261.139 96.6928 261.032C96.3514 260.936 96.0528 260.787 95.7968 260.584C95.5514 260.371 95.3594 260.109 95.2208 259.8C95.0821 259.491 95.0128 259.128 95.0128 258.712C95.0128 258.136 95.1301 257.667 95.3648 257.304C95.6101 256.931 95.9301 256.643 96.3248 256.44C96.7301 256.227 97.1834 256.083 97.6848 256.008C98.1861 255.923 98.7034 255.869 99.2368 255.848L100.661 255.8V255.464C100.661 254.76 100.511 254.253 100.213 253.944C99.9141 253.635 99.4288 253.48 98.7568 253.48C98.0954 253.48 97.6101 253.592 97.3008 253.816C96.9914 254.029 96.7888 254.328 96.6928 254.712L95.4288 254.568C95.5781 253.811 95.9354 253.261 96.5008 252.92C97.0661 252.568 97.8341 252.392 98.8048 252.392C99.4021 252.392 99.9034 252.467 100.309 252.616C100.725 252.755 101.061 252.957 101.317 253.224C101.573 253.491 101.754 253.821 101.861 254.216C101.978 254.611 102.037 255.053 102.037 255.544V261H100.693V259.864ZM100.661 256.792L99.3328 256.84C98.7674 256.861 98.2981 256.915 97.9248 257C97.5514 257.085 97.2528 257.203 97.0288 257.352C96.8154 257.501 96.6608 257.688 96.5648 257.912C96.4794 258.125 96.4368 258.381 96.4368 258.68C96.4368 259.096 96.5594 259.432 96.8048 259.688C97.0608 259.933 97.4768 260.056 98.0528 260.056C98.8741 260.056 99.5141 259.853 99.9728 259.448C100.431 259.043 100.661 258.488 100.661 257.784V256.792ZM105.526 252.632V256.04H109.926V252.632H111.318V261H109.926V257.224H105.526V261H104.134V252.632H105.526ZM120.327 261H119.015V254.696L114.743 261H113.431V252.632H114.727V258.952L118.999 252.632H120.327V261ZM121.759 261L123.311 258.312C123.577 257.853 123.871 257.544 124.191 257.384C123.657 257.267 123.236 257.011 122.927 256.616C122.617 256.221 122.463 255.715 122.463 255.096C122.463 254.744 122.516 254.419 122.623 254.12C122.729 253.821 122.905 253.56 123.151 253.336C123.407 253.112 123.743 252.941 124.159 252.824C124.575 252.696 125.092 252.632 125.711 252.632H129.039V261H127.647V257.656H126.447C126.191 257.656 125.972 257.672 125.791 257.704C125.62 257.736 125.471 257.789 125.343 257.864C125.215 257.939 125.097 258.04 124.991 258.168C124.884 258.296 124.777 258.456 124.671 258.648L123.327 261H121.759ZM127.647 256.504V253.768H125.727C124.5 253.768 123.887 254.195 123.887 255.048C123.887 256.019 124.457 256.504 125.599 256.504H127.647ZM134.728 261V252.632H136.104V256.264H136.664C136.867 256.264 137.043 256.243 137.192 256.2C137.352 256.157 137.496 256.088 137.624 255.992C137.752 255.885 137.869 255.752 137.976 255.592C138.083 255.432 138.195 255.229 138.312 254.984L138.792 253.992C138.909 253.747 139.027 253.539 139.144 253.368C139.272 253.197 139.411 253.059 139.56 252.952C139.72 252.835 139.901 252.755 140.104 252.712C140.307 252.659 140.547 252.632 140.824 252.632C140.973 252.632 141.112 252.643 141.24 252.664C141.379 252.685 141.48 252.707 141.544 252.728L141.4 253.8C141.368 253.779 141.304 253.763 141.208 253.752C141.112 253.741 141.005 253.736 140.888 253.736C140.611 253.736 140.403 253.8 140.264 253.928C140.136 254.045 140.013 254.237 139.896 254.504L139.432 255.512C139.304 255.811 139.155 256.056 138.984 256.248C138.824 256.429 138.616 256.579 138.36 256.696C138.584 256.781 138.781 256.904 138.952 257.064C139.123 257.224 139.304 257.443 139.496 257.72L141.688 261H140.088L138.168 258.12C137.976 257.832 137.784 257.619 137.592 257.48C137.4 257.341 137.128 257.272 136.776 257.272H136.104V261H134.728ZM146.237 261.256C145.608 261.256 145.048 261.155 144.557 260.952C144.066 260.739 143.65 260.44 143.309 260.056C142.968 259.672 142.706 259.208 142.525 258.664C142.344 258.12 142.253 257.507 142.253 256.824C142.253 256.152 142.349 255.544 142.541 255C142.733 254.445 143.005 253.976 143.357 253.592C143.709 253.197 144.13 252.899 144.621 252.696C145.122 252.483 145.677 252.376 146.285 252.376C146.904 252.376 147.458 252.483 147.949 252.696C148.44 252.899 148.856 253.192 149.197 253.576C149.549 253.949 149.816 254.408 149.997 254.952C150.178 255.485 150.269 256.088 150.269 256.76C150.269 257.443 150.173 258.061 149.981 258.616C149.8 259.171 149.533 259.645 149.181 260.04C148.84 260.424 148.418 260.723 147.917 260.936C147.416 261.149 146.856 261.256 146.237 261.256ZM146.253 260.104C146.701 260.104 147.085 260.024 147.405 259.864C147.725 259.693 147.986 259.464 148.189 259.176C148.402 258.877 148.557 258.525 148.653 258.12C148.749 257.715 148.797 257.272 148.797 256.792C148.797 256.312 148.749 255.875 148.653 255.48C148.557 255.075 148.402 254.728 148.189 254.44C147.986 254.152 147.725 253.928 147.405 253.768C147.085 253.608 146.701 253.528 146.253 253.528C145.805 253.528 145.421 253.608 145.101 253.768C144.792 253.928 144.53 254.152 144.317 254.44C144.114 254.728 143.965 255.075 143.869 255.48C143.773 255.875 143.725 256.312 143.725 256.792C143.725 257.272 143.773 257.715 143.869 258.12C143.965 258.525 144.114 258.877 144.317 259.176C144.52 259.464 144.781 259.693 145.101 259.864C145.421 260.024 145.805 260.104 146.253 260.104ZM152.135 252.632H153.831L156.663 259.528L159.591 252.632H161.207V261H159.927V254.664L157.191 261H156.039L153.431 254.728V261H152.135V252.632ZM170.313 252.632V261H168.921V253.832H164.745V261H163.353V252.632H170.313ZM177.615 259.864C177.316 260.227 176.937 260.541 176.479 260.808C176.02 261.064 175.449 261.192 174.767 261.192C174.351 261.192 173.967 261.139 173.615 261.032C173.273 260.936 172.975 260.787 172.719 260.584C172.473 260.371 172.281 260.109 172.143 259.8C172.004 259.491 171.935 259.128 171.935 258.712C171.935 258.136 172.052 257.667 172.287 257.304C172.532 256.931 172.852 256.643 173.247 256.44C173.652 256.227 174.105 256.083 174.607 256.008C175.108 255.923 175.625 255.869 176.159 255.848L177.583 255.8V255.464C177.583 254.76 177.433 254.253 177.135 253.944C176.836 253.635 176.351 253.48 175.679 253.48C175.017 253.48 174.532 253.592 174.223 253.816C173.913 254.029 173.711 254.328 173.615 254.712L172.351 254.568C172.5 253.811 172.857 253.261 173.423 252.92C173.988 252.568 174.756 252.392 175.727 252.392C176.324 252.392 176.825 252.467 177.231 252.616C177.647 252.755 177.983 252.957 178.239 253.224C178.495 253.491 178.676 253.821 178.783 254.216C178.9 254.611 178.959 255.053 178.959 255.544V261H177.615V259.864ZM177.583 256.792L176.255 256.84C175.689 256.861 175.22 256.915 174.847 257C174.473 257.085 174.175 257.203 173.951 257.352C173.737 257.501 173.583 257.688 173.487 257.912C173.401 258.125 173.359 258.381 173.359 258.68C173.359 259.096 173.481 259.432 173.727 259.688C173.983 259.933 174.399 260.056 174.975 260.056C175.796 260.056 176.436 259.853 176.895 259.448C177.353 259.043 177.583 258.488 177.583 257.784V256.792ZM182.448 252.632V256.04H186.848V252.632H188.24V261H186.848V257.224H182.448V261H181.056V252.632H182.448ZM197.249 261H195.937V254.696L191.665 261H190.353V252.632H191.649V258.952L195.921 252.632H197.249V261ZM206.265 261H204.953V254.696L200.681 261H199.368V252.632H200.664V258.952L204.937 252.632H206.265V261Z" fill="#212121"/>
</svg>
