<svg width="344" height="306" viewBox="0 0 344 306" fill="none" xmlns="http://www.w3.org/2000/svg">
<rect width="344" height="306" fill="#F2F2F2"/>
<path d="M293.038 164.024C294.082 163.869 295.01 163.637 295.822 163.328C296.595 162.98 297.253 162.535 297.794 161.994C298.297 161.414 298.683 160.699 298.954 159.848C299.186 158.959 299.302 157.895 299.302 156.658C299.302 154.454 298.664 152.733 297.388 151.496C296.073 150.22 293.966 149.582 291.066 149.582C288.553 149.582 286.639 150.181 285.324 151.38C284.009 152.54 283.352 154.338 283.352 156.774C283.352 158.398 283.623 159.79 284.164 160.95C284.667 162.11 285.421 163.154 286.426 164.082V169.708L263.922 167.794V145.348H269.722V162.342L280.22 163.27C279.485 162.187 278.925 160.989 278.538 159.674C278.151 158.321 277.958 156.929 277.958 155.498C277.958 153.217 278.345 151.283 279.118 149.698C279.853 148.113 280.839 146.837 282.076 145.87C283.275 144.865 284.667 144.149 286.252 143.724C287.799 143.26 289.365 143.028 290.95 143.028C293.386 143.028 295.493 143.376 297.272 144.072C299.012 144.729 300.462 145.657 301.622 146.856C302.782 148.055 303.633 149.485 304.174 151.148C304.754 152.772 305.044 154.531 305.044 156.426C305.044 160.834 304.077 164.217 302.144 166.576C300.172 168.935 297.137 170.269 293.038 170.578V164.024ZM299.244 122.566C299.244 121.058 298.896 119.801 298.2 118.796C297.465 117.752 296.441 116.92 295.126 116.302C293.811 115.644 292.207 115.18 290.312 114.91C288.417 114.6 286.291 114.446 283.932 114.446C281.612 114.446 279.505 114.6 277.61 114.91C275.715 115.18 274.111 115.644 272.796 116.302C271.443 116.92 270.418 117.752 269.722 118.796C268.987 119.801 268.62 121.058 268.62 122.566C268.62 124.074 268.987 125.35 269.722 126.394C270.457 127.399 271.501 128.211 272.854 128.83C274.169 129.448 275.773 129.893 277.668 130.164C279.524 130.434 281.612 130.57 283.932 130.57C288.881 130.57 292.671 129.97 295.3 128.772C297.929 127.534 299.244 125.466 299.244 122.566ZM305.044 122.624C305.044 124.944 304.638 127.032 303.826 128.888C303.014 130.705 301.757 132.252 300.056 133.528C298.316 134.804 296.112 135.79 293.444 136.486C290.776 137.143 287.605 137.472 283.932 137.472C276.856 137.472 271.578 136.176 268.098 133.586C264.579 130.956 262.82 127.225 262.82 122.392C262.82 117.713 264.541 114.078 267.982 111.488C271.385 108.858 276.701 107.544 283.932 107.544C287.605 107.544 290.776 107.892 293.444 108.588C296.073 109.245 298.258 110.231 299.998 111.546C301.699 112.822 302.975 114.407 303.826 116.302C304.638 118.158 305.044 120.265 305.044 122.624ZM299.244 88.2416C299.244 86.7336 298.896 85.4769 298.2 84.4716C297.465 83.4276 296.441 82.5962 295.126 81.9776C293.811 81.3202 292.207 80.8562 290.312 80.5856C288.417 80.2762 286.291 80.1216 283.932 80.1216C281.612 80.1216 279.505 80.2762 277.61 80.5856C275.715 80.8562 274.111 81.3202 272.796 81.9776C271.443 82.5962 270.418 83.4276 269.722 84.4716C268.987 85.4769 268.62 86.7336 268.62 88.2416C268.62 89.7496 268.987 91.0256 269.722 92.0696C270.457 93.0749 271.501 93.8869 272.854 94.5056C274.169 95.1242 275.773 95.5689 277.668 95.8396C279.524 96.1102 281.612 96.2456 283.932 96.2456C288.881 96.2456 292.671 95.6462 295.3 94.4476C297.929 93.2102 299.244 91.1416 299.244 88.2416ZM305.044 88.2996C305.044 90.6196 304.638 92.7076 303.826 94.5636C303.014 96.3809 301.757 97.9276 300.056 99.2036C298.316 100.48 296.112 101.466 293.444 102.162C290.776 102.819 287.605 103.148 283.932 103.148C276.856 103.148 271.578 101.852 268.098 99.2616C264.579 96.6322 262.82 92.9009 262.82 88.0676C262.82 83.3889 264.541 79.7542 267.982 77.1636C271.385 74.5342 276.701 73.2196 283.932 73.2196C287.605 73.2196 290.776 73.5676 293.444 74.2636C296.073 74.9209 298.258 75.9069 299.998 77.2216C301.699 78.4976 302.975 80.0829 303.826 81.9776C304.638 83.8336 305.044 85.9409 305.044 88.2996ZM287.122 67.4893H281.38V56.8173H269.896V50.9013H281.38V40.2293H287.122V50.9013H298.606V56.8173H287.122V67.4893Z" fill="#212121"/>
<path d="M20.072 252.632H21.448V253.816C21.7893 253.347 22.184 252.989 22.632 252.744C23.0907 252.499 23.624 252.376 24.232 252.376C24.8187 252.376 25.3307 252.483 25.768 252.696C26.216 252.909 26.584 253.208 26.872 253.592C27.1707 253.976 27.3893 254.44 27.528 254.984C27.6773 255.517 27.752 256.109 27.752 256.76C27.752 257.453 27.6667 258.077 27.496 258.632C27.3253 259.187 27.08 259.661 26.76 260.056C26.44 260.44 26.0507 260.739 25.592 260.952C25.144 261.155 24.6373 261.256 24.072 261.256C23.6027 261.256 23.1387 261.165 22.68 260.984C22.232 260.792 21.8267 260.456 21.464 259.976V264.104H20.072V252.632ZM21.448 257.048C21.448 257.592 21.5067 258.056 21.624 258.44C21.752 258.824 21.9227 259.144 22.136 259.4C22.3493 259.645 22.6053 259.827 22.904 259.944C23.2027 260.051 23.528 260.104 23.88 260.104C24.2213 260.104 24.536 260.045 24.824 259.928C25.1227 259.811 25.3787 259.619 25.592 259.352C25.8053 259.085 25.9707 258.744 26.088 258.328C26.216 257.901 26.28 257.384 26.28 256.776C26.28 256.157 26.2107 255.64 26.072 255.224C25.944 254.808 25.7733 254.477 25.56 254.232C25.3467 253.976 25.1013 253.795 24.824 253.688C24.5573 253.581 24.28 253.528 23.992 253.528C23.6293 253.528 23.2933 253.587 22.984 253.704C22.6747 253.821 22.4027 254.003 22.168 254.248C21.944 254.483 21.768 254.787 21.64 255.16C21.512 255.523 21.448 255.949 21.448 256.44V257.048ZM36.7709 258.68C36.6322 259.48 36.2749 260.109 35.6989 260.568C35.1335 261.027 34.3175 261.256 33.2509 261.256C31.9922 261.256 31.0269 260.872 30.3549 260.104C29.6829 259.325 29.3469 258.248 29.3469 256.872C29.3469 256.157 29.4429 255.523 29.6349 254.968C29.8269 254.403 30.0935 253.928 30.4349 253.544C30.7869 253.16 31.2029 252.872 31.6829 252.68C32.1629 252.477 32.6855 252.376 33.2509 252.376C33.8909 252.376 34.4402 252.477 34.8989 252.68C35.3575 252.883 35.7309 253.165 36.0189 253.528C36.3175 253.891 36.5362 254.323 36.6749 254.824C36.8242 255.325 36.8989 255.869 36.8989 256.456V257.144H30.7549C30.7549 257.581 30.8082 257.981 30.9149 258.344C31.0322 258.707 31.1922 259.021 31.3949 259.288C31.6082 259.555 31.8695 259.763 32.1789 259.912C32.4882 260.061 32.8455 260.136 33.2509 260.136C33.9442 260.136 34.4509 260.008 34.7709 259.752C35.0909 259.485 35.3095 259.128 35.4269 258.68H36.7709ZM35.5069 256.104C35.5069 255.315 35.3309 254.68 34.9789 254.2C34.6269 253.709 34.0455 253.464 33.2349 253.464C32.4989 253.464 31.9229 253.693 31.5069 254.152C31.0909 254.6 30.8509 255.251 30.7869 256.104H35.5069ZM43.8959 259.864C43.5972 260.227 43.2185 260.541 42.7599 260.808C42.3012 261.064 41.7305 261.192 41.0479 261.192C40.6319 261.192 40.2479 261.139 39.8959 261.032C39.5545 260.936 39.2559 260.787 38.9999 260.584C38.7545 260.371 38.5625 260.109 38.4239 259.8C38.2852 259.491 38.2159 259.128 38.2159 258.712C38.2159 258.136 38.3332 257.667 38.5679 257.304C38.8132 256.931 39.1332 256.643 39.5279 256.44C39.9332 256.227 40.3865 256.083 40.8879 256.008C41.3892 255.923 41.9065 255.869 42.4399 255.848L43.8639 255.8V255.464C43.8639 254.76 43.7145 254.253 43.4159 253.944C43.1172 253.635 42.6319 253.48 41.9599 253.48C41.2985 253.48 40.8132 253.592 40.5039 253.816C40.1945 254.029 39.9919 254.328 39.8959 254.712L38.6319 254.568C38.7812 253.811 39.1385 253.261 39.7039 252.92C40.2692 252.568 41.0372 252.392 42.0079 252.392C42.6052 252.392 43.1065 252.467 43.5119 252.616C43.9279 252.755 44.2639 252.957 44.5199 253.224C44.7759 253.491 44.9572 253.821 45.0639 254.216C45.1812 254.611 45.2399 255.053 45.2399 255.544V261H43.8959V259.864ZM43.8639 256.792L42.5359 256.84C41.9705 256.861 41.5012 256.915 41.1279 257C40.7545 257.085 40.4559 257.203 40.2319 257.352C40.0185 257.501 39.8639 257.688 39.7679 257.912C39.6825 258.125 39.6399 258.381 39.6399 258.68C39.6399 259.096 39.7625 259.432 40.0079 259.688C40.2639 259.933 40.6799 260.056 41.2559 260.056C42.0772 260.056 42.7172 259.853 43.1759 259.448C43.6345 259.043 43.8639 258.488 43.8639 257.784V256.792ZM52.9693 253.768H50.2013L49.8493 256.648C49.7533 257.448 49.6199 258.131 49.4493 258.696C49.2786 259.251 49.0599 259.709 48.7933 260.072C48.5266 260.424 48.2066 260.68 47.8333 260.84C47.4706 261 47.0439 261.08 46.5533 261.08H46.2812V259.912H46.4413C46.7186 259.912 46.9639 259.859 47.1773 259.752C47.4013 259.645 47.5986 259.453 47.7693 259.176C47.9506 258.899 48.1053 258.515 48.2333 258.024C48.3613 257.533 48.4679 256.909 48.5533 256.152L48.9533 252.632H54.3612V261H52.9693V253.768ZM63.3739 261H62.0619V254.696L57.7899 261H56.4779V252.632H57.7739V258.952L62.0459 252.632H63.3739V261ZM68.6295 252.376C69.1948 252.376 69.6802 252.435 70.0855 252.552C70.5015 252.669 70.8428 252.835 71.1095 253.048C71.3868 253.251 71.5895 253.491 71.7175 253.768C71.8455 254.035 71.9095 254.328 71.9095 254.648C71.9095 255.117 71.7815 255.523 71.5255 255.864C71.2695 256.195 70.9442 256.435 70.5495 256.584C71.0188 256.733 71.3975 256.979 71.6855 257.32C71.9735 257.651 72.1175 258.099 72.1175 258.664C72.1175 259.037 72.0482 259.379 71.9095 259.688C71.7708 259.997 71.5522 260.269 71.2535 260.504C70.9655 260.739 70.5922 260.92 70.1335 261.048C69.6855 261.176 69.1522 261.24 68.5335 261.24C67.4668 261.24 66.6188 261.032 65.9895 260.616C65.3602 260.189 65.0135 259.501 64.9495 258.552H66.2935C66.3788 259.117 66.6082 259.523 66.9815 259.768C67.3548 260.003 67.8935 260.12 68.5975 260.12C69.3762 260.12 69.9148 259.987 70.2135 259.72C70.5228 259.443 70.6775 259.085 70.6775 258.648C70.6775 258.168 70.5175 257.805 70.1975 257.56C69.8775 257.315 69.4242 257.192 68.8375 257.192H67.1575V256.168H68.9015C69.4242 256.168 69.8188 256.051 70.0855 255.816C70.3628 255.571 70.5015 255.24 70.5015 254.824C70.5015 254.408 70.3468 254.088 70.0375 253.864C69.7282 253.629 69.2482 253.512 68.5975 253.512C68.2242 253.512 67.9095 253.544 67.6535 253.608C67.3975 253.661 67.1842 253.747 67.0135 253.864C66.8535 253.981 66.7202 254.131 66.6135 254.312C66.5068 254.483 66.4162 254.68 66.3415 254.904L65.0775 254.68C65.1628 254.349 65.2855 254.045 65.4455 253.768C65.6162 253.48 65.8402 253.235 66.1175 253.032C66.3948 252.829 66.7362 252.669 67.1415 252.552C67.5575 252.435 68.0535 252.376 68.6295 252.376ZM77.6278 261.256C76.9984 261.256 76.4384 261.155 75.9478 260.952C75.4571 260.739 75.0411 260.44 74.6998 260.056C74.3584 259.672 74.0971 259.208 73.9158 258.664C73.7344 258.12 73.6438 257.507 73.6438 256.824C73.6438 256.152 73.7398 255.544 73.9318 255C74.1238 254.445 74.3958 253.976 74.7478 253.592C75.0998 253.197 75.5211 252.899 76.0118 252.696C76.5131 252.483 77.0678 252.376 77.6758 252.376C78.2944 252.376 78.8491 252.483 79.3398 252.696C79.8304 252.899 80.2464 253.192 80.5878 253.576C80.9398 253.949 81.2064 254.408 81.3878 254.952C81.5691 255.485 81.6597 256.088 81.6597 256.76C81.6597 257.443 81.5638 258.061 81.3718 258.616C81.1904 259.171 80.9238 259.645 80.5718 260.04C80.2304 260.424 79.8091 260.723 79.3078 260.936C78.8064 261.149 78.2464 261.256 77.6278 261.256ZM77.6438 260.104C78.0918 260.104 78.4758 260.024 78.7958 259.864C79.1158 259.693 79.3771 259.464 79.5798 259.176C79.7931 258.877 79.9478 258.525 80.0438 258.12C80.1398 257.715 80.1878 257.272 80.1878 256.792C80.1878 256.312 80.1398 255.875 80.0438 255.48C79.9478 255.075 79.7931 254.728 79.5798 254.44C79.3771 254.152 79.1158 253.928 78.7958 253.768C78.4758 253.608 78.0918 253.528 77.6438 253.528C77.1958 253.528 76.8118 253.608 76.4918 253.768C76.1824 253.928 75.9211 254.152 75.7078 254.44C75.5051 254.728 75.3558 255.075 75.2598 255.48C75.1638 255.875 75.1158 256.312 75.1158 256.792C75.1158 257.272 75.1638 257.715 75.2598 258.12C75.3558 258.525 75.5051 258.877 75.7078 259.176C75.9104 259.464 76.1718 259.693 76.4918 259.864C76.8118 260.024 77.1958 260.104 77.6438 260.104ZM83.5091 252.632H87.1251C87.7545 252.632 88.2718 252.691 88.6771 252.808C89.0931 252.925 89.4185 253.085 89.6531 253.288C89.8985 253.491 90.0691 253.72 90.1651 253.976C90.2611 254.232 90.3091 254.499 90.3091 254.776C90.3091 255.213 90.2131 255.592 90.0211 255.912C89.8398 256.221 89.5305 256.467 89.0931 256.648C89.5838 256.808 89.9518 257.059 90.1971 257.4C90.4531 257.741 90.5811 258.141 90.5811 258.6C90.5811 258.941 90.5278 259.256 90.4211 259.544C90.3251 259.832 90.1491 260.088 89.8931 260.312C89.6478 260.525 89.3118 260.696 88.8851 260.824C88.4691 260.941 87.9358 261 87.2851 261H83.5091V252.632ZM87.1891 256.2C87.7971 256.2 88.2345 256.093 88.5011 255.88C88.7785 255.667 88.9171 255.363 88.9171 254.968C88.9171 254.563 88.7731 254.259 88.4851 254.056C88.2078 253.843 87.7491 253.736 87.1091 253.736H84.9011V256.2H87.1891ZM87.2851 259.88C87.9785 259.88 88.4638 259.773 88.7411 259.56C89.0185 259.336 89.1571 259.011 89.1571 258.584C89.1571 258.157 89.0078 257.827 88.7091 257.592C88.4105 257.347 87.9411 257.224 87.3011 257.224H84.9011V259.88H87.2851ZM97.3959 259.864C97.0972 260.227 96.7185 260.541 96.2599 260.808C95.8012 261.064 95.2305 261.192 94.5479 261.192C94.1319 261.192 93.7479 261.139 93.3959 261.032C93.0545 260.936 92.7559 260.787 92.4999 260.584C92.2545 260.371 92.0625 260.109 91.9239 259.8C91.7852 259.491 91.7159 259.128 91.7159 258.712C91.7159 258.136 91.8332 257.667 92.0679 257.304C92.3132 256.931 92.6332 256.643 93.0279 256.44C93.4332 256.227 93.8865 256.083 94.3879 256.008C94.8892 255.923 95.4065 255.869 95.9399 255.848L97.3639 255.8V255.464C97.3639 254.76 97.2145 254.253 96.9159 253.944C96.6172 253.635 96.1319 253.48 95.4599 253.48C94.7985 253.48 94.3132 253.592 94.0039 253.816C93.6945 254.029 93.4919 254.328 93.3959 254.712L92.1319 254.568C92.2812 253.811 92.6385 253.261 93.2039 252.92C93.7692 252.568 94.5372 252.392 95.5079 252.392C96.1052 252.392 96.6065 252.467 97.0119 252.616C97.4279 252.755 97.7639 252.957 98.0199 253.224C98.2759 253.491 98.4572 253.821 98.5639 254.216C98.6812 254.611 98.7399 255.053 98.7399 255.544V261H97.3959V259.864ZM97.3639 256.792L96.0359 256.84C95.4705 256.861 95.0012 256.915 94.6279 257C94.2545 257.085 93.9559 257.203 93.7319 257.352C93.5185 257.501 93.3639 257.688 93.2679 257.912C93.1825 258.125 93.1399 258.381 93.1399 258.68C93.1399 259.096 93.2625 259.432 93.5079 259.688C93.7639 259.933 94.1799 260.056 94.7559 260.056C95.5772 260.056 96.2172 259.853 96.6759 259.448C97.1345 259.043 97.3639 258.488 97.3639 257.784V256.792ZM102.229 252.632V256.04H106.629V252.632H108.021V261H106.629V257.224H102.229V261H100.837V252.632H102.229ZM111.526 252.632V256.04H115.926V252.632H117.318V261H115.926V257.224H111.526V261H110.134V252.632H111.526ZM120.823 252.632V255.704H123.319C124.364 255.704 125.122 255.944 125.591 256.424C126.06 256.893 126.295 257.523 126.295 258.312C126.295 259.112 126.034 259.763 125.511 260.264C124.999 260.755 124.194 261 123.095 261H119.431V252.632H120.823ZM127.415 252.632H128.807V261H127.415V252.632ZM120.823 259.848H123.159C123.746 259.848 124.172 259.72 124.439 259.464C124.706 259.197 124.839 258.824 124.839 258.344C124.839 257.853 124.711 257.48 124.455 257.224C124.21 256.968 123.756 256.84 123.095 256.84H120.823V259.848ZM133.107 256.6L130.323 252.632H131.955L133.955 255.592L136.019 252.632H137.491L134.755 256.584L137.795 261H136.179L133.875 257.608L131.571 261H130.035L133.107 256.6ZM149.516 252.632V261H148.124V253.832H143.948V261H142.556V252.632H149.516ZM151.666 252.632H153.042V253.816C153.383 253.347 153.778 252.989 154.226 252.744C154.684 252.499 155.218 252.376 155.826 252.376C156.412 252.376 156.924 252.483 157.362 252.696C157.81 252.909 158.178 253.208 158.466 253.592C158.764 253.976 158.983 254.44 159.122 254.984C159.271 255.517 159.346 256.109 159.346 256.76C159.346 257.453 159.26 258.077 159.09 258.632C158.919 259.187 158.674 259.661 158.354 260.056C158.034 260.44 157.644 260.739 157.186 260.952C156.738 261.155 156.231 261.256 155.666 261.256C155.196 261.256 154.732 261.165 154.274 260.984C153.826 260.792 153.42 260.456 153.058 259.976V264.104H151.666V252.632ZM153.042 257.048C153.042 257.592 153.1 258.056 153.218 258.44C153.346 258.824 153.516 259.144 153.73 259.4C153.943 259.645 154.199 259.827 154.498 259.944C154.796 260.051 155.122 260.104 155.474 260.104C155.815 260.104 156.13 260.045 156.418 259.928C156.716 259.811 156.972 259.619 157.186 259.352C157.399 259.085 157.564 258.744 157.682 258.328C157.81 257.901 157.874 257.384 157.874 256.776C157.874 256.157 157.804 255.64 157.666 255.224C157.538 254.808 157.367 254.477 157.154 254.232C156.94 253.976 156.695 253.795 156.418 253.688C156.151 253.581 155.874 253.528 155.586 253.528C155.223 253.528 154.887 253.587 154.578 253.704C154.268 253.821 153.996 254.003 153.762 254.248C153.538 254.483 153.362 254.787 153.234 255.16C153.106 255.523 153.042 255.949 153.042 256.44V257.048ZM164.925 261.256C164.295 261.256 163.735 261.155 163.245 260.952C162.754 260.739 162.338 260.44 161.997 260.056C161.655 259.672 161.394 259.208 161.213 258.664C161.031 258.12 160.941 257.507 160.941 256.824C160.941 256.152 161.037 255.544 161.229 255C161.421 254.445 161.693 253.976 162.045 253.592C162.397 253.197 162.818 252.899 163.309 252.696C163.81 252.483 164.365 252.376 164.973 252.376C165.591 252.376 166.146 252.483 166.637 252.696C167.127 252.899 167.543 253.192 167.885 253.576C168.237 253.949 168.503 254.408 168.685 254.952C168.866 255.485 168.957 256.088 168.957 256.76C168.957 257.443 168.861 258.061 168.669 258.616C168.487 259.171 168.221 259.645 167.869 260.04C167.527 260.424 167.106 260.723 166.605 260.936C166.103 261.149 165.543 261.256 164.925 261.256ZM164.941 260.104C165.389 260.104 165.773 260.024 166.093 259.864C166.413 259.693 166.674 259.464 166.877 259.176C167.09 258.877 167.245 258.525 167.341 258.12C167.437 257.715 167.485 257.272 167.485 256.792C167.485 256.312 167.437 255.875 167.341 255.48C167.245 255.075 167.09 254.728 166.877 254.44C166.674 254.152 166.413 253.928 166.093 253.768C165.773 253.608 165.389 253.528 164.941 253.528C164.493 253.528 164.109 253.608 163.789 253.768C163.479 253.928 163.218 254.152 163.005 254.44C162.802 254.728 162.653 255.075 162.557 255.48C162.461 255.875 162.413 256.312 162.413 256.792C162.413 257.272 162.461 257.715 162.557 258.12C162.653 258.525 162.802 258.877 163.005 259.176C163.207 259.464 163.469 259.693 163.789 259.864C164.109 260.024 164.493 260.104 164.941 260.104ZM177.974 258.68C177.835 259.48 177.478 260.109 176.902 260.568C176.337 261.027 175.521 261.256 174.454 261.256C173.195 261.256 172.23 260.872 171.558 260.104C170.886 259.325 170.55 258.248 170.55 256.872C170.55 256.157 170.646 255.523 170.838 254.968C171.03 254.403 171.297 253.928 171.638 253.544C171.99 253.16 172.406 252.872 172.886 252.68C173.366 252.477 173.889 252.376 174.454 252.376C175.094 252.376 175.643 252.477 176.102 252.68C176.561 252.883 176.934 253.165 177.222 253.528C177.521 253.891 177.739 254.323 177.878 254.824C178.027 255.325 178.102 255.869 178.102 256.456V257.144H171.958C171.958 257.581 172.011 257.981 172.118 258.344C172.235 258.707 172.395 259.021 172.598 259.288C172.811 259.555 173.073 259.763 173.382 259.912C173.691 260.061 174.049 260.136 174.454 260.136C175.147 260.136 175.654 260.008 175.974 259.752C176.294 259.485 176.513 259.128 176.63 258.68H177.974ZM176.71 256.104C176.71 255.315 176.534 254.68 176.182 254.2C175.83 253.709 175.249 253.464 174.438 253.464C173.702 253.464 173.126 253.693 172.71 254.152C172.294 254.6 172.054 255.251 171.99 256.104H176.71ZM179.931 261V252.632H181.307V256.264H181.867C182.07 256.264 182.246 256.243 182.395 256.2C182.555 256.157 182.699 256.088 182.827 255.992C182.955 255.885 183.072 255.752 183.179 255.592C183.286 255.432 183.398 255.229 183.515 254.984L183.995 253.992C184.112 253.747 184.23 253.539 184.347 253.368C184.475 253.197 184.614 253.059 184.763 252.952C184.923 252.835 185.104 252.755 185.307 252.712C185.51 252.659 185.75 252.632 186.027 252.632C186.176 252.632 186.315 252.643 186.443 252.664C186.582 252.685 186.683 252.707 186.747 252.728L186.603 253.8C186.571 253.779 186.507 253.763 186.411 253.752C186.315 253.741 186.208 253.736 186.091 253.736C185.814 253.736 185.606 253.8 185.467 253.928C185.339 254.045 185.216 254.237 185.099 254.504L184.635 255.512C184.507 255.811 184.358 256.056 184.187 256.248C184.027 256.429 183.819 256.579 183.563 256.696C183.787 256.781 183.984 256.904 184.155 257.064C184.326 257.224 184.507 257.443 184.699 257.72L186.891 261H185.291L183.371 258.12C183.179 257.832 182.987 257.619 182.795 257.48C182.603 257.341 182.331 257.272 181.979 257.272H181.307V261H179.931ZM190.683 253.816H187.787V252.632H194.939V253.816H192.075V261H190.683V253.816ZM199.69 261.256C199.061 261.256 198.501 261.155 198.01 260.952C197.52 260.739 197.104 260.44 196.762 260.056C196.421 259.672 196.16 259.208 195.978 258.664C195.797 258.12 195.706 257.507 195.706 256.824C195.706 256.152 195.802 255.544 195.994 255C196.186 254.445 196.458 253.976 196.81 253.592C197.162 253.197 197.584 252.899 198.074 252.696C198.576 252.483 199.13 252.376 199.738 252.376C200.357 252.376 200.912 252.483 201.402 252.696C201.893 252.899 202.309 253.192 202.65 253.576C203.002 253.949 203.269 254.408 203.45 254.952C203.632 255.485 203.722 256.088 203.722 256.76C203.722 257.443 203.626 258.061 203.434 258.616C203.253 259.171 202.986 259.645 202.634 260.04C202.293 260.424 201.872 260.723 201.37 260.936C200.869 261.149 200.309 261.256 199.69 261.256ZM199.706 260.104C200.154 260.104 200.538 260.024 200.858 259.864C201.178 259.693 201.44 259.464 201.642 259.176C201.856 258.877 202.01 258.525 202.106 258.12C202.202 257.715 202.25 257.272 202.25 256.792C202.25 256.312 202.202 255.875 202.106 255.48C202.01 255.075 201.856 254.728 201.642 254.44C201.44 254.152 201.178 253.928 200.858 253.768C200.538 253.608 200.154 253.528 199.706 253.528C199.258 253.528 198.874 253.608 198.554 253.768C198.245 253.928 197.984 254.152 197.77 254.44C197.568 254.728 197.418 255.075 197.322 255.48C197.226 255.875 197.178 256.312 197.178 256.792C197.178 257.272 197.226 257.715 197.322 258.12C197.418 258.525 197.568 258.877 197.77 259.176C197.973 259.464 198.234 259.693 198.554 259.864C198.874 260.024 199.258 260.104 199.706 260.104ZM205.572 252.632H209.188C209.817 252.632 210.334 252.691 210.74 252.808C211.156 252.925 211.481 253.085 211.716 253.288C211.961 253.491 212.132 253.72 212.228 253.976C212.324 254.232 212.372 254.499 212.372 254.776C212.372 255.213 212.276 255.592 212.084 255.912C211.902 256.221 211.593 256.467 211.156 256.648C211.646 256.808 212.014 257.059 212.26 257.4C212.516 257.741 212.644 258.141 212.644 258.6C212.644 258.941 212.59 259.256 212.484 259.544C212.388 259.832 212.212 260.088 211.956 260.312C211.71 260.525 211.374 260.696 210.948 260.824C210.532 260.941 209.998 261 209.348 261H205.572V252.632ZM209.252 256.2C209.86 256.2 210.297 256.093 210.564 255.88C210.841 255.667 210.98 255.363 210.98 254.968C210.98 254.563 210.836 254.259 210.548 254.056C210.27 253.843 209.812 253.736 209.172 253.736H206.964V256.2H209.252ZM209.348 259.88C210.041 259.88 210.526 259.773 210.804 259.56C211.081 259.336 211.22 259.011 211.22 258.584C211.22 258.157 211.07 257.827 210.772 257.592C210.473 257.347 210.004 257.224 209.364 257.224H206.964V259.88H209.348Z" fill="#212121"/>
</svg>
