<svg width="344" height="350" viewBox="0 0 344 350" fill="none" xmlns="http://www.w3.org/2000/svg">
<rect width="344" height="350" fill="#F2F2F2"/>
<path d="M276.566 165.996L271.694 168.896L263.922 156.484V150.684H304V157.412H271.404L276.566 165.996ZM272.564 119.202L289.21 130.976V119.202H272.564ZM263.922 119.086V112.88H289.21V107.602L294.546 108.414V112.88H304V119.202H294.546V137.82H289.848L263.922 119.086ZM299.244 88.2416C299.244 86.7336 298.896 85.4769 298.2 84.4716C297.465 83.4276 296.441 82.5962 295.126 81.9776C293.811 81.3202 292.207 80.8562 290.312 80.5856C288.417 80.2762 286.291 80.1216 283.932 80.1216C281.612 80.1216 279.505 80.2762 277.61 80.5856C275.715 80.8562 274.111 81.3202 272.796 81.9776C271.443 82.5962 270.418 83.4276 269.722 84.4716C268.987 85.4769 268.62 86.7336 268.62 88.2416C268.62 89.7496 268.987 91.0256 269.722 92.0696C270.457 93.0749 271.501 93.8869 272.854 94.5056C274.169 95.1242 275.773 95.5689 277.668 95.8396C279.524 96.1102 281.612 96.2456 283.932 96.2456C288.881 96.2456 292.671 95.6462 295.3 94.4476C297.929 93.2102 299.244 91.1416 299.244 88.2416ZM305.044 88.2996C305.044 90.6196 304.638 92.7076 303.826 94.5636C303.014 96.3809 301.757 97.9276 300.056 99.2036C298.316 100.48 296.112 101.466 293.444 102.162C290.776 102.819 287.605 103.148 283.932 103.148C276.856 103.148 271.578 101.852 268.098 99.2616C264.579 96.6322 262.82 92.9009 262.82 88.0676C262.82 83.3889 264.541 79.7542 267.982 77.1636C271.385 74.5342 276.701 73.2196 283.932 73.2196C287.605 73.2196 290.776 73.5676 293.444 74.2636C296.073 74.9209 298.258 75.9069 299.998 77.2216C301.699 78.4976 302.975 80.0829 303.826 81.9776C304.638 83.8336 305.044 85.9409 305.044 88.2996ZM287.122 67.4893H281.38V56.8173H269.896V50.9013H281.38V40.2293H287.122V50.9013H298.606V56.8173H287.122V67.4893Z" fill="#212121"/>
<path d="M35.24 254.2C35.1013 255.149 34.7387 255.896 34.152 256.44C33.5653 256.984 32.7387 257.256 31.672 257.256C31.0427 257.256 30.4827 257.155 29.992 256.952C29.512 256.749 29.1067 256.456 28.776 256.072C28.456 255.688 28.2107 255.224 28.04 254.68C27.88 254.136 27.8 253.523 27.8 252.84C27.8 252.168 27.8907 251.56 28.072 251.016C28.2533 250.461 28.5147 249.992 28.856 249.608C29.1973 249.213 29.6133 248.909 30.104 248.696C30.5947 248.483 31.1493 248.376 31.768 248.376C32.76 248.376 33.528 248.621 34.072 249.112C34.616 249.592 34.9627 250.259 35.112 251.112L33.72 251.368C33.6667 251.101 33.592 250.856 33.496 250.632C33.4107 250.408 33.288 250.216 33.128 250.056C32.968 249.885 32.7707 249.757 32.536 249.672C32.312 249.576 32.04 249.528 31.72 249.528C31.2827 249.528 30.9093 249.613 30.6 249.784C30.2907 249.944 30.0347 250.173 29.832 250.472C29.64 250.771 29.496 251.123 29.4 251.528C29.3147 251.923 29.272 252.349 29.272 252.808C29.272 253.277 29.3147 253.715 29.4 254.12C29.4853 254.515 29.624 254.861 29.816 255.16C30.008 255.448 30.2587 255.677 30.568 255.848C30.8773 256.019 31.256 256.104 31.704 256.104C32.376 256.104 32.872 255.933 33.192 255.592C33.5227 255.251 33.736 254.787 33.832 254.2H35.24ZM40.7215 257.256C40.0922 257.256 39.5322 257.155 39.0415 256.952C38.5508 256.739 38.1348 256.44 37.7935 256.056C37.4522 255.672 37.1908 255.208 37.0095 254.664C36.8282 254.12 36.7375 253.507 36.7375 252.824C36.7375 252.152 36.8335 251.544 37.0255 251C37.2175 250.445 37.4895 249.976 37.8415 249.592C38.1935 249.197 38.6148 248.899 39.1055 248.696C39.6068 248.483 40.1615 248.376 40.7695 248.376C41.3882 248.376 41.9428 248.483 42.4335 248.696C42.9242 248.899 43.3402 249.192 43.6815 249.576C44.0335 249.949 44.3002 250.408 44.4815 250.952C44.6628 251.485 44.7535 252.088 44.7535 252.76C44.7535 253.443 44.6575 254.061 44.4655 254.616C44.2842 255.171 44.0175 255.645 43.6655 256.04C43.3242 256.424 42.9028 256.723 42.4015 256.936C41.9002 257.149 41.3402 257.256 40.7215 257.256ZM40.7375 256.104C41.1855 256.104 41.5695 256.024 41.8895 255.864C42.2095 255.693 42.4708 255.464 42.6735 255.176C42.8868 254.877 43.0415 254.525 43.1375 254.12C43.2335 253.715 43.2815 253.272 43.2815 252.792C43.2815 252.312 43.2335 251.875 43.1375 251.48C43.0415 251.075 42.8868 250.728 42.6735 250.44C42.4708 250.152 42.2095 249.928 41.8895 249.768C41.5695 249.608 41.1855 249.528 40.7375 249.528C40.2895 249.528 39.9055 249.608 39.5855 249.768C39.2762 249.928 39.0148 250.152 38.8015 250.44C38.5988 250.728 38.4495 251.075 38.3535 251.48C38.2575 251.875 38.2095 252.312 38.2095 252.792C38.2095 253.272 38.2575 253.715 38.3535 254.12C38.4495 254.525 38.5988 254.877 38.8015 255.176C39.0042 255.464 39.2655 255.693 39.5855 255.864C39.9055 256.024 40.2895 256.104 40.7375 256.104ZM48.4169 249.816H45.5209V248.632H52.6729V249.816H49.8089V257H48.4169V249.816ZM53.9626 248.632H55.3386V249.816C55.68 249.347 56.0746 248.989 56.5226 248.744C56.9813 248.499 57.5146 248.376 58.1226 248.376C58.7093 248.376 59.2213 248.483 59.6586 248.696C60.1066 248.909 60.4746 249.208 60.7626 249.592C61.0613 249.976 61.28 250.44 61.4186 250.984C61.568 251.517 61.6426 252.109 61.6426 252.76C61.6426 253.453 61.5573 254.077 61.3866 254.632C61.216 255.187 60.9706 255.661 60.6506 256.056C60.3306 256.44 59.9413 256.739 59.4826 256.952C59.0346 257.155 58.528 257.256 57.9626 257.256C57.4933 257.256 57.0293 257.165 56.5706 256.984C56.1226 256.792 55.7173 256.456 55.3546 255.976V260.104H53.9626V248.632ZM55.3386 253.048C55.3386 253.592 55.3973 254.056 55.5146 254.44C55.6426 254.824 55.8133 255.144 56.0266 255.4C56.24 255.645 56.496 255.827 56.7946 255.944C57.0933 256.051 57.4186 256.104 57.7706 256.104C58.112 256.104 58.4266 256.045 58.7146 255.928C59.0133 255.811 59.2693 255.619 59.4826 255.352C59.696 255.085 59.8613 254.744 59.9786 254.328C60.1066 253.901 60.1706 253.384 60.1706 252.776C60.1706 252.157 60.1013 251.64 59.9626 251.224C59.8346 250.808 59.664 250.477 59.4506 250.232C59.2373 249.976 58.992 249.795 58.7146 249.688C58.448 249.581 58.1706 249.528 57.8826 249.528C57.52 249.528 57.184 249.587 56.8746 249.704C56.5653 249.821 56.2933 250.003 56.0586 250.248C55.8346 250.483 55.6586 250.787 55.5306 251.16C55.4026 251.523 55.3386 251.949 55.3386 252.44V253.048ZM63.2729 258.744C63.4115 258.797 63.5662 258.84 63.7369 258.872C63.9075 258.915 64.0729 258.936 64.2329 258.936C64.5635 258.936 64.8195 258.845 65.0009 258.664C65.1929 258.483 65.3902 258.152 65.5929 257.672L65.9449 256.824L62.4089 248.632H64.0249L66.6489 255.224L69.0329 248.632H70.5689L66.9529 257.784C66.8035 258.157 66.6489 258.488 66.4889 258.776C66.3395 259.064 66.1689 259.304 65.9769 259.496C65.7849 259.699 65.5609 259.848 65.3049 259.944C65.0595 260.051 64.7715 260.104 64.4409 260.104C64.1209 260.104 63.8542 260.083 63.6409 260.04C63.4275 259.997 63.2142 259.939 63.0009 259.864L63.2729 258.744ZM78.2493 248.632V255.816H79.2253V259.24H77.9613V257H71.7053V259.24H70.4413V255.816H71.2573C71.4493 255.635 71.6253 255.395 71.7853 255.096C71.9453 254.797 72.0893 254.429 72.2173 253.992C72.3453 253.544 72.4573 253.016 72.5533 252.408C72.6599 251.8 72.7506 251.096 72.8253 250.296L72.9693 248.632H78.2493ZM74.0573 251.048C73.9293 252.328 73.7533 253.347 73.5293 254.104C73.3159 254.861 73.0653 255.432 72.7773 255.816H76.8573V249.768H74.1853L74.0573 251.048ZM81.9168 248.632V252.04H86.3168V248.632H87.7088V257H86.3168V253.224H81.9168V257H80.5247V248.632H81.9168ZM96.7176 257H95.4056V250.696L91.1336 257H89.8216V248.632H91.1176V254.952L95.3896 248.632H96.7176V257ZM98.8372 257V248.632H100.213V252.264H100.773C100.976 252.264 101.152 252.243 101.301 252.2C101.461 252.157 101.605 252.088 101.733 251.992C101.861 251.885 101.979 251.752 102.085 251.592C102.192 251.432 102.304 251.229 102.421 250.984L102.901 249.992C103.019 249.747 103.136 249.539 103.253 249.368C103.381 249.197 103.52 249.059 103.669 248.952C103.829 248.835 104.011 248.755 104.213 248.712C104.416 248.659 104.656 248.632 104.933 248.632C105.083 248.632 105.221 248.643 105.349 248.664C105.488 248.685 105.589 248.707 105.653 248.728L105.509 249.8C105.477 249.779 105.413 249.763 105.317 249.752C105.221 249.741 105.115 249.736 104.997 249.736C104.72 249.736 104.512 249.8 104.373 249.928C104.245 250.045 104.123 250.237 104.005 250.504L103.541 251.512C103.413 251.811 103.264 252.056 103.093 252.248C102.933 252.429 102.725 252.579 102.469 252.696C102.693 252.781 102.891 252.904 103.061 253.064C103.232 253.224 103.413 253.443 103.605 253.72L105.797 257H104.197L102.277 254.12C102.085 253.832 101.893 253.619 101.701 253.48C101.509 253.341 101.237 253.272 100.885 253.272H100.213V257H98.8372ZM110.347 257.256C109.717 257.256 109.157 257.155 108.667 256.952C108.176 256.739 107.76 256.44 107.419 256.056C107.077 255.672 106.816 255.208 106.635 254.664C106.453 254.12 106.363 253.507 106.363 252.824C106.363 252.152 106.459 251.544 106.651 251C106.843 250.445 107.115 249.976 107.467 249.592C107.819 249.197 108.24 248.899 108.731 248.696C109.232 248.483 109.787 248.376 110.395 248.376C111.013 248.376 111.568 248.483 112.059 248.696C112.549 248.899 112.965 249.192 113.307 249.576C113.659 249.949 113.925 250.408 114.107 250.952C114.288 251.485 114.378 252.088 114.378 252.76C114.378 253.443 114.283 254.061 114.091 254.616C113.909 255.171 113.643 255.645 113.291 256.04C112.949 256.424 112.528 256.723 112.027 256.936C111.525 257.149 110.965 257.256 110.347 257.256ZM110.363 256.104C110.811 256.104 111.195 256.024 111.515 255.864C111.835 255.693 112.096 255.464 112.299 255.176C112.512 254.877 112.667 254.525 112.763 254.12C112.859 253.715 112.907 253.272 112.907 252.792C112.907 252.312 112.859 251.875 112.763 251.48C112.667 251.075 112.512 250.728 112.299 250.44C112.096 250.152 111.835 249.928 111.515 249.768C111.195 249.608 110.811 249.528 110.363 249.528C109.915 249.528 109.531 249.608 109.211 249.768C108.901 249.928 108.64 250.152 108.427 250.44C108.224 250.728 108.075 251.075 107.979 251.48C107.883 251.875 107.835 252.312 107.835 252.792C107.835 253.272 107.883 253.715 107.979 254.12C108.075 254.525 108.224 254.877 108.427 255.176C108.629 255.464 108.891 255.693 109.211 255.864C109.531 256.024 109.915 256.104 110.363 256.104ZM116.228 248.632H119.844C120.473 248.632 120.991 248.691 121.396 248.808C121.812 248.925 122.137 249.085 122.372 249.288C122.617 249.491 122.788 249.72 122.884 249.976C122.98 250.232 123.028 250.499 123.028 250.776C123.028 251.213 122.932 251.592 122.74 251.912C122.559 252.221 122.249 252.467 121.812 252.648C122.303 252.808 122.671 253.059 122.916 253.4C123.172 253.741 123.3 254.141 123.3 254.6C123.3 254.941 123.247 255.256 123.14 255.544C123.044 255.832 122.868 256.088 122.612 256.312C122.367 256.525 122.031 256.696 121.604 256.824C121.188 256.941 120.655 257 120.004 257H116.228V248.632ZM119.908 252.2C120.516 252.2 120.953 252.093 121.22 251.88C121.497 251.667 121.636 251.363 121.636 250.968C121.636 250.563 121.492 250.259 121.204 250.056C120.927 249.843 120.468 249.736 119.828 249.736H117.62V252.2H119.908ZM120.004 255.88C120.697 255.88 121.183 255.773 121.46 255.56C121.737 255.336 121.876 255.011 121.876 254.584C121.876 254.157 121.727 253.827 121.428 253.592C121.129 253.347 120.66 253.224 120.02 253.224H117.62V255.88H120.004ZM128.509 248.632H132.125C132.754 248.632 133.272 248.691 133.677 248.808C134.093 248.925 134.418 249.085 134.653 249.288C134.898 249.491 135.069 249.72 135.165 249.976C135.261 250.232 135.309 250.499 135.309 250.776C135.309 251.213 135.213 251.592 135.021 251.912C134.84 252.221 134.53 252.467 134.093 252.648C134.584 252.808 134.952 253.059 135.197 253.4C135.453 253.741 135.581 254.141 135.581 254.6C135.581 254.941 135.528 255.256 135.421 255.544C135.325 255.832 135.149 256.088 134.893 256.312C134.648 256.525 134.312 256.696 133.885 256.824C133.469 256.941 132.936 257 132.285 257H128.509V248.632ZM132.189 252.2C132.797 252.2 133.234 252.093 133.501 251.88C133.778 251.667 133.917 251.363 133.917 250.968C133.917 250.563 133.773 250.259 133.485 250.056C133.208 249.843 132.749 249.736 132.109 249.736H129.901V252.2H132.189ZM132.285 255.88C132.978 255.88 133.464 255.773 133.741 255.56C134.018 255.336 134.157 255.011 134.157 254.584C134.157 254.157 134.008 253.827 133.709 253.592C133.41 253.347 132.941 253.224 132.301 253.224H129.901V255.88H132.285ZM151.51 257H140.79V248.632H142.182V255.816H145.462V248.632H146.854V255.816H150.118V248.632H151.51V257ZM155.683 249.816H152.787V248.632H159.939V249.816H157.075V257H155.683V249.816ZM166.38 255.864C166.082 256.227 165.703 256.541 165.244 256.808C164.786 257.064 164.215 257.192 163.532 257.192C163.116 257.192 162.732 257.139 162.38 257.032C162.039 256.936 161.74 256.787 161.484 256.584C161.239 256.371 161.047 256.109 160.908 255.8C160.77 255.491 160.7 255.128 160.7 254.712C160.7 254.136 160.818 253.667 161.052 253.304C161.298 252.931 161.618 252.643 162.012 252.44C162.418 252.227 162.871 252.083 163.372 252.008C163.874 251.923 164.391 251.869 164.924 251.848L166.348 251.8V251.464C166.348 250.76 166.199 250.253 165.9 249.944C165.602 249.635 165.116 249.48 164.444 249.48C163.783 249.48 163.298 249.592 162.988 249.816C162.679 250.029 162.476 250.328 162.38 250.712L161.116 250.568C161.266 249.811 161.623 249.261 162.188 248.92C162.754 248.568 163.522 248.392 164.492 248.392C165.09 248.392 165.591 248.467 165.996 248.616C166.412 248.755 166.748 248.957 167.004 249.224C167.26 249.491 167.442 249.821 167.548 250.216C167.666 250.611 167.724 251.053 167.724 251.544V257H166.38V255.864ZM166.348 252.792L165.02 252.84C164.455 252.861 163.986 252.915 163.612 253C163.239 253.085 162.94 253.203 162.716 253.352C162.503 253.501 162.348 253.688 162.252 253.912C162.167 254.125 162.124 254.381 162.124 254.68C162.124 255.096 162.247 255.432 162.492 255.688C162.748 255.933 163.164 256.056 163.74 256.056C164.562 256.056 165.202 255.853 165.66 255.448C166.119 255.043 166.348 254.488 166.348 253.784V252.792ZM171.886 249.816H168.99V248.632H176.142V249.816H173.278V257H171.886V249.816ZM184.333 254.68C184.195 255.48 183.837 256.109 183.261 256.568C182.696 257.027 181.88 257.256 180.813 257.256C179.555 257.256 178.589 256.872 177.917 256.104C177.245 255.325 176.909 254.248 176.909 252.872C176.909 252.157 177.005 251.523 177.197 250.968C177.389 250.403 177.656 249.928 177.997 249.544C178.349 249.16 178.765 248.872 179.245 248.68C179.725 248.477 180.248 248.376 180.813 248.376C181.453 248.376 182.003 248.477 182.461 248.68C182.92 248.883 183.293 249.165 183.581 249.528C183.88 249.891 184.099 250.323 184.237 250.824C184.387 251.325 184.461 251.869 184.461 252.456V253.144H178.317C178.317 253.581 178.371 253.981 178.477 254.344C178.595 254.707 178.755 255.021 178.957 255.288C179.171 255.555 179.432 255.763 179.741 255.912C180.051 256.061 180.408 256.136 180.813 256.136C181.507 256.136 182.013 256.008 182.333 255.752C182.653 255.485 182.872 255.128 182.989 254.68H184.333ZM183.069 252.104C183.069 251.315 182.893 250.68 182.541 250.2C182.189 249.709 181.608 249.464 180.797 249.464C180.061 249.464 179.485 249.693 179.069 250.152C178.653 250.6 178.413 251.251 178.349 252.104H183.069ZM185.997 255.096H187.469L186.637 258.552H185.517L185.997 255.096ZM200.162 254.2C200.023 255.149 199.661 255.896 199.074 256.44C198.487 256.984 197.661 257.256 196.594 257.256C195.965 257.256 195.405 257.155 194.914 256.952C194.434 256.749 194.029 256.456 193.698 256.072C193.378 255.688 193.133 255.224 192.962 254.68C192.802 254.136 192.722 253.523 192.722 252.84C192.722 252.168 192.813 251.56 192.994 251.016C193.175 250.461 193.437 249.992 193.778 249.608C194.119 249.213 194.535 248.909 195.026 248.696C195.517 248.483 196.071 248.376 196.69 248.376C197.682 248.376 198.45 248.621 198.994 249.112C199.538 249.592 199.885 250.259 200.034 251.112L198.642 251.368C198.589 251.101 198.514 250.856 198.418 250.632C198.333 250.408 198.21 250.216 198.05 250.056C197.89 249.885 197.693 249.757 197.458 249.672C197.234 249.576 196.962 249.528 196.642 249.528C196.205 249.528 195.831 249.613 195.522 249.784C195.213 249.944 194.957 250.173 194.754 250.472C194.562 250.771 194.418 251.123 194.322 251.528C194.237 251.923 194.194 252.349 194.194 252.808C194.194 253.277 194.237 253.715 194.322 254.12C194.407 254.515 194.546 254.861 194.738 255.16C194.93 255.448 195.181 255.677 195.49 255.848C195.799 256.019 196.178 256.104 196.626 256.104C197.298 256.104 197.794 255.933 198.114 255.592C198.445 255.251 198.658 254.787 198.754 254.2H200.162ZM201.915 248.632H205.531C206.161 248.632 206.678 248.691 207.083 248.808C207.499 248.925 207.825 249.085 208.059 249.288C208.305 249.491 208.475 249.72 208.571 249.976C208.667 250.232 208.715 250.499 208.715 250.776C208.715 251.213 208.619 251.592 208.427 251.912C208.246 252.221 207.937 252.467 207.499 252.648C207.99 252.808 208.358 253.059 208.603 253.4C208.859 253.741 208.987 254.141 208.987 254.6C208.987 254.941 208.934 255.256 208.827 255.544C208.731 255.832 208.555 256.088 208.299 256.312C208.054 256.525 207.718 256.696 207.291 256.824C206.875 256.941 206.342 257 205.691 257H201.915V248.632ZM205.595 252.2C206.203 252.2 206.641 252.093 206.907 251.88C207.185 251.667 207.323 251.363 207.323 250.968C207.323 250.563 207.179 250.259 206.891 250.056C206.614 249.843 206.155 249.736 205.515 249.736H203.307V252.2H205.595ZM205.691 255.88C206.385 255.88 206.87 255.773 207.147 255.56C207.425 255.336 207.563 255.011 207.563 254.584C207.563 254.157 207.414 253.827 207.115 253.592C206.817 253.347 206.347 253.224 205.707 253.224H203.307V255.88H205.691ZM214.362 257.256C213.733 257.256 213.173 257.155 212.682 256.952C212.191 256.739 211.775 256.44 211.434 256.056C211.093 255.672 210.831 255.208 210.65 254.664C210.469 254.12 210.378 253.507 210.378 252.824C210.378 252.152 210.474 251.544 210.666 251C210.858 250.445 211.13 249.976 211.482 249.592C211.834 249.197 212.255 248.899 212.746 248.696C213.247 248.483 213.802 248.376 214.41 248.376C215.029 248.376 215.583 248.483 216.074 248.696C216.565 248.899 216.981 249.192 217.322 249.576C217.674 249.949 217.941 250.408 218.122 250.952C218.303 251.485 218.394 252.088 218.394 252.76C218.394 253.443 218.298 254.061 218.106 254.616C217.925 255.171 217.658 255.645 217.306 256.04C216.965 256.424 216.543 256.723 216.042 256.936C215.541 257.149 214.981 257.256 214.362 257.256ZM214.378 256.104C214.826 256.104 215.21 256.024 215.53 255.864C215.85 255.693 216.111 255.464 216.314 255.176C216.527 254.877 216.682 254.525 216.778 254.12C216.874 253.715 216.922 253.272 216.922 252.792C216.922 252.312 216.874 251.875 216.778 251.48C216.682 251.075 216.527 250.728 216.314 250.44C216.111 250.152 215.85 249.928 215.53 249.768C215.21 249.608 214.826 249.528 214.378 249.528C213.93 249.528 213.546 249.608 213.226 249.768C212.917 249.928 212.655 250.152 212.442 250.44C212.239 250.728 212.09 251.075 211.994 251.48C211.898 251.875 211.85 252.312 211.85 252.792C211.85 253.272 211.898 253.715 211.994 254.12C212.09 254.525 212.239 254.877 212.442 255.176C212.645 255.464 212.906 255.693 213.226 255.864C213.546 256.024 213.93 256.104 214.378 256.104ZM227.14 257H225.828V250.696L221.556 257H220.243V248.632H221.539V254.952L225.812 248.632H227.14V257ZM35.24 276.2C35.1013 277.149 34.7387 277.896 34.152 278.44C33.5653 278.984 32.7387 279.256 31.672 279.256C31.0427 279.256 30.4827 279.155 29.992 278.952C29.512 278.749 29.1067 278.456 28.776 278.072C28.456 277.688 28.2107 277.224 28.04 276.68C27.88 276.136 27.8 275.523 27.8 274.84C27.8 274.168 27.8907 273.56 28.072 273.016C28.2533 272.461 28.5147 271.992 28.856 271.608C29.1973 271.213 29.6133 270.909 30.104 270.696C30.5947 270.483 31.1493 270.376 31.768 270.376C32.76 270.376 33.528 270.621 34.072 271.112C34.616 271.592 34.9627 272.259 35.112 273.112L33.72 273.368C33.6667 273.101 33.592 272.856 33.496 272.632C33.4107 272.408 33.288 272.216 33.128 272.056C32.968 271.885 32.7707 271.757 32.536 271.672C32.312 271.576 32.04 271.528 31.72 271.528C31.2827 271.528 30.9093 271.613 30.6 271.784C30.2907 271.944 30.0347 272.173 29.832 272.472C29.64 272.771 29.496 273.123 29.4 273.528C29.3147 273.923 29.272 274.349 29.272 274.808C29.272 275.277 29.3147 275.715 29.4 276.12C29.4853 276.515 29.624 276.861 29.816 277.16C30.008 277.448 30.2587 277.677 30.568 277.848C30.8773 278.019 31.256 278.104 31.704 278.104C32.376 278.104 32.872 277.933 33.192 277.592C33.5227 277.251 33.736 276.787 33.832 276.2H35.24ZM40.7215 279.256C40.0922 279.256 39.5322 279.155 39.0415 278.952C38.5508 278.739 38.1348 278.44 37.7935 278.056C37.4522 277.672 37.1908 277.208 37.0095 276.664C36.8282 276.12 36.7375 275.507 36.7375 274.824C36.7375 274.152 36.8335 273.544 37.0255 273C37.2175 272.445 37.4895 271.976 37.8415 271.592C38.1935 271.197 38.6148 270.899 39.1055 270.696C39.6068 270.483 40.1615 270.376 40.7695 270.376C41.3882 270.376 41.9428 270.483 42.4335 270.696C42.9242 270.899 43.3402 271.192 43.6815 271.576C44.0335 271.949 44.3002 272.408 44.4815 272.952C44.6628 273.485 44.7535 274.088 44.7535 274.76C44.7535 275.443 44.6575 276.061 44.4655 276.616C44.2842 277.171 44.0175 277.645 43.6655 278.04C43.3242 278.424 42.9028 278.723 42.4015 278.936C41.9002 279.149 41.3402 279.256 40.7215 279.256ZM40.7375 278.104C41.1855 278.104 41.5695 278.024 41.8895 277.864C42.2095 277.693 42.4708 277.464 42.6735 277.176C42.8868 276.877 43.0415 276.525 43.1375 276.12C43.2335 275.715 43.2815 275.272 43.2815 274.792C43.2815 274.312 43.2335 273.875 43.1375 273.48C43.0415 273.075 42.8868 272.728 42.6735 272.44C42.4708 272.152 42.2095 271.928 41.8895 271.768C41.5695 271.608 41.1855 271.528 40.7375 271.528C40.2895 271.528 39.9055 271.608 39.5855 271.768C39.2762 271.928 39.0148 272.152 38.8015 272.44C38.5988 272.728 38.4495 273.075 38.3535 273.48C38.2575 273.875 38.2095 274.312 38.2095 274.792C38.2095 275.272 38.2575 275.715 38.3535 276.12C38.4495 276.525 38.5988 276.877 38.8015 277.176C39.0042 277.464 39.2655 277.693 39.5855 277.864C39.9055 278.024 40.2895 278.104 40.7375 278.104ZM50.6029 272.28C50.2935 272.28 49.9842 272.328 49.6749 272.424C49.3762 272.509 49.1042 272.659 48.8589 272.872C48.5709 273.117 48.3522 273.416 48.2029 273.768C48.0535 274.12 47.9789 274.504 47.9789 274.92C47.9789 275.891 48.1762 276.669 48.5709 277.256C48.9655 277.832 49.6002 278.12 50.4749 278.12C51.2749 278.12 51.8722 277.864 52.2669 277.352C52.6615 276.829 52.8589 276.099 52.8589 275.16C52.8589 273.24 52.1069 272.28 50.6029 272.28ZM53.4029 268.504L51.9149 268.776C51.0722 268.925 50.4215 269.107 49.9629 269.32C49.5042 269.533 49.1469 269.768 48.8909 270.024C48.2829 270.621 47.9202 271.539 47.8029 272.776C48.1442 272.232 48.5655 271.821 49.0669 271.544C49.5682 271.267 50.1549 271.128 50.8269 271.128C51.3389 271.128 51.8082 271.213 52.2349 271.384C52.6615 271.555 53.0295 271.811 53.3389 272.152C53.6589 272.483 53.9042 272.893 54.0749 273.384C54.2455 273.875 54.3309 274.445 54.3309 275.096C54.3309 275.704 54.2455 276.264 54.0749 276.776C53.9149 277.277 53.6695 277.715 53.3389 278.088C53.0189 278.461 52.6189 278.755 52.1389 278.968C51.6589 279.171 51.0989 279.272 50.4589 279.272C49.7229 279.272 49.0989 279.144 48.5869 278.888C48.0749 278.632 47.6589 278.28 47.3389 277.832C47.0189 277.373 46.7842 276.835 46.6349 276.216C46.4962 275.597 46.4269 274.925 46.4269 274.2C46.4269 273.528 46.4589 272.936 46.5229 272.424C46.5975 271.912 46.7042 271.459 46.8429 271.064C46.9815 270.669 47.1469 270.323 47.3389 270.024C47.5309 269.725 47.7495 269.453 47.9949 269.208C48.3895 268.803 48.9282 268.461 49.6109 268.184C50.3042 267.907 51.1149 267.693 52.0429 267.544L53.2429 267.336L53.4029 268.504ZM63.365 276.2C63.2263 277.149 62.8637 277.896 62.277 278.44C61.6903 278.984 60.8637 279.256 59.797 279.256C59.1677 279.256 58.6077 279.155 58.117 278.952C57.637 278.749 57.2317 278.456 56.901 278.072C56.581 277.688 56.3357 277.224 56.165 276.68C56.005 276.136 55.925 275.523 55.925 274.84C55.925 274.168 56.0157 273.56 56.197 273.016C56.3783 272.461 56.6397 271.992 56.981 271.608C57.3223 271.213 57.7383 270.909 58.229 270.696C58.7197 270.483 59.2743 270.376 59.893 270.376C60.885 270.376 61.653 270.621 62.197 271.112C62.741 271.592 63.0877 272.259 63.237 273.112L61.845 273.368C61.7917 273.101 61.717 272.856 61.621 272.632C61.5357 272.408 61.413 272.216 61.253 272.056C61.093 271.885 60.8957 271.757 60.661 271.672C60.437 271.576 60.165 271.528 59.845 271.528C59.4077 271.528 59.0343 271.613 58.725 271.784C58.4157 271.944 58.1597 272.173 57.957 272.472C57.765 272.771 57.621 273.123 57.525 273.528C57.4397 273.923 57.397 274.349 57.397 274.808C57.397 275.277 57.4397 275.715 57.525 276.12C57.6103 276.515 57.749 276.861 57.941 277.16C58.133 277.448 58.3837 277.677 58.693 277.848C59.0023 278.019 59.381 278.104 59.829 278.104C60.501 278.104 60.997 277.933 61.317 277.592C61.6477 277.251 61.861 276.787 61.957 276.2H63.365ZM67.1825 271.816H64.2865V270.632H71.4385V271.816H68.5745V279H67.1825V271.816ZM72.7122 270.632H76.3283C76.9576 270.632 77.4749 270.691 77.8803 270.808C78.2963 270.925 78.6216 271.085 78.8563 271.288C79.1016 271.491 79.2723 271.72 79.3683 271.976C79.4643 272.232 79.5123 272.499 79.5123 272.776C79.5123 273.213 79.4163 273.592 79.2243 273.912C79.0429 274.221 78.7336 274.467 78.2963 274.648C78.7869 274.808 79.1549 275.059 79.4003 275.4C79.6563 275.741 79.7843 276.141 79.7843 276.6C79.7843 276.941 79.7309 277.256 79.6243 277.544C79.5283 277.832 79.3523 278.088 79.0963 278.312C78.8509 278.525 78.5149 278.696 78.0883 278.824C77.6723 278.941 77.1389 279 76.4883 279H72.7122V270.632ZM76.3923 274.2C77.0003 274.2 77.4376 274.093 77.7043 273.88C77.9816 273.667 78.1203 273.363 78.1203 272.968C78.1203 272.563 77.9763 272.259 77.6883 272.056C77.4109 271.843 76.9523 271.736 76.3123 271.736H74.1043V274.2H76.3923ZM76.4883 277.88C77.1816 277.88 77.6669 277.773 77.9443 277.56C78.2216 277.336 78.3603 277.011 78.3603 276.584C78.3603 276.157 78.2109 275.827 77.9123 275.592C77.6136 275.347 77.1443 275.224 76.5043 275.224H74.1043V277.88H76.4883ZM88.599 276.68C88.4603 277.48 88.103 278.109 87.527 278.568C86.9617 279.027 86.1457 279.256 85.079 279.256C83.8203 279.256 82.855 278.872 82.183 278.104C81.511 277.325 81.175 276.248 81.175 274.872C81.175 274.157 81.271 273.523 81.463 272.968C81.655 272.403 81.9217 271.928 82.263 271.544C82.615 271.16 83.031 270.872 83.511 270.68C83.991 270.477 84.5137 270.376 85.079 270.376C85.719 270.376 86.2683 270.477 86.727 270.68C87.1857 270.883 87.559 271.165 87.847 271.528C88.1457 271.891 88.3643 272.323 88.503 272.824C88.6523 273.325 88.727 273.869 88.727 274.456V275.144H82.583C82.583 275.581 82.6363 275.981 82.743 276.344C82.8603 276.707 83.0203 277.021 83.223 277.288C83.4363 277.555 83.6977 277.763 84.007 277.912C84.3163 278.061 84.6737 278.136 85.079 278.136C85.7723 278.136 86.279 278.008 86.599 277.752C86.919 277.485 87.1377 277.128 87.255 276.68H88.599ZM87.335 274.104C87.335 273.315 87.159 272.68 86.807 272.2C86.455 271.709 85.8737 271.464 85.063 271.464C84.327 271.464 83.751 271.693 83.335 272.152C82.919 272.6 82.679 273.251 82.615 274.104H87.335ZM91.948 270.632V274.04H96.348V270.632H97.74V279H96.348V275.224H91.948V279H90.556V270.632H91.948ZM101.245 270.632V274.04H105.645V270.632H107.037V279H105.645V275.224H101.245V279H99.8529V270.632H101.245ZM110.542 270.632V273.704H113.038C114.083 273.704 114.84 273.944 115.31 274.424C115.779 274.893 116.014 275.523 116.014 276.312C116.014 277.112 115.752 277.763 115.23 278.264C114.718 278.755 113.912 279 112.814 279H109.15V270.632H110.542ZM117.134 270.632H118.526V279H117.134V270.632ZM110.542 277.848H112.878C113.464 277.848 113.891 277.72 114.158 277.464C114.424 277.197 114.558 276.824 114.558 276.344C114.558 275.853 114.43 275.48 114.174 275.224C113.928 274.968 113.475 274.84 112.814 274.84H110.542V277.848ZM127.802 276.68C127.663 277.48 127.306 278.109 126.73 278.568C126.165 279.027 125.349 279.256 124.282 279.256C123.023 279.256 122.058 278.872 121.386 278.104C120.714 277.325 120.378 276.248 120.378 274.872C120.378 274.157 120.474 273.523 120.666 272.968C120.858 272.403 121.125 271.928 121.466 271.544C121.818 271.16 122.234 270.872 122.714 270.68C123.194 270.477 123.717 270.376 124.282 270.376C124.922 270.376 125.471 270.477 125.93 270.68C126.389 270.883 126.762 271.165 127.05 271.528C127.349 271.891 127.567 272.323 127.706 272.824C127.855 273.325 127.93 273.869 127.93 274.456V275.144H121.786C121.786 275.581 121.839 275.981 121.946 276.344C122.063 276.707 122.223 277.021 122.426 277.288C122.639 277.555 122.901 277.763 123.21 277.912C123.519 278.061 123.877 278.136 124.282 278.136C124.975 278.136 125.482 278.008 125.802 277.752C126.122 277.485 126.341 277.128 126.458 276.68H127.802ZM126.538 274.104C126.538 273.315 126.362 272.68 126.01 272.2C125.658 271.709 125.077 271.464 124.266 271.464C123.53 271.464 122.954 271.693 122.538 272.152C122.122 272.6 121.882 273.251 121.818 274.104H126.538ZM137.05 279.256C136.42 279.256 135.86 279.155 135.37 278.952C134.879 278.739 134.463 278.44 134.122 278.056C133.78 277.672 133.519 277.208 133.338 276.664C133.156 276.12 133.066 275.507 133.066 274.824C133.066 274.152 133.162 273.544 133.354 273C133.546 272.445 133.818 271.976 134.17 271.592C134.522 271.197 134.943 270.899 135.434 270.696C135.935 270.483 136.49 270.376 137.098 270.376C137.716 270.376 138.271 270.483 138.762 270.696C139.252 270.899 139.668 271.192 140.01 271.576C140.362 271.949 140.628 272.408 140.81 272.952C140.991 273.485 141.082 274.088 141.082 274.76C141.082 275.443 140.986 276.061 140.794 276.616C140.612 277.171 140.346 277.645 139.994 278.04C139.652 278.424 139.231 278.723 138.73 278.936C138.228 279.149 137.668 279.256 137.05 279.256ZM137.066 278.104C137.514 278.104 137.898 278.024 138.218 277.864C138.538 277.693 138.799 277.464 139.002 277.176C139.215 276.877 139.37 276.525 139.466 276.12C139.562 275.715 139.61 275.272 139.61 274.792C139.61 274.312 139.562 273.875 139.466 273.48C139.37 273.075 139.215 272.728 139.002 272.44C138.799 272.152 138.538 271.928 138.218 271.768C137.898 271.608 137.514 271.528 137.066 271.528C136.618 271.528 136.234 271.608 135.914 271.768C135.604 271.928 135.343 272.152 135.13 272.44C134.927 272.728 134.778 273.075 134.682 273.48C134.586 273.875 134.538 274.312 134.538 274.792C134.538 275.272 134.586 275.715 134.682 276.12C134.778 276.525 134.927 276.877 135.13 277.176C135.332 277.464 135.594 277.693 135.914 277.864C136.234 278.024 136.618 278.104 137.066 278.104ZM144.745 271.816H141.849V270.632H149.001V271.816H146.137V279H144.745V271.816ZM156.468 270.632V277.816H157.444V281.24H156.18V279H149.924V281.24H148.66V277.816H149.476C149.668 277.635 149.844 277.395 150.004 277.096C150.164 276.797 150.308 276.429 150.436 275.992C150.564 275.544 150.676 275.016 150.772 274.408C150.879 273.8 150.969 273.096 151.044 272.296L151.188 270.632H156.468ZM152.276 273.048C152.148 274.328 151.972 275.347 151.748 276.104C151.535 276.861 151.284 277.432 150.996 277.816H155.076V271.768H152.404L152.276 273.048ZM165.911 276.68C165.773 277.48 165.416 278.109 164.84 278.568C164.274 279.027 163.458 279.256 162.391 279.256C161.133 279.256 160.168 278.872 159.496 278.104C158.824 277.325 158.488 276.248 158.488 274.872C158.488 274.157 158.584 273.523 158.776 272.968C158.968 272.403 159.234 271.928 159.576 271.544C159.928 271.16 160.344 270.872 160.824 270.68C161.304 270.477 161.826 270.376 162.391 270.376C163.032 270.376 163.581 270.477 164.04 270.68C164.498 270.883 164.872 271.165 165.16 271.528C165.458 271.891 165.677 272.323 165.816 272.824C165.965 273.325 166.04 273.869 166.04 274.456V275.144H159.896C159.896 275.581 159.949 275.981 160.056 276.344C160.173 276.707 160.333 277.021 160.536 277.288C160.749 277.555 161.01 277.763 161.32 277.912C161.629 278.061 161.986 278.136 162.391 278.136C163.085 278.136 163.592 278.008 163.912 277.752C164.232 277.485 164.45 277.128 164.568 276.68H165.911ZM164.648 274.104C164.648 273.315 164.472 272.68 164.12 272.2C163.768 271.709 163.186 271.464 162.376 271.464C161.64 271.464 161.064 271.693 160.648 272.152C160.232 272.6 159.992 273.251 159.928 274.104H164.648ZM173.126 271.768H170.358L170.006 274.648C169.91 275.448 169.776 276.131 169.606 276.696C169.435 277.251 169.216 277.709 168.95 278.072C168.683 278.424 168.363 278.68 167.99 278.84C167.627 279 167.2 279.08 166.71 279.08H166.438V277.912H166.598C166.875 277.912 167.12 277.859 167.334 277.752C167.558 277.645 167.755 277.453 167.926 277.176C168.107 276.899 168.262 276.515 168.39 276.024C168.518 275.533 168.624 274.909 168.71 274.152L169.11 270.632H174.517V279H173.126V271.768ZM178.026 270.632V273.704H180.522C181.567 273.704 182.325 273.944 182.794 274.424C183.263 274.893 183.498 275.523 183.498 276.312C183.498 277.112 183.237 277.763 182.714 278.264C182.202 278.755 181.397 279 180.298 279H176.634V270.632H178.026ZM184.618 270.632H186.01V279H184.618V270.632ZM178.026 277.848H180.362C180.949 277.848 181.375 277.72 181.642 277.464C181.909 277.197 182.042 276.824 182.042 276.344C182.042 275.853 181.914 275.48 181.658 275.224C181.413 274.968 180.959 274.84 180.298 274.84H178.026V277.848ZM191.697 270.632H193.073V271.816C193.414 271.347 193.809 270.989 194.257 270.744C194.716 270.499 195.249 270.376 195.857 270.376C196.444 270.376 196.956 270.483 197.393 270.696C197.841 270.909 198.209 271.208 198.497 271.592C198.796 271.976 199.014 272.44 199.153 272.984C199.302 273.517 199.377 274.109 199.377 274.76C199.377 275.453 199.292 276.077 199.121 276.632C198.95 277.187 198.705 277.661 198.385 278.056C198.065 278.44 197.676 278.739 197.217 278.952C196.769 279.155 196.262 279.256 195.697 279.256C195.228 279.256 194.764 279.165 194.305 278.984C193.857 278.792 193.452 278.456 193.089 277.976V282.104H191.697V270.632ZM193.073 275.048C193.073 275.592 193.132 276.056 193.249 276.44C193.377 276.824 193.548 277.144 193.761 277.4C193.974 277.645 194.23 277.827 194.529 277.944C194.828 278.051 195.153 278.104 195.505 278.104C195.846 278.104 196.161 278.045 196.449 277.928C196.748 277.811 197.004 277.619 197.217 277.352C197.43 277.085 197.596 276.744 197.713 276.328C197.841 275.901 197.905 275.384 197.905 274.776C197.905 274.157 197.836 273.64 197.697 273.224C197.569 272.808 197.398 272.477 197.185 272.232C196.972 271.976 196.726 271.795 196.449 271.688C196.182 271.581 195.905 271.528 195.617 271.528C195.254 271.528 194.918 271.587 194.609 271.704C194.3 271.821 194.028 272.003 193.793 272.248C193.569 272.483 193.393 272.787 193.265 273.16C193.137 273.523 193.073 273.949 193.073 274.44V275.048ZM206.396 277.864C206.097 278.227 205.719 278.541 205.26 278.808C204.801 279.064 204.231 279.192 203.548 279.192C203.132 279.192 202.748 279.139 202.396 279.032C202.055 278.936 201.756 278.787 201.5 278.584C201.255 278.371 201.063 278.109 200.924 277.8C200.785 277.491 200.716 277.128 200.716 276.712C200.716 276.136 200.833 275.667 201.068 275.304C201.313 274.931 201.633 274.643 202.028 274.44C202.433 274.227 202.887 274.083 203.388 274.008C203.889 273.923 204.407 273.869 204.94 273.848L206.364 273.8V273.464C206.364 272.76 206.215 272.253 205.916 271.944C205.617 271.635 205.132 271.48 204.46 271.48C203.799 271.48 203.313 271.592 203.004 271.816C202.695 272.029 202.492 272.328 202.396 272.712L201.132 272.568C201.281 271.811 201.639 271.261 202.204 270.92C202.769 270.568 203.537 270.392 204.508 270.392C205.105 270.392 205.607 270.467 206.012 270.616C206.428 270.755 206.764 270.957 207.02 271.224C207.276 271.491 207.457 271.821 207.564 272.216C207.681 272.611 207.74 273.053 207.74 273.544V279H206.396V277.864ZM206.364 274.792L205.036 274.84C204.471 274.861 204.001 274.915 203.628 275C203.255 275.085 202.956 275.203 202.732 275.352C202.519 275.501 202.364 275.688 202.268 275.912C202.183 276.125 202.14 276.381 202.14 276.68C202.14 277.096 202.263 277.432 202.508 277.688C202.764 277.933 203.18 278.056 203.756 278.056C204.577 278.056 205.217 277.853 205.676 277.448C206.135 277.043 206.364 276.488 206.364 275.784V274.792ZM212.973 270.376C213.539 270.376 214.024 270.435 214.429 270.552C214.845 270.669 215.187 270.835 215.453 271.048C215.731 271.251 215.933 271.491 216.061 271.768C216.189 272.035 216.253 272.328 216.253 272.648C216.253 273.117 216.125 273.523 215.869 273.864C215.613 274.195 215.288 274.435 214.893 274.584C215.363 274.733 215.741 274.979 216.029 275.32C216.317 275.651 216.461 276.099 216.461 276.664C216.461 277.037 216.392 277.379 216.253 277.688C216.115 277.997 215.896 278.269 215.597 278.504C215.309 278.739 214.936 278.92 214.477 279.048C214.029 279.176 213.496 279.24 212.877 279.24C211.811 279.24 210.963 279.032 210.333 278.616C209.704 278.189 209.357 277.501 209.293 276.552H210.637C210.723 277.117 210.952 277.523 211.325 277.768C211.699 278.003 212.237 278.12 212.941 278.12C213.72 278.12 214.259 277.987 214.557 277.72C214.867 277.443 215.021 277.085 215.021 276.648C215.021 276.168 214.861 275.805 214.541 275.56C214.221 275.315 213.768 275.192 213.181 275.192H211.501V274.168H213.245C213.768 274.168 214.163 274.051 214.429 273.816C214.707 273.571 214.845 273.24 214.845 272.824C214.845 272.408 214.691 272.088 214.381 271.864C214.072 271.629 213.592 271.512 212.941 271.512C212.568 271.512 212.253 271.544 211.997 271.608C211.741 271.661 211.528 271.747 211.357 271.864C211.197 271.981 211.064 272.131 210.957 272.312C210.851 272.483 210.76 272.68 210.685 272.904L209.421 272.68C209.507 272.349 209.629 272.045 209.789 271.768C209.96 271.48 210.184 271.235 210.461 271.032C210.739 270.829 211.08 270.669 211.485 270.552C211.901 270.435 212.397 270.376 212.973 270.376ZM218.26 270.632H219.636V271.816C219.977 271.347 220.372 270.989 220.82 270.744C221.278 270.499 221.812 270.376 222.42 270.376C223.006 270.376 223.518 270.483 223.956 270.696C224.404 270.909 224.772 271.208 225.06 271.592C225.358 271.976 225.577 272.44 225.716 272.984C225.865 273.517 225.94 274.109 225.94 274.76C225.94 275.453 225.854 276.077 225.684 276.632C225.513 277.187 225.268 277.661 224.948 278.056C224.628 278.44 224.238 278.739 223.78 278.952C223.332 279.155 222.825 279.256 222.26 279.256C221.79 279.256 221.326 279.165 220.868 278.984C220.42 278.792 220.014 278.456 219.652 277.976V282.104H218.26V270.632ZM219.636 275.048C219.636 275.592 219.694 276.056 219.812 276.44C219.94 276.824 220.11 277.144 220.324 277.4C220.537 277.645 220.793 277.827 221.092 277.944C221.39 278.051 221.716 278.104 222.068 278.104C222.409 278.104 222.724 278.045 223.012 277.928C223.31 277.811 223.566 277.619 223.78 277.352C223.993 277.085 224.158 276.744 224.276 276.328C224.404 275.901 224.468 275.384 224.468 274.776C224.468 274.157 224.398 273.64 224.26 273.224C224.132 272.808 223.961 272.477 223.748 272.232C223.534 271.976 223.289 271.795 223.012 271.688C222.745 271.581 222.468 271.528 222.18 271.528C221.817 271.528 221.481 271.587 221.172 271.704C220.862 271.821 220.59 272.003 220.356 272.248C220.132 272.483 219.956 272.787 219.828 273.16C219.7 273.523 219.636 273.949 219.636 274.44V275.048ZM232.958 277.864C232.66 278.227 232.281 278.541 231.822 278.808C231.364 279.064 230.793 279.192 230.11 279.192C229.694 279.192 229.31 279.139 228.958 279.032C228.617 278.936 228.318 278.787 228.062 278.584C227.817 278.371 227.625 278.109 227.486 277.8C227.348 277.491 227.278 277.128 227.278 276.712C227.278 276.136 227.396 275.667 227.63 275.304C227.876 274.931 228.196 274.643 228.59 274.44C228.996 274.227 229.449 274.083 229.95 274.008C230.452 273.923 230.969 273.869 231.502 273.848L232.926 273.8V273.464C232.926 272.76 232.777 272.253 232.478 271.944C232.18 271.635 231.694 271.48 231.022 271.48C230.361 271.48 229.876 271.592 229.566 271.816C229.257 272.029 229.054 272.328 228.958 272.712L227.694 272.568C227.844 271.811 228.201 271.261 228.766 270.92C229.332 270.568 230.1 270.392 231.07 270.392C231.668 270.392 232.169 270.467 232.574 270.616C232.99 270.755 233.326 270.957 233.582 271.224C233.838 271.491 234.02 271.821 234.126 272.216C234.244 272.611 234.302 273.053 234.302 273.544V279H232.958V277.864ZM232.926 274.792L231.598 274.84C231.033 274.861 230.564 274.915 230.19 275C229.817 275.085 229.518 275.203 229.294 275.352C229.081 275.501 228.926 275.688 228.83 275.912C228.745 276.125 228.702 276.381 228.702 276.68C228.702 277.096 228.825 277.432 229.07 277.688C229.326 277.933 229.742 278.056 230.318 278.056C231.14 278.056 231.78 277.853 232.238 277.448C232.697 277.043 232.926 276.488 232.926 275.784V274.792ZM240.4 272.28C240.09 272.28 239.781 272.328 239.472 272.424C239.173 272.509 238.901 272.659 238.656 272.872C238.368 273.117 238.149 273.416 238 273.768C237.85 274.12 237.776 274.504 237.776 274.92C237.776 275.891 237.973 276.669 238.368 277.256C238.762 277.832 239.397 278.12 240.272 278.12C241.072 278.12 241.669 277.864 242.064 277.352C242.458 276.829 242.656 276.099 242.656 275.16C242.656 273.24 241.904 272.28 240.4 272.28ZM243.2 268.504L241.712 268.776C240.869 268.925 240.218 269.107 239.76 269.32C239.301 269.533 238.944 269.768 238.688 270.024C238.08 270.621 237.717 271.539 237.6 272.776C237.941 272.232 238.362 271.821 238.864 271.544C239.365 271.267 239.952 271.128 240.624 271.128C241.136 271.128 241.605 271.213 242.032 271.384C242.458 271.555 242.826 271.811 243.136 272.152C243.456 272.483 243.701 272.893 243.872 273.384C244.042 273.875 244.128 274.445 244.128 275.096C244.128 275.704 244.042 276.264 243.872 276.776C243.712 277.277 243.466 277.715 243.136 278.088C242.816 278.461 242.416 278.755 241.936 278.968C241.456 279.171 240.896 279.272 240.256 279.272C239.52 279.272 238.896 279.144 238.384 278.888C237.872 278.632 237.456 278.28 237.136 277.832C236.816 277.373 236.581 276.835 236.432 276.216C236.293 275.597 236.224 274.925 236.224 274.2C236.224 273.528 236.256 272.936 236.32 272.424C236.394 271.912 236.501 271.459 236.64 271.064C236.778 270.669 236.944 270.323 237.136 270.024C237.328 269.725 237.546 269.453 237.792 269.208C238.186 268.803 238.725 268.461 239.408 268.184C240.101 267.907 240.912 267.693 241.84 267.544L243.04 267.336L243.2 268.504ZM249.706 279.256C249.077 279.256 248.517 279.155 248.026 278.952C247.535 278.739 247.119 278.44 246.778 278.056C246.437 277.672 246.175 277.208 245.994 276.664C245.813 276.12 245.722 275.507 245.722 274.824C245.722 274.152 245.818 273.544 246.01 273C246.202 272.445 246.474 271.976 246.826 271.592C247.178 271.197 247.599 270.899 248.09 270.696C248.591 270.483 249.146 270.376 249.754 270.376C250.373 270.376 250.927 270.483 251.418 270.696C251.909 270.899 252.325 271.192 252.666 271.576C253.018 271.949 253.285 272.408 253.466 272.952C253.647 273.485 253.738 274.088 253.738 274.76C253.738 275.443 253.642 276.061 253.45 276.616C253.269 277.171 253.002 277.645 252.65 278.04C252.309 278.424 251.887 278.723 251.386 278.936C250.885 279.149 250.325 279.256 249.706 279.256ZM249.722 278.104C250.17 278.104 250.554 278.024 250.874 277.864C251.194 277.693 251.455 277.464 251.658 277.176C251.871 276.877 252.026 276.525 252.122 276.12C252.218 275.715 252.266 275.272 252.266 274.792C252.266 274.312 252.218 273.875 252.122 273.48C252.026 273.075 251.871 272.728 251.658 272.44C251.455 272.152 251.194 271.928 250.874 271.768C250.554 271.608 250.17 271.528 249.722 271.528C249.274 271.528 248.89 271.608 248.57 271.768C248.261 271.928 247.999 272.152 247.786 272.44C247.583 272.728 247.434 273.075 247.338 273.48C247.242 273.875 247.194 274.312 247.194 274.792C247.194 275.272 247.242 275.715 247.338 276.12C247.434 276.525 247.583 276.877 247.786 277.176C247.989 277.464 248.25 277.693 248.57 277.864C248.89 278.024 249.274 278.104 249.722 278.104ZM257.401 271.816H254.505V270.632H261.657V271.816H258.793V279H257.401V271.816ZM262.931 279V270.632H264.307V274.264H264.867C265.07 274.264 265.246 274.243 265.395 274.2C265.555 274.157 265.699 274.088 265.827 273.992C265.955 273.885 266.072 273.752 266.179 273.592C266.286 273.432 266.398 273.229 266.515 272.984L266.995 271.992C267.112 271.747 267.23 271.539 267.347 271.368C267.475 271.197 267.614 271.059 267.763 270.952C267.923 270.835 268.104 270.755 268.307 270.712C268.51 270.659 268.75 270.632 269.027 270.632C269.176 270.632 269.315 270.643 269.443 270.664C269.582 270.685 269.683 270.707 269.747 270.728L269.603 271.8C269.571 271.779 269.507 271.763 269.411 271.752C269.315 271.741 269.208 271.736 269.091 271.736C268.814 271.736 268.606 271.8 268.467 271.928C268.339 272.045 268.216 272.237 268.099 272.504L267.635 273.512C267.507 273.811 267.358 274.056 267.187 274.248C267.027 274.429 266.819 274.579 266.563 274.696C266.787 274.781 266.984 274.904 267.155 275.064C267.326 275.224 267.507 275.443 267.699 275.72L269.891 279H268.291L266.371 276.12C266.179 275.832 265.987 275.619 265.795 275.48C265.603 275.341 265.331 275.272 264.979 275.272H264.307V279H262.931ZM277.952 279H276.64V272.696L272.368 279H271.056V270.632H272.352V276.952L276.624 270.632H277.952V279ZM280.216 277.096H281.688L280.856 280.552H279.736L280.216 277.096ZM34.952 301H33.64V294.696L29.368 301H28.056V292.632H29.352V298.952L33.624 292.632H34.952V301ZM38.4636 292.632V296.04H42.8636V292.632H44.2556V301H42.8636V297.224H38.4636V301H37.0716V292.632H38.4636ZM52.1445 301H50.8165V297.272H50.3205C50.1072 297.272 49.9258 297.293 49.7765 297.336C49.6378 297.379 49.5045 297.448 49.3765 297.544C49.2592 297.64 49.1472 297.763 49.0405 297.912C48.9338 298.051 48.8165 298.216 48.6885 298.408L46.9765 301H45.4405L47.6645 297.72C47.8565 297.432 48.0432 297.213 48.2245 297.064C48.4165 296.904 48.6245 296.781 48.8485 296.696C48.6032 296.589 48.3952 296.461 48.2245 296.312C48.0645 296.163 47.8992 295.896 47.7285 295.512L47.2325 294.44C47.1152 294.205 47.0032 294.029 46.8965 293.912C46.7898 293.795 46.6032 293.736 46.3365 293.736C46.2192 293.736 46.1072 293.741 46.0005 293.752C45.9045 293.763 45.8405 293.779 45.8085 293.8L45.6805 292.728C45.7445 292.707 45.8405 292.685 45.9685 292.664C46.0965 292.643 46.2352 292.632 46.3845 292.632C46.6618 292.632 46.9018 292.659 47.1045 292.712C47.3072 292.765 47.4832 292.851 47.6325 292.968C47.7925 293.085 47.9312 293.24 48.0485 293.432C48.1765 293.613 48.2992 293.837 48.4165 294.104L48.8165 294.984C49.0298 295.464 49.2592 295.8 49.5045 295.992C49.7605 296.173 50.0752 296.264 50.4485 296.264H50.8165V292.632H52.1445V296.264H52.4965C52.8912 296.264 53.2005 296.168 53.4245 295.976C53.6592 295.784 53.8938 295.453 54.1285 294.984L54.5605 294.104C54.6672 293.88 54.7738 293.683 54.8805 293.512C54.9872 293.341 55.1045 293.197 55.2325 293.08C55.3605 292.963 55.4992 292.872 55.6485 292.808C55.8085 292.733 56.0005 292.68 56.2245 292.648C56.2992 292.637 56.3738 292.632 56.4485 292.632C56.5338 292.632 56.6245 292.632 56.7205 292.632C56.8485 292.643 56.9658 292.659 57.0725 292.68C57.1898 292.701 57.2645 292.717 57.2965 292.728L57.1685 293.8C57.0832 293.757 56.9072 293.736 56.6405 293.736C56.3205 293.736 56.0965 293.821 55.9685 293.992C55.8405 294.163 55.6965 294.419 55.5365 294.76L55.1845 295.512C55.0565 295.8 54.9072 296.04 54.7365 296.232C54.5765 296.413 54.3738 296.563 54.1285 296.68C54.3845 296.776 54.6138 296.931 54.8165 297.144C55.0298 297.357 55.2645 297.651 55.5205 298.024L57.5045 301H55.9365L54.0165 298.12C53.8245 297.832 53.6325 297.619 53.4405 297.48C53.2485 297.341 52.9765 297.272 52.6245 297.272H52.1445V301ZM65.5365 298.68C65.3978 299.48 65.0405 300.109 64.4645 300.568C63.8992 301.027 63.0832 301.256 62.0165 301.256C60.7578 301.256 59.7925 300.872 59.1205 300.104C58.4485 299.325 58.1125 298.248 58.1125 296.872C58.1125 296.157 58.2085 295.523 58.4005 294.968C58.5925 294.403 58.8592 293.928 59.2005 293.544C59.5525 293.16 59.9685 292.872 60.4485 292.68C60.9285 292.477 61.4512 292.376 62.0165 292.376C62.6565 292.376 63.2058 292.477 63.6645 292.68C64.1232 292.883 64.4965 293.165 64.7845 293.528C65.0832 293.891 65.3018 294.323 65.4405 294.824C65.5898 295.325 65.6645 295.869 65.6645 296.456V297.144H59.5205C59.5205 297.581 59.5738 297.981 59.6805 298.344C59.7978 298.707 59.9578 299.021 60.1605 299.288C60.3738 299.555 60.6352 299.763 60.9445 299.912C61.2538 300.061 61.6112 300.136 62.0165 300.136C62.7098 300.136 63.2165 300.008 63.5365 299.752C63.8565 299.485 64.0752 299.128 64.1925 298.68H65.5365ZM64.2725 296.104C64.2725 295.315 64.0965 294.68 63.7445 294.2C63.3925 293.709 62.8112 293.464 62.0005 293.464C61.2645 293.464 60.6885 293.693 60.2725 294.152C59.8565 294.6 59.6165 295.251 59.5525 296.104H64.2725ZM68.8855 292.632V296.04H73.2855V292.632H74.6775V301H73.2855V297.224H68.8855V301H67.4935V292.632H68.8855ZM83.9584 298.68C83.8197 299.48 83.4624 300.109 82.8864 300.568C82.321 301.027 81.505 301.256 80.4384 301.256C79.1797 301.256 78.2144 300.872 77.5424 300.104C76.8704 299.325 76.5344 298.248 76.5344 296.872C76.5344 296.157 76.6304 295.523 76.8224 294.968C77.0144 294.403 77.281 293.928 77.6224 293.544C77.9744 293.16 78.3904 292.872 78.8704 292.68C79.3504 292.477 79.873 292.376 80.4384 292.376C81.0784 292.376 81.6277 292.477 82.0864 292.68C82.545 292.883 82.9184 293.165 83.2064 293.528C83.505 293.891 83.7237 294.323 83.8624 294.824C84.0117 295.325 84.0864 295.869 84.0864 296.456V297.144H77.9424C77.9424 297.581 77.9957 297.981 78.1024 298.344C78.2197 298.707 78.3797 299.021 78.5824 299.288C78.7957 299.555 79.057 299.763 79.3664 299.912C79.6757 300.061 80.033 300.136 80.4384 300.136C81.1317 300.136 81.6384 300.008 81.9584 299.752C82.2784 299.485 82.497 299.128 82.6144 298.68H83.9584ZM82.6944 296.104C82.6944 295.315 82.5184 294.68 82.1664 294.2C81.8144 293.709 81.233 293.464 80.4224 293.464C79.6864 293.464 79.1104 293.693 78.6944 294.152C78.2784 294.6 78.0384 295.251 77.9744 296.104H82.6944ZM85.9314 292.632H87.3074V293.816C87.6487 293.347 88.0434 292.989 88.4914 292.744C88.95 292.499 89.4834 292.376 90.0914 292.376C90.678 292.376 91.19 292.483 91.6274 292.696C92.0754 292.909 92.4434 293.208 92.7314 293.592C93.03 293.976 93.2487 294.44 93.3874 294.984C93.5367 295.517 93.6114 296.109 93.6114 296.76C93.6114 297.453 93.526 298.077 93.3554 298.632C93.1847 299.187 92.9394 299.661 92.6194 300.056C92.2994 300.44 91.91 300.739 91.4514 300.952C91.0034 301.155 90.4967 301.256 89.9314 301.256C89.462 301.256 88.998 301.165 88.5394 300.984C88.0914 300.792 87.686 300.456 87.3234 299.976V304.104H85.9314V292.632ZM87.3074 297.048C87.3074 297.592 87.366 298.056 87.4834 298.44C87.6114 298.824 87.782 299.144 87.9954 299.4C88.2087 299.645 88.4647 299.827 88.7634 299.944C89.062 300.051 89.3874 300.104 89.7394 300.104C90.0807 300.104 90.3954 300.045 90.6834 299.928C90.982 299.811 91.238 299.619 91.4514 299.352C91.6647 299.085 91.83 298.744 91.9474 298.328C92.0754 297.901 92.1394 297.384 92.1394 296.776C92.1394 296.157 92.07 295.64 91.9314 295.224C91.8034 294.808 91.6327 294.477 91.4194 294.232C91.206 293.976 90.9607 293.795 90.6834 293.688C90.4167 293.581 90.1394 293.528 89.8514 293.528C89.4887 293.528 89.1527 293.587 88.8434 293.704C88.534 293.821 88.262 294.003 88.0274 294.248C87.8034 294.483 87.6274 294.787 87.4994 295.16C87.3714 295.523 87.3074 295.949 87.3074 296.44V297.048ZM102.358 301H101.046V294.696L96.7743 301H95.4622V292.632H96.7582V298.952L101.03 292.632H102.358V301ZM111.374 301H110.062V294.696L105.79 301H104.478V292.632H105.774V298.952L110.046 292.632H111.374V301ZM113.638 299.096H115.11L114.278 302.552H113.158L113.638 299.096ZM122.683 293.816H119.787V292.632H126.939V293.816H124.075V301H122.683V293.816ZM135.13 298.68C134.992 299.48 134.634 300.109 134.058 300.568C133.493 301.027 132.677 301.256 131.61 301.256C130.352 301.256 129.386 300.872 128.714 300.104C128.042 299.325 127.706 298.248 127.706 296.872C127.706 296.157 127.802 295.523 127.994 294.968C128.186 294.403 128.453 293.928 128.794 293.544C129.146 293.16 129.562 292.872 130.042 292.68C130.522 292.477 131.045 292.376 131.61 292.376C132.25 292.376 132.8 292.477 133.258 292.68C133.717 292.883 134.09 293.165 134.378 293.528C134.677 293.891 134.896 294.323 135.034 294.824C135.184 295.325 135.258 295.869 135.258 296.456V297.144H129.114C129.114 297.581 129.168 297.981 129.274 298.344C129.392 298.707 129.552 299.021 129.754 299.288C129.968 299.555 130.229 299.763 130.538 299.912C130.848 300.061 131.205 300.136 131.61 300.136C132.304 300.136 132.81 300.008 133.13 299.752C133.45 299.485 133.669 299.128 133.786 298.68H135.13ZM133.866 296.104C133.866 295.315 133.69 294.68 133.338 294.2C132.986 293.709 132.405 293.464 131.594 293.464C130.858 293.464 130.282 293.693 129.866 294.152C129.45 294.6 129.21 295.251 129.146 296.104H133.866ZM139.029 296.6L136.245 292.632H137.877L139.877 295.592L141.941 292.632H143.413L140.677 296.584L143.717 301H142.101L139.797 297.608L137.493 301H135.957L139.029 296.6ZM144.851 299.128H146.451V301H144.851V299.128ZM155.454 292.632V301H154.062V293.832H149.886V301H148.493V292.632H155.454ZM161.315 301.256C160.686 301.256 160.126 301.155 159.635 300.952C159.145 300.739 158.729 300.44 158.387 300.056C158.046 299.672 157.785 299.208 157.603 298.664C157.422 298.12 157.331 297.507 157.331 296.824C157.331 296.152 157.427 295.544 157.619 295C157.811 294.445 158.083 293.976 158.435 293.592C158.787 293.197 159.209 292.899 159.699 292.696C160.201 292.483 160.755 292.376 161.363 292.376C161.982 292.376 162.537 292.483 163.027 292.696C163.518 292.899 163.934 293.192 164.275 293.576C164.627 293.949 164.894 294.408 165.075 294.952C165.257 295.485 165.347 296.088 165.347 296.76C165.347 297.443 165.251 298.061 165.059 298.616C164.878 299.171 164.611 299.645 164.259 300.04C163.918 300.424 163.497 300.723 162.995 300.936C162.494 301.149 161.934 301.256 161.315 301.256ZM161.331 300.104C161.779 300.104 162.163 300.024 162.483 299.864C162.803 299.693 163.065 299.464 163.267 299.176C163.481 298.877 163.635 298.525 163.731 298.12C163.827 297.715 163.875 297.272 163.875 296.792C163.875 296.312 163.827 295.875 163.731 295.48C163.635 295.075 163.481 294.728 163.267 294.44C163.065 294.152 162.803 293.928 162.483 293.768C162.163 293.608 161.779 293.528 161.331 293.528C160.883 293.528 160.499 293.608 160.179 293.768C159.87 293.928 159.609 294.152 159.395 294.44C159.193 294.728 159.043 295.075 158.947 295.48C158.851 295.875 158.803 296.312 158.803 296.792C158.803 297.272 158.851 297.715 158.947 298.12C159.043 298.525 159.193 298.877 159.395 299.176C159.598 299.464 159.859 299.693 160.179 299.864C160.499 300.024 160.883 300.104 161.331 300.104ZM173.656 292.632V299.816H174.632V303.24H173.368V301H167.112V303.24H165.848V299.816H166.664C166.856 299.635 167.032 299.395 167.192 299.096C167.352 298.797 167.496 298.429 167.624 297.992C167.752 297.544 167.864 297.016 167.96 296.408C168.066 295.8 168.157 295.096 168.232 294.296L168.376 292.632H173.656ZM169.464 295.048C169.336 296.328 169.16 297.347 168.936 298.104C168.722 298.861 168.472 299.432 168.184 299.816H172.264V293.768H169.592L169.464 295.048ZM183.421 292.632V299.816H184.397V303.24H183.133V301H176.877V303.24H175.613V299.816H176.429C176.621 299.635 176.797 299.395 176.957 299.096C177.117 298.797 177.261 298.429 177.389 297.992C177.517 297.544 177.629 297.016 177.725 296.408C177.832 295.8 177.922 295.096 177.997 294.296L178.141 292.632H183.421ZM179.229 295.048C179.101 296.328 178.925 297.347 178.701 298.104C178.488 298.861 178.237 299.432 177.949 299.816H182.029V293.768H179.357L179.229 295.048ZM192.865 298.68C192.726 299.48 192.369 300.109 191.793 300.568C191.227 301.027 190.411 301.256 189.345 301.256C188.086 301.256 187.121 300.872 186.449 300.104C185.777 299.325 185.441 298.248 185.441 296.872C185.441 296.157 185.537 295.523 185.729 294.968C185.921 294.403 186.187 293.928 186.529 293.544C186.881 293.16 187.297 292.872 187.777 292.68C188.257 292.477 188.779 292.376 189.345 292.376C189.985 292.376 190.534 292.477 190.993 292.68C191.451 292.883 191.825 293.165 192.113 293.528C192.411 293.891 192.63 294.323 192.769 294.824C192.918 295.325 192.993 295.869 192.993 296.456V297.144H186.849C186.849 297.581 186.902 297.981 187.009 298.344C187.126 298.707 187.286 299.021 187.489 299.288C187.702 299.555 187.963 299.763 188.273 299.912C188.582 300.061 188.939 300.136 189.345 300.136C190.038 300.136 190.545 300.008 190.865 299.752C191.185 299.485 191.403 299.128 191.521 298.68H192.865ZM191.601 296.104C191.601 295.315 191.425 294.68 191.073 294.2C190.721 293.709 190.139 293.464 189.329 293.464C188.593 293.464 188.017 293.693 187.601 294.152C187.185 294.6 186.945 295.251 186.881 296.104H191.601ZM194.838 292.632H196.214V293.816C196.555 293.347 196.95 292.989 197.398 292.744C197.856 292.499 198.39 292.376 198.998 292.376C199.584 292.376 200.096 292.483 200.534 292.696C200.982 292.909 201.35 293.208 201.638 293.592C201.936 293.976 202.155 294.44 202.294 294.984C202.443 295.517 202.518 296.109 202.518 296.76C202.518 297.453 202.432 298.077 202.262 298.632C202.091 299.187 201.846 299.661 201.526 300.056C201.206 300.44 200.816 300.739 200.358 300.952C199.91 301.155 199.403 301.256 198.838 301.256C198.368 301.256 197.904 301.165 197.446 300.984C196.998 300.792 196.592 300.456 196.23 299.976V304.104H194.838V292.632ZM196.214 297.048C196.214 297.592 196.272 298.056 196.39 298.44C196.518 298.824 196.688 299.144 196.902 299.4C197.115 299.645 197.371 299.827 197.67 299.944C197.968 300.051 198.294 300.104 198.646 300.104C198.987 300.104 199.302 300.045 199.59 299.928C199.888 299.811 200.144 299.619 200.358 299.352C200.571 299.085 200.736 298.744 200.854 298.328C200.982 297.901 201.046 297.384 201.046 296.776C201.046 296.157 200.976 295.64 200.838 295.224C200.71 294.808 200.539 294.477 200.326 294.232C200.112 293.976 199.867 293.795 199.59 293.688C199.323 293.581 199.046 293.528 198.758 293.528C198.395 293.528 198.059 293.587 197.75 293.704C197.44 293.821 197.168 294.003 196.934 294.248C196.71 294.483 196.534 294.787 196.406 295.16C196.278 295.523 196.214 295.949 196.214 296.44V297.048ZM209.957 301H208.629V297.272H208.133C207.92 297.272 207.738 297.293 207.589 297.336C207.45 297.379 207.317 297.448 207.189 297.544C207.072 297.64 206.96 297.763 206.853 297.912C206.746 298.051 206.629 298.216 206.501 298.408L204.789 301H203.253L205.477 297.72C205.669 297.432 205.856 297.213 206.037 297.064C206.229 296.904 206.437 296.781 206.661 296.696C206.416 296.589 206.208 296.461 206.037 296.312C205.877 296.163 205.712 295.896 205.541 295.512L205.045 294.44C204.928 294.205 204.816 294.029 204.709 293.912C204.602 293.795 204.416 293.736 204.149 293.736C204.032 293.736 203.92 293.741 203.813 293.752C203.717 293.763 203.653 293.779 203.621 293.8L203.493 292.728C203.557 292.707 203.653 292.685 203.781 292.664C203.909 292.643 204.048 292.632 204.197 292.632C204.474 292.632 204.714 292.659 204.917 292.712C205.12 292.765 205.296 292.851 205.445 292.968C205.605 293.085 205.744 293.24 205.861 293.432C205.989 293.613 206.112 293.837 206.229 294.104L206.629 294.984C206.842 295.464 207.072 295.8 207.317 295.992C207.573 296.173 207.888 296.264 208.261 296.264H208.629V292.632H209.957V296.264H210.309C210.704 296.264 211.013 296.168 211.237 295.976C211.472 295.784 211.706 295.453 211.941 294.984L212.373 294.104C212.48 293.88 212.586 293.683 212.693 293.512C212.8 293.341 212.917 293.197 213.045 293.08C213.173 292.963 213.312 292.872 213.461 292.808C213.621 292.733 213.813 292.68 214.037 292.648C214.112 292.637 214.186 292.632 214.261 292.632C214.346 292.632 214.437 292.632 214.533 292.632C214.661 292.643 214.778 292.659 214.885 292.68C215.002 292.701 215.077 292.717 215.109 292.728L214.981 293.8C214.896 293.757 214.72 293.736 214.453 293.736C214.133 293.736 213.909 293.821 213.781 293.992C213.653 294.163 213.509 294.419 213.349 294.76L212.997 295.512C212.869 295.8 212.72 296.04 212.549 296.232C212.389 296.413 212.186 296.563 211.941 296.68C212.197 296.776 212.426 296.931 212.629 297.144C212.842 297.357 213.077 297.651 213.333 298.024L215.317 301H213.749L211.829 298.12C211.637 297.832 211.445 297.619 211.253 297.48C211.061 297.341 210.789 297.272 210.437 297.272H209.957V301ZM216.525 301V292.632H217.901V296.264H218.461C218.663 296.264 218.839 296.243 218.989 296.2C219.149 296.157 219.293 296.088 219.421 295.992C219.549 295.885 219.666 295.752 219.773 295.592C219.879 295.432 219.991 295.229 220.109 294.984L220.589 293.992C220.706 293.747 220.823 293.539 220.941 293.368C221.069 293.197 221.207 293.059 221.357 292.952C221.517 292.835 221.698 292.755 221.901 292.712C222.103 292.659 222.343 292.632 222.621 292.632C222.77 292.632 222.909 292.643 223.037 292.664C223.175 292.685 223.277 292.707 223.341 292.728L223.197 293.8C223.165 293.779 223.101 293.763 223.005 293.752C222.909 293.741 222.802 293.736 222.685 293.736C222.407 293.736 222.199 293.8 222.061 293.928C221.933 294.045 221.81 294.237 221.693 294.504L221.229 295.512C221.101 295.811 220.951 296.056 220.781 296.248C220.621 296.429 220.413 296.579 220.157 296.696C220.381 296.781 220.578 296.904 220.749 297.064C220.919 297.224 221.101 297.443 221.293 297.72L223.485 301H221.885L219.965 298.12C219.773 297.832 219.581 297.619 219.389 297.48C219.197 297.341 218.925 297.272 218.573 297.272H217.901V301H216.525ZM231.546 301H230.234V294.696L225.962 301H224.65V292.632H225.946V298.952L230.218 292.632H231.546V301Z" fill="#212121"/>
</svg>
