<svg width="404" height="350" viewBox="0 0 404 350" fill="none" xmlns="http://www.w3.org/2000/svg">
<rect width="404" height="350" fill="#F2F2F2"/>
<path d="M112.256 149V132.392L102.016 149H98.432V126.152H102.208V142.856L112.416 126.152H116V149H112.256ZM124.102 132.168V138.76H131.782V132.168H135.43V149H131.782V141.8H124.102V149H120.454V132.168H124.102ZM143.614 135.208H137.982V132.168H152.83V135.208H147.262V149H143.614V135.208ZM156.396 151.912C156.694 152.019 157.004 152.093 157.324 152.136C157.644 152.2 157.964 152.232 158.284 152.232C158.902 152.232 159.393 152.072 159.756 151.752C160.14 151.432 160.492 150.856 160.812 150.024L161.42 148.456L154.412 132.168H158.636L163.212 144.36L167.436 132.168H171.404L164.396 150.024C164.054 150.877 163.724 151.624 163.404 152.264C163.084 152.925 162.721 153.469 162.316 153.896C161.91 154.323 161.43 154.643 160.876 154.856C160.321 155.091 159.649 155.208 158.86 155.208C158.262 155.208 157.718 155.165 157.228 155.08C156.737 154.995 156.236 154.867 155.724 154.696L156.396 151.912ZM187.945 149H184.617V137.384L176.873 149H173.641V132.168H176.969V143.816L184.713 132.168H187.945V149ZM196.145 135.208H190.513V132.168H205.361V135.208H199.793V149H196.145V135.208ZM222.195 149H218.867V137.384L211.123 149H207.891V132.168H211.219V143.816L218.963 132.168H222.195V149ZM226.235 132.168H233.883C235.12 132.168 236.155 132.285 236.987 132.52C237.84 132.755 238.523 133.075 239.035 133.48C239.547 133.864 239.909 134.323 240.123 134.856C240.336 135.389 240.443 135.955 240.443 136.552C240.443 137.448 240.251 138.205 239.867 138.824C239.483 139.421 238.885 139.901 238.075 140.264C238.971 140.563 239.675 141.043 240.187 141.704C240.699 142.344 240.955 143.144 240.955 144.104C240.955 144.765 240.848 145.395 240.635 145.992C240.443 146.568 240.08 147.08 239.547 147.528C239.035 147.976 238.32 148.339 237.403 148.616C236.507 148.872 235.365 149 233.979 149H226.235V132.168ZM233.883 139.176C234.949 139.176 235.696 138.995 236.123 138.632C236.571 138.269 236.795 137.768 236.795 137.128C236.795 136.403 236.571 135.869 236.123 135.528C235.696 135.187 234.917 135.016 233.787 135.016H229.755V139.176H233.883ZM234.107 146.152C235.301 146.152 236.133 145.981 236.603 145.64C237.072 145.277 237.307 144.723 237.307 143.976C237.307 143.272 237.061 142.717 236.571 142.312C236.101 141.907 235.269 141.704 234.075 141.704H229.755V146.152H234.107ZM247.695 132.168V138.76H255.375V132.168H259.023V149H255.375V141.8H247.695V149H244.047V132.168H247.695ZM270.727 149.512C268.125 149.512 266.109 148.723 264.679 147.144C263.25 145.565 262.535 143.379 262.535 140.584C262.535 139.219 262.727 137.992 263.111 136.904C263.495 135.795 264.05 134.856 264.775 134.088C265.501 133.32 266.365 132.733 267.367 132.328C268.391 131.901 269.533 131.688 270.791 131.688C272.071 131.688 273.213 131.891 274.215 132.296C275.239 132.701 276.103 133.288 276.807 134.056C277.511 134.824 278.045 135.752 278.407 136.84C278.791 137.928 278.983 139.155 278.983 140.52C278.983 141.885 278.791 143.123 278.407 144.232C278.023 145.341 277.469 146.291 276.743 147.08C276.039 147.848 275.175 148.445 274.151 148.872C273.149 149.299 272.007 149.512 270.727 149.512ZM270.759 146.568C272.295 146.568 273.415 146.024 274.119 144.936C274.845 143.848 275.207 142.376 275.207 140.52C275.207 138.707 274.845 137.277 274.119 136.232C273.415 135.165 272.295 134.632 270.759 134.632C269.223 134.632 268.093 135.165 267.367 136.232C266.663 137.277 266.311 138.717 266.311 140.552C266.311 142.387 266.663 143.848 267.367 144.936C268.093 146.024 269.223 146.568 270.759 146.568ZM112.608 169.168V186H108.96V172.24H101.664V186H98.016V169.168H112.608ZM124.321 186.512C121.718 186.512 119.702 185.723 118.273 184.144C116.844 182.565 116.129 180.379 116.129 177.584C116.129 176.219 116.321 174.992 116.705 173.904C117.089 172.795 117.644 171.856 118.369 171.088C119.094 170.32 119.958 169.733 120.961 169.328C121.985 168.901 123.126 168.688 124.385 168.688C125.665 168.688 126.806 168.891 127.809 169.296C128.833 169.701 129.697 170.288 130.401 171.056C131.105 171.824 131.638 172.752 132.001 173.84C132.385 174.928 132.577 176.155 132.577 177.52C132.577 178.885 132.385 180.123 132.001 181.232C131.617 182.341 131.062 183.291 130.337 184.08C129.633 184.848 128.769 185.445 127.745 185.872C126.742 186.299 125.601 186.512 124.321 186.512ZM124.353 183.568C125.889 183.568 127.009 183.024 127.713 181.936C128.438 180.848 128.801 179.376 128.801 177.52C128.801 175.707 128.438 174.277 127.713 173.232C127.009 172.165 125.889 171.632 124.353 171.632C122.817 171.632 121.686 172.165 120.961 173.232C120.257 174.277 119.905 175.717 119.905 177.552C119.905 179.387 120.257 180.848 120.961 181.936C121.686 183.024 122.817 183.568 124.353 183.568ZM139.789 169.168V175.76H147.469V169.168H151.117V186H147.469V178.8H139.789V186H136.141V169.168H139.789ZM153.637 186L156.677 180.784C157.232 179.824 157.872 179.195 158.597 178.896C158.149 178.811 157.722 178.651 157.317 178.416C156.912 178.181 156.549 177.883 156.229 177.52C155.909 177.157 155.653 176.709 155.461 176.176C155.29 175.643 155.205 175.024 155.205 174.32C155.205 173.637 155.322 172.987 155.557 172.368C155.792 171.728 156.176 171.173 156.709 170.704C157.264 170.235 157.968 169.861 158.821 169.584C159.674 169.307 160.73 169.168 161.989 169.168H168.933V186H165.317V179.696H163.429C163.002 179.696 162.629 179.728 162.309 179.792C161.989 179.856 161.712 179.963 161.477 180.112C161.242 180.24 161.029 180.421 160.837 180.656C160.645 180.891 160.453 181.168 160.261 181.488L157.765 186H153.637ZM165.317 176.72V172.112H161.925C159.898 172.112 158.885 172.827 158.885 174.256C158.885 175.899 159.824 176.72 161.701 176.72H165.317ZM177.114 172.208H171.482V169.168H186.33V172.208H180.762V186H177.114V172.208ZM192.508 169.168V175.76H200.188V169.168H203.836V186H200.188V178.8H192.508V186H188.86V169.168H192.508ZM215.54 186.512C212.937 186.512 210.921 185.723 209.492 184.144C208.062 182.565 207.348 180.379 207.348 177.584C207.348 176.219 207.54 174.992 207.924 173.904C208.308 172.795 208.862 171.856 209.588 171.088C210.313 170.32 211.177 169.733 212.18 169.328C213.204 168.901 214.345 168.688 215.604 168.688C216.884 168.688 218.025 168.891 219.028 169.296C220.052 169.701 220.916 170.288 221.62 171.056C222.324 171.824 222.857 172.752 223.22 173.84C223.604 174.928 223.796 176.155 223.796 177.52C223.796 178.885 223.604 180.123 223.22 181.232C222.836 182.341 222.281 183.291 221.556 184.08C220.852 184.848 219.988 185.445 218.964 185.872C217.961 186.299 216.82 186.512 215.54 186.512ZM215.572 183.568C217.108 183.568 218.228 183.024 218.932 181.936C219.657 180.848 220.02 179.376 220.02 177.52C220.02 175.707 219.657 174.277 218.932 173.232C218.228 172.165 217.108 171.632 215.572 171.632C214.036 171.632 212.905 172.165 212.18 173.232C211.476 174.277 211.124 175.717 211.124 177.552C211.124 179.387 211.476 180.848 212.18 181.936C212.905 183.024 214.036 183.568 215.572 183.568ZM242.208 181.072C241.909 182.8 241.173 184.144 240 185.104C238.848 186.043 237.162 186.512 234.944 186.512C232.298 186.512 230.282 185.733 228.896 184.176C227.53 182.597 226.848 180.421 226.848 177.648C226.848 176.219 227.04 174.949 227.424 173.84C227.829 172.731 228.384 171.792 229.088 171.024C229.813 170.256 230.666 169.68 231.648 169.296C232.65 168.891 233.749 168.688 234.944 168.688C236.224 168.688 237.333 168.891 238.272 169.296C239.21 169.68 239.989 170.235 240.608 170.96C241.226 171.685 241.685 172.549 241.984 173.552C242.282 174.533 242.432 175.632 242.432 176.848V178.448H230.496C230.517 179.216 230.624 179.92 230.816 180.56C231.008 181.179 231.285 181.723 231.648 182.192C232.01 182.661 232.469 183.024 233.024 183.28C233.578 183.536 234.218 183.664 234.944 183.664C236.096 183.664 236.96 183.44 237.536 182.992C238.112 182.523 238.496 181.883 238.688 181.072H242.208ZM238.88 175.952C238.88 174.565 238.56 173.467 237.92 172.656C237.301 171.845 236.277 171.44 234.848 171.44C233.525 171.44 232.501 171.856 231.776 172.688C231.072 173.499 230.666 174.587 230.56 175.952H238.88ZM98.208 225.912C98.5067 226.019 98.816 226.093 99.136 226.136C99.456 226.2 99.776 226.232 100.096 226.232C100.715 226.232 101.205 226.072 101.568 225.752C101.952 225.432 102.304 224.856 102.624 224.024L103.232 222.456L96.224 206.168H100.448L105.024 218.36L109.248 206.168H113.216L106.208 224.024C105.867 224.877 105.536 225.624 105.216 226.264C104.896 226.925 104.533 227.469 104.128 227.896C103.723 228.323 103.243 228.643 102.688 228.856C102.133 229.091 101.461 229.208 100.672 229.208C100.075 229.208 99.5307 229.165 99.04 229.08C98.5493 228.995 98.048 228.867 97.536 228.696L98.208 225.912ZM130.046 206.168V223H126.398V209.24H119.102V223H115.454V206.168H130.046ZM142.143 208.664C140.671 208.664 139.551 209.133 138.783 210.072C138.036 211.011 137.663 212.355 137.663 214.104V215.128C137.663 216.835 138.015 218.168 138.719 219.128C139.423 220.067 140.521 220.536 142.015 220.536C143.38 220.536 144.425 220.013 145.151 218.968C145.876 217.923 146.239 216.461 146.239 214.584C146.239 212.557 145.855 211.064 145.087 210.104C144.34 209.144 143.359 208.664 142.143 208.664ZM137.631 206.168V208.504C137.759 208.355 137.951 208.12 138.207 207.8C138.484 207.48 138.836 207.171 139.263 206.872C139.711 206.552 140.244 206.275 140.863 206.04C141.481 205.805 142.207 205.688 143.039 205.688C144.34 205.688 145.428 205.933 146.303 206.424C147.199 206.915 147.924 207.565 148.479 208.376C149.033 209.187 149.428 210.125 149.663 211.192C149.919 212.259 150.047 213.379 150.047 214.552C150.047 215.789 149.887 216.952 149.567 218.04C149.268 219.128 148.809 220.077 148.191 220.888C147.572 221.699 146.804 222.339 145.887 222.808C144.991 223.277 143.935 223.512 142.719 223.512C141.972 223.512 141.311 223.416 140.735 223.224C140.18 223.032 139.7 222.808 139.295 222.552C138.889 222.296 138.559 222.04 138.303 221.784C138.047 221.507 137.855 221.283 137.727 221.112V229.208H134.079V206.168H137.631ZM161.323 215.096C160.299 215.139 159.456 215.245 158.795 215.416C158.133 215.565 157.611 215.779 157.227 216.056C156.843 216.333 156.576 216.653 156.427 217.016C156.299 217.379 156.235 217.784 156.235 218.232C156.235 218.936 156.459 219.512 156.907 219.96C157.355 220.387 158.037 220.6 158.955 220.6C160.405 220.6 161.547 220.248 162.379 219.544C163.232 218.819 163.659 217.784 163.659 216.44V215L161.323 215.096ZM163.723 220.824C163.104 221.549 162.357 222.168 161.483 222.68C160.608 223.171 159.509 223.416 158.187 223.416C157.397 223.416 156.661 223.309 155.979 223.096C155.296 222.904 154.699 222.605 154.187 222.2C153.696 221.773 153.301 221.24 153.003 220.6C152.725 219.96 152.587 219.213 152.587 218.36C152.587 217.208 152.832 216.28 153.323 215.576C153.835 214.851 154.496 214.285 155.307 213.88C156.117 213.475 157.035 213.187 158.059 213.016C159.083 212.845 160.128 212.728 161.195 212.664L163.659 212.536V211.832C163.659 210.616 163.371 209.752 162.795 209.24C162.219 208.728 161.408 208.472 160.363 208.472C159.253 208.472 158.421 208.664 157.867 209.048C157.312 209.411 156.949 209.965 156.779 210.712L153.451 210.36C153.749 208.739 154.485 207.555 155.659 206.808C156.832 206.061 158.443 205.688 160.491 205.688C161.728 205.688 162.773 205.837 163.627 206.136C164.48 206.435 165.173 206.872 165.707 207.448C166.24 208.003 166.624 208.685 166.859 209.496C167.093 210.307 167.211 211.213 167.211 212.216V223H163.723V220.824ZM171.172 206.168H178.82C180.058 206.168 181.092 206.285 181.924 206.52C182.778 206.755 183.46 207.075 183.972 207.48C184.484 207.864 184.847 208.323 185.06 208.856C185.274 209.389 185.38 209.955 185.38 210.552C185.38 211.448 185.188 212.205 184.804 212.824C184.42 213.421 183.823 213.901 183.012 214.264C183.908 214.563 184.612 215.043 185.124 215.704C185.636 216.344 185.892 217.144 185.892 218.104C185.892 218.765 185.786 219.395 185.572 219.992C185.38 220.568 185.018 221.08 184.484 221.528C183.972 221.976 183.258 222.339 182.34 222.616C181.444 222.872 180.303 223 178.916 223H171.172V206.168ZM178.82 213.176C179.887 213.176 180.634 212.995 181.06 212.632C181.508 212.269 181.732 211.768 181.732 211.128C181.732 210.403 181.508 209.869 181.06 209.528C180.634 209.187 179.855 209.016 178.724 209.016H174.692V213.176H178.82ZM179.044 220.152C180.239 220.152 181.071 219.981 181.54 219.64C182.01 219.277 182.244 218.723 182.244 217.976C182.244 217.272 181.999 216.717 181.508 216.312C181.039 215.907 180.207 215.704 179.012 215.704H174.692V220.152H179.044ZM200.712 209.208H196.008L195.432 214.296C195.24 215.896 194.962 217.261 194.6 218.392C194.237 219.501 193.768 220.419 193.192 221.144C192.637 221.848 191.965 222.36 191.176 222.68C190.386 223 189.469 223.16 188.424 223.16H187.688V220.152H188.04C188.552 220.152 189.01 220.056 189.416 219.864C189.842 219.672 190.216 219.331 190.536 218.84C190.856 218.328 191.133 217.635 191.368 216.76C191.602 215.885 191.794 214.776 191.944 213.432L192.776 206.168H204.36V223H200.712V209.208ZM223.239 218.072C222.94 219.8 222.204 221.144 221.031 222.104C219.879 223.043 218.194 223.512 215.975 223.512C213.33 223.512 211.314 222.733 209.927 221.176C208.562 219.597 207.879 217.421 207.879 214.648C207.879 213.219 208.071 211.949 208.455 210.84C208.86 209.731 209.415 208.792 210.119 208.024C210.844 207.256 211.698 206.68 212.679 206.296C213.682 205.891 214.78 205.688 215.975 205.688C217.255 205.688 218.364 205.891 219.303 206.296C220.242 206.68 221.02 207.235 221.639 207.96C222.258 208.685 222.716 209.549 223.015 210.552C223.314 211.533 223.463 212.632 223.463 213.848V215.448H211.527C211.548 216.216 211.655 216.92 211.847 217.56C212.039 218.179 212.316 218.723 212.679 219.192C213.042 219.661 213.5 220.024 214.055 220.28C214.61 220.536 215.25 220.664 215.975 220.664C217.127 220.664 217.991 220.44 218.567 219.992C219.143 219.523 219.527 218.883 219.719 218.072H223.239ZM219.911 212.952C219.911 211.565 219.591 210.467 218.951 209.656C218.332 208.845 217.308 208.44 215.879 208.44C214.556 208.44 213.532 208.856 212.807 209.688C212.103 210.499 211.698 211.587 211.591 212.952H219.911ZM230.602 206.168V212.76H238.282V206.168H241.93V223H238.282V215.8H230.602V223H226.954V206.168H230.602ZM260.258 223H256.93V211.384L249.186 223H245.954V206.168H249.282V217.816L257.026 206.168H260.258V223ZM279.145 218.072C278.847 219.8 278.111 221.144 276.937 222.104C275.785 223.043 274.1 223.512 271.881 223.512C269.236 223.512 267.22 222.733 265.833 221.176C264.468 219.597 263.785 217.421 263.785 214.648C263.785 213.219 263.977 211.949 264.361 210.84C264.767 209.731 265.321 208.792 266.025 208.024C266.751 207.256 267.604 206.68 268.585 206.296C269.588 205.891 270.687 205.688 271.881 205.688C273.161 205.688 274.271 205.891 275.209 206.296C276.148 206.68 276.927 207.235 277.545 207.96C278.164 208.685 278.623 209.549 278.921 210.552C279.22 211.533 279.369 212.632 279.369 213.848V215.448H267.433C267.455 216.216 267.561 216.92 267.753 217.56C267.945 218.179 268.223 218.723 268.585 219.192C268.948 219.661 269.407 220.024 269.961 220.28C270.516 220.536 271.156 220.664 271.881 220.664C273.033 220.664 273.897 220.44 274.473 219.992C275.049 219.523 275.433 218.883 275.625 218.072H279.145ZM275.817 212.952C275.817 211.565 275.497 210.467 274.857 209.656C274.239 208.845 273.215 208.44 271.785 208.44C270.463 208.44 269.439 208.856 268.713 209.688C268.009 210.499 267.604 211.587 267.497 212.952H275.817Z" fill="#212121"/>
</svg>
