<svg width="629" height="117" viewBox="0 0 629 117" fill="none" xmlns="http://www.w3.org/2000/svg">
<path d="M11.8973 94.0954C12.4174 98.6245 14.0427 101.924 16.7732 103.995C19.5687 106.065 23.697 107.1 29.158 107.1C31.8236 107.1 34.0665 106.809 35.8868 106.227C37.7072 105.645 39.17 104.868 40.2752 103.898C41.3804 102.927 42.1605 101.795 42.6156 100.501C43.0707 99.1421 43.2982 97.7187 43.2982 96.2306C43.2982 95.1306 43.1357 94.0631 42.8106 93.0279C42.4856 91.9279 41.9005 90.9251 41.0553 90.0193C40.2101 89.1135 39.0724 88.337 37.6422 87.69C36.2119 86.9783 34.3915 86.4284 32.1811 86.0402L23.3069 84.3903C19.7963 83.7433 16.6757 82.9345 13.9452 81.964C11.2146 80.9935 8.90669 79.7318 7.02134 78.179C5.20099 76.5615 3.80322 74.6204 2.82804 72.3559C1.91786 70.0266 1.46278 67.2122 1.46278 63.9124C1.46278 60.6126 2.1129 57.7335 3.41315 55.2748C4.77841 52.8162 6.63126 50.7781 8.97171 49.1606C11.3122 47.4783 14.0752 46.249 17.2608 45.4726C20.5114 44.6315 24.0221 44.2109 27.7928 44.2109C32.6037 44.2109 36.6345 44.7609 39.8851 45.8608C43.1357 46.9607 45.7687 48.4165 47.7841 50.2281C49.7995 51.9751 51.3273 54.0131 52.3675 56.3424C53.4077 58.6716 54.1228 61.0979 54.5129 63.6212L43.3958 65.3682C42.4856 61.4861 40.8928 58.6069 38.6173 56.7306C36.4069 54.8543 32.8638 53.9161 27.9878 53.9161C25.1923 53.9161 22.8518 54.1749 20.9665 54.6925C19.1461 55.1454 17.6509 55.8248 16.4806 56.7306C15.3754 57.5717 14.5628 58.5746 14.0427 59.7392C13.5876 60.8391 13.36 62.0037 13.36 63.233C13.36 66.274 14.1727 68.5385 15.798 70.0266C17.4883 71.5148 20.4139 72.6794 24.5747 73.5205L34.229 75.3645C41.5754 76.7232 46.9714 79.0524 50.4171 82.3522C53.8627 85.5872 55.5856 90.2781 55.5856 96.4247C55.5856 99.3362 55.033 102.054 53.9278 104.577C52.8876 107.036 51.2622 109.203 49.0518 111.079C46.8414 112.891 44.0784 114.314 40.7628 115.35C37.5121 116.45 33.7089 117 29.3531 117C20.4464 117 13.4576 115.156 8.38659 111.468C3.31563 107.715 0.520099 101.924 0 94.0954H11.8973Z" fill="white"/>
<path d="M66.9518 45.9579H78.7516V115.253H66.9518V45.9579Z" fill="white"/>
<path d="M93.5218 45.9579H107.857L127.653 101.083L148.035 45.9579H161.882V115.253H151.058V64.8829L131.944 115.253H122.582L104.151 64.98V115.253H93.5218V45.9579Z" fill="white"/>
<path d="M176.66 45.9579H200.747C206.013 45.9579 210.337 46.5402 213.717 47.7048C217.163 48.8694 219.861 50.4222 221.811 52.3633C223.762 54.3043 225.127 56.5688 225.907 59.1569C226.687 61.6802 227.077 64.333 227.077 67.1151C227.077 70.0914 226.687 72.9382 225.907 75.6556C225.127 78.3731 223.729 80.767 221.714 82.8375C219.763 84.8432 217.098 86.4607 213.717 87.69C210.337 88.8546 206.078 89.437 200.942 89.437H188.265V115.253H176.66V45.9579ZM200.65 79.6348C203.64 79.6348 206.078 79.3436 207.964 78.7613C209.914 78.179 211.442 77.3702 212.547 76.335C213.652 75.2351 214.4 73.9411 214.79 72.4529C215.245 70.9648 215.473 69.2826 215.473 67.4063C215.473 65.4652 215.245 63.783 214.79 62.3596C214.335 60.8715 213.522 59.6421 212.352 58.6716C211.247 57.7011 209.719 56.957 207.769 56.4394C205.883 55.9218 203.478 55.663 200.552 55.663H188.265V79.6348H200.65Z" fill="white"/>
<path d="M250.171 45.9579V105.062H284.692L283.23 115.253H238.371V45.9579H250.171Z" fill="white"/>
<path d="M294.273 45.9579H340.594V56.0512H306.073V74.491H338.644V84.6814H306.073V105.159H342.447L341.082 115.253H294.273V45.9579Z" fill="white"/>
<path d="M3.08643 0H9.50965C10.9139 0 12.0668 0.155282 12.9683 0.465847C13.8871 0.776413 14.6066 1.1905 15.1267 1.70811C15.6468 2.22572 16.0109 2.82959 16.2189 3.51974C16.427 4.19263 16.531 4.90003 16.531 5.64193C16.531 6.4356 16.427 7.19476 16.2189 7.91941C16.0109 8.64406 15.6381 9.28244 15.1007 9.83456C14.5806 10.3694 13.8698 10.8008 12.9683 11.1286C12.0668 11.4391 10.9313 11.5944 9.56166 11.5944H6.18101V18.4786H3.08643V0ZM9.48364 8.9805C10.2811 8.9805 10.9313 8.90286 11.434 8.74758C11.9541 8.5923 12.3615 8.37663 12.6562 8.10057C12.951 7.80726 13.1503 7.46219 13.2544 7.06535C13.3757 6.66852 13.4364 6.21993 13.4364 5.71957C13.4364 5.20196 13.3757 4.75337 13.2544 4.37379C13.133 3.97696 12.9163 3.64914 12.6042 3.39034C12.3095 3.13153 11.9021 2.93311 11.382 2.79509C10.8792 2.65706 10.2378 2.58804 9.45764 2.58804H6.18101V8.9805H9.48364Z" fill="white"/>
<path d="M26.1219 8.54054C26.8327 8.54054 27.4222 8.47152 27.8903 8.33349C28.3584 8.17821 28.7224 7.97117 28.9825 7.71237C29.2599 7.43631 29.4506 7.10849 29.5546 6.72891C29.6759 6.34933 29.7366 5.92662 29.7366 5.46077C29.7366 5.02943 29.6673 4.64122 29.5286 4.29615C29.4072 3.93382 29.1905 3.63189 28.8785 3.39034C28.5837 3.13153 28.185 2.93311 27.6822 2.79509C27.1795 2.65706 26.5553 2.58804 25.8099 2.58804H22.6373V8.54054H26.1219ZM25.8879 0C27.2922 0 28.445 0.163909 29.3465 0.491728C30.2654 0.819546 30.9849 1.25089 31.505 1.78575C32.0424 2.30336 32.4151 2.88135 32.6232 3.51974C32.8312 4.15812 32.9352 4.78788 32.9352 5.40901C32.9352 6.61676 32.6925 7.6261 32.2071 8.43702C31.739 9.24794 30.9762 9.90357 29.9187 10.4039L33.7674 18.4786H30.3347L27.0061 11.1286C26.8501 11.1458 26.6854 11.1631 26.512 11.1803C26.3386 11.1803 26.1566 11.1803 25.9659 11.1803H22.6373V18.4786H19.5427V0H25.8879Z" fill="white"/>
<path d="M36.2529 0H48.6052V2.69156H39.3995V7.60884H48.0851V10.3263H39.3995V15.7871H49.0993L48.7353 18.4786H36.2529V0Z" fill="white"/>
<path d="M52.0997 0H55.9224L61.2014 14.7001L66.6364 0H70.3291V18.4786H67.4426V5.04668L62.3456 18.4786H59.8491L54.9342 5.07256V18.4786H52.0997V0Z" fill="white"/>
<path d="M74.2699 0H77.4165V18.4786H74.2699V0Z" fill="white"/>
<path d="M84.1898 0V11.0768C84.1898 12.8194 84.5018 14.1221 85.1259 14.9848C85.7674 15.8302 86.8423 16.2529 88.3505 16.2529C89.8415 16.2529 90.8904 15.8302 91.4971 14.9848C92.1213 14.1221 92.4333 12.8194 92.4333 11.0768V0H95.5799V11.0768C95.5799 12.5089 95.4065 13.7252 95.0598 14.726C94.7131 15.7094 94.219 16.5203 93.5775 17.1587C92.9361 17.7798 92.1733 18.2284 91.2891 18.5045C90.4049 18.7978 89.4167 18.9445 88.3245 18.9445C85.9494 18.9445 84.1464 18.3147 82.9155 17.0552C81.6846 15.7784 81.0692 13.7598 81.0692 10.9992V0H84.1898Z" fill="white"/>
<path d="M99.259 0H103.082L108.361 14.7001L113.796 0H117.488V18.4786H114.602V5.04668L109.505 18.4786H107.008L102.094 5.07256V18.4786H99.259V0Z" fill="white"/>
<path d="M352.647 45.9579H364.447V74.0058H395.751V45.9579H407.55V115.253H395.751V84.8755H364.447V115.253H352.647V45.9579Z" fill="#FF7819"/>
<path d="M452.686 117C447.68 117 443.162 116.191 439.131 114.573C435.165 112.891 431.752 110.497 428.892 107.391C426.031 104.286 423.821 100.501 422.261 96.0365C420.765 91.5074 420.018 86.396 420.018 80.7023C420.018 75.0086 420.798 69.8972 422.358 65.3682C423.918 60.8391 426.129 57.0217 428.989 53.9161C431.85 50.7457 435.295 48.3518 439.326 46.7343C443.357 45.0521 447.81 44.2109 452.686 44.2109C457.627 44.2109 462.113 45.0521 466.144 46.7343C470.175 48.3518 473.588 50.7134 476.383 53.819C479.179 56.9247 481.324 60.7421 482.82 65.2711C484.38 69.7355 485.16 74.8145 485.16 80.5082C485.16 86.2666 484.412 91.4103 482.917 95.9394C481.422 100.404 479.276 104.221 476.481 107.391C473.685 110.497 470.272 112.891 466.241 114.573C462.276 116.191 457.757 117 452.686 117ZM452.589 106.906C459.285 106.906 464.356 104.577 467.802 99.9185C471.247 95.1954 472.97 88.7576 472.97 80.6053C472.97 76.5291 472.515 72.8735 471.605 69.6384C470.76 66.4034 469.492 63.6536 467.802 61.3891C466.111 59.1245 463.998 57.3776 461.463 56.1483C458.927 54.919 455.969 54.3043 452.589 54.3043C449.208 54.3043 446.25 54.919 443.715 56.1483C441.179 57.3776 439.034 59.1245 437.278 61.3891C435.588 63.6536 434.32 66.4034 433.475 69.6384C432.63 72.8735 432.207 76.5291 432.207 80.6053C432.207 88.7576 433.898 95.1954 437.278 99.9185C440.724 104.577 445.827 106.906 452.589 106.906Z" fill="#FF7819"/>
<path d="M497.687 45.9579H512.023L531.819 101.083L552.2 45.9579H566.048V115.253H555.223V64.8829L536.11 115.253H526.748L508.317 64.98V115.253H497.687V45.9579Z" fill="#FF7819"/>
<path d="M580.826 45.9579H627.147V56.0512H592.625V74.491H625.197V84.6814H592.625V105.159H629L627.635 115.253H580.826V45.9579Z" fill="#FF7819"/>
</svg>
