<svg width="39" height="39" viewBox="0 0 39 39" fill="none" xmlns="http://www.w3.org/2000/svg">
<path d="M35.7112 19.9582C32.8913 17.8934 28.1467 17.1064 24.3469 18.0059C23.9552 17.3833 23.4558 16.8406 22.8756 16.4063C23.632 14.7864 24.9494 13.5929 27.2285 12.4206C28.4274 11.8037 29.9197 11.036 29.9197 9.00044C29.9197 3.44115 24.5269 0 19.5305 0C13.8019 0 9.14143 4.03754 9.14143 9.00044C9.14143 11.4653 10.3052 14.7516 12.1064 17.3727C12.6849 18.2143 13.2997 18.9551 13.9392 19.5861C13.8139 20.0273 13.735 20.4889 13.7112 20.9655C12.1159 20.8449 10.6123 20.0992 8.75188 18.5402L8.72686 18.5192C7.69715 17.6559 6.4155 16.581 4.63264 17.432C-0.235159 19.7545 -0.995298 26.276 1.0921 30.9861C3.29867 35.9656 8.64131 39.249 13.3133 37.0197C16.6075 35.4479 19.8543 31.1246 20.8319 27.1265C21.1236 27.0546 21.4066 26.9604 21.6794 26.8446C22.6328 28.3207 23.075 30.0793 22.5892 33.3197C22.3837 34.6919 22.1278 36.3995 23.7309 37.5735C27.9859 40.6891 33.8202 38.3485 36.8082 33.9552C38.3036 31.7565 39.0988 29.0469 38.9902 26.5213C38.871 23.75 37.7065 21.4191 35.7112 19.9582ZM13.7492 16.157C12.2 13.9026 11.1593 11.0266 11.1593 9.0003C11.1593 5.1918 14.9146 2.09344 19.5306 2.09344C24.7015 2.09344 27.9021 5.67863 27.9021 9.0003C27.9021 9.65043 27.5864 9.89956 26.3324 10.5448C23.641 11.9292 22.0092 13.4475 21.0574 15.4954C20.5599 15.3505 20.0363 15.2714 19.4947 15.2714C17.6266 15.2714 15.9631 16.1948 14.9034 17.624C14.5073 17.1875 14.1212 16.6981 13.7492 16.157ZM12.4704 35.1174C8.8455 36.8474 4.65646 34.0177 2.92539 30.1113C0.765092 25.2366 2.56718 20.7216 5.47578 19.3338C6.04545 19.0622 6.39021 19.2514 7.45879 20.1474L7.48408 20.1684C9.81575 22.1224 11.8036 23.022 13.9671 23.0752C14.6283 25.2627 16.4651 26.9144 18.7057 27.2326C17.6414 30.681 14.7509 34.0293 12.4704 35.1174ZM19.4947 25.1964C17.4138 25.1964 15.7209 23.4399 15.7209 21.2807C15.7209 19.1215 17.4138 17.365 19.4947 17.365C21.5755 17.365 23.2685 19.1215 23.2685 21.2807C23.2685 23.4611 21.5506 25.1964 19.4947 25.1964ZM35.1599 32.7479C32.7825 36.2435 28.1716 38.2625 24.8945 35.8627C24.3824 35.4879 24.3683 35.0767 24.5834 33.6412C25.0901 30.2596 24.7439 27.8836 23.3841 25.7295C24.9237 24.2791 25.6029 22.0968 25.1465 19.9726C28.3054 19.3483 32.3161 20.0347 34.548 21.6688C36.022 22.7481 36.8838 24.5047 36.9747 26.6146C37.0638 28.6855 36.4024 30.9211 35.1599 32.7479Z" fill="white"/>
</svg>
