<svg width="35" height="57" viewBox="0 0 35 57" fill="none" xmlns="http://www.w3.org/2000/svg">
<path d="M17.1 0C10.7445 0 0 0.9975 0 4.75V36.1C0 39.6245 9.6995 40.527 13.3 40.7455V45.7995C10.4785 46.0845 5.7 46.9395 5.7 49.4V53.2C5.7 56.202 12.863 57 17.1 57C21.337 57 28.5 56.202 28.5 53.2V49.4C28.5 46.9395 23.7215 46.0845 20.9 45.7995V40.7455C24.5005 40.527 34.2 39.6245 34.2 36.1V4.75C34.2 0.9975 23.4555 0 17.1 0ZM26.6 53.1715C26.315 53.846 22.819 55.1 17.1 55.1C11.381 55.1 7.885 53.846 7.6 53.1715V51.661C8.06417 51.8792 8.54361 52.0634 9.0345 52.212C11.6649 52.9102 14.3789 53.2427 17.1 53.2C19.8211 53.2427 22.5351 52.9102 25.1655 52.212C25.6564 52.0634 26.1358 51.8792 26.6 51.661V53.1715ZM26.6095 49.362C26.6 49.362 26.372 49.856 24.6145 50.388C22.1636 51.0367 19.6349 51.3436 17.1 51.3C14.5651 51.3436 12.0364 51.0367 9.5855 50.388C8.85415 50.2383 8.17171 49.9085 7.6 49.4285C7.676 49.248 8.132 48.925 9.082 48.583C10.5105 48.1109 11.9904 47.8111 13.49 47.69C13.7292 48.4604 14.2087 49.1341 14.8582 49.6125C15.5077 50.091 16.2933 50.349 17.1 50.349C17.9067 50.349 18.6923 50.091 19.3418 49.6125C19.9913 49.1341 20.4708 48.4604 20.71 47.69C24.8235 48.0985 26.4765 49.096 26.6095 49.362ZM15.2 46.531V40.8215C15.827 40.8405 16.454 40.85 17.1 40.85C17.746 40.85 18.373 40.8405 19 40.8215V46.531C19 46.5595 18.9905 46.5975 18.9905 46.626C18.9749 47.117 18.7689 47.5827 18.4161 47.9245C18.0633 48.2664 17.5913 48.4575 17.1 48.4575C16.6087 48.4575 16.1367 48.2664 15.7839 47.9245C15.4311 47.5827 15.2251 47.117 15.2095 46.626C15.2095 46.5975 15.2 46.5595 15.2 46.531ZM32.3 36.1C32.1765 36.765 28.4335 38.532 19.912 38.893C18.088 38.969 16.1025 38.969 14.288 38.893C5.7665 38.532 2.0235 36.765 1.9 36.1V7.1345C5.2725 8.949 12.388 9.5 17.1 9.5C21.812 9.5 28.9275 8.949 32.3 7.1345V36.1ZM17.1 7.6C7.6 7.6 2.0805 5.719 1.9 4.75C2.0805 3.781 7.6 1.9 17.1 1.9C26.581 1.9 32.1005 3.781 32.3 4.75C32.1005 5.719 26.581 7.6 17.1 7.6Z" fill="white"/>
</svg>
