<svg width="43" height="44" viewBox="0 0 43 44" fill="none" xmlns="http://www.w3.org/2000/svg">
<path d="M21.5 42.3378C17.4775 42.3378 13.5454 41.145 10.2009 38.9102C6.85632 36.6755 4.24957 33.4992 2.71024 29.7829C1.17092 26.0667 0.768164 21.9774 1.5529 18.0322C2.33764 14.0871 4.27464 10.4632 7.11893 7.61893C9.96323 4.77464 13.5871 2.83764 17.5322 2.0529C21.4774 1.26816 25.5667 1.67092 29.2829 3.21024C32.9992 4.74957 36.1755 7.35632 38.4103 10.7009C40.645 14.0454 41.8378 17.9775 41.8378 22C41.8316 27.392 39.6869 32.5614 35.8742 36.3742C32.0614 40.1869 26.892 42.3316 21.5 42.3378ZM21.5 2.82428C17.7074 2.82428 13.9999 3.94891 10.8465 6.05596C7.6931 8.16301 5.2353 11.1578 3.78394 14.6617C2.33258 18.1656 1.95284 22.0212 2.69274 25.7409C3.43263 29.4607 5.25894 32.8774 7.94071 35.5592C10.6225 38.241 14.0393 40.0673 17.759 40.8072C21.4787 41.5471 25.3343 41.1673 28.8382 39.716C32.3421 38.2646 35.3369 35.8068 37.444 32.6534C39.551 29.5 40.6756 25.7925 40.6756 22C40.6698 16.916 38.6476 12.042 35.0528 8.44716C31.4579 4.85229 26.5839 2.83012 21.5 2.82428Z" fill="white" stroke="white" stroke-width="0.2"/>
<path d="M21.5002 34.2032C19.1113 34.2047 16.7757 33.4967 14.7898 32.1688C12.8039 30.841 11.2572 28.9532 10.3458 26.7449C9.43446 24.5366 9.19954 22.1074 9.67087 19.7655C10.1422 17.4235 11.2985 15.2743 12.9932 13.5905C13.103 13.4849 13.2499 13.4266 13.4023 13.4282C13.5547 13.4299 13.7003 13.4913 13.8078 13.5993C13.9153 13.7072 13.9761 13.8531 13.9771 14.0055C13.9781 14.1579 13.9192 14.3045 13.8131 14.4139C12.2816 15.9362 11.2366 17.879 10.8106 19.996C10.3845 22.1129 10.5966 24.3087 11.42 26.3049C12.2434 28.3012 13.6409 30.008 15.4355 31.2091C17.2301 32.4101 19.3408 33.0513 21.5002 33.0513C23.6596 33.0513 25.7704 32.4101 27.565 31.2091C29.3595 30.008 30.7571 28.3012 31.5804 26.3049C32.4038 24.3087 32.6159 22.1129 32.1899 19.996C31.7638 17.879 30.7188 15.9362 29.1873 14.4139C29.1317 14.3604 29.0874 14.2964 29.0568 14.2256C29.0262 14.1547 29.01 14.0785 29.0091 14.0014C29.0083 13.9242 29.0229 13.8477 29.0519 13.7762C29.081 13.7048 29.124 13.6398 29.1784 13.5851C29.2329 13.5305 29.2977 13.4872 29.369 13.4578C29.4403 13.4284 29.5168 13.4136 29.594 13.4141C29.6711 13.4146 29.7474 13.4304 29.8184 13.4607C29.8893 13.491 29.9535 13.5351 30.0072 13.5905C31.7019 15.2743 32.8582 17.4235 33.3296 19.7655C33.8009 22.1074 33.566 24.5366 32.6546 26.7449C31.7433 28.9532 30.1965 30.841 28.2106 32.1688C26.2247 33.4967 23.8892 34.2047 21.5002 34.2032Z" fill="white" stroke="white" stroke-width="0.2"/>
<path d="M21.4998 23.1966C21.3457 23.1966 21.1979 23.1354 21.0889 23.0264C20.9799 22.9174 20.9187 22.7696 20.9187 22.6155V9.21634C20.9187 9.06222 20.9799 8.91442 21.0889 8.80545C21.1979 8.69647 21.3457 8.63525 21.4998 8.63525C21.6539 8.63525 21.8017 8.69647 21.9107 8.80545C22.0197 8.91442 22.0809 9.06222 22.0809 9.21634V22.6155C22.0809 22.7696 22.0197 22.9174 21.9107 23.0264C21.8017 23.1354 21.6539 23.1966 21.4998 23.1966Z" fill="white" stroke="white" stroke-width="0.2"/>
</svg>
