<svg width="192" height="38" viewBox="0 0 192 38" fill="none" xmlns="http://www.w3.org/2000/svg">
<path opacity="0.5" d="M6.75 26.1C7.01667 28.4333 7.85 30.1333 9.25 31.2C10.6833 32.2667 12.8 32.8 15.6 32.8C16.9667 32.8 18.1167 32.65 19.05 32.35C19.9833 32.05 20.7333 31.65 21.3 31.15C21.8667 30.65 22.2667 30.0667 22.5 29.4C22.7333 28.7 22.85 27.9667 22.85 27.2C22.85 26.6333 22.7667 26.0833 22.6 25.55C22.4333 24.9833 22.1333 24.4667 21.7 24C21.2667 23.5333 20.6833 23.1333 19.95 22.8C19.2167 22.4333 18.2833 22.15 17.15 21.95L12.6 21.1C10.8 20.7667 9.2 20.35 7.8 19.85C6.4 19.35 5.21667 18.7 4.25 17.9C3.31667 17.0667 2.6 16.0667 2.1 14.9C1.63333 13.7 1.4 12.25 1.4 10.55C1.4 8.85 1.73333 7.36666 2.4 6.1C3.1 4.83333 4.05 3.78333 5.25 2.95C6.45 2.08333 7.86667 1.45 9.5 1.05C11.1667 0.616664 12.9667 0.399997 14.9 0.399997C17.3667 0.399997 19.4333 0.683331 21.1 1.25C22.7667 1.81667 24.1167 2.56667 25.15 3.5C26.1833 4.4 26.9667 5.45 27.5 6.65C28.0333 7.85 28.4 9.1 28.6 10.4L22.9 11.3C22.4333 9.3 21.6167 7.81667 20.45 6.85C19.3167 5.88333 17.5 5.4 15 5.4C13.5667 5.4 12.3667 5.53333 11.4 5.8C10.4667 6.03333 9.7 6.38333 9.1 6.85C8.53333 7.28333 8.11667 7.8 7.85 8.4C7.61667 8.96667 7.5 9.56667 7.5 10.2C7.5 11.7667 7.91667 12.9333 8.75 13.7C9.61667 14.4667 11.1167 15.0667 13.25 15.5L18.2 16.45C21.9667 17.15 24.7333 18.35 26.5 20.05C28.2667 21.7167 29.15 24.1333 29.15 27.3C29.15 28.8 28.8667 30.2 28.3 31.5C27.7667 32.7667 26.9333 33.8833 25.8 34.85C24.6667 35.7833 23.25 36.5167 21.55 37.05C19.8833 37.6167 17.9333 37.9 15.7 37.9C11.1333 37.9 7.55 36.95 4.95 35.05C2.35 33.1167 0.916667 30.1333 0.65 26.1H6.75ZM42.6641 22.15L30.2641 1.3L37.0141 1.3L45.6141 16.8L54.4141 1.3H60.8141L48.6641 22.15V37H42.6641V22.15ZM67.9805 26.1C68.2471 28.4333 69.0805 30.1333 70.4805 31.2C71.9138 32.2667 74.0305 32.8 76.8305 32.8C78.1971 32.8 79.3471 32.65 80.2805 32.35C81.2138 32.05 81.9638 31.65 82.5305 31.15C83.0971 30.65 83.4971 30.0667 83.7305 29.4C83.9638 28.7 84.0805 27.9667 84.0805 27.2C84.0805 26.6333 83.9971 26.0833 83.8305 25.55C83.6638 24.9833 83.3638 24.4667 82.9305 24C82.4971 23.5333 81.9138 23.1333 81.1805 22.8C80.4471 22.4333 79.5138 22.15 78.3805 21.95L73.8305 21.1C72.0305 20.7667 70.4305 20.35 69.0305 19.85C67.6305 19.35 66.4471 18.7 65.4805 17.9C64.5471 17.0667 63.8305 16.0667 63.3305 14.9C62.8638 13.7 62.6305 12.25 62.6305 10.55C62.6305 8.85 62.9638 7.36666 63.6305 6.1C64.3305 4.83333 65.2805 3.78333 66.4805 2.95C67.6805 2.08333 69.0971 1.45 70.7305 1.05C72.3971 0.616664 74.1971 0.399997 76.1305 0.399997C78.5971 0.399997 80.6638 0.683331 82.3305 1.25C83.9971 1.81667 85.3471 2.56667 86.3805 3.5C87.4138 4.4 88.1971 5.45 88.7305 6.65C89.2638 7.85 89.6305 9.1 89.8305 10.4L84.1305 11.3C83.6638 9.3 82.8471 7.81667 81.6805 6.85C80.5471 5.88333 78.7305 5.4 76.2305 5.4C74.7971 5.4 73.5971 5.53333 72.6305 5.8C71.6971 6.03333 70.9305 6.38333 70.3305 6.85C69.7638 7.28333 69.3471 7.8 69.0805 8.4C68.8471 8.96667 68.7305 9.56667 68.7305 10.2C68.7305 11.7667 69.1471 12.9333 69.9805 13.7C70.8471 14.4667 72.3471 15.0667 74.4805 15.5L79.4305 16.45C83.1971 17.15 85.9638 18.35 87.7305 20.05C89.4971 21.7167 90.3805 24.1333 90.3805 27.3C90.3805 28.8 90.0971 30.2 89.5305 31.5C88.9971 32.7667 88.1638 33.8833 87.0305 34.85C85.8971 35.7833 84.4805 36.5167 82.7805 37.05C81.1138 37.6167 79.1638 37.9 76.9305 37.9C72.3638 37.9 68.7805 36.95 66.1805 35.05C63.5805 33.1167 62.1471 30.1333 61.8805 26.1H67.9805ZM104.121 6.55H92.8211V1.3L121.421 1.3V6.55H110.171V37H104.121V6.55ZM126.189 1.3H149.939V6.5H132.239V16H148.939V21.25H132.239V31.8H150.889L150.189 37L126.189 37V1.3ZM156.657 1.3L164.007 1.3L174.157 29.7L184.607 1.3H191.707V37H186.157V11.05L176.357 37H171.557L162.107 11.1V37H156.657V1.3Z" fill="#EEEEEE"/>
</svg>
