<svg width="37" height="37" viewBox="0 0 37 37" fill="none" xmlns="http://www.w3.org/2000/svg">
<path d="M18.5046 0H18.4954C8.29494 0 0 8.29725 0 18.5C0 22.5469 1.30425 26.2978 3.52194 29.3433L1.21638 36.2161L8.32731 33.9429C11.2526 35.8808 14.7422 37 18.5046 37C28.7051 37 37 28.7004 37 18.5C37 8.29956 28.7051 0 18.5046 0Z" fill="black"/>
<path d="M29.2678 26.1248C28.8215 27.3851 27.0501 28.4303 25.6372 28.7356C24.6706 28.9414 23.4079 29.1056 19.1576 27.3435C13.7209 25.0911 10.2197 19.5665 9.94687 19.2081C9.68556 18.8497 7.75 16.2828 7.75 13.628C7.75 10.9733 9.09819 9.6806 9.64162 9.1256C10.0879 8.67004 10.8256 8.46191 11.5332 8.46191C11.7622 8.46191 11.968 8.47348 12.153 8.48273C12.6964 8.50585 12.9693 8.53823 13.3277 9.39616C13.7741 10.4715 14.8609 13.1262 14.9904 13.3991C15.1222 13.672 15.2541 14.042 15.0691 14.4004C14.8956 14.7704 14.743 14.9346 14.4701 15.2491C14.1972 15.5636 13.9382 15.8041 13.6654 16.1417C13.4156 16.4354 13.1335 16.7499 13.448 17.2934C13.7625 17.8252 14.8494 19.5989 16.4496 21.0234C18.5147 22.8618 20.1889 23.4492 20.7879 23.699C21.2342 23.884 21.7661 23.84 22.0921 23.4932C22.5061 23.0468 23.0171 22.3068 23.5374 21.5784C23.9074 21.0558 24.3746 20.991 24.8648 21.176C25.3643 21.3495 28.0075 22.656 28.5509 22.9266C29.0944 23.1995 29.4528 23.329 29.5846 23.5579C29.7141 23.7868 29.7141 24.8622 29.2678 26.1248Z" fill="#F2F2F2"/>
</svg>
