<svg width="56" height="40" viewBox="0 0 56 40" fill="none" xmlns="http://www.w3.org/2000/svg">
<path d="M55.0323 6.73977C54.3467 3.76159 51.9108 1.56436 48.9782 1.2366C42.034 0.461415 35.0053 0.457369 28.009 0.461415C21.0115 0.457369 13.9816 0.461415 7.03736 1.2366C4.10657 1.56436 1.67234 3.76159 0.986756 6.73977C0.0109833 10.981 0 15.6108 0 19.9774C0 24.3441 0 28.9733 0.975773 33.214C1.6602 36.1916 4.09501 38.3888 7.02753 38.7171C13.9712 39.4929 21.0005 39.497 27.998 39.4929C34.9966 39.497 42.0241 39.4929 48.9673 38.7171C51.8981 38.3894 54.3346 36.1922 55.0202 33.214C55.9965 28.9727 56 24.3436 56 19.9774C56 15.6108 56.0081 10.981 55.0323 6.73977ZM20.7733 28.6692C20.7733 22.4747 20.7733 16.3449 20.7733 10.1498C26.7083 13.2465 32.604 16.3223 38.5766 19.4381C32.6225 22.5261 26.7239 25.5835 20.7733 28.6692Z" fill="#B0B0B0"/>
</svg>
